<svg id="Layer_1" data-name="Layer 1" xmlns="http://www.w3.org/2000/svg" xmlns:xlink="http://www.w3.org/1999/xlink" viewBox="0 0 55 55"><defs><clipPath id="clip-path"><rect x="-1013.53" y="-205.12" width="1340" height="157.71" fill="none"/></clipPath></defs><title>icono-cuentas</title><g clip-path="url(#clip-path)"><image width="5451" height="3789" transform="translate(-1014.18 -575.89) scale(0.25)" xlink:href="iStock-614152010 copy.jpg"/></g><rect x="-21.56" y="-11.01" width="289" height="77" rx="3" ry="3" fill="none" stroke="#a9a9a9" stroke-miterlimit="10" stroke-width="0.5"/><path d="M48,12.46H7a3.26,3.26,0,0,0-3.25,3.25V39.29A3.26,3.26,0,0,0,7,42.54H48a3.26,3.26,0,0,0,3.25-3.25V15.71A3.26,3.26,0,0,0,48,12.46Zm.75,19a8.23,8.23,0,0,0-8.2,8.21c0,.13,0,.25,0,.38H15.1c0-.09,0-.18,0-.27a8.21,8.21,0,0,0-8.21-8.2c-.21,0-.42,0-.63,0V23.43c.17,0,.34,0,.52,0a8.21,8.21,0,0,0,8.2-8.2c0-.1,0-.2,0-.3H40.41c0,.06,0,.12,0,.18a8.22,8.22,0,0,0,8.21,8.21h.11Zm0-15.74v5.13h-.11a5.71,5.71,0,0,1-5.71-5.71c0-.06,0-.12,0-.18H48A.76.76,0,0,1,48.72,15.71ZM7,15h5.45c0,.1,0,.2,0,.3A5.71,5.71,0,0,1,6.8,21c-.18,0-.35,0-.52,0V15.71A.76.76,0,0,1,7,15ZM6.28,39.29V34.11c.21,0,.42,0,.63,0a5.71,5.71,0,0,1,5.71,5.7c0,.09,0,.18,0,.27H7A.76.76,0,0,1,6.28,39.29ZM48,40H43.05c0-.13,0-.25,0-.38A5.72,5.72,0,0,1,48.72,34v5.34A.76.76,0,0,1,48,40Z" fill="#cc2b3b"/><path d="M28.85,26.54V23.67a1.62,1.62,0,0,1,1.39,1.51h2.29C32.34,23.11,31,22,28.85,21.83V20.39H27.71v1.43C25.42,22,24,23.34,24,25.18c0,2.11,1.22,3,3.76,3.44v3.09A1.84,1.84,0,0,1,26,29.84H23.63c.13,2,1.31,3.53,4.08,3.72v2h1.14v-2c2.53-.17,3.87-1.71,3.87-3.63C32.72,27.71,31.25,26.91,28.85,26.54Zm-1.14-.19c-1.18-.24-1.45-.64-1.45-1.38s.51-1.2,1.45-1.33Zm1.14,5.36V28.8c1.18.25,1.5.64,1.5,1.4A1.57,1.57,0,0,1,28.85,31.71Z" fill="#cc2b3b"/></svg>