<svg id="Layer_1" data-name="Layer 1" xmlns="http://www.w3.org/2000/svg" xmlns:xlink="http://www.w3.org/1999/xlink" viewBox="0 0 65 55"><defs><clipPath id="clip-path"><rect x="-384.55" y="-205.12" width="1340" height="157.71" fill="none"/></clipPath></defs><title>icono-hipotecario</title><g clip-path="url(#clip-path)"><image width="5451" height="3789" transform="translate(-385.2 -575.89) scale(0.25)" xlink:href="iStock-614152010 copy.jpg"/></g><rect x="-11.59" y="-11.01" width="289" height="77" rx="3" ry="3" fill="none" stroke="#a9a9a9" stroke-miterlimit="10" stroke-width="0.5"/><path d="M54.29,22.82l-21-16.36a1.26,1.26,0,0,0-1.54,0l-7.31,5.7v-.49a1.25,1.25,0,0,0-1.25-1.25H19.91a1.25,1.25,0,0,0-1.25,1.25v5L10.6,22.9a1.23,1.23,0,0,0-.42,1.39,1.25,1.25,0,0,0,1.18.85h3.3V47.55a1.25,1.25,0,0,0,1.25,1.25H29.58a1.25,1.25,0,0,0,1.25-1.25V36.3h3.33V47.55a1.25,1.25,0,0,0,1.25,1.25H49.13a1.25,1.25,0,0,0,1.25-1.25V25.14h3.26a1.25,1.25,0,0,0,.65-2.32Zm-5.16-.18a1.25,1.25,0,0,0-1.25,1.25V46.3H36.66V35.05a1.25,1.25,0,0,0-1.25-1.25H29.58a1.25,1.25,0,0,0-1.25,1.25V46.3H17.16V23.89a1.25,1.25,0,0,0-1.25-1.25H15l5.66-4.37a1.27,1.27,0,0,0,.48-1V12.92h.78v1.8a1.25,1.25,0,0,0,2,1L32.52,9,50,22.64Z" fill="#cc2b3b"/></svg>