<svg id="Layer_1" data-name="Layer 1" xmlns="http://www.w3.org/2000/svg" xmlns:xlink="http://www.w3.org/1999/xlink" viewBox="0 0 65 55"><defs><clipPath id="clip-path"><rect x="-704.7" y="-313.11" width="1340" height="157.71" fill="none"/></clipPath></defs><title>icono-pymes</title><g clip-path="url(#clip-path)"><image width="5451" height="3789" transform="translate(-705.35 -683.89) scale(0.25)" xlink:href="iStock-614152010 copy.jpg"/></g><rect x="-23.74" y="-8.86" width="289" height="77" rx="3" ry="3" fill="none" stroke="#a9a9a9" stroke-miterlimit="10" stroke-width="0.5"/><rect x="18.8" y="16.4" width="14.88" height="1.93" fill="#cc2b3b"/><rect x="18.8" y="21.33" width="14.88" height="1.93" fill="#cc2b3b"/><rect x="18.8" y="26.14" width="8.4" height="1.93" fill="#cc2b3b"/><path d="M44.68,20.76V18.58a1.23,1.23,0,0,1,1.06,1.15h1.75a2.69,2.69,0,0,0-2.81-2.55v-1.1h-.86v1.08c-1.75.13-2.87,1.16-2.87,2.57,0,1.61.93,2.32,2.87,2.62V24.7a1.4,1.4,0,0,1-1.31-1.42H40.7c.1,1.53,1,2.69,3.12,2.84v1.53h.86V26.12c1.93-.13,3-1.31,3-2.77C47.63,21.65,46.51,21,44.68,20.76Zm-.86-.14c-.91-.19-1.11-.49-1.11-1.05s.39-.92,1.11-1Zm.86,4.08V22.48c.9.2,1.15.49,1.15,1.08S45.39,24.58,44.68,24.7Z" fill="#cc2b3b"/><path d="M53.63,5.48H11.37A4.68,4.68,0,0,0,6.7,10.15V36.57a4.68,4.68,0,0,0,4.67,4.67H22.22v3.5L20.6,46.05c-1.89,1.25-2,2-1.76,2.52s.54,1,2.12,1c.23,0,.48,0,.77,0h21.2c2.24.19,2.72-.43,2.89-.91s.13-1.27-1.76-2.52l-1.62-1.31v-3.5H53.63a4.68,4.68,0,0,0,4.67-4.67V10.15A4.68,4.68,0,0,0,53.63,5.48ZM42.86,47.55H21.8l2.35-1.89V41.24H40.51v4.42Zm13.51-11a2.74,2.74,0,0,1-2.74,2.74H11.37a2.74,2.74,0,0,1-2.74-2.74V10.15a2.74,2.74,0,0,1,2.74-2.74H53.63a2.74,2.74,0,0,1,2.74,2.74Z" fill="#cc2b3b"/><path d="M10.56,34.06H54.34V9.45H10.56Zm1.92-22.69H52.41V32.14H12.48Z" fill="#cc2b3b"/></svg>