<svg id="Layer_1" data-name="Layer 1" xmlns="http://www.w3.org/2000/svg" xmlns:xlink="http://www.w3.org/1999/xlink" viewBox="0 0 65 55"><defs><clipPath id="clip-path"><rect x="-84.43" y="-313.11" width="1340" height="157.71" fill="none"/></clipPath></defs><title>icono-viajero</title><g clip-path="url(#clip-path)"><image width="5451" height="3789" transform="translate(-85.08 -683.89) scale(0.25)" xlink:href="iStock-614152010 copy.jpg"/></g><rect x="-22.43" y="-8.86" width="289" height="77" rx="3" ry="3" fill="none" stroke="#a9a9a9" stroke-miterlimit="10" stroke-width="0.5"/><path d="M31.7,50.45a1.29,1.29,0,0,0,.89-.72l8.89-16.29h9.46c4.79,0,8-3.78,8-5.31a4.61,4.61,0,0,0-1.5-2.63,9.18,9.18,0,0,0-6.46-2.67H41.39L32.55,5.26a1.27,1.27,0,0,0-.89-.72l-5-1.12a1.28,1.28,0,0,0-1.15.32,1.26,1.26,0,0,0-.39,1.12l2.44,18-10.29.7-3.74-7.81a1.29,1.29,0,0,0-1.06-.73L8,14.72a1.29,1.29,0,0,0-1,.42,1.27,1.27,0,0,0-.31,1.07l1.47,8.61a4.26,4.26,0,0,0-2,3.3,4.26,4.26,0,0,0,2,3.32L6.6,40.24a1.27,1.27,0,0,0,.31,1.07,1.26,1.26,0,0,0,1,.42l4.54-.34a1.27,1.27,0,0,0,1.06-.73l3.81-8,10.25.7L25.18,50.13a1.23,1.23,0,0,0,0,.19,1.3,1.3,0,0,0,1.28,1.29C26.6,51.61,31.7,50.45,31.7,50.45ZM30.35,32.34a1.29,1.29,0,0,0-.28-1,1.26,1.26,0,0,0-.92-.47l-12.51-.82a1.29,1.29,0,0,0-1.23.73l-3.85,8.11-2.16.16,1.4-8.17a1.29,1.29,0,0,0-1-1.46,1.31,1.31,0,0,1,0-2.58,1.29,1.29,0,0,0,1-1.25,1.48,1.48,0,0,0,0-.21l-1.37-8,2.16.16,3.79,7.92a1.28,1.28,0,0,0,1.22.72l12.55-.82a1.28,1.28,0,0,0,.92-.47,1.25,1.25,0,0,0,.27-1L28,6.33l2.53.56,8.91,17.72a1.31,1.31,0,0,0,1.17.76H51c3,0,5.32,1.86,5.32,2.74s-2.36,2.75-5.33,2.75l-10.29,0a1.27,1.27,0,0,0-1.16.75l-9,16.45L28,48.66Z" fill="#cc2b3b"/></svg>