<svg id="Layer_1" data-name="Layer 1" xmlns="http://www.w3.org/2000/svg" xmlns:xlink="http://www.w3.org/1999/xlink" viewBox="0 0 65 55"><defs><clipPath id="clip-path"><rect x="-704.7" y="-205.12" width="1340" height="157.71" fill="none"/></clipPath></defs><title>icono-personales</title><g clip-path="url(#clip-path)"><image width="5451" height="3789" transform="translate(-705.35 -575.89) scale(0.25)" xlink:href="iStock-614152010 copy.jpg"/></g><rect x="-23.74" y="-11.01" width="289" height="77" rx="3" ry="3" fill="none" stroke="#a9a9a9" stroke-miterlimit="10" stroke-width="0.5"/><path d="M63.46,26.37a5,5,0,0,0-5-5h-3.1l-9-11.4H21.48L13,21.19l-6.58.61a5,5,0,0,0-5,5v6.92a5,5,0,0,0,5,5H8.3a7.26,7.26,0,0,0,14.4,0H42.3a7.26,7.26,0,0,0,14.4,0h1.86a5,5,0,0,0,5-5Zm-48,16.72a5.33,5.33,0,1,1,5.32-5.32A5.32,5.32,0,0,1,15.5,43.09Zm34,0a5.33,5.33,0,1,1,5.32-5.32A5.32,5.32,0,0,1,49.5,43.09Zm9.06-6.3H56.7a7.26,7.26,0,0,0-14.4,0H22.7a7.26,7.26,0,0,0-14.4,0H6.44a3.06,3.06,0,0,1-3.05-3.06V29.51h.95a1.22,1.22,0,0,1,1.22,1.22v.74h2v-.74a3.19,3.19,0,0,0-3.18-3.18H3.39v-.74a3.06,3.06,0,0,1,3.05-3.06L14,23.06l8.44-11.15H45.39l9,11.41h4.05a3.06,3.06,0,0,1,3,3.07l.11,7.34A3.06,3.06,0,0,1,58.56,36.79Z" fill="#cc2b3b"/><path d="M15.5,34.29A3.48,3.48,0,1,0,19,37.77,3.48,3.48,0,0,0,15.5,34.29Zm0,5A1.53,1.53,0,1,1,17,37.77,1.53,1.53,0,0,1,15.5,39.29Z" fill="#cc2b3b"/><path d="M49.5,34.29A3.48,3.48,0,1,0,53,37.77,3.48,3.48,0,0,0,49.5,34.29Zm0,5A1.53,1.53,0,1,1,51,37.77,1.53,1.53,0,0,1,49.5,39.29Z" fill="#cc2b3b"/><path d="M18.81,20.72v3.36H33.37V14H23.75Zm12.6-4.79v6.19H20.77v-.76l4-5.43Z" fill="#cc2b3b"/><path d="M34.46,14v10.1H49V20.72L44.09,14Zm12.61,8.14H36.42V15.93h6.67l4,5.43Z" fill="#cc2b3b"/><rect x="30.44" y="25.38" width="2.93" height="1.96" fill="#cc2b3b"/></svg>