<svg id="Layer_1" data-name="Layer 1" xmlns="http://www.w3.org/2000/svg" xmlns:xlink="http://www.w3.org/1999/xlink" viewBox="0 0 65 55"><defs><clipPath id="clip-path"><rect x="-384.55" y="-313.11" width="1340" height="157.71" fill="none"/></clipPath></defs><title>icono-pensiones</title><g clip-path="url(#clip-path)"><image width="5451" height="3789" transform="translate(-385.2 -683.89) scale(0.25)" xlink:href="iStock-614152010 copy.jpg"/></g><rect x="-11.59" y="-8.86" width="289" height="77" rx="3" ry="3" fill="none" stroke="#a9a9a9" stroke-miterlimit="10" stroke-width="0.5"/><path d="M48.1,14.67a6,6,0,1,0-10.56-3.92,1.32,1.32,0,1,1-2.63,0,8.65,8.65,0,1,1,15.18,5.63,1.32,1.32,0,1,1-2-1.72ZM56,31.26a3.71,3.71,0,0,1-3.37,4.05,16.29,16.29,0,0,1-3.89,7l-2.55,8.38a3.09,3.09,0,0,1-3,2.21h-2.6a3.14,3.14,0,0,1-3-2.25l-.67-2.29a22.39,22.39,0,0,1-6.64,0l-.67,2.29a3.14,3.14,0,0,1-3,2.24H24a3.09,3.09,0,0,1-3-2.21l-1.89-6.17a33.46,33.46,0,0,1-8.44-5.41A5,5,0,0,1,9,35.38v-5.1a4,4,0,0,1,4-4h1.09a15.45,15.45,0,0,0,2.38-3l.15-.23a5.15,5.15,0,0,0-1.37-2.3,2.83,2.83,0,0,1-.62-3,2.9,2.9,0,0,1,2.52-1.9,10.86,10.86,0,0,1,6.05,1.15,21.42,21.42,0,0,1,10.39-2.63c9.16,0,17.13,5.73,19,13.49A3.76,3.76,0,0,1,56,31.26Zm-2.63.25a1.15,1.15,0,0,0-1.16-1h-.63a1.3,1.3,0,0,1-1.29-1.09c-1.2-7-8.36-12.37-16.67-12.37a18.81,18.81,0,0,0-9.49,2.53,1.79,1.79,0,0,1-1.79,0,8.1,8.1,0,0,0-4.93-1.05.28.28,0,0,0-.26.19.24.24,0,0,0,0,.23,7.25,7.25,0,0,1,2.2,4.27,1.3,1.3,0,0,1-.22.9l-.38.58a18.32,18.32,0,0,1-3.21,3.87,1.31,1.31,0,0,1-.88.34H13a1.34,1.34,0,0,0-1.33,1.33v5.11a2.41,2.41,0,0,0,.8,1.79,31.11,31.11,0,0,0,7.92,5,2.24,2.24,0,0,1,1.21,1.38L23.55,50a.49.49,0,0,0,.47.35h2.6a.52.52,0,0,0,.46-.35L28,46.79a1.61,1.61,0,0,1,1.84-1.12,20,20,0,0,0,7.48,0l.31,0a1.6,1.6,0,0,1,1.54,1.14l.92,3.16a.53.53,0,0,0,.47.35h2.59a.47.47,0,0,0,.47-.34l2.55-8.48a2,2,0,0,1,.53-.87,13.67,13.67,0,0,0,3.51-6.84,1.31,1.31,0,0,1,1.29-1.09h.74a1.08,1.08,0,0,0,.8-.35,1.09,1.09,0,0,0,.28-.81Zm-19.84-1h0c-2.72-.62-2.72-1.77-2.72-2.14a2.2,2.2,0,0,1,2.43-2.11,2.43,2.43,0,0,1,2,1.12,1.32,1.32,0,1,0,2.21-1.43,5.07,5.07,0,0,0-2.94-2.15v-1a1.32,1.32,0,1,0-2.63,0v1a4.68,4.68,0,0,0-3.74,4.6c0,1.34.62,3.74,4.73,4.7h0c2.72.62,2.72,1.77,2.72,2.15a2.2,2.2,0,0,1-2.43,2.1,2.43,2.43,0,0,1-2.24-1.46,1.32,1.32,0,0,0-2.43,1,5.06,5.06,0,0,0,3.36,2.92v1a1.32,1.32,0,1,0,2.63,0v-1a4.69,4.69,0,0,0,3.74-4.59C38.2,33.86,37.59,31.46,33.48,30.5Z" fill="#cc2b3b"/></svg>