<svg id="Layer_1" data-name="Layer 1" xmlns="http://www.w3.org/2000/svg" xmlns:xlink="http://www.w3.org/1999/xlink" viewBox="0 0 55 55"><defs><clipPath id="clip-path"><rect x="-1013.53" y="-319.11" width="1340" height="157.71" fill="none"/></clipPath></defs><title>icono-corporativo</title><g clip-path="url(#clip-path)"><image width="5451" height="3789" transform="translate(-1014.18 -689.88) scale(0.25)" xlink:href="iStock-614152010 copy.jpg"/></g><rect x="-21.56" y="-14.86" width="289" height="77" rx="3" ry="3" fill="none" stroke="#a9a9a9" stroke-miterlimit="10" stroke-width="0.5"/><path d="M44.5,49.89V6A3.26,3.26,0,0,0,41.25,2.7H13.75A3.26,3.26,0,0,0,10.5,6V49.89h-4V52.3h42V49.89Zm-2.81,0H13V6a.76.76,0,0,1,.75-.75h27.5A.76.76,0,0,1,42,6V49.89Z" fill="#cc2b3b"/><path d="M18.7,19.2h7.43V10.58H18.7Zm1.66-6.95h4.1v5.29h-4.1Z" fill="#cc2b3b"/><path d="M28.7,19.2h7.43V10.58H28.7Zm1.67-6.95h4.09v5.29H30.37Z" fill="#cc2b3b"/><path d="M18.7,30.54h7.43V21.91H18.7Zm1.66-7h4.1v5.29h-4.1Z" fill="#cc2b3b"/><path d="M28.7,30.54h7.43V21.91H28.7Zm1.67-7h4.09v5.29H30.37Z" fill="#cc2b3b"/><path d="M28.7,42h7.43V33.4H28.7Zm1.67-7h4.09v5.29H30.37Z" fill="#cc2b3b"/><path d="M18.7,42h7.43V33.4H18.7Zm1.66-7h4.1v5.29h-4.1Z" fill="#cc2b3b"/></svg>