<?xml version="1.0" encoding="utf-8"?>
<!-- Generator: Adobe Illustrator 19.1.0, SVG Export Plug-In . SVG Version: 6.00 Build 0)  -->
<svg version="1.1" id="Layer_1" xmlns="http://www.w3.org/2000/svg" xmlns:xlink="http://www.w3.org/1999/xlink" x="0px" y="0px"
	 width="40px" height="40px" viewBox="0 0 40 40" enable-background="new 0 0 40 40" xml:space="preserve">
<g>
	<g>
		<path d="M20,37.7c-9.9,0-17.9-8-17.9-17.9S10.1,1.9,20,1.9s17.9,8,17.9,17.9S29.9,37.7,20,37.7z M20,5.5
			c-7.9,0-14.3,6.4-14.3,14.3S12.1,34.1,20,34.1s14.3-6.4,14.3-14.3S27.9,5.5,20,5.5z"/>
	</g>
	<g>
		<g>
			<path d="M26.1,27.7c-0.5,0-0.9-0.2-1.3-0.5L12.7,15c-0.7-0.7-0.7-1.8,0-2.5c0.7-0.7,1.8-0.7,2.5,0l12.2,12.2
				c0.7,0.7,0.7,1.8,0,2.5C27,27.5,26.5,27.7,26.1,27.7z"/>
		</g>
		<g>
			<path d="M13.9,27.7c-0.5,0-0.9-0.2-1.3-0.5c-0.7-0.7-0.7-1.8,0-2.5l12.2-12.2c0.7-0.7,1.8-0.7,2.5,0c0.7,0.7,0.7,1.8,0,2.5
				L15.2,27.1C14.8,27.5,14.4,27.7,13.9,27.7z"/>
		</g>
	</g>
</g>
</svg>
