<?xml version="1.0" encoding="utf-8"?>
<!-- Generator: Adobe Illustrator 19.1.0, SVG Export Plug-In . SVG Version: 6.00 Build 0)  -->
<svg version="1.1" id="Layer_1" xmlns="http://www.w3.org/2000/svg" xmlns:xlink="http://www.w3.org/1999/xlink" x="0px" y="0px"
	 width="40px" height="40px" viewBox="0 0 40 40" enable-background="new 0 0 40 40" xml:space="preserve">
<g>
	<path d="M5,9.5c-2.7,0-4,1.3-4,3.9v19.2c0,2.6,1.3,3.9,4,3.9H35c2.7,0,4-1.3,4-3.9V13.3c0-2.6-1.3-3.9-4-3.9L5,9.5L5,9.5z"/>
	<path d="M12.3,5.1L12.3,5.1c-1,1-1.5,2.2-1.5,3.6v0c0,1.4,0.5,2.6,1.5,3.6c1,1,2.2,1.5,3.6,1.5h8.4c1.4,0,2.6-0.5,3.6-1.5
		c0,0,0,0,0,0c1-1,1.5-2.2,1.5-3.6v0c0-1.4-0.5-2.6-1.5-3.6c-1-1-2.2-1.5-3.6-1.5h-8.4C14.5,3.6,13.3,4.1,12.3,5.1L12.3,5.1z
		 M14.4,7.3C14.5,7.3,14.5,7.3,14.4,7.3c0.4-0.4,0.9-0.6,1.4-0.6h8.4c0.5,0,1,0.2,1.4,0.6c0.4,0.4,0.6,0.9,0.6,1.4v0
		c0,0.5-0.2,1-0.6,1.4l0,0c-0.4,0.4-0.9,0.6-1.4,0.6h-8.4c-0.6,0-1-0.2-1.4-0.6c-0.4-0.4-0.6-0.9-0.6-1.4v0
		C13.9,8.2,14.1,7.7,14.4,7.3L14.4,7.3z"/>
</g>
</svg>
