<?xml version="1.0" encoding="utf-8"?>
<!-- Generator: Adobe Illustrator 19.1.0, SVG Export Plug-In . SVG Version: 6.00 Build 0)  -->
<svg version="1.1" id="Layer_1" xmlns="http://www.w3.org/2000/svg" xmlns:xlink="http://www.w3.org/1999/xlink" x="0px" y="0px"
	 width="40px" height="40px" viewBox="0 0 40 40" enable-background="new 0 0 40 40" xml:space="preserve">
<circle cx="20" cy="10.8" r="7.9"/>
<path d="M7.1,38.2c-0.8,0-1.5-0.6-1.5-1.5v-0.1c0-0.4-0.1-0.7-0.1-0.9c0-0.2-0.1-0.5-0.1-0.8c0-8.1,6.6-15,14.4-15
	c8,0,14.4,6.6,14.4,14.8c0,0.2,0,0.7-0.1,1.1c0,0.2-0.1,0.5-0.1,1l0,0c-0.1,0.8-0.7,1.5-1.5,1.5L7.1,38.2L7.1,38.2z"/>
</svg>
