<?xml version="1.0" encoding="utf-8"?>
<!-- Generator: Adobe Illustrator 19.1.0, SVG Export Plug-In . SVG Version: 6.00 Build 0)  -->
<svg version="1.1" id="Layer_1" xmlns="http://www.w3.org/2000/svg" xmlns:xlink="http://www.w3.org/1999/xlink" x="0px" y="0px"
	 width="40px" height="40px" viewBox="0 0 40 40" enable-background="new 0 0 40 40" xml:space="preserve">
<g>
	<path d="M32,21.7c1.8-1.3,2.9-3.3,2.9-5.6c0-3.8-3.1-6.9-6.8-6.9c-3.8,0-6.8,3.1-6.8,6.9c0,2.3,1.1,4.3,2.9,5.6
		c-1.6,0.6-3,1.6-4.1,2.8c-1.1-1.2-2.5-2.2-4.1-2.8c1.8-1.3,2.9-3.3,2.9-5.6c0-3.8-3.1-6.9-6.8-6.9c-3.8,0-6.8,3.1-6.8,6.9
		c0,2.3,1.1,4.3,2.9,5.6c-4.3,1.6-7.2,5.8-7.2,10.4c0,0.3,0.2,0.5,0.5,0.5h13.8c0.3,0,0.5-0.2,0.5-0.5c0-0.3-0.2-0.5-0.5-0.5H1.8
		C2,27.2,5,23.4,9.2,22.2c0.2-0.1,0.3-0.2,0.3-0.4c0-0.2-0.1-0.4-0.3-0.5c-2-1-3.3-3-3.3-5.3c0-3.3,2.7-5.9,5.9-5.9
		c3.3,0,5.9,2.7,5.9,5.9c0,2.3-1.3,4.3-3.3,5.3c-0.2,0.1-0.3,0.3-0.3,0.5c0,0.2,0.2,0.3,0.3,0.4c1.9,0.5,3.5,1.5,4.8,2.9
		c-1.5,1.9-2.4,4.3-2.4,6.9c0,0.3,0.2,0.5,0.5,0.5h21.3c0.3,0,0.5-0.2,0.5-0.5C39.2,27.4,36.3,23.3,32,21.7z"/>
</g>
</svg>
