<?xml version="1.0" encoding="utf-8"?>
<!-- Generator: Adobe Illustrator 21.0.0, SVG Export Plug-In . SVG Version: 6.00 Build 0)  -->
<svg version="1.1" id="Layer_1" xmlns="http://www.w3.org/2000/svg" xmlns:xlink="http://www.w3.org/1999/xlink" x="0px" y="0px"
	 viewBox="0 0 59 62" style="enable-background:new 0 0 59 62;" xml:space="preserve">
<style type="text/css">
	.st0{fill:#E0002B;}
</style>
<title>cr-icono-viajes</title>
<desc>Created with Sketch.</desc>
<g id="Page-1">
	<g id="Tarjetas-Cashback" transform="translate(-49.000000, -417.000000)">
		<path id="cr-icono-viajes" class="st0" d="M100.9,422.3c-1.7-1-4.3,1.7-4.3,1.7s4.6-2.6,5.1,2.8
			C101.7,426.9,102.6,423.3,100.9,422.3z M106.5,476.4l-0.1-6.1l0-0.2c-0.1-0.3-0.2-0.5-0.3-0.8l-1.3-3.2l2.5-4.4
			c1-1.7,0.4-3.9-1.3-4.9c-1.5-0.9-3.4-0.5-4.5,0.8l-0.5-1.2l2.4-4.2c1-1.7,0.4-3.9-1.3-4.9c-1.5-0.8-3.3-0.5-4.4,0.7l-1.8-4.6
			l8.9-14.9c2.1-3.6,1.5-8.7-1.3-10.3l-0.3-0.2c-2.5-1.5-7.3,0-9.6,4l-8.4,15.1l-4.9,0.7c0.5-1.6-0.2-3.3-1.6-4.1
			c-1.7-1-3.9-0.4-4.9,1.3l-2.4,4.2l-1.3,0.2c0.6-1.6,0-3.5-1.6-4.3c-1.7-1-3.9-0.4-4.9,1.3l-2.5,4.4l-3.4,0.5c-0.3,0-0.6,0-0.8,0.1
			l-5.5,3.1c-0.8,0.3-1.3,1-1.4,1.9c-0.1,0.9,0.4,1.7,1.1,2.2l0.2,0.1l25.8,3.1l-4.2,7.5c0,0-0.2,0.4-0.5,1l-8.3,1
			c-1,0.1-1.8,0.8-1.9,1.8c-0.2,1,0.2,1.9,1.1,2.4l6.3,3.7c-0.3,2.1-0.2,4,1,4.7l0.4,0.2c1.1,0.7,2.9-0.1,4.7-1.4l6.8,3.9
			c0.8,0.5,1.9,0.4,2.6-0.3c0.7-0.6,1-1.7,0.6-2.6l-3.3-7.7c0.3-0.4,0.6-0.7,0.6-0.9l4.4-7.4l15.6,20.8l0.2,0.1
			c0.8,0.4,1.7,0.4,2.5-0.1C106.2,478.1,106.6,477.3,106.5,476.4z M75.9,436.4c0.3-0.5,0.9-0.7,1.4-0.4c0.5,0.3,0.7,0.9,0.4,1.4
			l-0.6,1l-2.6,0.4L75.9,436.4z M65.7,437.8c0.3-0.5,0.9-0.7,1.4-0.4c0.5,0.3,0.7,0.9,0.4,1.4l-0.7,1.2l-2.6,0.4L65.7,437.8z
			 M58.5,447.1l-5.4-0.6l4.5-2.5l0.1,0l25.9-3.9l-2.6,4.7l-21.5,0.6L58.5,447.1z M59.2,447.1l0.7-1.1l20.8-0.6l-2.2,4L59.2,447.1z
			 M65.2,463.7l6.1-0.7c-0.4,1.1-0.8,2.3-1.2,3.6L65.2,463.7z M80.7,463.8c-0.8,1.4-3.6,4.4-5.9,6.3l4.1-7.1
			c0.3-0.6,0.1-1.4-0.5-1.7c-0.6-0.4-1.4-0.1-1.7,0.5l-4.7,8.2c0.5-2.8,2.2-7.7,3.1-9.3l20.7-37.2c1.7-2.9,5-3.7,6.2-3.1l0.3,0.2
			c1.2,0.7,1.9,4.1,0.4,6.8L80.7,463.8z M82.9,474l-5.3-3c1-0.9,2-1.9,2.8-2.8L82.9,474z M103.3,459.5c0.3-0.5,0.9-0.7,1.4-0.4
			c0.5,0.3,0.7,0.9,0.4,1.4l-1.5,2.6l-1-2.5L103.3,459.5z M99.4,450c0.3-0.5,0.9-0.7,1.4-0.4c0.5,0.3,0.7,0.9,0.4,1.4l-1.4,2.4
			l-1-2.5L99.4,450z M100.4,471.1l-11.7-15.7l2.4-4.1l10,18.5L100.4,471.1z M100.9,471.6l1-1.8l-10.3-19.2l2.7-4.5l9.6,24.4l0,0.1
			l0.1,5.1L100.9,471.6L100.9,471.6z"/>
	</g>
</g>
</svg>
