<?xml version="1.0" encoding="UTF-8"?>
<svg width="64px" height="49px" viewBox="0 0 64 49" version="1.1" xmlns="http://www.w3.org/2000/svg" xmlns:xlink="http://www.w3.org/1999/xlink">
    <!-- Generator: Sketch 42 (36781) - http://www.bohemiancoding.com/sketch -->
    <title>cr-icono-otras</title>
    <desc>Created with Sketch.</desc>
    <defs></defs>
    <g id="Page-1" stroke="none" stroke-width="1" fill="none" fill-rule="evenodd">
        <g id="Tarjetas-Cashback" transform="translate(-402.000000, -423.000000)" fill="#F45354">
            <g id="Group" transform="translate(402.000000, 423.000000)">
                <path d="M8.34672304,41.0697618 C7.82520902,41.0697618 7.40237315,41.4934433 7.40237315,42.0160834 C7.40237315,42.5387235 7.82520902,42.962405 8.34672304,42.962405 C8.86823706,42.962405 9.29107293,42.5387235 9.29107293,42.0160834 C9.29107293,41.4934433 8.86823706,41.0697618 8.34672304,41.0697618 Z M11.1797727,35.8647442 C11.1797727,34.8194641 10.334101,33.9725982 9.29107293,33.9725982 C8.24804489,33.9725982 7.40237315,34.8194641 7.40237315,35.8647442 C7.40237315,36.9100243 8.24804489,37.7573874 9.29107293,37.7573874 C10.334101,37.7573874 11.1797727,36.9100243 11.1797727,35.8647442 Z M45.2646858,33.9725982 C44.2216577,33.9725982 43.375986,34.8194641 43.375986,35.8647442 C43.375986,36.9100243 44.2216577,37.7573874 45.2646858,37.7573874 C46.3077138,37.7573874 47.1533856,36.9100243 47.1533856,35.8647442 C47.1533856,34.8194641 46.3077138,33.9725982 45.2646858,33.9725982 Z M14.3276057,41.0697618 C13.8060917,41.0697618 13.3832558,41.4934433 13.3832558,42.0160834 C13.3832558,42.5387235 13.8060917,42.962405 14.3276057,42.962405 C14.8496131,42.962405 15.2719556,42.5387235 15.2719556,42.0160834 C15.2719556,41.4934433 14.8496131,41.0697618 14.3276057,41.0697618 Z M56.2352291,0 L17.2085143,0 C13.2283311,0 9.99020762,3.24822536 9.99020762,7.24087713 L9.99020762,9.46271897 L7.76501535,9.46271897 C3.78433879,9.46271897 0.546215315,12.7114416 0.546215315,16.7035961 L0.546215315,41.6913603 C0.546215315,45.6840121 3.78433879,48.9322374 7.76501535,48.9322374 L46.7917301,48.9322374 C50.7719133,48.9322374 54.0100368,45.6840121 54.0100368,41.6913603 L54.0100368,19.4933304 L60.986582,19.4933304 L60.986582,32.2286413 C60.986582,34.8502954 58.8551339,36.982627 56.2352291,36.982627 C55.5543498,36.982627 55.0017522,37.539082 55.0017522,38.2258241 C55.0017522,38.9125662 55.5543498,39.4690212 56.2352291,39.4690212 C60.2159056,39.4690212 63.4535357,36.2207958 63.4535357,32.2286413 L63.4535357,7.24087713 C63.4535357,3.24822536 60.2159056,0 56.2352291,0 Z M51.543083,41.6913603 C51.543083,44.3130143 49.411635,46.4458433 46.7917301,46.4458433 L7.76501535,46.4458433 C5.14461709,46.4458433 3.01316906,44.3130143 3.01316906,41.6913603 L3.01316906,16.7035961 C3.01316906,14.0819421 5.14461709,11.9496104 7.76501535,11.9496104 L11.0204075,11.9496104 C11.0870153,11.9605506 11.1541164,11.9699989 11.2236845,11.9699989 C11.2932526,11.9699989 11.3603537,11.9605506 11.4269615,11.9496104 L46.7917301,11.9496104 C49.411635,11.9496104 51.543083,14.0819421 51.543083,16.7035961 L51.543083,41.6913603 Z M60.986582,11.497584 L51.7961925,11.497584 C50.4970947,10.2404631 48.7347029,9.46271897 46.7917301,9.46271897 L12.4571614,9.46271897 L12.4571614,7.24087713 C12.4571614,4.61872583 14.5886094,2.48639418 17.2085143,2.48639418 L56.2352291,2.48639418 C58.8551339,2.48639418 60.986582,4.61872583 60.986582,7.24087713 L60.986582,11.497584 Z M11.3371644,41.0697618 C10.8156503,41.0697618 10.3928145,41.4934433 10.3928145,42.0160834 C10.3928145,42.5387235 10.8156503,42.962405 11.3371644,42.962405 C11.8586784,42.962405 12.2815143,42.5387235 12.2815143,42.0160834 C12.2815143,41.4934433 11.8586784,41.0697618 11.3371644,41.0697618 Z M30.2932369,33.9725982 C29.2497155,33.9725982 28.4045371,34.8194641 28.4045371,35.8647442 C28.4045371,36.9100243 29.2497155,37.7573874 30.2932369,37.7573874 C31.3362649,37.7573874 32.1819367,36.9100243 32.1819367,35.8647442 C32.1819367,34.8194641 31.3362649,33.9725982 30.2932369,33.9725982 Z M26.2898644,41.0697618 C25.7683504,41.0697618 25.3455145,41.4934433 25.3455145,42.0160834 C25.3455145,42.5387235 25.7683504,42.962405 26.2898644,42.962405 C26.8113784,42.962405 27.2342143,42.5387235 27.2342143,42.0160834 C27.2342143,41.4934433 26.8113784,41.0697618 26.2898644,41.0697618 Z M39.2334773,33.9725982 C38.1899558,33.9725982 37.3442841,34.8194641 37.3442841,35.8647442 C37.3442841,36.9100243 38.1899558,37.7573874 39.2334773,37.7573874 C40.2765053,37.7573874 41.122177,36.9100243 41.122177,35.8647442 C41.122177,34.8194641 40.2765053,33.9725982 39.2334773,33.9725982 Z M17.2114746,35.8647442 C17.2114746,34.8194641 16.3658029,33.9725982 15.3227748,33.9725982 C14.2792534,33.9725982 13.434075,34.8194641 13.434075,35.8647442 C13.434075,36.9100243 14.2792534,37.7573874 15.3227748,37.7573874 C16.3658029,37.7573874 17.2114746,36.9100243 17.2114746,35.8647442 Z M17.3185404,41.0697618 C16.796533,41.0697618 16.3741905,41.4934433 16.3741905,42.0160834 C16.3741905,42.5387235 16.796533,42.962405 17.3185404,42.962405 C17.8400544,42.962405 18.2628903,42.5387235 18.2628903,42.0160834 C18.2628903,41.4934433 17.8400544,41.0697618 17.3185404,41.0697618 Z M26.1512216,35.8647442 C26.1512216,34.8194641 25.3055498,33.9725982 24.2625218,33.9725982 C23.2194938,33.9725982 22.373822,34.8194641 22.373822,35.8647442 C22.373822,36.9100243 23.2194938,37.7573874 24.2625218,37.7573874 C25.3055498,37.7573874 26.1512216,36.9100243 26.1512216,35.8647442 Z M20.3089817,41.0697618 C19.7874677,41.0697618 19.3646318,41.4934433 19.3646318,42.0160834 C19.3646318,42.5387235 19.7874677,42.962405 20.3089817,42.962405 C20.8304958,42.962405 21.2533316,42.5387235 21.2533316,42.0160834 C21.2533316,41.4934433 20.8304958,41.0697618 20.3089817,41.0697618 Z M23.2994231,41.0697618 C22.777909,41.0697618 22.3550732,41.4934433 22.3550732,42.0160834 C22.3550732,42.5387235 22.777909,42.962405 23.2994231,42.962405 C23.8209371,42.962405 24.2437729,42.5387235 24.2437729,42.0160834 C24.2437729,41.4934433 23.8209371,41.0697618 23.2994231,41.0697618 L23.2994231,41.0697618 Z" id="cr-icono-otras"></path>
            </g>
        </g>
    </g>
</svg>