<?xml version="1.0" encoding="utf-8"?>
<!-- Generator: Adobe Illustrator 21.0.0, SVG Export Plug-In . SVG Version: 6.00 Build 0)  -->
<svg version="1.1" id="Layer_1" xmlns="http://www.w3.org/2000/svg" xmlns:xlink="http://www.w3.org/1999/xlink" x="0px" y="0px"
	 viewBox="0 0 47 64" style="enable-background:new 0 0 47 64;" xml:space="preserve">
<style type="text/css">
	.st0{fill:#E4002B;}
</style>
<title>cr-icono-cashback</title>
<desc>Created with Sketch.</desc>
<g id="Page-1">
	<g id="Tarjetas-Cashback" transform="translate(-411.000000, -279.000000)">
		<path id="cr-icono-cashback" class="st0" d="M444.4,299.8h0.3c1.2,0,2.1-1,2.1-2.1c0-1.2-0.9-2.1-2.1-2.1h-0.5
			c3.8-3.4,6.4-8.1,5.8-11.4c-0.2-1.1-1.1-3.6-5.1-3.4c-1.8,0.1-3.3,0.7-4.5,1.7c-1.5-2.2-3.6-3.4-5.8-3.4c-2.2,0-4.3,1.3-5.8,3.4
			c-1.2-1.1-2.7-1.6-4.5-1.7c-4.1-0.2-5,2.3-5.3,3.4c-0.7,3.3,1.9,7.9,6,11.4h-0.5c-1.2,0-2.1,1-2.1,2.1c0,1.2,0.9,2.1,2.1,2.1h0.3
			c-6.8,5.6-13.6,14.8-13.6,23.6c0,15.7,17,19.1,23.5,19.1s23.5-3.4,23.5-19.1C458,314.5,451.2,305.4,444.4,299.8z M421.9,284.8
			c0.1-0.2,0.2-1,2.1-0.9c1.4,0.1,2.4,0.5,3.1,1.5c-0.3,0.7-0.5,1.4-0.7,2.1c-0.2,0.9,0.3,1.7,1.2,1.9c0.1,0,0.2,0,0.4,0
			c0.7,0,1.4-0.5,1.5-1.2c0.2-0.8,0.4-1.5,0.7-2.2c0.1-0.1,0.1-0.2,0.2-0.4c1-2.2,2.5-3.5,4.1-3.5c2,0,4,2.3,4.9,5.8
			c0.2,0.9,1.1,1.4,1.9,1.1c0.8-0.2,1.3-1.1,1.1-2c-0.2-0.6-0.4-1.2-0.6-1.8c0.7-1,1.7-1.4,3.1-1.5c1.7-0.1,1.8,0.6,1.9,0.8
			c0.5,2.5-3.1,9.2-8,11.6h-8.2C425.3,293.6,421.4,287.1,421.9,284.8z M434.5,339.2c-5.7,0-20.3-2.9-20.3-15.9
			c0-9.1,8.8-19.8,15.8-24.2h9c7,4.4,16,15,16,24.2C454.9,336.4,440.2,339.2,434.5,339.2z M438.9,319.1c-0.9-0.3-1.9-0.6-3.2-1
			c-0.7-0.2-2.1-0.5-2.2-0.6c-2.2-0.5-3.3-1.5-2.4-3.3c0.1-0.1,0.1-0.2,0.2-0.3c0.4-0.4,0.8-0.6,1.4-0.8c0.5-0.2,1.1-0.3,1.7-0.3
			c0.1,0,0.2,0,0.3,0c2.2,0.1,3.3,0.9,3.4,2.6h4c-0.1-1.8-0.7-3.2-2.1-4.1c-0.9-0.6-2.1-1-3.5-1.2V307h-4.1v3.2
			c-0.4,0.1-0.9,0.2-1.3,0.3c-0.5,0.1-0.9,0.3-1.3,0.5s-0.7,0.4-1.1,0.7c-2.1,1.7-2.3,4.3-1.5,6.5c0.3,0.6,0.8,1.2,1.3,1.6
			c0.6,0.4,1.2,0.8,1.9,1c0.2,0.1,0.4,0.1,0.5,0.2c0.2,0.1,0.4,0.1,0.5,0.2c2.3,1.1,8.3,0.7,6.8,4.6c-0.1,0.2-0.2,0.3-0.3,0.5
			c-0.1,0.1-0.3,0.3-0.4,0.4c-0.7,0.5-1.6,0.8-2.9,0.8c-2.8,0-4.3-1.1-4.3-3.3h-4.1c0.1,2.1,0.9,3.6,2.3,4.7c1,0.7,2.2,1.2,3.8,1.4
			v3.2h4.1v-3.1c0,0,0,0,0.1,0c1.7-0.3,3.9-1,5.1-2.7c0.1-0.2,0.3-0.4,0.4-0.7c1-2,0.8-4.8-1-6.5
			C440.5,319.8,439.8,319.4,438.9,319.1L438.9,319.1z"/>
	</g>
</g>
</svg>
