<?xml version="1.0" encoding="utf-8"?>
<!-- Generator: Adobe Illustrator 21.0.0, SVG Export Plug-In . SVG Version: 6.00 Build 0)  -->
<svg version="1.1" id="Layer_1" xmlns="http://www.w3.org/2000/svg" xmlns:xlink="http://www.w3.org/1999/xlink" x="0px" y="0px"
	 viewBox="0 0 62 52" style="enable-background:new 0 0 62 52;" xml:space="preserve">
<style type="text/css">
	.st0{fill:#E4002B;}
</style>
<title>cr-icono-supermercado</title>
<desc>Created with Sketch.</desc>
<g id="Page-1">
	<g id="Tarjetas-Cashback" transform="translate(-44.000000, -284.000000)">
		<g id="Group-3" transform="translate(44.000000, 284.000000)">
			<path id="cr-icono-supermercado" class="st0" d="M49.9,48c-1.5,0-2.8-1.2-2.8-2.8c0-1.4,1.1-2.6,2.5-2.7h0.6
				c1.4,0.2,2.5,1.3,2.5,2.7C52.7,46.7,51.4,48,49.9,48z M24.9,48c-1.5,0-2.8-1.2-2.8-2.8c0-1.5,1.2-2.8,2.8-2.8
				c1.5,0,2.8,1.2,2.8,2.8C27.7,46.7,26.5,48,24.9,48z M55.2,31.4l5.9-18c0.2-0.5,0.1-1-0.2-1.4s-0.8-0.7-1.3-0.7l-44.2-3l-1.5-7
				C13.8,0.5,13.1,0,12.3,0H1.7C0.7,0,0,0.7,0,1.6s0.7,1.6,1.7,1.6H11l5.8,28c0,0,0.1,0.5,0.2,0.7c0.7,3.9,2.2,6.7,4.3,8.5
				c-1.5,1.1-2.4,2.9-2.4,4.8c0,3.3,2.7,6,6.1,6s6.1-2.7,6.1-6c0-1-0.2-1.9-0.7-2.7h14.2c-0.4,0.8-0.7,1.7-0.7,2.7
				c0,3.3,2.7,6,6.1,6c3.4,0,6.1-2.7,6.1-6s-2.7-6-6.1-6c-0.2,0-0.4,0-0.6,0H27.8c-2.9,0-6-0.8-7.4-6.7h33.2
				C54.3,32.5,55,32.1,55.2,31.4L55.2,31.4z"/>
		</g>
	</g>
</g>
</svg>
