<?xml version="1.0" encoding="UTF-8"?>
<svg width="47px" height="64px" viewBox="0 0 47 64" version="1.1" xmlns="http://www.w3.org/2000/svg" xmlns:xlink="http://www.w3.org/1999/xlink">
    <!-- Generator: Sketch 42 (36781) - http://www.bohemiancoding.com/sketch -->
    <title>cr-icono-cashback</title>
    <desc>Created with Sketch.</desc>
    <defs></defs>
    <g id="Page-1" stroke="none" stroke-width="1" fill="none" fill-rule="evenodd">
        <g id="Tarjetas-Cashback" transform="translate(-411.000000, -279.000000)" fill="#F45352">
            <path d="M444.392333,299.75178 L444.697875,299.75178 C445.853267,299.75178 446.790684,298.795415 446.790684,297.616133 C446.790684,296.43621 445.853267,295.479845 444.697875,295.479845 L444.171208,295.479845 C447.953006,292.086766 450.596421,287.345936 449.947537,284.095063 C449.732712,283.018912 448.804745,280.532875 444.854112,280.702625 C443.039756,280.779493 441.514563,281.377781 440.330822,282.434075 C438.78736,280.264478 436.727311,279 434.499685,279 C432.25883,279 430.20697,280.261915 428.667918,282.427669 C427.486067,281.372016 425.961504,280.778852 424.145258,280.702625 C420.095087,280.530312 419.098452,283.009303 418.860318,284.082892 C418.137725,287.343374 420.80067,292.013101 424.835721,295.479845 L424.302125,295.479845 C423.146103,295.479845 422.209316,296.43621 422.209316,297.616133 C422.209316,298.795415 423.146103,299.75178 424.302125,299.75178 L424.607667,299.75178 C417.807613,305.349687 411,314.520032 411,323.310521 C411,338.983892 427.963595,342.416046 434.499685,342.416046 C441.036405,342.416046 458,338.983892 458,323.310521 C458,314.522594 451.192387,305.351609 444.392333,299.75178 Z M421.932752,284.787515 C421.985671,284.547943 422.143167,283.814495 424.014222,283.902893 C425.415307,283.961825 426.410683,284.448015 427.104926,285.406302 C426.850412,286.073131 426.628028,286.778394 426.449742,287.526576 C426.244997,288.386215 426.764104,289.25162 427.609544,289.459804 C427.734281,289.490551 427.859017,289.505925 427.981864,289.505925 C428.691857,289.505925 429.336961,289.01333 429.510837,288.281162 C429.698572,287.493907 429.941747,286.767505 430.22524,286.105159 C430.293908,285.989857 430.348717,285.867509 430.386516,285.739396 C431.41465,283.553785 432.925354,282.202831 434.499685,282.202831 C436.548395,282.202831 438.526546,284.540897 439.423015,288.020452 C439.643509,288.875608 440.502808,289.38678 441.345727,289.163863 C442.187387,288.939664 442.690745,288.064651 442.47025,287.208855 C442.307084,286.575335 442.113679,285.97064 441.893184,285.396693 C442.587427,284.440969 443.582803,283.961825 444.985778,283.902893 C446.686107,283.835634 446.807064,284.462107 446.860613,284.732426 C447.349481,287.184513 443.550674,293.05338 438.636164,295.479845 L430.457074,295.479845 C425.061256,292.704272 421.413645,287.131346 421.932752,284.787515 Z M434.499685,339.213215 C428.839274,339.213215 414.149923,336.35629 414.149923,323.310521 C414.149923,314.179891 423.042155,304.144142 430.011045,299.75178 L438.988955,299.75178 C445.957845,304.146064 454.850077,314.182453 454.850077,323.310521 C454.850077,336.35629 440.160097,339.213215 434.499685,339.213215 Z M438.898867,319.088549 C438.011219,318.766345 436.951585,318.440937 435.720595,318.111686 C435.039582,317.947701 433.656136,317.571689 433.561008,317.548628 C431.398901,317.025286 430.235319,316.012551 431.171476,314.293912 C431.234475,314.206795 431.303773,314.122881 431.379371,314.04281 C432.058495,313.320892 433.229636,312.895556 434.437317,312.942958 C434.534964,312.942958 434.630722,312.944239 434.72459,312.947442 C436.882917,313.016623 438.011849,313.890355 438.111387,315.566717 L442.154628,315.566717 C442.089739,313.738541 441.406206,312.357481 440.104028,311.423535 C439.222049,310.791296 438.021929,310.390943 436.554695,310.186602 L436.554695,306.988896 L432.430186,306.988896 L432.430186,310.169947 C431.981637,310.239769 431.545057,310.323683 431.142497,310.446672 C430.678828,310.588237 430.251699,310.757987 429.859219,310.954641 C429.467368,311.152576 429.110797,311.377414 428.790135,311.630438 C426.709926,313.295269 426.476831,315.927996 427.303371,318.081579 C427.640413,318.706772 428.087072,319.233317 428.644608,319.660575 C429.201515,320.088473 429.833389,320.436941 430.540232,320.706619 C430.715998,320.773879 430.893653,320.839217 431.072569,320.901992 C431.250855,320.964768 431.43103,321.024981 431.611206,321.083272 C433.89364,322.206825 439.880383,321.801347 438.36401,325.705597 C438.279593,325.868942 438.174385,326.023959 438.048388,326.170648 C437.921761,326.317338 437.774345,326.4557 437.606139,326.585095 C436.932055,327.105234 435.966289,327.364664 434.70947,327.364664 C431.883989,327.364664 430.452664,326.260328 430.413605,324.050375 L426.311775,324.050375 C426.454152,326.11556 427.215803,327.670214 428.596099,328.716258 C429.547376,329.437536 430.841365,329.891697 432.430186,330.115895 L432.430186,333.318726 L436.554695,333.318726 L436.554695,330.175468 C436.571704,330.172905 436.589974,330.171624 436.606983,330.169062 C438.267623,329.852622 440.528637,329.211416 441.721198,327.431282 C441.861685,327.223098 441.988942,327.006587 442.099819,326.779827 C443.097715,324.741545 442.87281,322.017218 441.076094,320.2326 C440.511628,319.791891 439.786516,319.410754 438.898867,319.088549 L438.898867,319.088549 Z" id="cr-icono-cashback"></path>
        </g>
    </g>
</svg>