<?xml version="1.0" encoding="utf-8"?>
<!-- Generator: Adobe Illustrator 21.0.0, SVG Export Plug-In . SVG Version: 6.00 Build 0)  -->
<svg version="1.1" id="Layer_2" xmlns="http://www.w3.org/2000/svg" xmlns:xlink="http://www.w3.org/1999/xlink" x="0px" y="0px"
	 viewBox="0 0 65 50" style="enable-background:new 0 0 65 50;" xml:space="preserve">
<style type="text/css">
	.st0{fill:#E4002B;}
</style>
<g>
	<path class="st0" d="M65,44.3V11.7c0-3.3-2.7-5.9-5.9-5.9H5.9C2.7,5.8,0,8.5,0,11.7v32.6c0,3.3,2.7,5.9,5.9,5.9h53.2
		C62.3,50.2,65,47.5,65,44.3z M61.9,44.3c0,1.5-1.3,2.8-2.8,2.8H5.9c-1.5,0-2.8-1.3-2.8-2.8V11.7c0-1.5,1.3-2.8,2.8-2.8h53.2
		c1.5,0,2.8,1.3,2.8,2.8V44.3z"/>
	<path class="st0" d="M25.6,7.2V5.7c0-1.5,1.3-2.8,2.8-2.8h8.2c1.5,0,2.8,1.3,2.8,2.8v1.5h3.1V5.7c0-3.3-2.7-5.9-5.9-5.9h-8.2
		c-3.2,0-5.9,2.7-5.9,5.9v1.5H25.6z"/>
	<polygon class="st0" points="7.7,6 7.7,50.1 10.8,50.1 10.8,36.7 10.8,6 	"/>
	<polygon class="st0" points="14.7,6 14.7,50.1 17.8,50.1 17.8,36.7 17.8,6 	"/>
	<polygon class="st0" points="28.7,0 26.7,16 29.8,16 31.8,0 	"/>
	<path class="st0" d="M25.8,15h-3.1V18v6.8v3.1h3.1h0h7V27v-2.2v-1.5V18v-3v0H25.8z M29.7,24.8h-3.9V24v-6h3.9V24.8z"/>
</g>
</svg>
