<?xml version="1.0" encoding="UTF-8"?>
<svg width="59px" height="62px" viewBox="0 0 59 62" version="1.1" xmlns="http://www.w3.org/2000/svg" xmlns:xlink="http://www.w3.org/1999/xlink">
    <!-- Generator: Sketch 42 (36781) - http://www.bohemiancoding.com/sketch -->
    <title>cr-icono-viajes</title>
    <desc>Created with Sketch.</desc>
    <defs></defs>
    <g id="Page-1" stroke="none" stroke-width="1" fill="none" fill-rule="evenodd">
        <g id="Tarjetas-Cashback" transform="translate(-49.000000, -417.000000)" fill="#F45352">
            <path d="M87.128931,418.629622 C85.1400116,418.629622 84.2987799,422.271713 84.2987799,422.271713 C84.2987799,422.271713 86.9675849,417.784969 90.11231,422.192163 C90.11231,422.192163 89.1178503,418.629622 87.128931,418.629622 Z M119.035865,462.718787 L115.931223,457.47302 L115.791187,457.279971 C115.606501,457.070201 115.381733,456.894886 115.133118,456.76568 L112.44757,454.6315 L112.44757,449.597023 C112.44757,447.61941 110.840706,446.010668 108.865993,446.010668 C107.099812,446.010668 105.631462,447.297662 105.339213,448.982915 L104.310251,448.165116 L104.310251,443.358144 C104.310251,441.380531 102.703387,439.771788 100.728167,439.771788 C99.031497,439.771788 97.6093182,440.959471 97.2409622,442.547946 L93.3529293,439.458147 L93.6167656,422.123759 C93.6167656,417.945083 90.5151676,413.844437 87.3552213,413.844437 L87.0310071,413.844437 C84.1064839,413.844437 80.706548,417.460687 80.706548,422.142507 L80.9698769,439.458147 L77.081844,442.547946 C76.713488,440.959471 75.2918166,439.771788 73.5951466,439.771788 C71.6199265,439.771788 70.0130623,441.380531 70.0130623,443.358144 L70.0130623,448.165116 L68.9835936,448.982915 C68.6913442,447.297662 67.2235014,446.010668 65.4573208,446.010668 C63.482608,446.010668 61.8752364,447.61941 61.8752364,449.597023 L61.8752364,454.6315 L59.189688,456.76568 C58.941073,456.894886 58.7163049,457.070201 58.5316195,457.279971 L55.2869411,462.718787 C54.7810859,463.376471 54.6730145,464.269259 55.016509,465.031829 C55.3808059,465.842027 56.1910876,466.365438 57.0815349,466.365438 L57.3428343,466.365438 L81.2230582,456.103436 L81.3539616,464.686266 C81.3539616,464.709573 81.3879559,465.128606 81.4625403,465.797945 L74.7484154,470.831408 C73.9670543,471.416128 73.6489286,472.431536 73.9563993,473.359286 C74.2648848,474.287037 75.1279337,474.910266 76.1046352,474.910266 L83.4230465,474.910266 C84.2028856,476.932468 85.2445314,478.447472 86.6190167,478.447472 L87.0543465,478.447472 C88.3811383,478.447472 89.5004128,476.934494 90.3969487,474.910266 L98.2191858,474.910266 C99.1948725,474.910266 100.057921,474.287037 100.3659,473.360806 C100.674892,472.435083 100.357781,471.419169 99.5764203,470.831914 L92.8526552,465.791358 C92.9287618,465.264906 92.9688446,464.879821 92.9688446,464.70552 L93.099748,456.103436 L116.980479,466.365438 L117.241779,466.365438 C118.131211,466.365438 118.942,465.842027 119.307312,465.031322 C119.649792,464.268246 119.54172,463.376471 119.035865,462.718787 Z M72.5499492,443.358144 C72.5499492,442.777476 73.0187659,442.305241 73.5951466,442.305241 C74.1715273,442.305241 74.6408514,442.777476 74.6408514,443.358144 L74.6408514,444.487557 L72.5499492,446.148995 L72.5499492,443.358144 Z M64.4121234,449.597023 C64.4121234,449.016356 64.8809401,448.544121 65.4573208,448.544121 C66.0342089,448.544121 66.5035329,449.016356 66.5035329,449.597023 L66.5035329,450.95394 L64.4121234,452.615379 L64.4121234,449.597023 Z M62.783442,461.269145 L57.8324535,463.396738 L60.4469691,458.979411 L60.511406,458.953063 L81.0185851,442.656884 L81.1002729,448.02831 L62.783442,459.332067 L62.783442,461.269145 Z M63.4176637,460.996546 L63.4176637,459.685231 L81.1114352,448.766051 L81.1814533,453.36376 L63.4176637,460.996546 Z M76.91238,472.376814 L81.8598168,468.668346 C82.0505907,469.828161 82.3022499,471.119208 82.6269714,472.376814 L76.91238,472.376814 Z M90.4319577,464.686266 C90.4319577,466.26714 89.4664186,470.278608 88.4298466,473.07554 L88.4298466,464.864621 C88.4298466,464.165388 87.8620913,463.597894 87.1614031,463.597894 C86.4612223,463.597894 85.8929596,464.165388 85.8929596,464.864621 L85.8929596,474.301224 C84.8751606,471.608671 83.8908485,466.531126 83.8908485,464.667011 L83.243435,422.123759 C83.243435,418.747174 85.7006636,416.377889 87.0310071,416.377889 L87.3552213,416.377889 C88.792114,416.377889 91.0798786,419.007613 91.0798786,422.104505 L90.4319577,464.686266 Z M97.411441,472.376814 L91.3391485,472.376814 C91.7475873,471.0883 92.0824563,469.761784 92.3396967,468.574608 L97.411441,472.376814 Z M107.819781,449.597023 C107.819781,449.016356 108.288597,448.544121 108.865993,448.544121 C109.441866,448.544121 109.910683,449.016356 109.910683,449.597023 L109.910683,452.615379 L107.819781,450.95394 L107.819781,449.597023 Z M99.6824622,443.358144 C99.6824622,442.777476 100.151279,442.305241 100.728167,442.305241 C101.304548,442.305241 101.773364,442.777476 101.773364,443.358144 L101.773364,446.148995 L99.6824622,444.487557 L99.6824622,443.358144 Z M111.135999,461.095857 L93.1413529,453.36376 L93.2134005,448.624684 L111.135999,459.685231 L111.135999,461.095857 Z M111.770221,461.368456 L111.770221,459.332067 L93.2245628,447.88745 L93.3042211,442.656884 L113.8114,458.953063 L113.875837,458.979411 L116.489845,463.396738 L111.770221,461.368456 L111.770221,461.368456 Z" id="cr-icono-viajes" transform="translate(87.161519, 446.145955) rotate(-330.000000) translate(-87.161519, -446.145955) "></path>
        </g>
    </g>
</svg>