<?xml version="1.0" encoding="utf-8"?>
<!-- Generator: Adobe Illustrator 21.0.0, SVG Export Plug-In . SVG Version: 6.00 Build 0)  -->
<svg version="1.1" id="Layer_1" xmlns="http://www.w3.org/2000/svg" xmlns:xlink="http://www.w3.org/1999/xlink" x="0px" y="0px"
	 viewBox="0 0 65 50" style="enable-background:new 0 0 65 50;" xml:space="preserve">
<style type="text/css">
	.st0{fill:#E4002B;}
	.st1{fill:#FFFFFF;}
</style>
<g>
	<path class="st0" d="M50.3,28c-2.5-6.9-6.4-10.8-7.9-12.1h1.8v-3.5h-2.4l6.2-12.4L37.2,5.5l-4.7-4.6l-4.7,4.6L17.1-0.1l6.2,12.4
		h-2.4v3.5h1.8c-1.5,1.3-5.4,5.2-7.9,12.1c-3.1,8.7,0.7,17.3,10,20.7c2.4,0.9,5,1.4,7.8,1.4s5.4-0.5,7.8-1.4
		C49.6,45.3,53.3,36.7,50.3,28z"/>
	<g>
		<path class="st1" d="M32.7,21.1c0.6,0,1.2,0.5,1.2,1.2v0.6c1.6,0.2,2.9,0.7,4.1,1.5c0.4,0.2,0.8,0.6,0.8,1.3
			c0,0.8-0.7,1.5-1.5,1.5c-0.3,0-0.5-0.1-0.8-0.2c-0.9-0.6-1.8-1-2.8-1.2v5.1c4.1,1,5.8,2.6,5.8,5.5c0,2.9-2.3,4.9-5.7,5.2v1.6
			c0,0.6-0.5,1.2-1.2,1.2s-1.2-0.5-1.2-1.2v-1.7c-2-0.2-3.9-0.9-5.5-2.1c-0.5-0.3-0.7-0.7-0.7-1.3c0-0.8,0.6-1.5,1.5-1.5
			c0.3,0,0.6,0.1,0.9,0.3c1.3,0.9,2.5,1.5,4,1.8v-5.3c-3.9-1-5.7-2.5-5.7-5.5c0-2.9,2.3-4.8,5.6-5.1v-0.6
			C31.5,21.6,32.1,21.1,32.7,21.1z M31.6,30.2v-4.7c-1.7,0.2-2.6,1.1-2.6,2.2C29.1,28.8,29.6,29.5,31.6,30.2z M33.8,33.9v4.9
			c1.7-0.2,2.7-1,2.7-2.3C36.4,35.3,35.8,34.6,33.8,33.9z"/>
	</g>
</g>
</svg>
