<?xml version="1.0" encoding="UTF-8"?>
<svg width="62px" height="52px" viewBox="0 0 62 52" version="1.1" xmlns="http://www.w3.org/2000/svg" xmlns:xlink="http://www.w3.org/1999/xlink">
    <!-- Generator: Sketch 42 (36781) - http://www.bohemiancoding.com/sketch -->
    <title>cr-icono-supermercado</title>
    <desc>Created with Sketch.</desc>
    <defs></defs>
    <g id="Page-1" stroke="none" stroke-width="1" fill="none" fill-rule="evenodd">
        <g id="Tarjetas-Cashback" transform="translate(-44.000000, -284.000000)" fill="#F45352">
            <g id="Group-3" transform="translate(44.000000, 284.000000)">
                <path d="M47.1503883,29.2318383 L48.1211872,22.3504371 L54.6625001,22.3504371 L52.4127422,29.2318383 L47.1503883,29.2318383 Z M22.7225548,12.0838609 L23.704697,19.0565498 L17.6123904,19.0565498 L16.068754,11.6387156 L22.7225548,12.0838609 Z M37.7637934,19.0565498 L37.7637934,13.0908493 L46.0075491,13.6432813 L45.244711,19.0565498 L37.7637934,19.0565498 Z M37.7637934,22.3504371 L44.7805803,22.3504371 L43.8097814,29.2318383 L37.7637934,29.2318383 L37.7637934,22.3504371 Z M27.0453039,19.0565498 L26.0943558,12.3097275 L34.4553259,12.8696883 L34.4553259,19.0565498 L27.0453039,19.0565498 Z M27.5094347,22.3504371 L34.4553259,22.3504371 L34.4553259,29.2318383 L28.4802335,29.2318383 L27.5094347,22.3504371 Z M19.7307549,29.2318383 L18.2977158,22.3504371 L24.1688278,22.3504371 L25.1396266,29.2318383 L19.7307549,29.2318383 Z M55.7391699,19.0565498 L48.5853179,19.0565498 L49.3169619,13.8644423 L57.2629556,14.3961698 L55.7391699,19.0565498 Z M49.919103,47.9806449 C48.3934268,47.9806449 47.1522789,46.7449666 47.1522789,45.226014 C47.1522789,43.8124658 48.229894,42.6586641 49.608107,42.5024397 L50.2300989,42.5024397 C51.608312,42.6586641 52.6868724,43.8124658 52.6868724,45.226014 C52.6868724,46.7449666 51.4447791,47.9806449 49.919103,47.9806449 Z M24.9250489,47.9806449 C23.3984275,47.9806449 22.1572795,46.7449666 22.1572795,45.226014 C22.1572795,43.7070614 23.3984275,42.4713831 24.9250489,42.4713831 C26.4507251,42.4713831 27.6928183,43.7070614 27.6928183,45.226014 C27.6928183,46.7449666 26.4507251,47.9806449 24.9250489,47.9806449 Z M55.1861832,31.3879228 L61.0667479,13.4051803 C61.2246091,12.9223905 61.1499322,12.3934863 60.8644587,11.9728098 C60.57804,11.5521334 60.1139093,11.2857991 59.6044053,11.2519191 L15.3720853,8.29024382 L13.9191954,1.31284937 C13.760389,0.548667516 13.0835711,0 12.2999369,0 L1.65423375,0 C0.741096721,0 0,0.737830759 0,1.64694366 C0,2.55605656 0.741096721,3.29388732 1.65423375,3.29388732 L10.952918,3.29388732 L16.7720397,31.2458151 C16.7720397,31.2458151 16.9005973,31.763426 16.9308461,31.9149448 C17.6473657,35.8224362 19.1030914,38.6542382 21.2743913,40.4018807 C19.8044865,41.5076857 18.848812,43.2553282 18.848812,45.226014 C18.848812,48.5613102 21.574044,51.2745322 24.9250489,51.2745322 C28.2751086,51.2745322 31.0012858,48.5613102 31.0012858,45.226014 C31.0012858,44.2453767 30.7611856,43.3221471 30.3433734,42.5024397 L44.5017238,42.5024397 C44.0839116,43.3221471 43.8438114,44.2453767 43.8438114,45.226014 C43.8438114,48.5613102 46.5690433,51.2745322 49.919103,51.2745322 C53.2701079,51.2745322 55.9953399,48.5613102 55.9953399,45.226014 C55.9953399,41.8907178 53.2701079,39.1774957 49.919103,39.1774957 C49.7101969,39.1774957 49.5041266,39.187848 49.2999469,39.2085524 L27.8327192,39.2085524 C24.9524619,39.2085524 21.861408,38.3794339 20.4406575,32.5257256 L53.6132433,32.5257256 C54.3297628,32.5257256 54.9649886,32.0664636 55.1861832,31.3879228 L55.1861832,31.3879228 Z" id="cr-icono-supermercado"></path>
            </g>
        </g>
    </g>
</svg>