<?xml version="1.0" encoding="utf-8"?>
<!-- Generator: Adobe Illustrator 21.0.0, SVG Export Plug-In . SVG Version: 6.00 Build 0)  -->
<svg version="1.1" id="Layer_1" xmlns="http://www.w3.org/2000/svg" xmlns:xlink="http://www.w3.org/1999/xlink" x="0px" y="0px"
	 viewBox="0 0 65 50" style="enable-background:new 0 0 65 50;" xml:space="preserve">
<style type="text/css">
	.st0{fill:#E4002B;}
</style>
<g>
	<path class="st0" d="M65,41.3V8.7c0-3.3-2.7-5.9-5.9-5.9H5.9C2.7,2.8,0,5.5,0,8.7v32.6c0,3.3,2.7,5.9,5.9,5.9h53.2
		C62.3,47.2,65,44.5,65,41.3z M61.9,41.3c0,1.5-1.3,2.8-2.8,2.8H5.9c-1.5,0-2.8-1.3-2.8-2.8V8.7c0-1.5,1.3-2.8,2.8-2.8h53.2
		c1.5,0,2.8,1.3,2.8,2.8V41.3z"/>
	<polygon class="st0" points="7.2,17.3 57.8,17.3 57.8,14.2 42.5,14.2 7.2,14.2 	"/>
	<polygon class="st0" points="38.7,37.6 51.5,37.6 51.5,34.4 45,34.4 38.7,34.4 	"/>
</g>
</svg>
