<?xml version="1.0" encoding="utf-8"?>
<!-- Generator: Adobe Illustrator 21.0.0, SVG Export Plug-In . SVG Version: 6.00 Build 0)  -->
<svg version="1.1" id="Layer_1" xmlns="http://www.w3.org/2000/svg" xmlns:xlink="http://www.w3.org/1999/xlink" x="0px" y="0px"
	 viewBox="0 0 64 49" style="enable-background:new 0 0 64 49;" xml:space="preserve">
<style type="text/css">
	.st0{fill:#E4002B;}
</style>
<title>cr-icono-otras</title>
<desc>Created with Sketch.</desc>
<g id="Page-1">
	<g id="Tarjetas-Cashback" transform="translate(-402.000000, -423.000000)">
		<g id="Group" transform="translate(402.000000, 423.000000)">
			<path id="cr-icono-otras" class="st0" d="M8.3,41.1c-0.5,0-0.9,0.4-0.9,0.9S7.8,43,8.3,43c0.5,0,0.9-0.4,0.9-0.9
				S8.9,41.1,8.3,41.1z M11.2,35.9c0-1-0.8-1.9-1.9-1.9s-1.9,0.8-1.9,1.9c0,1,0.8,1.9,1.9,1.9S11.2,36.9,11.2,35.9z M45.3,34
				c-1,0-1.9,0.8-1.9,1.9c0,1,0.8,1.9,1.9,1.9c1,0,1.9-0.8,1.9-1.9C47.2,34.8,46.3,34,45.3,34z M14.3,41.1c-0.5,0-0.9,0.4-0.9,0.9
				s0.4,0.9,0.9,0.9c0.5,0,0.9-0.4,0.9-0.9S14.8,41.1,14.3,41.1z M56.2,0h-39c-4,0-7.2,3.2-7.2,7.2v2.2H7.8c-4,0-7.2,3.2-7.2,7.2v25
				c0,4,3.2,7.2,7.2,7.2h39c4,0,7.2-3.2,7.2-7.2V19.5h7v12.7c0,2.6-2.1,4.8-4.8,4.8c-0.7,0-1.2,0.6-1.2,1.2c0,0.7,0.6,1.2,1.2,1.2
				c4,0,7.2-3.2,7.2-7.2v-25C63.5,3.2,60.2,0,56.2,0z M51.5,41.7c0,2.6-2.1,4.8-4.8,4.8h-39c-2.6,0-4.8-2.1-4.8-4.8v-25
				c0-2.6,2.1-4.8,4.8-4.8H11c0.1,0,0.1,0,0.2,0c0.1,0,0.1,0,0.2,0h35.4c2.6,0,4.8,2.1,4.8,4.8V41.7z M61,11.5h-9.2
				c-1.3-1.3-3.1-2-5-2H12.5V7.2c0-2.6,2.1-4.8,4.8-4.8h39c2.6,0,4.8,2.1,4.8,4.8V11.5z M11.3,41.1c-0.5,0-0.9,0.4-0.9,0.9
				s0.4,0.9,0.9,0.9c0.5,0,0.9-0.4,0.9-0.9S11.9,41.1,11.3,41.1z M30.3,34c-1,0-1.9,0.8-1.9,1.9c0,1,0.8,1.9,1.9,1.9
				c1,0,1.9-0.8,1.9-1.9C32.2,34.8,31.3,34,30.3,34z M26.3,41.1c-0.5,0-0.9,0.4-0.9,0.9s0.4,0.9,0.9,0.9c0.5,0,0.9-0.4,0.9-0.9
				S26.8,41.1,26.3,41.1z M39.2,34c-1,0-1.9,0.8-1.9,1.9c0,1,0.8,1.9,1.9,1.9c1,0,1.9-0.8,1.9-1.9C41.1,34.8,40.3,34,39.2,34z
				 M17.2,35.9c0-1-0.8-1.9-1.9-1.9c-1,0-1.9,0.8-1.9,1.9c0,1,0.8,1.9,1.9,1.9C16.4,37.8,17.2,36.9,17.2,35.9z M17.3,41.1
				c-0.5,0-0.9,0.4-0.9,0.9s0.4,0.9,0.9,0.9c0.5,0,0.9-0.4,0.9-0.9S17.8,41.1,17.3,41.1z M26.2,35.9c0-1-0.8-1.9-1.9-1.9
				s-1.9,0.8-1.9,1.9c0,1,0.8,1.9,1.9,1.9S26.2,36.9,26.2,35.9z M20.3,41.1c-0.5,0-0.9,0.4-0.9,0.9s0.4,0.9,0.9,0.9
				c0.5,0,0.9-0.4,0.9-0.9S20.8,41.1,20.3,41.1z M23.3,41.1c-0.5,0-0.9,0.4-0.9,0.9s0.4,0.9,0.9,0.9c0.5,0,0.9-0.4,0.9-0.9
				S23.8,41.1,23.3,41.1L23.3,41.1z"/>
		</g>
	</g>
</g>
</svg>
