<?xml version="1.0" encoding="UTF-8"?>
<svg width="95px" height="98px" viewBox="0 0 95 98" version="1.1" xmlns="http://www.w3.org/2000/svg" xmlns:xlink="http://www.w3.org/1999/xlink">
    <!-- Generator: Sketch 42 (36781) - http://www.bohemiancoding.com/sketch -->
    <title>cr-landing-iconos-prestamo-casa</title>
    <desc>Created with Sketch.</desc>
    <defs></defs>
    <g id="Page-1" stroke="none" stroke-width="1" fill="none" fill-rule="evenodd">
        <g id="Desktop-HD-1" transform="translate(-522.000000, -724.000000)">
            <g id="cr-landing-iconos-prestamo-casa" transform="translate(521.166667, 724.500000)">
                <circle id="Oval-Copy-7" fill="#EDEDED" style="mix-blend-mode: multiply;" cx="48.186849" cy="48" r="47.3535156"></circle>
                <path d="M84.639,46.941 C83.428,45.729 81.814,45.046 80.095,45.018 C79.468,45.006 78.854,45.088 78.27,45.249 L74.272,47.744 C74.272,47.86 74.287,47.973 74.306,48.084 L65.779,56.609 C64.625,53.951 61.977,52.086 58.898,52.086 L29.078,52.086 C27.076,52.086 25.192,52.866 23.775,54.283 L8.044,70.013 C7.263,70.794 7.263,72.06 8.044,72.841 C8.434,73.232 8.946,73.427 9.458,73.427 C9.97,73.427 10.481,73.232 10.872,72.841 L26.603,57.111 C27.265,56.45 28.144,56.086 29.078,56.086 L58.897,56.086 C60.827,56.086 62.397,57.656 62.397,59.586 C62.397,61.516 60.827,63.086 58.897,63.086 L41.491,63.086 C40.387,63.086 39.491,63.982 39.491,65.086 C39.491,66.19 40.387,67.086 41.491,67.086 L58.897,67.086 C62.156,67.086 64.928,64.993 65.96,62.084 L78.426,49.619 C78.818,49.226 79.42,49.027 80.029,49.017 C80.705,49.029 81.338,49.295 81.811,49.769 C82.284,50.242 82.543,50.87 82.543,51.538 C82.543,52.205 82.283,52.833 81.811,53.305 L57.914,77.202 C57.441,77.675 56.813,77.935 56.145,77.935 L25.953,77.935 C25.423,77.935 24.914,78.146 24.539,78.521 L9.058,94.001 C8.277,94.782 8.277,96.048 9.058,96.829 C9.449,97.22 9.96,97.415 10.472,97.415 C10.984,97.415 11.496,97.22 11.886,96.829 L26.782,81.934 L56.146,81.934 C57.881,81.934 59.514,81.258 60.742,80.03 L84.639,56.133 C85.867,54.905 86.543,53.274 86.543,51.537 C86.543,49.8 85.867,48.169 84.639,46.941 Z" id="Shape" fill="#F45352" fill-rule="nonzero"></path>
                <path d="M47.7055385,0.00341451699 C47.2823223,0.0230853191 46.8747338,0.168619136 46.5353619,0.421238591 L16.8614489,22.9397571 C16.2466567,23.3914608 15.9234557,24.1377165 16.0154638,24.8930961 C16.107472,25.6484758 16.6004542,26.2961087 17.3058542,26.588288 C18.0112542,26.8804673 18.8199343,26.7719877 19.4225902,26.3043404 L23.0876717,23.5115164 L23.0876717,54.1885997 C23.0768613,54.9499422 23.4784671,55.6581048 24.1387065,56.0419182 C24.7989459,56.4257316 25.6155279,56.4257316 26.2757673,56.0419182 C26.9360067,55.6581048 27.3376125,54.9499422 27.3268021,54.1885997 L27.3268021,20.3008682 L47.8159326,4.75341452 L76.2092749,26.3043404 C76.8119308,26.7719877 77.6206109,26.8804673 78.3260109,26.588288 C79.0314109,26.2961087 79.5243931,25.6484758 79.6164013,24.8930961 C79.7084095,24.1377165 79.3852084,23.3914608 78.7704162,22.9397571 L49.0965032,0.421238591 C48.6967389,0.123115945 48.2041328,-0.0248552364 47.7055385,0.00341451699 Z M70.4025494,25.9964701 C69.8365273,26.0022769 69.2963483,26.233323 68.9023582,26.6381337 C68.5083682,27.0429445 68.293298,27.5878901 68.305063,28.1515627 L68.305063,52.0774886 L57.0007152,52.0774886 L57.0007152,33.0774886 C57.0005981,31.9116024 56.051705,30.9664941 54.8811499,30.9663775 L40.7507152,30.9663775 C40.6771691,30.9625574 40.6034732,30.9625574 40.5299271,30.9663775 C39.4463494,31.0794975 38.6253232,31.9923364 38.6311499,33.0774886 L38.6311499,52.0774886 L32.2724543,52.0774886 C31.5080629,52.0667213 30.7970644,52.4667253 30.411714,53.1243313 C30.0263636,53.7819372 30.0263636,54.5952622 30.411714,55.2528681 C30.7970644,55.9104741 31.5080629,56.3104781 32.2724543,56.2997108 L70.4246282,56.2997108 C71.5951833,56.2995942 72.5440764,55.3544859 72.5441934,54.1885997 L72.5441934,28.1515627 C72.556119,27.5802625 72.3350399,27.0285448 71.93145,26.6224205 C71.52786,26.2162962 70.9762296,25.990452 70.4025494,25.9964701 Z M42.8702804,35.1885997 L52.7615847,35.1885997 L52.7615847,52.0774886 L42.8702804,52.0774886 L42.8702804,35.1885997 Z" id="Shape" fill="#F45352" fill-rule="nonzero"></path>
            </g>
        </g>
    </g>
</svg>