<?xml version="1.0" encoding="UTF-8"?>
<svg width="28px" height="19px" viewBox="0 0 28 19" version="1.1" xmlns="http://www.w3.org/2000/svg" xmlns:xlink="http://www.w3.org/1999/xlink">
    <!-- Generator: Sketch 42 (36781) - http://www.bohemiancoding.com/sketch -->
    <title>cr-landing-iconos-seguros-blanco</title>
    <desc>Created with Sketch.</desc>
    <defs></defs>
    <g id="Page-1" stroke="none" stroke-width="1" fill="none" fill-rule="evenodd">
        <g id="iPhone-7---2" transform="translate(-23.000000, -358.000000)">
            <g id="cr-landing-iconos-seguros-blanco" transform="translate(23.700000, 357.911309)">
                <g id="Group-6-Copy" transform="translate(0.117000, 0.403687)">
                    <g id="Group" transform="translate(0.183583, 0.884693)" stroke="#FFFFFF" stroke-width="0.3" fill="#FFFFFF" fill-rule="nonzero">
                        <path d="M7.96679156,15.9335831 C7.87218591,15.9335831 7.78222755,15.8934172 7.71915712,15.8230439 C7.1252992,15.1588126 6.54239562,14.5174859 5.97974096,13.8987318 C2.6389997,10.2247131 -1.36779477e-13,7.32280924 -1.36779477e-13,4.99484636 C-1.36779477e-13,2.24066012 2.01924971,4.4408921e-14 4.50156918,4.4408921e-14 C5.8516084,4.4408921e-14 7.11534071,0.666886843 7.96679156,1.80680193 C8.8175785,0.666886843 10.0809789,4.4408921e-14 11.431682,4.4408921e-14 C13.9140015,4.4408921e-14 15.9335831,2.24066012 15.9335831,4.99484636 C15.9335831,7.32181339 13.2945834,10.2243811 9.9535102,13.8987318 C9.3905236,14.5178179 8.80762001,15.1591446 8.21409404,15.8230439 C8.15135556,15.8934172 8.06139721,15.9335831 7.96679156,15.9335831 Z M4.50156918,0.663899296 C2.38539017,0.663899296 0.663899296,2.60680059 0.663899296,4.99484636 C0.663899296,7.06588021 3.22655058,9.88413272 6.47102644,13.4522595 C6.95633683,13.9860345 7.45724885,14.5370709 7.96679156,15.1047048 C8.47600232,14.5374029 8.97658239,13.9870304 9.46222472,13.4525914 C12.7067006,9.88346882 15.2696838,7.06521631 15.2696838,4.99484636 C15.2696838,2.60680059 13.547861,0.663899296 11.431682,0.663899296 C10.1566634,0.663899296 8.96795169,1.37759104 8.25160435,2.57294172 C8.13210248,2.77310736 7.80247648,2.77343931 7.68231071,2.57294172 C6.96496752,1.37759104 5.77625583,0.663899296 4.50156918,0.663899296 Z" id="Shape"></path>
                        <path d="M8.72496455,13.2404756 C8.55268268,13.2358283 8.41691528,13.113007 8.3956705,12.9513475 L7.53160557,6.28613049 L6.651939,10.7621395 C6.62239548,10.9125127 6.49359902,11.023052 6.34057023,11.0300229 C6.18654559,11.0369939 6.04978234,10.9380729 6.00729278,10.7906872 L5.48911938,9.00015081 L0.331949648,9.00015081 C0.148713442,9.00015081 -1.36779477e-13,8.85176932 -1.36779477e-13,8.66820116 C-1.36779477e-13,8.48463301 0.148713442,8.33625151 0.331949648,8.33625151 L5.73874552,8.33625151 C5.88646311,8.33625151 6.01658737,8.43384471 6.05741718,8.57591916 L6.26455376,9.2909387 L7.27334874,4.15833324 C7.30488396,3.99866546 7.44795426,3.88181919 7.60994568,3.89044988 C7.77260101,3.89576107 7.90737257,4.01825049 7.9282854,4.17957802 L8.78338769,10.7774092 L9.59766018,6.39766557 C9.62620785,6.24397288 9.75832381,6.13077805 9.91467209,6.12646271 C10.0673689,6.11484447 10.2091114,6.22704345 10.2462898,6.37907639 L10.7717661,8.51583627 L12.0408096,8.51583627 C12.2243777,8.51583627 12.3727592,8.66421777 12.3727592,8.84778592 C12.3727592,9.03135408 12.2243777,9.17973557 12.0408096,9.17973557 L10.5115176,9.17973557 C10.3588207,9.17973557 10.2257089,9.07550338 10.1891944,8.92678994 L9.96911183,8.03218564 L9.05127106,12.9689408 C9.02205949,13.1266169 8.88463233,13.2404756 8.72496455,13.2404756 Z" id="Shape"></path>
                    </g>
                    <g id="Group-3" transform="translate(9.156363, 0.111898)">
                        <path d="M8.02663679,8.57310569 L1.02663679,5.57310569 L2.44753779,4.66838323 C2.44753779,4.66838323 8.02831269,5.72180753 9.02663679,6.57310569 C10.0249609,7.42440385 8.02663679,8.57310569 8.02663679,8.57310569 Z" id="Path-4" fill="#7D726D"></path>
                        <path d="M14.5211507,3.11225549 C14.5211507,2.95664271 14.6248926,2.85290086 14.7805054,2.85290086 L15.03986,2.85290086 C15.7660529,2.85290086 16.3366331,3.42348104 16.3366331,4.14967398 L16.3366331,4.40902861 C16.3366331,4.56464138 16.2328913,4.66838323 16.0772785,4.66838323 C15.9216657,4.66838323 15.8179239,4.56464138 15.8179239,4.40902861 L15.8179239,4.14967398 C15.8179239,3.70877112 15.4807629,3.37161011 15.03986,3.37161011 L14.7805054,3.37161011 C14.6248926,3.37161011 14.5211507,3.26786826 14.5211507,3.11225549 Z M16.1291494,14.9647618 C16.440375,15.6650193 16.4663104,16.4946947 16.1810203,17.1952116 L16.0772785,17.4545662 C16.0111431,17.6527131 15.7357084,17.6550473 15.6363756,17.5064371 L10.5011541,10.9966361 L6.74051202,14.134827 L6.74051202,16.0021803 C6.74051202,16.2874704 6.63677017,16.546825 6.4811574,16.7802442 L5.91057723,17.5323726 C5.79931409,17.6999157 5.52725109,17.6529725 5.46967436,17.480761 L4.79535234,15.6652786 L3.2392246,16.3396007 C2.92773969,16.4723902 2.78301981,16.1624615 2.87612812,15.9765042 L3.55045015,14.4203764 L1.73496778,13.7460544 C1.56975888,13.6910712 1.49350862,13.4317166 1.68309685,13.3051516 L2.43522526,12.7345714 C2.66864443,12.5789586 2.92799905,12.4752168 3.21328914,12.4752168 L5.08064243,12.4752168 L8.21883338,8.71457472 L1.65716139,3.57909381 C1.4867654,3.46549649 1.550826,3.19083994 1.70903232,3.13819095 L1.96838694,3.0344491 C2.69457989,2.74915901 3.49857922,2.77509448 4.19883671,3.08632003 L6.04025454,3.94219028 L6.92206026,3.06038456 C7.02580211,2.95664271 7.18141488,2.95664271 7.28515673,3.06038456 L7.80386598,3.57909381 C7.90864525,3.68439179 7.90916396,3.83663295 7.80386598,3.94219028 L7.25922127,4.51277046 L7.98541422,4.84993147 L8.86721994,3.96812575 C8.97096179,3.8643839 9.12657456,3.8643839 9.23031641,3.96812575 L9.74902566,4.486835 C9.85276751,4.59057684 9.85276751,4.74618962 9.74902566,4.84993147 L9.17844549,5.42051164 L10.3974122,5.99109181 L12.4722492,3.50128742 C13.5096677,2.25638523 15.03986,1.55612774 16.6478587,1.55612774 C17.1665679,1.55612774 17.6074708,1.97109514 17.6074708,2.51573985 C17.6074708,4.12373852 16.9072133,5.6539308 15.6623111,6.6913493 L13.1722473,8.76618629 L13.7428275,9.98515302 L14.3134077,9.41457285 C14.4168902,9.310831 14.5727623,9.310831 14.6762448,9.41457285 L15.1949541,9.9332821 C15.2992146,10.0375427 15.3012895,10.1900432 15.1949541,10.2963786 L14.313667,11.1781843 L14.6508281,11.9046366 L15.2214082,11.3340564 C15.3248907,11.2303146 15.4807629,11.2303146 15.5842453,11.3340564 L16.1029546,11.8527657 C16.2066964,11.9562482 16.2066964,12.1121203 16.1029546,12.2156028 L15.2214082,13.0974085 L16.1291494,14.9647618 Z M14.9101827,12.4230865 L15.0139245,12.6305702 L15.5842453,12.05999 L15.4286326,11.9043772 L14.9101827,12.4230865 Z M14.0024415,10.4779268 L14.1061833,10.6854105 L14.6767635,10.1148303 L14.5211507,9.95921756 L14.0024415,10.4779268 Z M8.50412347,5.08335063 L8.71160716,5.18709248 L9.23031641,4.66838323 L9.07470364,4.51277046 L8.50412347,5.08335063 Z M6.55896379,4.17560945 L6.76644748,4.2793513 L7.28515673,3.76064205 L7.12954396,3.60502927 L6.55896379,4.17560945 Z M8.53005893,8.27341251 L10.0861867,6.40605921 L3.99135301,3.55315835 C3.47264376,3.31973919 2.87612812,3.29380372 2.33148341,3.4494165 L8.53005893,8.27341251 Z M2.35741888,13.4086341 L3.80980477,13.9532788 L4.63973957,12.9677312 L3.21328914,12.9677312 C3.05767636,12.9677312 2.87612812,13.0196021 2.74645081,13.123344 L2.35741888,13.4086341 Z M3.60232107,15.5872129 L4.79535234,15.0685037 L15.3510855,6.2763819 C16.4663104,5.34270525 17.114697,3.96812575 17.114697,2.48980439 C17.114697,2.25638523 16.9331487,2.04890153 16.6737941,2.04890153 C15.2214082,2.04890153 13.8208933,2.69728809 12.8872166,3.81251297 L4.12103032,14.3941816 L3.60232107,15.5872129 Z M5.2362552,15.3797292 L5.78089991,16.8323745 L6.06619,16.4433425 C6.16993185,16.3136652 6.22180277,16.132117 6.22180277,15.9762448 L6.22180277,14.5497944 L5.2362552,15.3797292 Z M15.6363756,15.1722455 L12.7834748,9.07741184 L10.9161215,10.6335396 L15.7401175,16.8580506 C15.9216657,16.3134058 15.8957302,15.7168902 15.6363756,15.1722455 Z M6.66270563,12.8899248 C6.76644748,12.786183 6.76644748,12.6305702 6.66270563,12.5268283 C6.55896379,12.4233458 6.40335101,12.4233458 6.29960916,12.5268283 L4.48412679,14.3423107 C4.38038494,14.4460526 4.38038494,14.6016653 4.48412679,14.7054072 C4.58086607,14.8021465 4.73933174,14.8135581 4.84722327,14.7054072 L6.66270563,12.8899248 Z" id="Shape" stroke="#FFFFFF" stroke-width="0.3" fill="#FFFFFF" fill-rule="nonzero" transform="translate(9.581799, 9.596375) rotate(-12.000000) translate(-9.581799, -9.596375) "></path>
                    </g>
                </g>
            </g>
        </g>
    </g>
</svg>