<?xml version="1.0" encoding="UTF-8"?>
<svg width="14px" height="23px" viewBox="0 0 14 23" version="1.1" xmlns="http://www.w3.org/2000/svg" xmlns:xlink="http://www.w3.org/1999/xlink">
    <!-- Generator: Sketch 42 (36781) - http://www.bohemiancoding.com/sketch -->
    <title>cr-landing-iconos-suc-movil-blanco</title>
    <desc>Created with Sketch.</desc>
    <defs></defs>
    <g id="Page-1" stroke="none" stroke-width="1" fill="none" fill-rule="evenodd">
        <g id="iPhone-7---2" transform="translate(-31.000000, -559.000000)" fill="#FFFFFF">
            <path d="M34.0638397,559.468244 L41.6586357,559.468244 C43.0567111,559.468244 44.1902344,560.601767 44.1902344,561.999842 L44.0847511,579.196418 C44.0847511,580.594494 42.9512278,581.728017 41.5531524,581.728017 L33.9583565,581.728017 C32.5602811,581.728017 31.4267578,580.594494 31.4267578,579.196418 L31.5322411,561.999842 C31.5322411,560.601767 32.6657644,559.468244 34.0638397,559.468244 Z M32.6925571,577.297719 L42.8189518,577.297719 L42.8189518,562.950675 L32.6925571,562.950675 L32.6925571,577.297719 Z M35.6988305,560.779038 C35.4380759,560.779038 35.2241558,560.992325 35.2241558,561.253713 C35.2241558,561.514467 35.4380759,561.728388 35.6988305,561.728388 L39.8126784,561.728388 C40.073433,561.728388 40.2873531,561.514467 40.2873531,561.253713 C40.2873531,560.992325 40.073433,560.779038 39.8126784,560.779038 L35.6988305,560.779038 Z M37.7557545,580.462218 C38.2797954,580.462218 38.705104,580.036909 38.705104,579.512868 C38.705104,578.988827 38.2797954,578.563519 37.7557545,578.563519 C37.2317135,578.563519 36.806405,578.988827 36.806405,579.512868 C36.806405,580.036909 37.2317135,580.462218 37.7557545,580.462218 Z" id="cr-landing-iconos-suc-movil-blanco"></path>
        </g>
    </g>
</svg>