<?xml version="1.0" encoding="UTF-8"?>
<svg width="48px" height="24px" viewBox="0 0 48 24" version="1.1" xmlns="http://www.w3.org/2000/svg" xmlns:xlink="http://www.w3.org/1999/xlink">
    <!-- Generator: Sketch 42 (36781) - http://www.bohemiancoding.com/sketch -->
    <title>cr-landing-iconos-prestamos-pers-blanco</title>
    <desc>Created with Sketch.</desc>
    <defs></defs>
    <g id="Page-1" stroke="none" stroke-width="1" fill="none" fill-rule="evenodd">
        <g id="cr-landing-iconos-prestamos-pers-blanco" transform="translate(0.296875, 0.000000)" fill-rule="nonzero" fill="#FFFFFF">
            <path d="M30.4851229,17.5079697 L30.4851229,16.5011216 C32.0513311,16.3892496 33.3378592,15.2705295 33.3378592,13.8721293 L33.3378592,13.7602573 C33.3378592,13.1449613 33.0581792,12.3059212 31.603843,11.5787531 L31.491971,11.5228171 L31.324163,11.5228171 L31.324163,11.5228171 L29.8138908,11.1872011 L27.9680027,10.851585 C27.5205146,10.571905 27.4086426,10.404097 27.4086426,10.404097 L27.4086426,10.404097 L27.4086426,10.292225 C27.4086426,9.90067295 27.9120667,9.50912091 28.5832987,9.50912091 L30.2613789,9.50912091 C30.932611,9.50912091 31.436035,9.90067295 31.436035,10.292225 L33.3378592,10.292225 C33.3378592,8.89382485 32.1072671,7.77510474 30.4851229,7.66323273 L30.4851229,6.76825665 L28.5832987,6.76825665 L28.5832987,7.66323273 L28.5273627,7.66323273 C26.8492826,7.66323273 25.4508824,8.83788884 25.4508824,10.348161 L25.4508824,10.460033 C25.4508824,11.2990731 26.0102425,12.0821772 27.1848986,12.6415372 L27.2967706,12.6974732 L27.9680027,12.8093452 L30.8207389,13.3687053 C31.268227,13.5924493 31.436035,13.8161933 31.436035,13.8161933 L31.436035,13.9280653 C31.436035,14.3196174 30.932611,14.7111694 30.2613789,14.7111694 L28.5832987,14.7111694 C27.9120667,14.7111694 27.4086426,14.3196174 27.4086426,13.9280653 L25.5068184,13.9280653 C25.5068184,15.3824015 26.9052186,16.6129936 28.5832987,16.6129936 L28.6392347,16.6129936 L28.6392347,17.5639057 L30.4851229,17.5639057 L30.4851229,17.5079697 Z" id="Shape"></path>
            <path d="M38.7077157,12.1381132 C38.7077157,6.99200067 34.5125153,2.85273627 29.4223388,2.85273627 C24.3321623,2.85273627 20.1369619,6.99200067 20.1369619,12.1381132 C20.1369619,17.2842257 24.3321623,21.42349 29.4223388,21.42349 C34.5125153,21.42349 38.7077157,17.2842257 38.7077157,12.1381132 Z M22.0387861,12.1381132 C22.0387861,8.05478477 25.3390104,4.75456045 29.4223388,4.75456045 C33.5056672,4.75456045 36.8058915,8.05478477 36.8058915,12.1381132 C36.8058915,16.2214415 33.5056672,19.5216659 29.4223388,19.5216659 C25.3390104,19.5216659 22.0387861,16.2214415 22.0387861,12.1381132 Z" id="Shape"></path>
            <path d="M46.3150124,0.279680027 L12.5296652,0.279680027 C12.0262411,0.279680027 11.5787531,0.727168069 11.5787531,1.23059212 L11.5787531,5.81734456 L7.27168069,5.81734456 C6.76825665,5.81734456 6.3207686,6.2648326 6.3207686,6.76825665 C6.3207686,7.27168069 6.76825665,7.71916874 7.27168069,7.71916874 L11.5787531,7.71916874 L11.5787531,13.8721293 L6.88012866,13.8721293 C6.37670461,13.8721293 5.92921657,14.3196174 5.92921657,14.8230414 C5.92921657,15.3264655 6.37670461,15.7739535 6.88012866,15.7739535 L16.5570576,15.7739535 C17.0604816,15.7739535 17.5079697,15.3264655 17.5079697,14.8230414 C17.5079697,14.3196174 17.0604816,13.8721293 16.5570576,13.8721293 L13.4805773,13.8721293 L13.4805773,7.38355271 C16.1655055,6.99200067 18.2351377,4.86643246 18.6826258,2.18150421 L40.1620518,2.18150421 C40.5536039,4.86643246 42.6791721,6.93606466 45.3641003,7.38355271 L45.3641003,16.8926736 C42.6791721,17.2842257 40.6095399,19.4097939 40.1620518,22.0947221 L18.6826258,22.0947221 C18.2351377,19.1301138 15.6620815,16.8367376 12.5296652,16.8367376 C12.0262411,16.8367376 11.5787531,17.2842257 11.5787531,17.7876497 L11.5787531,23.0456342 C11.5787531,23.5490582 12.0262411,23.9965463 12.5296652,23.9965463 L46.2590764,23.9965463 C46.7625005,23.9965463 47.2099885,23.5490582 47.2099885,23.0456342 L47.2099885,1.23059212 C47.2659245,0.727168069 46.8184365,0.279680027 46.3150124,0.279680027 Z M13.4805773,5.42579252 L13.4805773,2.18150421 L16.7808016,2.18150421 C16.3892496,3.80364836 15.1027214,5.09017649 13.4805773,5.42579252 Z M42.063876,2.18150421 L45.3081643,2.18150421 L45.3081643,5.42579252 C43.7419562,5.09017649 42.4554281,3.80364836 42.063876,2.18150421 Z M13.4805773,18.7944978 C15.1027214,19.1860498 16.3892496,20.416642 16.7248656,22.0387861 L13.4805773,22.0387861 L13.4805773,18.7944978 L13.4805773,18.7944978 Z M42.063876,22.0387861 C42.4554281,20.416642 43.6860202,19.1301138 45.3081643,18.7944978 L45.3081643,22.0387861 L42.063876,22.0387861 Z" id="Shape"></path>
            <path d="M10.180353,11.0193931 C10.180353,10.515969 9.73286493,10.068481 9.22944088,10.068481 L1.17465611,10.068481 C0.671232064,10.068481 0.223744021,10.515969 0.223744021,11.0193931 C0.223744021,11.5228171 0.671232064,11.9703051 1.17465611,11.9703051 L9.22944088,11.9703051 C9.73286493,11.9703051 10.180353,11.5228171 10.180353,11.0193931 Z" id="Shape"></path>
            <path d="M3.69177635,7.66323273 L4.36300842,7.66323273 C4.86643246,7.66323273 5.31392051,7.21574469 5.31392051,6.71232064 C5.31392051,6.20889659 4.86643246,5.76140855 4.36300842,5.76140855 L3.69177635,5.76140855 C3.1883523,5.76140855 2.74086426,6.20889659 2.74086426,6.71232064 C2.74086426,7.21574469 3.1883523,7.66323273 3.69177635,7.66323273 Z" id="Shape"></path>
        </g>
    </g>
</svg>