<svg xmlns="http://www.w3.org/2000/svg" viewBox="0 0 100 85"><title>1cr-landing-alternativo-iconos-casillero1</title><g id="img"><path d="M88,9.78H17.19a2.39,2.39,0,0,0-2.38,2.38V61.37a2.39,2.39,0,0,0,2.38,2.39H88a2.4,2.4,0,0,0,2.39-2.39V12.16A2.52,2.52,0,0,0,88,9.78ZM52.57,60.66a2,2,0,1,1,2-2A2,2,0,0,1,52.57,60.66Zm33-7.16H19.66V14.63H85.57Z" fill="#253d85"/><path d="M67.2,73.94H63a1.12,1.12,0,0,1-1-.72l-2-6.84H45.1l-2,6.84a1,1,0,0,1-1,.72H37.94a.91.91,0,0,0-.95,1v1.27a.92.92,0,0,0,.95,1H67.2a.92.92,0,0,0,1-1V74.89A.92.92,0,0,0,67.2,73.94Z" fill="#253d85"/><path d="M37.29,44.05,49.7,47.78a3,3,0,0,0,1.77,0l12.41-3.73a1.56,1.56,0,0,0,1.1-1.5v-17a1.57,1.57,0,0,0-1.11-1.5l-12.4-3.73a3,3,0,0,0-1.77,0L44.29,22v7.18l-2.85.54V22.83l-4.15,1.25a1.57,1.57,0,0,0-1.1,1.5v17A1.56,1.56,0,0,0,37.29,44.05ZM52.15,23.82l9.7,2.92V41.39l-9.7,2.92Z" fill="#253d85"/><path d="M60.11,32.52l-1.69-.43-.8-2.43-.06-.13a.27.27,0,0,0-.08-.1l-.09-.07a.17.17,0,0,0-.1,0h-.1l-.17.12-.06.13L56.09,32,54,32.28a.35.35,0,0,0-.22.12.6.6,0,0,0-.13.25.81.81,0,0,0,0,.31.61.61,0,0,0,.13.32l1.57,2L55,38.09a.53.53,0,0,0,0,.25.5.5,0,0,0,.08.2.53.53,0,0,0,.14.12.47.47,0,0,0,.17,0h0l0,0,0,0,0,0,1.75-1.45,1.61,1.06,0,0h.1a.35.35,0,0,0,.14-.06A.36.36,0,0,0,59.3,38a.49.49,0,0,0,.07-.19.89.89,0,0,0,0-.23l-.29-2.5,1.2-1.77a.62.62,0,0,0,.08-.24.53.53,0,0,0,0-.25.47.47,0,0,0-.09-.22A.25.25,0,0,0,60.11,32.52Z" fill="#253d85"/></g></svg>