<svg xmlns="http://www.w3.org/2000/svg" viewBox="0 0 100 85"><title>1cr-landing-alternativo-iconos-entrega1</title><g id="img"><path d="M76.41,4H44.16A3.17,3.17,0,0,0,41,7.17V39.59l15.55,4.68a5.38,5.38,0,0,1,3.85,5.19V71.12H77.5A2.09,2.09,0,0,0,79.58,69V7.17A3.17,3.17,0,0,0,76.41,4ZM72.69,39.42a3.17,3.17,0,0,1-6.34,0,3.17,3.17,0,1,1,0-6.34,3.17,3.17,0,0,1,6.34,0Z" fill="#253d85"/><path d="M55.59,47.41l-17-5.11a4.33,4.33,0,0,0-2.42,0l-7.39,2.23v9.81l-3.91.73V45.7l-5.67,1.71a2.15,2.15,0,0,0-1.51,2.05V72.67a2.15,2.15,0,0,0,1.51,2l17,5.1a4.16,4.16,0,0,0,2.42,0l17-5.1a2.12,2.12,0,0,0,1.5-2V49.46A2.12,2.12,0,0,0,55.59,47.41ZM52.84,71.08l-13.27,4v-28l13.27,4Z" fill="#253d85"/><path d="M43.91,62.71l-.49,3.85a1,1,0,0,0,0,.35.72.72,0,0,0,.12.27.49.49,0,0,0,.19.16.46.46,0,0,0,.23,0H44l.07,0,.06,0,.07,0,2.4-2,2.2,1.45,0,0H49a.37.37,0,0,0,.19-.09.65.65,0,0,0,.15-.18.88.88,0,0,0,.1-.27,1.5,1.5,0,0,0,0-.3l-.4-3.43,1.63-2.42a.6.6,0,0,0,.12-.32,1,1,0,0,0,0-.35.81.81,0,0,0-.12-.29.36.36,0,0,0-.22-.16l-2.31-.6L47,55a.58.58,0,0,0-.08-.18.71.71,0,0,0-.1-.14.38.38,0,0,0-.13-.09.45.45,0,0,0-.26,0l-.24.17a.8.8,0,0,0-.08.16L45,58.19l-2.87.43a.53.53,0,0,0-.31.17.75.75,0,0,0-.18.34,1,1,0,0,0,0,.43.9.9,0,0,0,.18.43Z" fill="#253d85"/></g></svg>