<?xml version="1.0" encoding="UTF-8"?>
<svg width="42px" height="42px" viewBox="0 0 42 42" version="1.1" xmlns="http://www.w3.org/2000/svg" xmlns:xlink="http://www.w3.org/1999/xlink">
    <!-- Generator: Sketch 42 (36781) - http://www.bohemiancoding.com/sketch -->
    <title>cr-landing-iconos-prestamo-carro-blanco</title>
    <desc>Created with Sketch.</desc>
    <defs></defs>
    <g id="Page-1" stroke="none" stroke-width="1" fill="none" fill-rule="evenodd">
        <g id="cr-landing-iconos-prestamo-carro-blanco" transform="translate(-0.203125, -0.400000)" fill-rule="nonzero" fill="#FFFFFF">
            <g id="carro" transform="translate(0.854156, 0.466757)">
                <path d="M39.6158484,15.888821 C39.0134452,15.2859203 38.2105724,14.9461668 37.3554682,14.9322384 C37.0435716,14.9262691 36.7381417,14.9670594 36.4476351,15.0471477 L34.4588587,16.2882676 C34.4588587,16.3459709 34.4663204,16.402182 34.4757718,16.4573981 L30.2340769,20.6980981 C29.6600279,19.3758951 28.3427993,18.4481643 26.8111729,18.4481643 L11.9774281,18.4481643 C10.9815476,18.4481643 10.0443653,18.8361697 9.33948887,19.5410461 L1.51421593,27.3658216 C1.12571309,27.7543245 1.12571309,28.3840871 1.51421593,28.7725899 C1.70821863,28.96709 1.96290935,29.0640914 2.21760007,29.0640914 C2.47229079,29.0640914 2.72648407,28.96709 2.92098421,28.7725899 L10.7462571,20.9478144 C11.0755643,20.6190047 11.5128165,20.4379355 11.9774281,20.4379355 L26.8106754,20.4379355 C27.7707401,20.4379355 28.5517253,21.2189207 28.5517253,22.1789854 C28.5517253,23.13905 27.7707401,23.9200352 26.8106754,23.9200352 L18.1521858,23.9200352 C17.6030089,23.9200352 17.1573002,24.365744 17.1573002,24.9149209 C17.1573002,25.4640977 17.6030089,25.9098065 18.1521858,25.9098065 L26.8106754,25.9098065 C28.4318416,25.9098065 29.8107531,24.8686587 30.324114,23.4215975 L36.5252362,17.2209728 C36.7202338,17.0254778 37.0196943,16.9264867 37.322637,16.9215123 C37.6589084,16.9274816 37.9737897,17.0598014 38.2090801,17.2955893 C38.4443706,17.5308797 38.5732083,17.8432738 38.5732083,18.1755656 C38.5732083,18.50736 38.4438731,18.819754 38.2090801,19.0545471 L26.3216892,30.941938 C26.0863987,31.1772285 25.7740046,31.3065636 25.4417128,31.3065636 L10.4229193,31.3065636 C10.1592746,31.3065636 9.90607623,31.411524 9.71953518,31.5980651 L2.01862295,39.2984799 C1.63012011,39.6869827 1.63012011,40.3167453 2.01862295,40.7052482 C2.21312309,40.8997483 2.46731637,40.9967497 2.72200709,40.9967497 C2.97669781,40.9967497 3.23138853,40.8997483 3.42539123,40.7052482 L10.8352994,33.2958374 L25.4422103,33.2958374 C26.3052735,33.2958374 27.1175977,32.9595661 27.7284574,32.3487063 L39.6158484,20.4613153 C40.2267082,19.8504556 40.5629795,19.0391263 40.5629795,18.1750682 C40.5629795,17.31101 40.2267082,16.4996808 39.6158484,15.888821 Z" id="Shape"></path>
                <path d="M36.8024842,6.87304357 L35.3483903,2.63193626 C35.3483903,2.59154476 35.3483903,2.59154476 35.3079988,2.55115327 C34.7021263,1.13745083 33.3288154,0.208446372 31.7939385,0.208446372 L19.514923,0.208446372 C16.3643862,0.208446372 13.9005048,1.33940832 11.2750574,3.9244642 L8.16491204,6.59030308 L5.05476668,6.59030308 C2.26775331,6.59030308 0.005829408,8.85222698 0.005829408,11.6392404 L0.005829408,13.9819472 C0.005829408,15.4360412 1.17718286,16.6073946 2.63127679,16.6073946 L4.5700687,16.6073946 C5.13554968,18.425012 6.8319926,19.7579315 8.81117601,19.7579315 C10.8307509,19.7579315 12.5271938,18.425012 13.0522833,16.6073946 L23.6348558,16.6073946 C24.2003368,18.425012 25.8967797,19.7579315 27.8759631,19.7579315 C29.8955381,19.7579315 31.591981,18.425012 32.1170705,16.6073946 L35.5503478,16.6073946 C37.0044417,16.6073946 38.1757952,15.4360412 38.1757952,13.9819472 L38.1757952,9.25614196 C38.2565782,8.20596301 37.6910972,7.31735005 36.8024842,6.87304357 Z M33.4499899,3.31859173 L34.5809518,6.63069458 L28.5626186,6.63069458 L27.9567461,2.26841278 L31.7939385,2.26841278 C32.5209854,2.26841278 33.1672494,2.67232776 33.4499899,3.31859173 Z M21.1709745,2.26841278 L25.8967797,2.26841278 L26.5026522,6.63069458 L19.9592295,6.63069458 L21.1709745,2.26841278 Z M12.6483683,5.45934113 L12.6887598,5.41894964 C14.7891177,3.31859173 16.6875182,2.34919578 19.0706165,2.26841278 L17.8184801,6.63069458 L11.2750574,6.63069458 L12.6483683,5.45934113 Z M8.85156751,17.7787481 C7.51864807,17.7787481 6.42807762,16.6881776 6.42807762,15.3552582 C6.42807762,14.0223387 7.51864807,12.9317683 8.85156751,12.9317683 C10.1844869,12.9317683 11.2750574,14.0223387 11.2750574,15.3552582 C11.2750574,16.6881776 10.1844869,17.7787481 8.85156751,17.7787481 Z M27.9567461,17.7787481 C26.6238267,17.7787481 25.5332563,16.6881776 25.5332563,15.3552582 C25.5332563,14.0223387 26.6238267,12.9317683 27.9567461,12.9317683 C29.2896656,12.9317683 30.380236,14.0223387 30.380236,15.3552582 C30.380236,16.6881776 29.2896656,17.7787481 27.9567461,17.7787481 Z M36.2370033,14.0223387 C36.2370033,14.3454707 35.9542628,14.6282112 35.6311308,14.6282112 L32.3190279,14.6282112 C31.9555045,12.5278533 30.137887,10.9121934 27.9163546,10.9121934 C25.6948222,10.9121934 23.8772048,12.5278533 23.5136813,14.6282112 L13.2138493,14.6282112 C12.8503258,12.5278533 11.0327084,10.9121934 8.81117601,10.9121934 C6.58964361,10.9121934 4.77202619,12.5278533 4.40850271,14.6282112 L2.67166829,14.6282112 C2.3485363,14.6282112 2.06579581,14.3454707 2.06579581,14.0223387 L2.06579581,11.6796319 C2.06579581,10.0235804 3.43910675,8.65026949 5.09515818,8.65026949 L35.6715223,8.65026949 C35.9946543,8.65026949 36.2773948,8.93300998 36.2773948,9.25614196 L36.2773948,14.0223387 L36.2370033,14.0223387 Z" id="Shape" transform="translate(19.094639, 9.983189) scale(-1, 1) translate(-19.094639, -9.983189) "></path>
            </g>
        </g>
    </g>
</svg>