<svg xmlns="http://www.w3.org/2000/svg" viewBox="0 0 100 85"><title>1cr-landing-alternativo-iconos-valet1</title><g id="Layer_3" data-name="Layer 3"><path d="M32.92,64.47v5.16a4.3,4.3,0,0,1-4.32,4.31H25.25a4.3,4.3,0,0,1-4.31-4.31V64.47Z" fill="#979797"/><path d="M79,64.47v5.16a4.3,4.3,0,0,1-4.31,4.31H71.35A4.3,4.3,0,0,1,67,69.63V64.47Z" fill="#979797"/><path d="M31.4,61.08H81.24A3.09,3.09,0,0,0,84.34,58V44.24A11,11,0,0,0,79.7,34.09h1.54a1.91,1.91,0,0,0,1.89-1.89V30.48a1.91,1.91,0,0,0-1.89-1.89H78.15l-1.89-6.36a15.68,15.68,0,0,0-15-11.17H39.48a15.63,15.63,0,0,0-15,11.17l-1.89,6.36H19.36a1.91,1.91,0,0,0-1.89,1.89V32a1.91,1.91,0,0,0,1.89,1.89h1.55a12.42,12.42,0,0,0-5.33,10.32V58a3.09,3.09,0,0,0,3.1,3.09H31.4Zm-.74-37A10.24,10.24,0,0,1,40.5,16.8H60.65a10.38,10.38,0,0,1,9.84,7.31l2.22,7.3h-44Zm4.35,23a1.91,1.91,0,0,1-1.89,1.89h-7.4a1.91,1.91,0,0,1-1.89-1.89V45.61a1.91,1.91,0,0,1,1.89-1.89h7.4A1.91,1.91,0,0,1,35,45.61Zm41.89,0A1.91,1.91,0,0,1,75,49.05H67.62a1.91,1.91,0,0,1-1.89-1.89V45.61a1.91,1.91,0,0,1,1.89-1.89H75a1.91,1.91,0,0,1,1.89,1.89Z" fill="#b0b0b0"/></g></svg>