<?xml version="1.0" encoding="UTF-8"?>
<svg width="23px" height="18px" viewBox="0 0 23 18" version="1.1" xmlns="http://www.w3.org/2000/svg" xmlns:xlink="http://www.w3.org/1999/xlink">
    <!-- Generator: Sketch 42 (36781) - http://www.bohemiancoding.com/sketch -->
    <title>cr-landing-iconos-corp-blanco</title>
    <desc>Created with Sketch.</desc>
    <defs></defs>
    <g id="Page-1" stroke="none" stroke-width="1" fill="none" fill-rule="evenodd">
        <g id="iPhone-7---2" transform="translate(-27.000000, -498.000000)" fill-rule="nonzero" fill="#FFFFFF">
            <g id="cr-landing-iconos-corp-blanco" transform="translate(27.464844, 498.116710)">
                <path d="M10.7738146,17.0212102 L9.75407272,17.0212102 L9.75407272,3.9556034 C9.75407272,3.77067481 9.60213119,3.62058784 9.41415878,3.62058784 L5.67510541,3.62058784 L4.99527752,3.62058784 L1.25622415,3.62058784 C1.06859165,3.62058784 0.916310206,3.77067481 0.916310206,3.9556034 L0.916310206,17.0212102 C0.916310206,17.0212102 5.95835841,17.3639266 8.47938251,17.5352849 C9.24419319,17.5872703 10.7738146,17.6912413 10.7738146,17.6912413 C10.961787,17.6912413 11.1137285,17.5414893 11.1137285,17.3562257 C11.1137285,17.1709621 10.961787,17.0212102 10.7738146,17.0212102 Z M1.74955614,4.50662923 L9.10712013,4.50662923 L9.10712013,17.0320107 L7.76938122,17.0320107 L5.09390341,17.0320107 L1.74955614,17.0320107 L1.74955614,4.50662923 Z" id="Shape"></path>
                <path d="M3.36880726,11.2479634 C3.18837261,11.2479634 3.04193289,11.3919707 3.04193289,11.5701273 L3.04193289,12.2144551 C3.04193289,12.3926118 3.18837261,12.536619 3.36880726,12.536619 C3.54924191,12.536619 3.69568162,12.3926118 3.69568162,12.2144551 L3.69568162,11.5701273 C3.69568162,11.3919707 3.54924191,11.2479634 3.36880726,11.2479634 Z" id="Shape"></path>
                <path d="M5.33005346,12.536619 C5.51048811,12.536619 5.65692783,12.3926118 5.65692783,12.2144551 L5.65692783,11.5701273 C5.65692783,11.3919707 5.51048811,11.2479634 5.33005346,11.2479634 C5.14961881,11.2479634 5.00317909,11.3919707 5.00317909,11.5701273 L5.00317909,12.2144551 C5.00317909,12.3926118 5.14961881,12.536619 5.33005346,12.536619 Z" id="Shape"></path>
                <path d="M7.29129967,12.536619 C7.47206119,12.536619 7.61817403,12.3926118 7.61817403,12.2144551 L7.61817403,11.5701273 C7.61817403,11.3919707 7.47206119,11.2479634 7.29129967,11.2479634 C7.11053814,11.2479634 6.9644253,11.3919707 6.9644253,11.5701273 L6.9644253,12.2144551 C6.9644253,12.3926118 7.11053814,12.536619 7.29129967,12.536619 Z" id="Shape"></path>
                <path d="M3.36880726,8.67065232 C3.18837261,8.67065232 3.04193289,8.81498174 3.04193289,8.99281621 L3.04193289,9.63714399 C3.04193289,9.81497846 3.18837261,9.95930788 3.36880726,9.95930788 C3.54924191,9.95930788 3.69568162,9.81497846 3.69568162,9.63714399 L3.69568162,8.99281621 C3.69568162,8.81498174 3.54924191,8.67065232 3.36880726,8.67065232 Z" id="Shape"></path>
                <path d="M5.33005346,9.95930788 C5.51048811,9.95930788 5.65692783,9.81497846 5.65692783,9.63714399 L5.65692783,8.99281621 C5.65692783,8.81498174 5.51048811,8.67065232 5.33005346,8.67065232 C5.14961881,8.67065232 5.00317909,8.81498174 5.00317909,8.99281621 L5.00317909,9.63714399 C5.00317909,9.81497846 5.14961881,9.95930788 5.33005346,9.95930788 Z" id="Shape"></path>
                <path d="M7.29129967,9.95930788 C7.47206119,9.95930788 7.61817403,9.81497846 7.61817403,9.63714399 L7.61817403,8.99281621 C7.61817403,8.81498174 7.47206119,8.67065232 7.29129967,8.67065232 C7.11053814,8.67065232 6.9644253,8.81498174 6.9644253,8.99281621 L6.9644253,9.63714399 C6.9644253,9.81497846 7.11053814,9.95930788 7.29129967,9.95930788 Z" id="Shape"></path>
                <path d="M3.36880726,6.09334119 C3.18837261,6.09334119 3.04193289,6.23767061 3.04193289,6.41550508 L3.04193289,7.05983286 C3.04193289,7.23766733 3.18837261,7.38199675 3.36880726,7.38199675 C3.54924191,7.38199675 3.69568162,7.23766733 3.69568162,7.05983286 L3.69568162,6.41550508 C3.69568162,6.23767061 3.54924191,6.09334119 3.36880726,6.09334119 Z" id="Shape"></path>
                <path d="M5.33005346,7.38199675 C5.51048811,7.38199675 5.65692783,7.23766733 5.65692783,7.05983286 L5.65692783,6.41550508 C5.65692783,6.23767061 5.51048811,6.09334119 5.33005346,6.09334119 C5.14961881,6.09334119 5.00317909,6.23767061 5.00317909,6.41550508 L5.00317909,7.05983286 C5.00317909,7.23766733 5.14961881,7.38199675 5.33005346,7.38199675 Z" id="Shape"></path>
                <path d="M7.29129967,7.38199675 C7.47206119,7.38199675 7.61817403,7.23766733 7.61817403,7.05983286 L7.61817403,6.41550508 C7.61817403,6.23767061 7.47206119,6.09334119 7.29129967,6.09334119 C7.11053814,6.09334119 6.9644253,6.23767061 6.9644253,6.41550508 L6.9644253,7.05983286 C6.9644253,7.23766733 7.11053814,7.38199675 7.29129967,7.38199675 Z" id="Shape"></path>
                <path d="M21.3535684,16.8536152 L20.0927672,16.8536152 L20.0927672,0.519905866 C20.0927672,0.288721058 19.9049079,0.101092807 19.6725002,0.101092807 L15.0495627,0.101092807 L14.2090286,0.101092807 L9.58609114,0.101092807 C9.35410374,0.101092807 9.1658241,0.288721058 9.1658241,0.519905866 L9.1658241,16.8536152 L0.453621571,16.8536152 C0.221634163,16.8536152 0.0333545273,17.0408246 0.0333545273,17.2724282 C0.0333545273,17.5040318 0.221634163,17.6912413 0.453621571,17.6912413 L21.3535684,17.6912413 C21.585976,17.6912413 21.7738354,17.5040318 21.7738354,17.2724282 C21.7738354,17.0408246 21.585976,16.8536152 21.3535684,16.8536152 Z M10.0063582,0.938718925 L19.2522332,0.938718925 L19.2522332,16.8536152 L17.571165,16.8536152 L17.571165,13.0842976 C17.571165,12.852694 17.3833056,12.6654846 17.1508979,12.6654846 L14.6292957,12.6654846 C14.3973083,12.6654846 14.2090286,12.852694 14.2090286,13.0842976 L14.2090286,16.8536152 L10.0063582,16.8536152 L10.0063582,0.938718925 Z M16.7306309,16.8536152 L15.0495627,16.8536152 L15.0495627,13.5031107 L16.7306309,13.5031107 L16.7306309,16.8536152 Z" id="Shape"></path>
                <path d="M12.1076934,12.6654846 C11.875706,12.6654846 11.6874264,12.852694 11.6874264,13.0842976 L11.6874264,13.9219237 C11.6874264,14.1535274 11.875706,14.3407368 12.1076934,14.3407368 C12.3396808,14.3407368 12.5279605,14.1535274 12.5279605,13.9219237 L12.5279605,13.0842976 C12.5279605,12.852694 12.3396808,12.6654846 12.1076934,12.6654846 Z" id="Shape"></path>
                <path d="M12.1076934,9.3149801 C11.875706,9.3149801 11.6874264,9.50218954 11.6874264,9.73379316 L11.6874264,10.5714193 C11.6874264,10.8030229 11.875706,10.9902323 12.1076934,10.9902323 C12.3396808,10.9902323 12.5279605,10.8030229 12.5279605,10.5714193 L12.5279605,9.73379316 C12.5279605,9.50218954 12.3396808,9.3149801 12.1076934,9.3149801 Z" id="Shape"></path>
                <path d="M14.6292957,10.9902323 C14.8612831,10.9902323 15.0495627,10.8030229 15.0495627,10.5714193 L15.0495627,9.73379316 C15.0495627,9.50218954 14.8612831,9.3149801 14.6292957,9.3149801 C14.3973083,9.3149801 14.2090286,9.50218954 14.2090286,9.73379316 L14.2090286,10.5714193 C14.2090286,10.8030229 14.3973083,10.9902323 14.6292957,10.9902323 Z" id="Shape"></path>
                <path d="M17.1508979,10.9902323 C17.3833056,10.9902323 17.571165,10.8030229 17.571165,10.5714193 L17.571165,9.73379316 C17.571165,9.50218954 17.3833056,9.3149801 17.1508979,9.3149801 C16.9184903,9.3149801 16.7306309,9.50218954 16.7306309,9.73379316 L16.7306309,10.5714193 C16.7306309,10.8030229 16.9184903,10.9902323 17.1508979,10.9902323 Z" id="Shape"></path>
                <path d="M12.1076934,5.96447563 C11.875706,5.96447563 11.6874264,6.15210388 11.6874264,6.38328869 L11.6874264,7.22091481 C11.6874264,7.45209961 11.875706,7.63972786 12.1076934,7.63972786 C12.3396808,7.63972786 12.5279605,7.45209961 12.5279605,7.22091481 L12.5279605,6.38328869 C12.5279605,6.15210388 12.3396808,5.96447563 12.1076934,5.96447563 Z" id="Shape"></path>
                <path d="M14.6292957,7.63972786 C14.8612831,7.63972786 15.0495627,7.45209961 15.0495627,7.22091481 L15.0495627,6.38328869 C15.0495627,6.15210388 14.8612831,5.96447563 14.6292957,5.96447563 C14.3973083,5.96447563 14.2090286,6.15210388 14.2090286,6.38328869 L14.2090286,7.22091481 C14.2090286,7.45209961 14.3973083,7.63972786 14.6292957,7.63972786 Z" id="Shape"></path>
                <path d="M17.1508979,7.63972786 C17.3833056,7.63972786 17.571165,7.45209961 17.571165,7.22091481 L17.571165,6.38328869 C17.571165,6.15210388 17.3833056,5.96447563 17.1508979,5.96447563 C16.9184903,5.96447563 16.7306309,6.15210388 16.7306309,6.38328869 L16.7306309,7.22091481 C16.7306309,7.45209961 16.9184903,7.63972786 17.1508979,7.63972786 Z" id="Shape"></path>
                <path d="M12.1076934,2.61397116 C11.875706,2.61397116 11.6874264,2.80159941 11.6874264,3.03278422 L11.6874264,3.87041034 C11.6874264,4.10159514 11.875706,4.28922339 12.1076934,4.28922339 C12.3396808,4.28922339 12.5279605,4.10159514 12.5279605,3.87041034 L12.5279605,3.03278422 C12.5279605,2.80159941 12.3396808,2.61397116 12.1076934,2.61397116 Z" id="Shape"></path>
                <path d="M14.6292957,4.28922339 C14.8612831,4.28922339 15.0495627,4.10159514 15.0495627,3.87041034 L15.0495627,3.03278422 C15.0495627,2.80159941 14.8612831,2.61397116 14.6292957,2.61397116 C14.3973083,2.61397116 14.2090286,2.80159941 14.2090286,3.03278422 L14.2090286,3.87041034 C14.2090286,4.10159514 14.3973083,4.28922339 14.6292957,4.28922339 Z" id="Shape"></path>
                <path d="M17.1508979,4.28922339 C17.3833056,4.28922339 17.571165,4.10159514 17.571165,3.87041034 L17.571165,3.03278422 C17.571165,2.80159941 17.3833056,2.61397116 17.1508979,2.61397116 C16.9184903,2.61397116 16.7306309,2.80159941 16.7306309,3.03278422 L16.7306309,3.87041034 C16.7306309,4.10159514 16.9184903,4.28922339 17.1508979,4.28922339 Z" id="Shape"></path>
            </g>
        </g>
    </g>
</svg>