<?xml version="1.0" encoding="UTF-8"?>
<svg width="20px" height="23px" viewBox="0 0 20 23" version="1.1" xmlns="http://www.w3.org/2000/svg" xmlns:xlink="http://www.w3.org/1999/xlink">
    <!-- Generator: Sketch 42 (36781) - http://www.bohemiancoding.com/sketch -->
    <title>cr-landing-iconos-prestamo-casa-blanco</title>
    <desc>Created with Sketch.</desc>
    <defs></defs>
    <g id="Page-1" stroke="none" stroke-width="1" fill="none" fill-rule="evenodd">
        <g id="iPhone-7---2" transform="translate(-28.000000, -285.000000)" fill-rule="nonzero" fill="#FFFFFF">
            <g id="cr-landing-iconos-prestamo-casa-blanco" transform="translate(28.725000, 285.000000)">
                <path d="M18.0875831,10.93586 C17.805456,10.6535 17.4294419,10.4943813 17.0289659,10.4878581 C16.8828935,10.4850625 16.7398497,10.504166 16.6037951,10.5416742 L15.6723797,11.1229352 C15.6723797,11.1499598 15.6758743,11.1762854 15.6803007,11.2021451 L13.6937627,13.1882171 C13.424915,12.568982 12.8080096,12.1344924 12.0906939,12.1344924 L5.14351884,12.1344924 C4.67711225,12.1344924 4.23819615,12.3162092 3.9080772,12.6463282 L0.243221019,16.3109514 C0.0612711955,16.4929012 0.0612711955,16.7878416 0.243221019,16.9697914 C0.334079446,17.0608828 0.453360253,17.1063121 0.572641059,17.1063121 C0.691921865,17.1063121 0.810969702,17.0608828 0.902061099,16.9697914 L4.56691728,13.3051682 C4.72114364,13.1511749 4.92592455,13.0663737 5.14351884,13.0663737 L12.090461,13.0663737 C12.5400937,13.0663737 12.9058571,13.4321371 12.9058571,13.8817698 C12.9058571,14.3314025 12.5400937,14.6971659 12.090461,14.6971659 L8.03537948,14.6971659 C7.77818024,14.6971659 7.56943883,14.9059073 7.56943883,15.1631066 C7.56943883,15.4203058 7.77818024,15.6290472 8.03537948,15.6290472 L12.090461,15.6290472 C12.8497112,15.6290472 13.495505,15.1414403 13.7359304,14.4637297 L16.6401384,11.5597546 C16.7314628,11.4681972 16.8717109,11.4218361 17.0135899,11.4195064 C17.1710778,11.4223021 17.318548,11.4842722 17.428743,11.5947001 C17.538938,11.7048951 17.5992773,11.8512004 17.5992773,12.0068246 C17.5992773,12.1622158 17.538705,12.3085212 17.428743,12.4184832 L11.8614511,17.985775 C11.7512562,18.09597 11.6049508,18.1565423 11.4493266,18.1565423 L4.41548657,18.1565423 C4.2920123,18.1565423 4.1734304,18.205699 4.08606653,18.2930629 L0.479452929,21.8994435 C0.297503105,22.0813934 0.297503105,22.3763338 0.479452929,22.5582836 C0.570544326,22.649375 0.689592162,22.6948042 0.808872969,22.6948042 C0.928153775,22.6948042 1.04743458,22.649375 1.13829301,22.5582836 L4.60861897,19.0881906 L11.4495596,19.0881906 C11.8537631,19.0881906 12.2342037,18.9307027 12.5202912,18.6446151 L18.0875831,13.0773233 C18.3736706,12.7912357 18.5311586,12.4112611 18.5311586,12.0065916 C18.5311586,11.6019222 18.3736706,11.2219476 18.0875831,10.93586 Z" id="Shape"></path>
                <path d="M9.48318254,0.000795481134 C9.38458572,0.00537819429 9.2896297,0.039283255 9.21056611,0.0981360915 L2.29742495,5.34428267 C2.15419661,5.44951622 2.07890036,5.62337167 2.10033554,5.7993527 C2.12177072,5.97533374 2.23662093,6.12621299 2.4009582,6.1942821 C2.56529547,6.2623512 2.75369394,6.23707867 2.89409487,6.12813074 L3.7479501,5.47748561 L3.7479501,12.6243357 C3.7454316,12.8017059 3.83899385,12.9666868 3.99281003,13.0561039 C4.14662621,13.145521 4.33686558,13.145521 4.49068177,13.0561039 C4.64449795,12.9666868 4.7380602,12.8017059 4.7355417,12.6243357 L4.7355417,4.72949987 L9.50890107,1.10740453 L16.1237073,6.12813074 C16.2641082,6.23707867 16.4525067,6.2623512 16.6168439,6.1942821 C16.7811812,6.12621299 16.8960314,5.97533374 16.9174666,5.7993527 C16.9389018,5.62337167 16.8636055,5.44951622 16.7203772,5.34428267 L9.80723604,0.0981360915 C9.71410282,0.0286823616 9.59934022,-0.00579053251 9.48318254,0.000795481134 Z M14.7709125,6.05640608 C14.6390462,6.05775891 14.5132005,6.11158579 14.4214125,6.20589468 C14.3296245,6.30020357 14.2795196,6.42715972 14.2822605,6.55847871 L14.2822605,12.1325094 L11.6486829,12.1325094 L11.6486829,7.70607327 C11.6486556,7.43445639 11.4275917,7.21427419 11.1548871,7.21424703 L7.86291508,7.21424703 C7.84578104,7.21335707 7.82861207,7.21335707 7.81147802,7.21424703 C7.55903657,7.24060063 7.36776182,7.453265 7.36911928,7.70607327 L7.36911928,12.1325094 L5.88773189,12.1325094 C5.70965139,12.130001 5.54400984,12.2231901 5.45423462,12.3763927 C5.36445941,12.5295954 5.36445941,12.719076 5.45423462,12.8722786 C5.54400984,13.0254813 5.70965139,13.1186704 5.88773189,13.1161619 L14.7760563,13.1161619 C15.0487608,13.1161348 15.2698248,12.8959526 15.269852,12.6243357 L15.269852,6.55847871 C15.2726304,6.42538271 15.2211255,6.29684887 15.127101,6.20223396 C15.0330765,6.10761905 14.904563,6.05500405 14.7709125,6.05640608 Z M8.35671088,8.19789951 L10.6610913,8.19789951 L10.6610913,12.1325094 L8.35671088,12.1325094 L8.35671088,8.19789951 Z" id="Shape"></path>
            </g>
        </g>
    </g>
</svg>