<?xml version="1.0" encoding="UTF-8"?>
<svg width="23px" height="18px" viewBox="0 0 23 18" version="1.1" xmlns="http://www.w3.org/2000/svg" xmlns:xlink="http://www.w3.org/1999/xlink">
    <!-- Generator: Sketch 42 (36781) - http://www.bohemiancoding.com/sketch -->
    <title>cr-landing-iconos-pymes-blanco</title>
    <desc>Created with Sketch.</desc>
    <defs></defs>
    <g id="Page-1" stroke="none" stroke-width="1" fill="none" fill-rule="evenodd">
        <g id="iPhone-7---2" transform="translate(-26.000000, -462.000000)" stroke="#FFFFFF" stroke-width="0.3" fill="#FFFFFF" fill-rule="nonzero">
            <g id="cr-landing-iconos-pymes-blanco" transform="translate(26.475000, 462.124531)">
                <path d="M2.53526853,8.3680334 C3.54858828,8.3680334 4.38375989,7.63202923 4.54474698,6.66724501 C4.5668112,6.66805917 4.58969261,6.66805917 4.61175683,6.66724501 C4.77274392,7.63202923 5.60791553,8.3680334 6.62123528,8.3680334 C7.63455504,8.3680334 8.46972664,7.63202923 8.63071373,6.66724501 C8.65277795,6.66805917 8.67565936,6.66805917 8.69772358,6.66724501 C8.85871067,7.63202923 9.69388228,8.3680334 10.707202,8.3680334 C11.7205218,8.3680334 12.5556934,7.63202923 12.7166805,6.66724501 C12.7387447,6.66805917 12.7616261,6.66805917 12.7836903,6.66724501 C12.9446774,7.63202923 13.779849,8.3680334 14.7931688,8.3680334 C15.8064885,8.3680334 16.6416601,7.63202923 16.8026472,6.66724501 C16.8247115,6.66805917 16.8475929,6.66805917 16.8696571,6.66724501 C17.0306442,7.63202923 17.8658158,8.3680334 18.8791355,8.3680334 C20.0076796,8.3680334 20.9221189,7.45698399 20.9221189,6.33262364 L20.9221189,4.29721388 L17.6533455,0.226394367 L3.76105855,0.226394367 L0.492285151,4.29721388 L0.492285151,6.33262364 C0.492285151,7.45698399 1.40672451,8.3680334 2.53526853,8.3680334 Z M4.15249417,1.04137243 L17.2610927,1.04137243 L19.2215396,3.48386415 L2.19123013,3.48386415 L4.15249417,1.04137243 Z M1.3094785,4.58298541 L1.53747545,4.29802805 L19.8761114,4.29802805 L20.1049256,4.58298541 L20.1049256,6.33262364 C20.1049256,7.00675136 19.5557716,7.5538695 18.8791355,7.5538695 C18.2024994,7.5538695 17.6533455,7.00675136 17.6533455,6.33262364 C17.6533455,5.882391 17.2880601,5.51845974 16.8361522,5.51845974 C16.3842442,5.51845974 16.0189588,5.882391 16.0189588,6.33262364 C16.0189588,7.00675136 15.4698049,7.5538695 14.7931688,7.5538695 C14.1165327,7.5538695 13.5673788,7.00675136 13.5673788,6.33262364 C13.5673788,5.882391 13.2020933,5.51845974 12.7501854,5.51845974 C12.2982775,5.51845974 11.9329921,5.882391 11.9329921,6.33262364 C11.9329921,7.00675136 11.3838381,7.5538695 10.707202,7.5538695 C10.0305659,7.5538695 9.48141201,7.00675136 9.48141201,6.33262364 C9.48141201,5.882391 9.11612658,5.51845974 8.66421866,5.51845974 C8.21231073,5.51845974 7.84702531,5.882391 7.84702531,6.33262364 C7.84702531,7.00675136 7.29787137,7.5538695 6.62123528,7.5538695 C5.94459919,7.5538695 5.39544525,7.00675136 5.39544525,6.33262364 C5.39544525,5.882391 5.03015983,5.51845974 4.5782519,5.51845974 C4.12634398,5.51845974 3.76105855,5.882391 3.76105855,6.33262364 C3.76105855,7.00675136 3.21190462,7.5538695 2.53526853,7.5538695 C1.85863243,7.5538695 1.3094785,7.00675136 1.3094785,6.33262364 L1.3094785,4.58298541 Z" id="Shape"></path>
                <path d="M20.9221189,16.9081015 L20.1049256,16.9081015 L20.1049256,7.95148443 L19.2877322,7.95148443 L19.2877322,16.9081015 L17.6533455,16.9081015 L17.6533455,9.5806264 L11.9329921,9.5806264 L11.9329921,16.9081015 L2.12667185,16.9081015 L2.12667185,7.95148443 L1.3094785,7.95148443 L1.3094785,16.9081015 L0.492285151,16.9081015 C0.492285151,16.9081015 0,16.9081015 0,17.2299803 C7.25881817e-17,17.7222654 0.492285151,17.7222654 0.492285151,17.7222654 L20.9221189,17.7222654 C20.9221189,17.7222654 21.4144041,17.7222654 21.4144041,17.2299803 C21.4144041,16.9081015 20.9221189,16.9081015 20.9221189,16.9081015 Z M16.8361522,16.9081015 L12.7501854,16.9081015 L12.7501854,10.3939761 L16.8361522,10.3939761 L16.8361522,16.9081015 Z" id="Shape"></path>
                <path d="M3.76105855,14.4656098 L10.2986054,14.4656098 L10.2986054,9.5806264 L3.76105855,9.5806264 L3.76105855,14.4656098 Z M4.5782519,10.3947903 L9.48141201,10.3947903 L9.48141201,13.6514459 L4.5782519,13.6514459 L4.5782519,10.3947903 Z" id="Shape"></path>
            </g>
        </g>
    </g>
</svg>