<?xml version="1.0" encoding="UTF-8"?>
<svg width="20px" height="21px" viewBox="0 0 20 21" version="1.1" xmlns="http://www.w3.org/2000/svg" xmlns:xlink="http://www.w3.org/1999/xlink">
    <!-- Generator: Sketch 42 (36781) - http://www.bohemiancoding.com/sketch -->
    <title>cr-landing-iconos-pensiones-blanco</title>
    <desc>Created with Sketch.</desc>
    <defs></defs>
    <g id="Page-1" stroke="none" stroke-width="1" fill="none" fill-rule="evenodd">
        <g id="iPhone-7---2" transform="translate(-27.000000, -427.000000)" fill-rule="nonzero" fill="#FFFFFF">
            <path d="M46.3150898,434.300609 L34.5997985,427.523697 C34.4287723,427.438184 34.1722331,427.438184 34.0225852,427.523697 L27.0532696,431.585569 C26.9036217,431.671082 26.9036217,431.82073 27.0532696,431.927621 L38.7471826,438.683154 C38.9182088,438.768667 39.174748,438.768667 39.3243959,438.683154 L46.2937115,434.621283 C46.4647376,434.53577 46.4647376,434.386122 46.3150898,434.300609 Z M40.2009049,437.12254 C40.1367701,437.058405 40.051257,436.994271 39.9657439,436.951514 C39.3671524,436.609462 38.4051303,436.609462 37.8065388,436.951514 C37.7637823,436.972892 37.7210257,437.015649 37.6782692,437.037027 L29.8110663,432.483456 C29.8965794,432.462078 29.9607142,432.419321 30.024849,432.376565 C30.6234405,432.034512 30.6234405,431.478677 30.024849,431.136625 C29.9607142,431.093868 29.8965794,431.07249 29.8110663,431.029734 L33.0605631,429.148446 C33.1033197,429.191202 33.1674545,429.233959 33.2315893,429.276716 C33.8301808,429.618768 34.7922029,429.618768 35.3907944,429.276716 C35.4549292,429.233959 35.519064,429.191202 35.5618206,429.148446 L43.47178,433.723395 C43.3648887,433.766152 43.2579973,433.808909 43.1724843,433.851665 C42.5738927,434.193717 42.5738927,434.749552 43.1724843,435.091605 C43.2579973,435.155739 43.3648887,435.198496 43.47178,435.219874 L40.2009049,437.12254 Z M41.162927,435.3909 L40.6498485,435.690196 C40.5643355,435.732953 40.4360659,435.732953 40.371931,435.690196 L39.4526655,435.177118 C39.3671524,435.134361 39.3671524,435.048848 39.4526655,435.006092 L39.9657439,434.706796 C40.051257,434.664039 40.1795266,434.664039 40.2436614,434.706796 L41.1415487,435.219874 C41.2484401,435.284009 41.2484401,435.348144 41.162927,435.3909 Z M33.8943156,431.20076 L33.3812372,431.500055 C33.2957241,431.542812 33.1674545,431.542812 33.1033197,431.500055 L32.1840541,430.986977 C32.098541,430.94422 32.098541,430.858707 32.1840541,430.815951 L32.6971326,430.516655 C32.7826456,430.473899 32.9109153,430.473899 32.9750501,430.516655 L33.8729373,431.029734 C33.9798287,431.093868 33.9798287,431.158003 33.8943156,431.20076 Z M45.5240938,436.374301 L46.4433594,436.908757 L39.1106132,441.141655 L38.8754522,441.013385 L38.2127259,440.628576 L26.925,434.086826 L27.8228873,433.552369 L39.1106132,440.072741 L45.5240938,436.374301 Z M38.2127259,442.894673 L26.925,436.374301 L27.8228873,435.839844 L39.1319915,442.381594 L45.5240938,438.661776 L46.4433594,439.196232 L39.1319915,443.429129 L38.8968305,443.30086 L38.2127259,442.894673 Z M45.5240938,440.927872 L46.4433594,441.462329 L39.1106132,445.695226 L38.8754522,445.566956 L38.2127259,445.182147 L26.925,438.640397 L27.8228873,438.105941 L39.1106132,444.626313 L45.5240938,440.927872 Z M38.2127259,447.448244 L26.925,440.927872 L27.8228873,440.393415 L39.1319915,446.935166 L45.5240938,443.215347 L46.4433594,443.749803 L39.1319915,447.982701 L38.8968305,447.854431 L38.2127259,447.448244 Z M39.0037218,431.756595 C37.7210257,431.008355 35.6259554,431.008355 34.3432593,431.756595 C33.0605631,432.504834 33.0605631,433.702017 34.3646375,434.450257 C35.6473337,435.198496 37.742404,435.198496 39.0251001,434.450257 C40.286418,433.723395 40.286418,432.504834 39.0037218,431.756595 Z M37.3362169,432.932399 L37.9561867,433.29583 C37.8279171,433.402721 37.6782692,433.509613 37.507243,433.616504 C37.3362169,433.723395 37.1438125,433.808909 36.9727863,433.873043 L36.3528165,433.509613 L37.3362169,432.932399 Z M36.0107642,433.29583 L35.3907944,432.932399 C35.519064,432.825508 35.6473337,432.718617 35.8397381,432.611725 C36.0107642,432.504834 36.2031686,432.419321 36.3741948,432.355186 L36.9941646,432.718617 L36.0107642,433.29583 Z M37.6996475,432.718617 L38.5120217,432.248295 C38.5120217,432.440699 38.4478869,432.718617 38.2127259,433.017913 L37.6996475,432.718617 Z M37.3362169,432.526212 L36.8231384,432.226917 C37.3362169,432.077269 37.8279171,432.05589 38.1699694,432.05589 L37.3362169,432.526212 Z M37.5713778,431.777973 C37.2293255,431.82073 36.8445167,431.884864 36.4383296,431.991756 L35.989386,431.735216 C36.5024644,431.649703 37.0796777,431.671082 37.5713778,431.777973 Z M34.9418508,432.098647 C35.1128769,431.991756 35.3052814,431.927621 35.4976858,431.863486 L36.0321425,432.162782 C35.8611163,432.248295 35.6687119,432.333808 35.4976858,432.419321 C35.3266596,432.526212 35.1770117,432.633104 35.0487421,432.718617 L34.5142854,432.419321 C34.6211768,432.31243 34.7708246,432.205538 34.9418508,432.098647 Z M34.4073941,433.637882 C34.2149896,433.338587 34.1722331,433.017913 34.321881,432.718617 L34.7922029,432.975156 C34.5570419,433.210317 34.4501506,433.445478 34.4073941,433.637882 Z M35.1556335,433.188939 L35.6687119,433.488234 L34.8563377,433.958556 C34.8563377,433.766152 34.8990942,433.488234 35.1556335,433.188939 Z M36.0107642,433.702017 L36.5238427,434.001313 C36.0107642,434.150961 35.519064,434.172339 35.1770117,434.172339 L36.0107642,433.702017 Z M35.7756033,434.428878 C36.1176556,434.386122 36.5024644,434.321987 36.9086515,434.215096 L37.3789734,434.471635 C36.8445167,434.557148 36.2886817,434.53577 35.7756033,434.428878 Z M38.4265086,434.108204 C38.2554824,434.215096 38.063078,434.27923 37.8706736,434.343365 L37.3575952,434.044069 C37.5286213,433.979935 37.7210257,433.894422 37.8920519,433.78753 C38.063078,433.680639 38.2127259,433.573748 38.3409955,433.488234 L38.854074,433.78753 C38.7258044,433.894422 38.5975347,434.022691 38.4265086,434.108204 Z M39.0464784,433.509613 L38.5761565,433.231695 C38.7899392,432.996534 38.8968305,432.782752 38.9609653,432.590347 C39.1533697,432.868265 39.174748,433.210317 39.0464784,433.509613 Z" id="cr-landing-iconos-pensiones-blanco"></path>
        </g>
    </g>
</svg>