<?xml version="1.0" encoding="UTF-8"?>
<svg width="47px" height="38px" viewBox="0 0 47 38" version="1.1" xmlns="http://www.w3.org/2000/svg" xmlns:xlink="http://www.w3.org/1999/xlink">
    <!-- Generator: Sketch 42 (36781) - http://www.bohemiancoding.com/sketch -->
    <title>cr-landing-iconos-corporativo-blanco</title>
    <desc>Created with Sketch.</desc>
    <defs></defs>
    <g id="Page-1" stroke="none" stroke-width="1" fill="none" fill-rule="evenodd">
        <g id="cr-landing-iconos-corporativo-blanco" transform="translate(0.616875, -0.107109)" fill-rule="nonzero" fill="#FFFFFF">
            <g id="building">
                <path d="M22.8006396,36.0220122 L20.6425585,36.0220122 L20.6425585,8.37124931 C20.6425585,7.97988467 20.3210044,7.66225539 19.9231981,7.66225539 L12.0102339,7.66225539 L10.5715132,7.66225539 L2.65854902,7.66225539 C2.26146209,7.66225539 1.93918864,7.97988467 1.93918864,8.37124931 L1.93918864,36.0220122 C1.93918864,36.0220122 12.6096827,36.7473036 17.9449297,37.1099492 C19.5634997,37.2199662 22.8006396,37.44 22.8006396,37.44 C23.1984459,37.44 23.52,37.1230797 23.52,36.7310061 C23.52,36.3389324 23.1984459,36.0220122 22.8006396,36.0220122 Z M3.70258824,9.53738609 L19.2734118,9.53738609 L19.2734118,36.0448693 L16.4423529,36.0448693 L10.7802353,36.0448693 L3.70258824,36.0448693 L3.70258824,9.53738609 Z" id="Shape"></path>
                <path d="M7.12941176,23.8040816 C6.74755765,23.8040816 6.43764706,24.1088444 6.43764706,24.4858776 L6.43764706,25.8494694 C6.43764706,26.2265025 6.74755765,26.5312653 7.12941176,26.5312653 C7.51126588,26.5312653 7.82117647,26.2265025 7.82117647,25.8494694 L7.82117647,24.4858776 C7.82117647,24.1088444 7.51126588,23.8040816 7.12941176,23.8040816 Z" id="Shape"></path>
                <path d="M11.28,26.5312653 C11.6618541,26.5312653 11.9717647,26.2265025 11.9717647,25.8494694 L11.9717647,24.4858776 C11.9717647,24.1088444 11.6618541,23.8040816 11.28,23.8040816 C10.8981459,23.8040816 10.5882353,24.1088444 10.5882353,24.4858776 L10.5882353,25.8494694 C10.5882353,26.2265025 10.8981459,26.5312653 11.28,26.5312653 Z" id="Shape"></path>
                <path d="M15.4305882,26.5312653 C15.8131341,26.5312653 16.1223529,26.2265025 16.1223529,25.8494694 L16.1223529,24.4858776 C16.1223529,24.1088444 15.8131341,23.8040816 15.4305882,23.8040816 C15.0480424,23.8040816 14.7388235,24.1088444 14.7388235,24.4858776 L14.7388235,25.8494694 C14.7388235,26.2265025 15.0480424,26.5312653 15.4305882,26.5312653 Z" id="Shape"></path>
                <path d="M7.12941176,18.3497143 C6.74755765,18.3497143 6.43764706,18.6551589 6.43764706,19.0315102 L6.43764706,20.395102 C6.43764706,20.7714534 6.74755765,21.076898 7.12941176,21.076898 C7.51126588,21.076898 7.82117647,20.7714534 7.82117647,20.395102 L7.82117647,19.0315102 C7.82117647,18.6551589 7.51126588,18.3497143 7.12941176,18.3497143 Z" id="Shape"></path>
                <path d="M11.28,21.076898 C11.6618541,21.076898 11.9717647,20.7714534 11.9717647,20.395102 L11.9717647,19.0315102 C11.9717647,18.6551589 11.6618541,18.3497143 11.28,18.3497143 C10.8981459,18.3497143 10.5882353,18.6551589 10.5882353,19.0315102 L10.5882353,20.395102 C10.5882353,20.7714534 10.8981459,21.076898 11.28,21.076898 Z" id="Shape"></path>
                <path d="M15.4305882,21.076898 C15.8131341,21.076898 16.1223529,20.7714534 16.1223529,20.395102 L16.1223529,19.0315102 C16.1223529,18.6551589 15.8131341,18.3497143 15.4305882,18.3497143 C15.0480424,18.3497143 14.7388235,18.6551589 14.7388235,19.0315102 L14.7388235,20.395102 C14.7388235,20.7714534 15.0480424,21.076898 15.4305882,21.076898 Z" id="Shape"></path>
                <path d="M7.12941176,12.8953469 C6.74755765,12.8953469 6.43764706,13.2007915 6.43764706,13.5771429 L6.43764706,14.9407347 C6.43764706,15.317086 6.74755765,15.6225306 7.12941176,15.6225306 C7.51126588,15.6225306 7.82117647,15.317086 7.82117647,14.9407347 L7.82117647,13.5771429 C7.82117647,13.2007915 7.51126588,12.8953469 7.12941176,12.8953469 Z" id="Shape"></path>
                <path d="M11.28,15.6225306 C11.6618541,15.6225306 11.9717647,15.317086 11.9717647,14.9407347 L11.9717647,13.5771429 C11.9717647,13.2007915 11.6618541,12.8953469 11.28,12.8953469 C10.8981459,12.8953469 10.5882353,13.2007915 10.5882353,13.5771429 L10.5882353,14.9407347 C10.5882353,15.317086 10.8981459,15.6225306 11.28,15.6225306 Z" id="Shape"></path>
                <path d="M15.4305882,15.6225306 C15.8131341,15.6225306 16.1223529,15.317086 16.1223529,14.9407347 L16.1223529,13.5771429 C16.1223529,13.2007915 15.8131341,12.8953469 15.4305882,12.8953469 C15.0480424,12.8953469 14.7388235,13.2007915 14.7388235,13.5771429 L14.7388235,14.9407347 C14.7388235,15.317086 15.0480424,15.6225306 15.4305882,15.6225306 Z" id="Shape"></path>
                <path d="M45.1905882,35.6673306 L42.5223529,35.6673306 L42.5223529,1.10027755 C42.5223529,0.6110208 42.1247859,0.213942857 41.6329412,0.213942857 L31.8494118,0.213942857 L30.0705882,0.213942857 L20.2870588,0.213942857 C19.7961035,0.213942857 19.3976471,0.6110208 19.3976471,1.10027755 L19.3976471,35.6673306 L0.96,35.6673306 C0.469044706,35.6673306 0.0705882353,36.0635222 0.0705882353,36.5536653 C0.0705882353,37.0438084 0.469044706,37.44 0.96,37.44 L45.1905882,37.44 C45.6824329,37.44 46.08,37.0438084 46.08,36.5536653 C46.08,36.0635222 45.6824329,35.6673306 45.1905882,35.6673306 Z M21.1764706,1.98661224 L40.7435294,1.98661224 L40.7435294,35.6673306 L37.1858824,35.6673306 L37.1858824,27.6903184 C37.1858824,27.2001753 36.7883153,26.8039837 36.2964706,26.8039837 L30.96,26.8039837 C30.4690447,26.8039837 30.0705882,27.2001753 30.0705882,27.6903184 L30.0705882,35.6673306 L21.1764706,35.6673306 L21.1764706,1.98661224 Z M35.4070588,35.6673306 L31.8494118,35.6673306 L31.8494118,28.5766531 L35.4070588,28.5766531 L35.4070588,35.6673306 Z" id="Shape"></path>
                <path d="M25.6235294,26.8039837 C25.1325741,26.8039837 24.7341176,27.2001753 24.7341176,27.6903184 L24.7341176,29.4629878 C24.7341176,29.9531308 25.1325741,30.3493224 25.6235294,30.3493224 C26.1144847,30.3493224 26.5129412,29.9531308 26.5129412,29.4629878 L26.5129412,27.6903184 C26.5129412,27.2001753 26.1144847,26.8039837 25.6235294,26.8039837 Z" id="Shape"></path>
                <path d="M25.6235294,19.7133061 C25.1325741,19.7133061 24.7341176,20.1094977 24.7341176,20.5996408 L24.7341176,22.3723102 C24.7341176,22.8624533 25.1325741,23.2586449 25.6235294,23.2586449 C26.1144847,23.2586449 26.5129412,22.8624533 26.5129412,22.3723102 L26.5129412,20.5996408 C26.5129412,20.1094977 26.1144847,19.7133061 25.6235294,19.7133061 Z" id="Shape"></path>
                <path d="M30.96,23.2586449 C31.4509553,23.2586449 31.8494118,22.8624533 31.8494118,22.3723102 L31.8494118,20.5996408 C31.8494118,20.1094977 31.4509553,19.7133061 30.96,19.7133061 C30.4690447,19.7133061 30.0705882,20.1094977 30.0705882,20.5996408 L30.0705882,22.3723102 C30.0705882,22.8624533 30.4690447,23.2586449 30.96,23.2586449 Z" id="Shape"></path>
                <path d="M36.2964706,23.2586449 C36.7883153,23.2586449 37.1858824,22.8624533 37.1858824,22.3723102 L37.1858824,20.5996408 C37.1858824,20.1094977 36.7883153,19.7133061 36.2964706,19.7133061 C35.8046259,19.7133061 35.4070588,20.1094977 35.4070588,20.5996408 L35.4070588,22.3723102 C35.4070588,22.8624533 35.8046259,23.2586449 36.2964706,23.2586449 Z" id="Shape"></path>
                <path d="M25.6235294,12.6226286 C25.1325741,12.6226286 24.7341176,13.0197065 24.7341176,13.5089633 L24.7341176,15.2816327 C24.7341176,15.7708894 25.1325741,16.1679673 25.6235294,16.1679673 C26.1144847,16.1679673 26.5129412,15.7708894 26.5129412,15.2816327 L26.5129412,13.5089633 C26.5129412,13.0197065 26.1144847,12.6226286 25.6235294,12.6226286 Z" id="Shape"></path>
                <path d="M30.96,16.1679673 C31.4509553,16.1679673 31.8494118,15.7708894 31.8494118,15.2816327 L31.8494118,13.5089633 C31.8494118,13.0197065 31.4509553,12.6226286 30.96,12.6226286 C30.4690447,12.6226286 30.0705882,13.0197065 30.0705882,13.5089633 L30.0705882,15.2816327 C30.0705882,15.7708894 30.4690447,16.1679673 30.96,16.1679673 Z" id="Shape"></path>
                <path d="M36.2964706,16.1679673 C36.7883153,16.1679673 37.1858824,15.7708894 37.1858824,15.2816327 L37.1858824,13.5089633 C37.1858824,13.0197065 36.7883153,12.6226286 36.2964706,12.6226286 C35.8046259,12.6226286 35.4070588,13.0197065 35.4070588,13.5089633 L35.4070588,15.2816327 C35.4070588,15.7708894 35.8046259,16.1679673 36.2964706,16.1679673 Z" id="Shape"></path>
                <path d="M25.6235294,5.53195102 C25.1325741,5.53195102 24.7341176,5.92902896 24.7341176,6.41828571 L24.7341176,8.1909551 C24.7341176,8.68021185 25.1325741,9.0772898 25.6235294,9.0772898 C26.1144847,9.0772898 26.5129412,8.68021185 26.5129412,8.1909551 L26.5129412,6.41828571 C26.5129412,5.92902896 26.1144847,5.53195102 25.6235294,5.53195102 Z" id="Shape"></path>
                <path d="M30.96,9.0772898 C31.4509553,9.0772898 31.8494118,8.68021185 31.8494118,8.1909551 L31.8494118,6.41828571 C31.8494118,5.92902896 31.4509553,5.53195102 30.96,5.53195102 C30.4690447,5.53195102 30.0705882,5.92902896 30.0705882,6.41828571 L30.0705882,8.1909551 C30.0705882,8.68021185 30.4690447,9.0772898 30.96,9.0772898 Z" id="Shape"></path>
                <path d="M36.2964706,9.0772898 C36.7883153,9.0772898 37.1858824,8.68021185 37.1858824,8.1909551 L37.1858824,6.41828571 C37.1858824,5.92902896 36.7883153,5.53195102 36.2964706,5.53195102 C35.8046259,5.53195102 35.4070588,5.92902896 35.4070588,6.41828571 L35.4070588,8.1909551 C35.4070588,8.68021185 35.8046259,9.0772898 36.2964706,9.0772898 Z" id="Shape"></path>
            </g>
        </g>
    </g>
</svg>