<svg xmlns="http://www.w3.org/2000/svg" viewBox="0 0 100 85"><title>1cr-landing-alternativo-iconos-sincosto1</title><g id="textos"><path d="M55.21,35.88h0a7.33,7.33,0,1,0-7.34-7.33A7.32,7.32,0,0,0,55.22,35.88Z" fill="#979797"/><path d="M22.3,17.19h-.16a1.66,1.66,0,0,0-1.16.47,12.21,12.21,0,0,0-3.65,10.93,17.37,17.37,0,0,0,4.93,9.48l8.45,8.33,2.45,2.42,7.36-9.63L23.41,17.79A1.6,1.6,0,0,0,22.3,17.19Z" fill="#b0b0b0"/><path d="M56.44,53.44a10.23,10.23,0,0,0-1.56-.11,10.44,10.44,0,0,0-2.78.35l-5.16-6.5v0l-6.43-8L30.1,52.87H30a.75.75,0,0,1-.82.65,9.83,9.83,0,0,0-1.8,0,10.4,10.4,0,0,0-1.45.23,10.12,10.12,0,0,0,3.15,20l.65-.06a10.12,10.12,0,0,0,8.54-11.44,9.9,9.9,0,0,0-.95-3.06.76.76,0,0,1,.1-.83s1.14-1.32,2.61-3l4.72,5A10.44,10.44,0,0,0,44,63.6,10.88,10.88,0,0,0,54.22,75.1h.64a10.87,10.87,0,0,0,1.58-21.66ZM28.59,67.87a4.3,4.3,0,1,1,3.92-4.65h0A4.3,4.3,0,0,1,28.59,67.87ZM38.4,47.66a2,2,0,1,1,2,2A2,2,0,0,1,38.4,47.66ZM54.86,68.5a4.29,4.29,0,0,1-4.29-4.29v0a4.3,4.3,0,1,1,4.29,4.31Z" fill="#b0b0b0"/><path d="M79.32,9.9H30.43a3.55,3.55,0,0,0-3.55,3.55v.61l.18.21,7.57,9.45A11.12,11.12,0,0,0,40.93,17H68.8A11.08,11.08,0,0,0,75.73,24v9.15a11.09,11.09,0,0,0-6.93,6.94h-20l6,7.1H79.28a3.54,3.54,0,0,0,3.56-3.54h0V13.48A3.55,3.55,0,0,0,79.32,9.9Z" fill="#979797"/></g></svg>