<?xml version="1.0" encoding="UTF-8"?>
<svg width="96px" height="96px" viewBox="0 0 96 96" version="1.1" xmlns="http://www.w3.org/2000/svg" xmlns:xlink="http://www.w3.org/1999/xlink">
    <!-- Generator: Sketch 42 (36781) - http://www.bohemiancoding.com/sketch -->
    <title>cr-landing-iconos-pymes</title>
    <desc>Created with Sketch.</desc>
    <defs></defs>
    <g id="Page-1" stroke="none" stroke-width="1" fill="none" fill-rule="evenodd">
        <g id="Desktop-HD-1" transform="translate(-863.000000, -728.000000)">
            <g id="cr-landing-iconos-pymes" transform="translate(863.583333, 728.500000)">
                <circle id="Oval-Copy-4" fill="#EDEDED" style="mix-blend-mode: multiply;" cx="47.4166667" cy="47.5800781" r="47.3535156"></circle>
                <path d="M12.3,42.9966923 C16.4168,42.9966923 19.80984,40.0065385 20.46388,36.0869231 C20.55352,36.0902308 20.64648,36.0902308 20.73612,36.0869231 C21.39016,40.0065385 24.7832,42.9966923 28.9,42.9966923 C33.0168,42.9966923 36.40984,40.0065385 37.06388,36.0869231 C37.15352,36.0902308 37.24648,36.0902308 37.33612,36.0869231 C37.99016,40.0065385 41.3832,42.9966923 45.5,42.9966923 C49.6168,42.9966923 53.00984,40.0065385 53.66388,36.0869231 C53.75352,36.0902308 53.84648,36.0902308 53.93612,36.0869231 C54.59016,40.0065385 57.9832,42.9966923 62.1,42.9966923 C66.2168,42.9966923 69.60984,40.0065385 70.26388,36.0869231 C70.35352,36.0902308 70.44648,36.0902308 70.53612,36.0869231 C71.19016,40.0065385 74.5832,42.9966923 78.7,42.9966923 C83.28492,42.9966923 87,39.2953846 87,34.7274615 L87,26.4582308 L73.72,9.91976923 L17.28,9.91976923 L4,26.4582308 L4,34.7274615 C4,39.2953846 7.71508,42.9966923 12.3,42.9966923 Z M18.87028,13.2307692 L72.1264,13.2307692 L80.09108,23.1538462 L10.90228,23.1538462 L18.87028,13.2307692 Z M7.32,27.6192308 L8.24628,26.4615385 L82.7504,26.4615385 L83.68,27.6192308 L83.68,34.7274615 C83.68,37.4662308 81.44896,39.689 78.7,39.689 C75.95104,39.689 73.72,37.4662308 73.72,34.7274615 C73.72,32.8983077 72.23596,31.4197692 70.4,31.4197692 C68.56404,31.4197692 67.08,32.8983077 67.08,34.7274615 C67.08,37.4662308 64.84896,39.689 62.1,39.689 C59.35104,39.689 57.12,37.4662308 57.12,34.7274615 C57.12,32.8983077 55.63596,31.4197692 53.8,31.4197692 C51.96404,31.4197692 50.48,32.8983077 50.48,34.7274615 C50.48,37.4662308 48.24896,39.689 45.5,39.689 C42.75104,39.689 40.52,37.4662308 40.52,34.7274615 C40.52,32.8983077 39.03596,31.4197692 37.2,31.4197692 C35.36404,31.4197692 33.88,32.8983077 33.88,34.7274615 C33.88,37.4662308 31.64896,39.689 28.9,39.689 C26.15104,39.689 23.92,37.4662308 23.92,34.7274615 C23.92,32.8983077 22.43596,31.4197692 20.6,31.4197692 C18.76404,31.4197692 17.28,32.8983077 17.28,34.7274615 C17.28,37.4662308 15.04896,39.689 12.3,39.689 C9.55104,39.689 7.32,37.4662308 7.32,34.7274615 L7.32,27.6192308 Z" id="Shape" stroke="#F45352" stroke-width="0.5" fill="#F45352" fill-rule="nonzero"></path>
                <path d="M87,77.6923077 L83.68,77.6923077 L83.68,41.3043846 L80.36,41.3043846 L80.36,77.6923077 L73.72,77.6923077 L73.72,47.9230769 L50.48,47.9230769 L50.48,77.6923077 L10.64,77.6923077 L10.64,41.3043846 L7.32,41.3043846 L7.32,77.6923077 L4,77.6923077 C4,77.6923077 2,77.6923077 2,79 C2,81 4,81 4,81 L87,81 C87,81 89,81 89,79 C89,77.6923077 87,77.6923077 87,77.6923077 Z M70.4,77.6923077 L53.8,77.6923077 L53.8,51.2274615 L70.4,51.2274615 L70.4,77.6923077 Z" id="Shape" stroke="#F45352" stroke-width="0.5" fill="#F45352" fill-rule="nonzero"></path>
                <path d="M17.28,67.7692308 L43.84,67.7692308 L43.84,47.9230769 L17.28,47.9230769 L17.28,67.7692308 Z M20.6,51.2307692 L40.52,51.2307692 L40.52,64.4615385 L20.6,64.4615385 L20.6,51.2307692 Z" id="Shape" stroke="#F45352" stroke-width="0.5" fill="#F45352" fill-rule="nonzero"></path>
            </g>
        </g>
    </g>
</svg>