<?xml version="1.0" encoding="UTF-8"?>
<svg width="382px" height="35px" viewBox="0 0 382 35" version="1.1" xmlns="http://www.w3.org/2000/svg" xmlns:xlink="http://www.w3.org/1999/xlink">
    <!-- Generator: Sketch 42 (36781) - http://www.bohemiancoding.com/sketch -->
    <title>cr-landing-logo-bac-382x35px</title>
    <desc>Created with Sketch.</desc>
    <defs></defs>
    <g id="Page-1" stroke="none" stroke-width="1" fill="none" fill-rule="evenodd">
        <g id="Desktop-HD-1" transform="translate(-529.000000, -1246.000000)">
            <g id="Footer" transform="translate(0.000000, 1206.000000)">
                <g id="cr-landing-logo-bac-382x35px" transform="translate(529.000000, 40.000000)">
                    <path d="M23.9409943,0.621054346 C26.0442098,0.0192295038 28.4048027,0.050358375 30.2683193,0.679680386 C31.5380479,0.980592807 32.5124424,1.0589338 33.5617104,0.984743323 L33.599667,0.984743323 C34.6858518,0.980592807 36.0252543,1.36503437 36.4786545,2.58269204 C36.4786545,2.58269204 36.4937332,2.64961911 36.5056921,2.67607865 L36.5228506,2.76323949 C36.6284014,3.16272667 37.1608347,3.73290383 37.3225405,3.84289251 C37.7099065,4.07635904 40.9045063,5.95706167 42.4586499,7.22763843 C42.7420251,7.47355651 43.1210718,7.78173233 43.2484607,7.92129344 C43.5619932,8.27616257 43.7814139,8.59315824 43.9472794,9.10419054 C43.9472794,9.10419054 44.0419111,9.38227512 44.4448757,9.56074732 C44.5395074,9.60225248 48.0289213,11.0507826 48.0289213,11.0507826 L48.077797,11.0575272 C48.8847662,11.3983883 49.8253637,11.8689531 50.6895279,12.4775225 L50.6895279,12.4728532 L50.6895279,12.4775225 C51.3327115,12.9045069 51.5219749,13.0897237 51.6129669,13.1789598 L51.5994481,13.1478309 C52.0206112,13.5369418 52.2363922,13.9618509 52.2363922,14.4614693 C52.2363922,14.7862472 52.158919,15.1333341 51.9644561,15.4933913 L51.9140205,15.6272455 C51.5027366,16.5439907 51.441382,17.3751316 51.3971859,17.7549038 C51.3971859,17.7549038 51.3597491,18.0838322 51.3597491,18.1025096 C51.2167617,19.1660793 50.8897104,20.4511829 49.8581209,21.5707846 L49.8581209,21.6693594 L49.8737195,21.9412182 C49.8737195,24.4600627 48.0642782,26.3952408 46.8434253,27.0997909 C46.6468826,27.2035538 46.3957446,27.3488219 45.9615827,27.4318322 C45.3121596,27.5428585 44.4812725,26.7973221 44.7365701,27.0178182 C44.6055416,26.9047167 44.4251174,26.7532228 44.1625405,26.5778635 C42.8304173,25.8624183 42.2283101,26.0932908 42.1082007,26.2629431 C42.0858426,26.299779 42.0712839,26.380714 42.0775234,26.4019854 C42.2501482,27.094084 43.3618107,27.782032 43.8396488,28.1083664 C43.8396488,28.1083664 44.8509601,28.7423577 44.8286021,28.7423577 L44.8946363,28.7745242 C45.285642,29.018367 45.6475302,29.4930823 45.7276032,29.9314806 C45.8081961,30.3361559 45.7650399,31.0988133 44.8275621,31.7955812 C43.1980251,32.9774406 39.0191517,33.8329658 36.3777834,32.4949431 C36.3777834,32.4949431 36.3528255,32.4731529 36.3398267,32.4731529 L36.2779521,32.4269784 C36.1136465,32.3294413 35.9607799,32.1447433 35.8188324,32.0627706 C35.8188324,32.5966308 35.5162189,33.2052002 35.0700981,33.5242711 C33.6735006,34.548411 27.18239,34.9961479 24.4500296,33.6659075 C23.3810034,33.1320474 23.1002281,32.4368359 23.0851494,31.3836424 C22.5246385,32.2038882 21.8117811,32.8959867 20.9814139,33.0059754 C17.993756,33.3712208 14.4523466,32.6666707 13.1290627,32.0119268 C12.4915986,31.6829984 11.8473751,31.3488819 11.7527434,30.6630091 C11.7324652,30.5333054 11.7376648,30.4632655 11.7615827,30.2951696 C11.7849806,30.0471762 12.0522372,29.4655851 12.0725154,29.387763 C11.2010718,30.117735 10.2807526,30.5073647 8.69281186,30.5919315 C5.57464538,30.7211163 3.05338655,30.1115092 1.24446522,28.9644103 C0.66263626,28.6027966 0.272150513,28.1322318 0.436976055,27.3763191 C0.558645382,26.7859082 0.967849487,25.994716 1.58919498,25.1345215 C2.09927024,24.4066248 5.98540935,18.6508965 9.27984036,13.2298036 C12.7645747,6.97134406 18.5469875,2.13962444 23.9409943,0.621054346 Z" id="Fill-2" fill="#FEFEFE"></path>
                    <path d="M34.5020479,31.8211068 C34.4287343,31.655605 33.9061802,30.7341904 33.7564333,30.4664821 C32.5366203,28.0866799 32.6697286,26.3953446 32.6697286,26.3953446 C32.7472018,24.4062097 33.4730582,22.5742757 34.1105222,20.6930542 C34.2925063,19.9023809 33.8068689,19.2761718 33.4351015,18.6561884 C32.99626,18.0185654 32.8636716,17.233599 32.9031881,16.4226919 C32.916187,15.95524 33.1408073,15.5215111 33.0451357,15.0633979 C32.9952201,14.8870009 32.7913979,14.8237056 32.7913979,14.8237056 C31.9459521,14.5243496 30.3938883,14.8984149 28.6515211,16.5586213 C26.2997674,18.9462057 25.6404652,22.3055297 24.2813044,30.2496176 C23.9838905,32.0239633 24.1403968,32.1567798 25.004561,32.5811701 C27.4805838,33.7905267 33.3961049,33.2727499 34.3419019,32.5832454 C34.5608027,32.4265634 34.6637537,32.1126806 34.5020479,31.8211068" id="Fill-4" fill="#99877D"></path>
                    <path d="M50.7425113,14.0190242 C50.6608784,13.9095544 50.0192547,13.4924275 50.0192547,13.4924275 C49.252322,12.9378148 48.4151954,12.5362523 47.5759891,12.1585554 C43.5505022,10.5325907 43.655013,10.570983 43.4459913,10.4615131 C43.1979731,10.3411481 42.8771612,10.128953 42.7242946,9.82181479 C42.468997,9.28121006 42.2547758,8.75928265 42.0613528,8.50350709 C42.0093574,8.44073054 41.7987758,8.28041685 41.443127,7.99455005 C39.8791042,6.69803257 36.6533072,4.86869257 36.6533072,4.86869257 C36.2799799,4.63989537 35.6321168,4.0655677 35.3170244,2.9936969 C35.0539275,2.33013313 34.1720848,2.13972821 33.5528192,2.15944316 C32.2498135,2.23363363 31.103834,2.08110216 29.9240575,1.81495032 C28.1525729,1.19185408 25.9427667,1.2318028 24.1406048,1.73453407 C18.6389674,3.28060133 13.3156743,8.45214446 10.2001076,14.0558601 C10.2001076,14.0558601 3.00653865,25.353565 2.00978609,26.6111714 C1.23713387,27.5797981 2.10129806,27.9564575 2.49750331,28.1883676 C3.80362873,28.9318288 5.71966066,29.3499933 8.66520228,29.3250902 C11.7906481,29.4086193 12.3324406,27.8677402 13.5751316,25.0780745 C13.9188214,24.2775437 14.8604588,21.9791954 14.8604588,21.9791954 C15.4329286,20.6141944 16.1962217,18.8222091 17.2111726,16.5461698 C19.3195877,11.8052427 22.2172935,9.17122138 24.6439206,7.82386007 C24.6439206,7.82386007 27.9529104,5.93693167 31.0424794,6.98441818 C31.6305478,7.1743043 31.9711179,6.51125934 32.1988579,6.19789537 C32.4817131,5.81501026 32.961631,5.4949017 33.3635558,5.40099627 C34.1107302,5.23445681 35.3009058,5.81501026 35.3009058,5.81501026 C37.1821008,6.842263 38.3561578,7.51983477 40.1552,8.85474452 C40.1843174,8.87290303 40.2753095,8.96265794 40.3663015,9.121934 C40.4864109,9.30611315 41.1847097,10.7702077 41.1847097,10.7702077 C41.1847097,10.7702077 41.3261373,11.0425853 41.5944338,11.1593186 C41.8585706,11.2677508 46.0806002,13.0275697 46.0806002,13.0275697 C46.76694,13.3331514 48.4396333,14.067274 49.3027576,14.716311 C49.366192,14.7713053 49.468623,14.8641731 49.3953095,15.0416077 L49.0770974,15.8940199 C48.8025615,16.612578 49.0287416,18.2556636 48.2285318,19.4665767 C48.1162217,19.6341538 47.8255672,19.8276716 47.5343927,19.7882417 C47.0310769,19.7249463 46.391533,19.6300033 45.7826664,19.6341538 C45.3121076,19.6621698 44.7760347,19.6974492 44.3605911,20.1197642 C44.1281715,20.3444109 44.0350997,20.5239207 44.1879662,20.7392287 C44.338753,20.9088811 44.5311361,20.8263895 44.5311361,20.8263895 C44.7827941,20.6707452 45.1545615,20.5726892 45.5715649,20.5726892 C46.1315558,20.5726892 46.8860096,20.7947419 47.1179092,21.2071994 C47.2879343,21.563625 47.3269309,21.8764701 47.2718157,22.2827019 C47.1059503,23.5454964 46.3301783,24.2775437 46.0171658,24.5338381 C45.946452,24.587276 45.8471407,24.6054345 45.7275512,24.5613353 C45.2980689,24.3538095 44.1505295,23.8982903 43.4771886,23.7467965 C43.3778773,23.7260439 43.3144429,23.7327885 43.2910449,23.7276003 C40.8327006,23.9263063 38.3811156,23.8287692 36.3995694,22.4943782 C35.9914052,22.2245947 35.3581008,21.2637502 34.9863334,22.0756949 C34.4289423,23.6975091 34.0400164,25.345264 34.2776356,27.1543702 C34.3675877,27.8677402 35.0466481,30.4114878 36.7754965,31.426289 C39.5239754,32.8369457 44.6496857,31.2364029 44.4448237,30.0965674 C44.4339047,30.0369037 44.4037473,29.9487052 44.2742787,29.8745148 C44.1432502,29.7998055 43.8161989,29.6202956 43.1340187,29.1678894 L43.1340187,29.1725587 C42.4986344,28.7331228 41.3760529,27.954901 40.9496903,26.844638 C40.5238477,25.7048025 41.6459092,24.2028344 44.6600848,25.6607032 C44.6600848,25.6607032 45.1763995,25.9144035 45.4712137,26.1914505 C45.5419275,26.2443696 45.6173209,26.3195977 45.7514691,26.3118155 C45.9454121,26.3087026 46.1606732,26.1914505 46.2360666,26.1566899 C47.1678249,25.6197169 49.0906162,23.6902457 48.5924999,21.1957855 C49.5918522,20.3267712 49.9693391,19.3674831 50.1851202,17.9578641 C50.2220369,17.7461877 50.2542741,16.4802803 50.8246641,15.1837628 C50.9806504,14.8257808 51.2967827,14.4299253 50.7425113,14.0190242" id="Fill-6" fill="#99877D"></path>
                    <path d="M37.7761487,12.0752338 C38.3350997,12.0752338 38.6829491,12.0871665 38.9751635,12.1546124 C39.2970153,12.2547436 39.6854212,12.6443733 39.9817952,13.0308901 C40.087346,13.1730453 40.2755694,13.4402348 40.5464657,13.2965231 C40.6769742,13.2103999 40.8173619,12.8664259 40.8475193,12.6148009 C40.8677975,12.3299717 40.9821875,11.7945551 40.6670951,11.5309973 C40.6670951,11.5309973 40.6260187,11.498312 40.5984611,11.4905298 C40.4731521,11.4485058 39.6984201,11.1102388 39.6984201,11.1102388 C39.5694714,11.0464246 39.4873186,11.0142581 39.414005,11.0194462 C38.6319936,11.0578385 37.8011065,11.2674396 37.373184,11.3779471 C36.8969058,11.5066131 37.1870404,11.8609634 37.1870404,11.8609634 C37.3201487,12.0160889 37.3227485,12.1105132 37.7761487,12.0752338" id="Fill-8" fill="#99877D"></path>
                    <path d="M32.6299001,10.7475355 C32.4983517,10.5156254 31.5322764,8.85697542 31.4132068,8.66345761 C31.4007279,8.63129111 31.3840894,8.6131326 31.3840894,8.6131326 C30.7804223,7.85514459 28.8716698,8.05229411 28.3288374,8.08549824 C26.384208,8.20690083 21.5975079,10.2935728 18.5453756,17.1382928 C15.6133528,23.7531779 14.7757063,26.1817487 14.7757063,26.1817487 C14.4793323,26.8530946 14.2921487,27.4113391 13.1362901,29.4305652 C12.5170244,30.3141063 13.4623015,30.759768 13.5798112,30.8152811 C14.6373984,31.3408402 17.9422285,32.0583607 20.7697405,31.7045292 C21.4306025,31.6189248 22.6025797,31.0456348 23.408509,26.7659338 C23.4360666,26.5988755 23.4688237,26.4421935 23.4922217,26.2777293 C23.8967462,24.1002648 24.2685136,22.3617173 24.6907165,20.9085179 C25.403054,18.4929175 26.3478112,16.8005445 27.6196196,15.593782 C28.9023471,14.38235 30.875054,13.2798692 32.9002764,13.4759811 C33.1337359,13.4832445 33.4103517,13.3416081 33.3692753,12.9649488 C33.2403266,12.1255069 33.0089469,11.4728382 32.6299001,10.7475355" id="Fill-10" fill="#99877D"></path>
                    <polygon id="Fill-12" fill="#99877D" points="144.730819 34.4244662 145.925674 34.4244662 145.925674 1.27792541 144.730819 1.27792541"></polygon>
                    <path d="M130.483392,27.6373865 C130.299849,27.9528258 130.16674,28.2661897 129.847488,28.4571135 C129.092514,28.9271594 126.596213,29.3027812 123.687589,29.3027812 C116.479981,29.3027812 111.557053,24.5779373 111.557053,17.7020885 C111.557053,11.5287146 116.732159,6.48272454 123.567479,6.48272454 C127.354827,6.48272454 130.009714,7.80258868 130.980989,8.40285708 C131.246686,8.52685375 131.246686,8.72296563 131.246686,8.94086773 L131.246686,10.9580186 C131.246686,11.0830529 131.144255,11.2127565 131.051703,11.3040679 L130.197418,11.9007046 C129.729459,12.2524608 128.675511,8.52685375 123.592437,8.52685375 C118.822895,8.52685375 116.325554,12.3157562 116.325554,17.4504635 C116.325554,23.7639173 120.01879,27.2534638 124.319333,27.2534638 C126.469865,27.2534638 128.835657,26.7196037 130.578024,25.0801498 C131.051703,24.637601 131.745842,25.0490209 131.460907,25.5258115 L130.483392,27.6373865 Z" id="Fill-14" fill="#99877D"></path>
                    <path d="M109.755775,27.3883556 C108.170954,26.9748604 107.98065,26.8814738 107.384263,25.3364442 C105.331483,20.4824155 102.674516,14.0828384 100.499027,7.7818361 C100.400755,7.30245148 100.142858,6.86405321 99.7066162,6.86405321 L94.2418956,6.86405321 C93.8956059,6.86405321 93.6091111,6.89258801 93.4812023,7.23604322 L93.3205364,7.74292501 C92.8770153,8.52685375 94.3682445,8.31102691 95.0935808,9.00260666 C95.4398705,9.35280646 96.2302011,9.89289237 95.6608511,11.3964168 L90.2268078,25.3364442 C89.5607462,26.9146779 89.3418454,27.1040452 88.0170016,27.4111834 C87.5365637,27.5419247 87.2911453,27.6373865 87.191314,27.8931621 L87.0368876,28.3279287 C86.7566322,29.0553066 87.4122946,28.9318288 88.0170016,28.9318288 L92.913932,28.9318288 C93.3652525,28.9318288 93.4484452,28.5530942 93.5446367,28.391224 L93.73546,28.0493253 C94.145184,27.2882244 91.6561624,27.6088517 92.2463106,25.9361937 L93.6725455,22.3371774 L101.60341,22.3371774 L103.968162,28.4726779 C104.081512,28.7393486 104.346689,28.9318288 104.650862,28.9318288 L109.079314,28.9318288 C109.436003,28.9318288 109.68974,28.897587 109.854566,28.617946 L110.163939,27.9191028 C110.26793,27.6628085 110.071387,27.4853739 109.755775,27.3883556 L109.755775,27.3883556 Z M94.3302878,20.4512866 L97.6522764,11.907968 L100.905631,20.4512866 L94.3302878,20.4512866 Z" id="Fill-15" fill="#99877D"></path>
                    <path d="M177.935834,27.6373865 C177.74917,27.9528258 177.622301,28.2661897 177.306689,28.4571135 C176.543396,28.9318288 174.059574,29.3090069 171.14211,29.3090069 C163.933982,29.3090069 159.003255,24.5779373 159.003255,17.7020885 C159.003255,11.5287146 164.18928,6.48272454 171.014201,6.48272454 C174.810908,6.48272454 177.464235,7.79740053 178.445389,8.40285708 C178.689248,8.52477849 178.689248,8.71518342 178.689248,8.94086773 L178.689248,10.9580186 C178.689248,11.0830529 178.602416,11.2044555 178.503104,11.3040679 L177.648299,11.9007046 C177.174621,12.2524608 176.137832,8.52477849 171.043839,8.52477849 C166.272737,8.52477849 163.777996,12.3157562 163.777996,17.4504635 C163.777996,23.7639173 167.470192,27.2534638 171.767095,27.2534638 C173.920226,27.2534638 176.294338,26.7247918 178.037745,25.0801498 C178.503104,24.637601 179.207122,25.0490209 178.921148,25.5258115 L177.935834,27.6373865 Z" id="Fill-16" fill="#99877D"></path>
                    <path d="M188.948312,8.55953906 L191.48101,8.55953906 C193.443318,8.55953906 194.891911,9.47161499 194.953265,12.6218567 C195.01618,16.0911694 193.123026,17.7020885 190.9127,17.7020885 L188.948312,17.7020885 L188.948312,8.55953906 L188.948312,8.55953906 Z M201.907135,27.8931621 C200.642086,27.1694159 198.08599,23.6357702 195.23924,18.7137768 C198.235217,17.3529263 199.566821,14.7951708 199.566821,12.2815144 C199.539783,8.52477849 196.625958,6.85263929 193.687696,6.85263929 L182.69586,6.85263929 C182.500358,6.85263929 182.281457,6.94758235 182.149388,7.22981745 L181.90449,7.8285294 C181.745384,8.17665395 182.028759,8.27626633 182.500358,8.40285708 C183.855879,8.61712747 184.490223,9.15098761 184.490223,10.4890103 L184.490223,25.5527898 C184.490223,26.7528078 183.672855,27.2534638 182.883564,27.4111834 C182.656864,27.4853739 182.410405,27.5175404 182.281457,27.8578827 L182.086474,28.391224 C181.930488,28.8664581 182.24766,28.9318288 182.500358,28.9318288 L190.531573,28.9318288 C190.819108,28.9318288 190.973014,28.8311788 191.064006,28.6817602 L191.316704,28.0493253 C191.447733,27.7961438 191.380139,27.5419247 190.973014,27.4853739 C189.42511,27.1289483 188.948312,26.908971 188.948312,25.5527898 L188.948312,19.4058754 L191.316704,19.4058754 L196.281749,28.1753972 C196.434615,28.4213153 196.661315,28.9318288 197.155792,28.9318288 L201.907135,28.9318288 L201.907135,27.8931621 Z" id="Fill-17" fill="#99877D"></path>
                    <path d="M209.574851,16.0638798 L216.87657,16.0638798 C217.288894,16.0638798 217.482837,16.2511718 217.288894,16.5406703 L216.720584,17.5139664 C216.508442,17.8584592 216.210509,17.9508082 215.708753,17.9508082 L209.574851,17.9508082 L209.574851,24.0712631 C209.574851,26.4463959 210.144201,27.0451079 211.880328,27.0451079 L214.47906,27.0451079 C217.569149,27.0451079 218.01371,24.3908528 218.457231,24.513293 L219.243922,24.7716627 C219.372871,24.804348 219.440465,24.9216001 219.440465,25.0487096 L219.440465,28.1418818 C219.440465,28.6446131 218.842518,28.9315175 217.978353,28.9315175 L208.21413,28.9315175 C205.81506,28.9315175 205.117802,28.9616087 205.117802,26.7530153 L205.117802,10.4892178 C205.117802,9.15067632 204.491777,8.61681618 203.129496,8.4030646 C202.650098,8.27647386 202.369843,8.17686147 202.532068,7.82873693 L202.778527,7.23002498 C202.906956,6.94727106 203.129496,6.85284682 203.31148,6.85284682 L217.093911,6.85284682 C217.698618,6.85284682 218.077145,7.20771595 218.01371,7.64300133 L218.01371,10.1618458 C218.01371,10.2552324 217.950276,10.3564013 217.862404,10.4461562 L217.288894,10.9265784 C216.810536,11.3037566 216.338417,8.74548218 214.219083,8.74548218 L209.574851,8.74548218 L209.574851,16.0638798 Z" id="Fill-18" fill="#99877D"></path>
                    <path d="M228.502906,8.74522278 L232.10879,8.74522278 C237.064475,8.74522278 239.757319,11.2044036 239.757319,17.4504116 C239.757319,23.0681352 237.444042,27.4111315 232.519554,27.4111315 C230.114245,27.4111315 228.502906,26.8445861 228.502906,24.4528511 L228.502906,8.74522278 L228.502906,8.74522278 Z M224.048457,26.8819407 C224.048457,27.8235891 224.36199,28.3621185 224.897543,28.5530423 C226.574915,29.1190689 228.537223,29.308955 232.552831,29.308955 C239.506181,29.308955 244.525821,23.9511575 244.525821,17.3897103 C244.525821,11.0191868 241.651513,6.85258741 232.650582,6.85258741 L222.252015,6.85258741 C222.059112,6.85258741 221.840731,6.94753047 221.714382,7.22976557 L221.454405,7.82847752 C221.298418,8.17660206 221.578674,8.27621445 222.059112,8.40280519 C223.417232,8.61707559 224.048457,9.15093573 224.048457,10.4889584 L224.048457,26.8819407 Z" id="Fill-19" fill="#99877D"></path>
                    <path d="M259.168048,8.52457096 C262.649143,8.52457096 265.932135,11.3038603 265.932135,17.858563 C265.932135,21.9530472 264.043141,27.2532563 259.306356,27.2532563 C255.480532,27.2532563 252.445558,24.1004204 252.445558,17.1068007 C252.445558,13.9503332 253.928468,8.52457096 259.168048,8.52457096 M259.83723,6.48251702 C253.295683,6.48251702 247.670817,11.1419902 247.670817,18.2056499 C247.670817,25.1484258 253.097581,29.3087994 258.69749,29.3087994 C266.134397,29.3087994 270.708436,23.6355626 270.708436,17.4507748 C270.708436,11.5290258 266.193152,6.48251702 259.83723,6.48251702" id="Fill-20" fill="#99877D"></path>
                    <path d="M301.059422,25.5527379 C301.059422,26.9089191 301.52894,27.1288964 303.083084,27.485322 C303.485529,27.5418728 303.551563,27.7960919 303.431454,28.0492734 L303.178756,28.6817083 C303.083084,28.8311269 302.921898,28.9317769 302.633844,28.9317769 L294.613027,28.9317769 C294.358769,28.9317769 294.038997,28.8664063 294.198104,28.3911722 L294.389967,27.8578308 C294.513196,27.5174885 294.765894,27.485322 294.987394,27.4111315 C295.782925,27.2534119 296.599773,26.7527559 296.599773,25.5527379 L295.471472,12.9055964 L295.403878,12.9055964 L287.921214,28.2355278 C287.727271,28.6199694 287.572325,28.9317769 287.313907,28.9317769 L286.406587,28.9317769 C286.211604,28.9317769 285.955267,28.48404 285.708808,27.9195698 L278.717501,12.9055964 L278.651467,12.9055964 L277.179476,25.5527379 C277.179476,26.9089191 277.657834,27.1288964 279.203659,27.485322 C279.619102,27.5418728 279.677857,27.7960919 279.550988,28.0492734 L279.293611,28.6817083 C279.203659,28.8311269 279.040393,28.9317769 278.763257,28.9317769 L273.001123,28.9317769 C272.746865,28.9317769 272.439572,28.8664063 272.601798,28.3911722 L272.783262,27.8578308 C272.911171,27.5174885 273.164909,27.485322 273.383289,27.4111315 C274.1731,27.2534119 274.997748,26.7527559 274.997748,25.5527379 L276.416183,10.946034 C276.472858,10.3146367 275.99814,9.89284049 275.77092,9.64329071 C275.067942,8.88685914 274.359244,8.49878588 273.885045,8.40280519 C273.244462,8.24145388 273.182587,8.02510823 273.312056,7.74287313 L273.565273,7.10369364 C273.653666,6.97502764 273.82837,6.85258741 274.105506,6.85258741 L279.119946,6.85258741 C280.172854,6.85258741 280.392275,6.97502764 280.930947,8.14443556 L288.041844,23.1277989 L295.732489,7.86635098 C296.135974,7.01186347 296.611732,6.85258741 297.055253,6.85258741 L302.082692,6.85258741 C302.392065,6.85258741 302.686879,6.9200333 302.519974,7.42483983 L302.33331,8.02510823 C302.201242,8.37167632 301.883029,8.43497169 301.540899,8.52472661 C300.586783,8.74522278 299.93684,9.12603263 299.93684,10.4889584 L301.059422,25.5527379 Z" id="Fill-21" fill="#99877D"></path>
                    <path d="M339.050617,25.5527379 C339.050617,26.9089191 339.527415,27.1288964 341.076359,27.485322 C341.479324,27.5418728 341.546398,27.7960919 341.421609,28.0492734 L341.167871,28.6817083 C341.076359,28.8311269 340.912054,28.9317769 340.636478,28.9317769 L332.599023,28.9317769 C332.350485,28.9317769 332.033313,28.8664063 332.190339,28.3911722 L332.382722,27.8578308 C332.511151,27.5174885 332.763329,27.485322 332.982229,27.4111315 C333.771,27.2534119 334.596688,26.7527559 334.596688,25.5527379 L334.596688,9.06636896 L327.263771,9.06636896 C326.81609,9.06636896 326.410006,8.94081585 326.81609,8.40280519 L327.518549,7.26452614 C327.797244,6.9200333 328.119096,6.85258741 328.625532,6.85258741 L346.450608,6.85258741 C346.890489,6.85258741 347.303333,6.97502764 346.890489,7.51978288 L346.192191,8.65909957 C345.910375,9.00307359 345.590603,9.06636896 345.087288,9.06636896 L339.050617,9.06636896 L339.050617,25.5527379 Z" id="Fill-22" fill="#99877D"></path>
                    <path d="M351.920996,10.2272165 C351.920996,8.87259174 351.451997,8.65935897 349.893694,8.31123443 C349.489689,8.24171329 349.427295,7.99008825 349.551564,7.74261372 L349.798022,7.10343423 C349.893694,6.94727106 350.05124,6.85284682 350.339295,6.85284682 L358.36947,6.85284682 C358.623728,6.85284682 358.935701,6.92029271 358.781794,7.39137629 L358.592011,7.9241988 C358.468782,8.27647386 358.210884,8.31123443 357.988864,8.37193573 C357.200613,8.5244672 356.373366,9.02771728 356.373366,10.2272165 L356.373366,25.5529973 C356.373366,26.9086597 356.852244,27.128637 358.392348,27.4850626 C358.810912,27.5421322 358.872266,27.7963513 358.749557,28.0495328 L358.48802,28.6819677 C358.392348,28.8313863 358.234802,28.9315175 357.962866,28.9315175 L349.93425,28.9315175 C349.675313,28.9315175 349.360221,28.8661469 349.511008,28.3909128 L349.70547,27.8580902 C349.83026,27.5172291 350.087117,27.4850626 350.307058,27.4113909 C351.103628,27.2531525 351.920996,26.7530153 351.920996,25.5529973 L351.920996,10.2272165 Z" id="Fill-23" fill="#99877D"></path>
                    <path d="M380.30879,27.6373865 C380.125246,27.9528258 379.997857,28.2661897 379.679125,28.4571135 C378.924151,28.9318288 376.426291,29.3090069 373.520265,29.3090069 C366.308498,29.3090069 361.38505,24.5779373 361.38505,17.7020885 C361.38505,11.5287146 366.568995,6.48272454 373.391317,6.48272454 C377.188024,6.48272454 379.841871,7.79740053 380.817825,8.40285708 C381.076243,8.52477849 381.076243,8.71518342 381.076243,8.94086773 L381.076243,10.9580186 C381.076243,11.0830529 380.976931,11.2044555 380.886979,11.3040679 L380.034774,11.9007046 C379.553296,12.2524608 378.511308,8.52477849 373.427194,8.52477849 C368.656612,8.52477849 366.150952,12.3157562 366.150952,17.4504635 C366.150952,23.7639173 369.853027,27.2534638 374.14993,27.2534638 C376.301501,27.2534638 378.673013,26.7247918 380.402382,25.0801498 C380.886979,24.637601 381.572799,25.0490209 381.294104,25.5258115 L380.30879,27.6373865 Z" id="Fill-24" fill="#99877D"></path>
                    <path d="M328.559081,27.3883556 C326.986219,26.9779733 326.797996,26.8814738 326.195369,25.3385194 C324.135309,20.4824155 321.485622,14.0828384 319.300254,7.77405388 C319.201462,7.30245148 318.951884,6.85263929 318.512003,6.85263929 L313.033763,6.85263929 C312.699433,6.85263929 312.414498,6.89258801 312.287109,7.23604322 L312.135802,7.74292501 C311.686561,8.52685375 313.169991,8.31102691 313.900007,9.00260666 C314.257736,9.35280646 315.032468,9.89289237 314.468837,11.3964168 L309.028035,25.3385194 C308.367173,26.9146779 308.146192,27.1040452 306.819268,27.4231162 C306.352349,27.5419247 306.097572,27.6373865 306.00034,27.8931621 L305.839154,28.3320792 C305.565658,29.0553066 306.219241,28.9318288 306.819268,28.9318288 L311.714639,28.9318288 C312.16076,28.9318288 312.257471,28.5572447 312.348463,28.391224 L312.539287,28.0524382 C312.946411,27.2882244 310.45115,27.6088517 311.055857,25.9361937 L312.473252,22.3449596 L320.413996,22.3371774 L322.776149,28.4726779 C322.88014,28.7424615 323.152076,28.9318288 323.454689,28.9318288 L327.88886,28.9318288 C328.23827,28.9318288 328.500847,28.905888 328.650593,28.6200212 L328.980764,27.9191028 C329.062917,27.6705907 328.881973,27.4853739 328.559081,27.3883556 L328.559081,27.3883556 Z M313.136194,20.4512866 L316.454543,11.907968 L319.708938,20.4512866 L313.136194,20.4512866 Z" id="Fill-25" fill="#99877D"></path>
                    <path d="M73.6641806,18.0020671 L75.5687735,18.0020671 C78.7285364,18.0020671 80.6216903,19.8677241 80.6840848,22.765822 C80.750639,25.733441 79.2651293,27.632821 76.6736766,27.632821 C74.7103288,27.632821 73.6641806,26.9324214 73.6641806,24.8135829 L73.6641806,18.0020671 L73.6641806,18.0020671 Z M67.4080894,6.86934512 C67.218826,6.86934512 66.9947257,6.96532581 66.8740962,7.2402975 L66.6172388,7.85094219 C66.4607325,8.19335977 66.7435877,8.28934046 67.218826,8.41437476 C68.5883859,8.63123923 69.2034919,9.17184396 69.2034919,10.4984527 L69.2034919,26.9002549 C69.2034919,27.8502043 69.5227439,28.3882149 70.0671361,28.5796575 C71.7434691,29.14309 73.8212068,29.3293445 76.8275831,29.3293445 C81.1972798,29.3293445 85.6855261,27.4424161 85.6855261,22.6496075 C85.6855261,20.5608603 84.1667393,17.277802 79.5864611,16.7683261 L79.5864611,16.7097001 C82.3292205,15.7628636 84.1667393,13.9355989 84.0700278,11.6289495 C83.920281,7.99880433 80.9497815,6.86934512 77.6553505,6.86934512 L67.4080894,6.86934512 L67.4080894,6.86934512 Z M73.6641806,8.56638741 L75.5089788,8.56638741 C78.1279891,8.56638741 79.6145387,9.26782464 79.6145387,12.2593092 C79.6145387,14.3376801 78.2221008,16.2936109 75.6394873,16.2936109 L73.6641806,16.2936109 L73.6641806,8.56638741 Z" id="Fill-26" fill="#99877D"></path>
                </g>
            </g>
        </g>
    </g>
</svg>