<?xml version="1.0" encoding="UTF-8"?>
<svg width="97px" height="96px" viewBox="0 0 97 96" version="1.1" xmlns="http://www.w3.org/2000/svg" xmlns:xlink="http://www.w3.org/1999/xlink">
    <!-- Generator: Sketch 42 (36781) - http://www.bohemiancoding.com/sketch -->
    <title>cr-landing-iconos-corporativo</title>
    <desc>Created with Sketch.</desc>
    <defs></defs>
    <g id="Page-1" stroke="none" stroke-width="1" fill="none" fill-rule="evenodd">
        <g id="Desktop-HD-1" transform="translate(-1202.000000, -728.000000)">
            <g id="cr-landing-iconos-corporativo" transform="translate(1202.000000, 728.500000)">
                <circle id="Oval-Copy-5" fill="#EDEDED" style="mix-blend-mode: multiply;" cx="49" cy="47.5800781" r="47.3535156"></circle>
                <g id="Group-4" transform="translate(0.000000, 6.000000)" fill-rule="nonzero" fill="#F45352">
                    <path d="M47.5013325,75.0458587 L43.0053302,75.0458587 L43.0053302,17.4401027 C43.0053302,16.6247597 42.3354258,15.9630321 41.5066627,15.9630321 L25.0213207,15.9630321 L22.0239858,15.9630321 L5.53864379,15.9630321 C4.71137936,15.9630321 4.03997634,16.6247597 4.03997634,17.4401027 L4.03997634,75.0458587 C4.03997634,75.0458587 26.2701723,76.5568824 37.3852702,77.3123943 C40.757291,77.5415962 47.5013325,78 47.5013325,78 C48.3300956,78 49,77.3397494 49,76.5229293 C49,75.7061093 48.3300956,75.0458587 47.5013325,75.0458587 Z M7.71372549,19.8695544 L40.1529412,19.8695544 L40.1529412,75.0934777 L34.254902,75.0934777 L22.4588235,75.0934777 L7.71372549,75.0934777 L7.71372549,19.8695544 Z" id="Shape"></path>
                    <path d="M14.8529412,49.5918367 C14.0574118,49.5918367 13.4117647,50.2267592 13.4117647,51.0122449 L13.4117647,53.8530612 C13.4117647,54.6385469 14.0574118,55.2734694 14.8529412,55.2734694 C15.6484706,55.2734694 16.2941176,54.6385469 16.2941176,53.8530612 L16.2941176,51.0122449 C16.2941176,50.2267592 15.6484706,49.5918367 14.8529412,49.5918367 Z" id="Shape"></path>
                    <path d="M23.5,55.2734694 C24.2955294,55.2734694 24.9411765,54.6385469 24.9411765,53.8530612 L24.9411765,51.0122449 C24.9411765,50.2267592 24.2955294,49.5918367 23.5,49.5918367 C22.7044706,49.5918367 22.0588235,50.2267592 22.0588235,51.0122449 L22.0588235,53.8530612 C22.0588235,54.6385469 22.7044706,55.2734694 23.5,55.2734694 Z" id="Shape"></path>
                    <path d="M32.1470588,55.2734694 C32.9440294,55.2734694 33.5882353,54.6385469 33.5882353,53.8530612 L33.5882353,51.0122449 C33.5882353,50.2267592 32.9440294,49.5918367 32.1470588,49.5918367 C31.3500882,49.5918367 30.7058824,50.2267592 30.7058824,51.0122449 L30.7058824,53.8530612 C30.7058824,54.6385469 31.3500882,55.2734694 32.1470588,55.2734694 Z" id="Shape"></path>
                    <path d="M14.8529412,38.2285714 C14.0574118,38.2285714 13.4117647,38.8649143 13.4117647,39.6489796 L13.4117647,42.4897959 C13.4117647,43.2738612 14.0574118,43.9102041 14.8529412,43.9102041 C15.6484706,43.9102041 16.2941176,43.2738612 16.2941176,42.4897959 L16.2941176,39.6489796 C16.2941176,38.8649143 15.6484706,38.2285714 14.8529412,38.2285714 Z" id="Shape"></path>
                    <path d="M23.5,43.9102041 C24.2955294,43.9102041 24.9411765,43.2738612 24.9411765,42.4897959 L24.9411765,39.6489796 C24.9411765,38.8649143 24.2955294,38.2285714 23.5,38.2285714 C22.7044706,38.2285714 22.0588235,38.8649143 22.0588235,39.6489796 L22.0588235,42.4897959 C22.0588235,43.2738612 22.7044706,43.9102041 23.5,43.9102041 Z" id="Shape"></path>
                    <path d="M32.1470588,43.9102041 C32.9440294,43.9102041 33.5882353,43.2738612 33.5882353,42.4897959 L33.5882353,39.6489796 C33.5882353,38.8649143 32.9440294,38.2285714 32.1470588,38.2285714 C31.3500882,38.2285714 30.7058824,38.8649143 30.7058824,39.6489796 L30.7058824,42.4897959 C30.7058824,43.2738612 31.3500882,43.9102041 32.1470588,43.9102041 Z" id="Shape"></path>
                    <path d="M14.8529412,26.8653061 C14.0574118,26.8653061 13.4117647,27.501649 13.4117647,28.2857143 L13.4117647,31.1265306 C13.4117647,31.9105959 14.0574118,32.5469388 14.8529412,32.5469388 C15.6484706,32.5469388 16.2941176,31.9105959 16.2941176,31.1265306 L16.2941176,28.2857143 C16.2941176,27.501649 15.6484706,26.8653061 14.8529412,26.8653061 Z" id="Shape"></path>
                    <path d="M23.5,32.5469388 C24.2955294,32.5469388 24.9411765,31.9105959 24.9411765,31.1265306 L24.9411765,28.2857143 C24.9411765,27.501649 24.2955294,26.8653061 23.5,26.8653061 C22.7044706,26.8653061 22.0588235,27.501649 22.0588235,28.2857143 L22.0588235,31.1265306 C22.0588235,31.9105959 22.7044706,32.5469388 23.5,32.5469388 Z" id="Shape"></path>
                    <path d="M32.1470588,32.5469388 C32.9440294,32.5469388 33.5882353,31.9105959 33.5882353,31.1265306 L33.5882353,28.2857143 C33.5882353,27.501649 32.9440294,26.8653061 32.1470588,26.8653061 C31.3500882,26.8653061 30.7058824,27.501649 30.7058824,28.2857143 L30.7058824,31.1265306 C30.7058824,31.9105959 31.3500882,32.5469388 32.1470588,32.5469388 Z" id="Shape"></path>
                    <path d="M94.1470588,74.3069388 L88.5882353,74.3069388 L88.5882353,2.2922449 C88.5882353,1.27296 87.7599706,0.445714286 86.7352941,0.445714286 L66.3529412,0.445714286 L62.6470588,0.445714286 L42.2647059,0.445714286 C41.2418824,0.445714286 40.4117647,1.27296 40.4117647,2.2922449 L40.4117647,74.3069388 L2,74.3069388 C0.977176471,74.3069388 0.147058824,75.132338 0.147058824,76.1534694 C0.147058824,77.1746008 0.977176471,78 2,78 L94.1470588,78 C95.1717353,78 96,77.1746008 96,76.1534694 C96,75.132338 95.1717353,74.3069388 94.1470588,74.3069388 Z M44.1176471,4.13877551 L84.8823529,4.13877551 L84.8823529,74.3069388 L77.4705882,74.3069388 L77.4705882,57.6881633 C77.4705882,56.6670318 76.6423235,55.8416327 75.6176471,55.8416327 L64.5,55.8416327 C63.4771765,55.8416327 62.6470588,56.6670318 62.6470588,57.6881633 L62.6470588,74.3069388 L44.1176471,74.3069388 L44.1176471,4.13877551 Z M73.7647059,74.3069388 L66.3529412,74.3069388 L66.3529412,59.5346939 L73.7647059,59.5346939 L73.7647059,74.3069388 Z" id="Shape"></path>
                    <path d="M53.3823529,55.8416327 C52.3595294,55.8416327 51.5294118,56.6670318 51.5294118,57.6881633 L51.5294118,61.3812245 C51.5294118,62.4023559 52.3595294,63.2277551 53.3823529,63.2277551 C54.4051765,63.2277551 55.2352941,62.4023559 55.2352941,61.3812245 L55.2352941,57.6881633 C55.2352941,56.6670318 54.4051765,55.8416327 53.3823529,55.8416327 Z" id="Shape"></path>
                    <path d="M53.3823529,41.0693878 C52.3595294,41.0693878 51.5294118,41.8947869 51.5294118,42.9159184 L51.5294118,46.6089796 C51.5294118,47.630111 52.3595294,48.4555102 53.3823529,48.4555102 C54.4051765,48.4555102 55.2352941,47.630111 55.2352941,46.6089796 L55.2352941,42.9159184 C55.2352941,41.8947869 54.4051765,41.0693878 53.3823529,41.0693878 Z" id="Shape"></path>
                    <path d="M64.5,48.4555102 C65.5228235,48.4555102 66.3529412,47.630111 66.3529412,46.6089796 L66.3529412,42.9159184 C66.3529412,41.8947869 65.5228235,41.0693878 64.5,41.0693878 C63.4771765,41.0693878 62.6470588,41.8947869 62.6470588,42.9159184 L62.6470588,46.6089796 C62.6470588,47.630111 63.4771765,48.4555102 64.5,48.4555102 Z" id="Shape"></path>
                    <path d="M75.6176471,48.4555102 C76.6423235,48.4555102 77.4705882,47.630111 77.4705882,46.6089796 L77.4705882,42.9159184 C77.4705882,41.8947869 76.6423235,41.0693878 75.6176471,41.0693878 C74.5929706,41.0693878 73.7647059,41.8947869 73.7647059,42.9159184 L73.7647059,46.6089796 C73.7647059,47.630111 74.5929706,48.4555102 75.6176471,48.4555102 Z" id="Shape"></path>
                    <path d="M53.3823529,26.2971429 C52.3595294,26.2971429 51.5294118,27.1243886 51.5294118,28.1436735 L51.5294118,31.8367347 C51.5294118,32.8560196 52.3595294,33.6832653 53.3823529,33.6832653 C54.4051765,33.6832653 55.2352941,32.8560196 55.2352941,31.8367347 L55.2352941,28.1436735 C55.2352941,27.1243886 54.4051765,26.2971429 53.3823529,26.2971429 Z" id="Shape"></path>
                    <path d="M64.5,33.6832653 C65.5228235,33.6832653 66.3529412,32.8560196 66.3529412,31.8367347 L66.3529412,28.1436735 C66.3529412,27.1243886 65.5228235,26.2971429 64.5,26.2971429 C63.4771765,26.2971429 62.6470588,27.1243886 62.6470588,28.1436735 L62.6470588,31.8367347 C62.6470588,32.8560196 63.4771765,33.6832653 64.5,33.6832653 Z" id="Shape"></path>
                    <path d="M75.6176471,33.6832653 C76.6423235,33.6832653 77.4705882,32.8560196 77.4705882,31.8367347 L77.4705882,28.1436735 C77.4705882,27.1243886 76.6423235,26.2971429 75.6176471,26.2971429 C74.5929706,26.2971429 73.7647059,27.1243886 73.7647059,28.1436735 L73.7647059,31.8367347 C73.7647059,32.8560196 74.5929706,33.6832653 75.6176471,33.6832653 Z" id="Shape"></path>
                    <path d="M53.3823529,11.524898 C52.3595294,11.524898 51.5294118,12.3521437 51.5294118,13.3714286 L51.5294118,17.0644898 C51.5294118,18.0837747 52.3595294,18.9110204 53.3823529,18.9110204 C54.4051765,18.9110204 55.2352941,18.0837747 55.2352941,17.0644898 L55.2352941,13.3714286 C55.2352941,12.3521437 54.4051765,11.524898 53.3823529,11.524898 Z" id="Shape"></path>
                    <path d="M64.5,18.9110204 C65.5228235,18.9110204 66.3529412,18.0837747 66.3529412,17.0644898 L66.3529412,13.3714286 C66.3529412,12.3521437 65.5228235,11.524898 64.5,11.524898 C63.4771765,11.524898 62.6470588,12.3521437 62.6470588,13.3714286 L62.6470588,17.0644898 C62.6470588,18.0837747 63.4771765,18.9110204 64.5,18.9110204 Z" id="Shape"></path>
                    <path d="M75.6176471,18.9110204 C76.6423235,18.9110204 77.4705882,18.0837747 77.4705882,17.0644898 L77.4705882,13.3714286 C77.4705882,12.3521437 76.6423235,11.524898 75.6176471,11.524898 C74.5929706,11.524898 73.7647059,12.3521437 73.7647059,13.3714286 L73.7647059,17.0644898 C73.7647059,18.0837747 74.5929706,18.9110204 75.6176471,18.9110204 Z" id="Shape"></path>
                </g>
            </g>
        </g>
    </g>
</svg>