<?xml version="1.0" encoding="UTF-8"?>
<svg width="95px" height="95px" viewBox="0 0 95 95" version="1.1" xmlns="http://www.w3.org/2000/svg" xmlns:xlink="http://www.w3.org/1999/xlink">
    <!-- Generator: Sketch 42 (36781) - http://www.bohemiancoding.com/sketch -->
    <title>cr-landing-iconos-promociones</title>
    <desc>Created with Sketch.</desc>
    <defs></defs>
    <g id="Page-1" stroke="none" stroke-width="1" fill="none" fill-rule="evenodd">
        <g id="Desktop-HD-1" transform="translate(-150.000000, -993.000000)">
            <g id="cr-landing-iconos-promociones" transform="translate(149.300445, 993.025391)">
                <circle id="Oval-Copy-8" fill="#EDEDED" style="mix-blend-mode: multiply;" cx="48.0530704" cy="47.5898438" r="47.3535156"></circle>
                <path d="M49.2997943,7.32157269 C41.8760997,7.32157269 35.7129044,12.6858525 34.456356,19.7512182 L27.9918315,19.7512182 C25.0713975,19.7512182 22.7567311,22.1732145 22.6648405,25.0227196 L20.8891769,80.0682925 C20.7929004,83.0554915 23.2957516,85.450773 26.2161678,85.450773 L61.2578235,85.450773 C63.7615092,87.6535725 67.0240248,89.0021002 70.607758,89.0021002 C78.432131,89.0021002 84.8130671,82.6211642 84.8130671,74.7967911 C84.8130671,69.330233 81.701039,64.5742067 77.1555177,62.2006771 L75.9347489,25.0227196 C75.8429471,22.1731346 73.528192,19.7512182 70.607758,19.7512182 L64.1432769,19.7512182 C62.886551,12.6858525 56.7234888,7.32157269 49.2997943,7.32157269 Z M49.2997943,10.8729 C54.8013329,10.8729 59.3449899,14.6381947 60.5363714,19.7512182 L38.0632172,19.7512182 C39.2545987,14.6381947 43.7982556,10.8729 49.2997943,10.8729 Z M27.9918315,23.3025455 L34.2066533,23.3025455 L34.2066533,27.2422992 C32.6456319,27.9362285 31.5431579,29.4924201 31.5431579,31.2930319 C31.5431579,33.723649 33.5518951,35.732191 35.982317,35.732191 C38.4127566,35.732191 40.4214761,33.723649 40.4214761,31.2930319 C40.4214761,29.4924201 39.3189665,27.9362285 37.7579806,27.2422992 L37.7579806,23.3025455 L60.841608,23.3025455 L60.841608,27.2422992 C59.280622,27.9362285 58.1781125,29.4924201 58.1781125,31.2930319 C58.1781125,33.723649 60.186832,35.732191 62.6172716,35.732191 C65.0477112,35.732191 67.0564307,33.723649 67.0564307,31.2930319 C67.0564307,29.4924201 65.9539211,27.9362285 64.3929352,27.2422992 L64.3929352,23.3025455 L70.607758,23.3025455 C71.621218,23.3025455 72.3485298,24.050455 72.3834216,25.1336986 L73.5487009,60.8967185 C72.5987208,60.6952695 71.6162462,60.591482 70.607758,60.591482 C62.7833849,60.591482 56.4024488,66.972418 56.4024488,74.7967911 C56.4024488,77.3794051 57.1040136,79.8089569 58.3167918,81.8994457 L26.2161678,81.8994457 C25.2027433,81.8994457 24.4100249,81.12499 24.4405042,80.1792715 L26.2161678,25.1336986 C26.2511484,24.0503662 26.9784247,23.3025455 27.9918315,23.3025455 L27.9918315,23.3025455 Z M35.982317,30.4052 C36.4936371,30.4052 36.8701488,30.7816407 36.8701488,31.2930319 C36.8701488,31.804423 36.4936371,32.1808637 35.982317,32.1808637 C35.4709969,32.1808637 35.0944851,31.804423 35.0944851,31.2930319 C35.0944851,30.7816407 35.4709969,30.4052 35.982317,30.4052 Z M62.6172716,30.4052 C63.1285739,30.4052 63.5051034,30.7816407 63.5051034,31.2930319 C63.5051034,31.804423 63.1285739,32.1808637 62.6172716,32.1808637 C62.1059693,32.1808637 61.7294398,31.804423 61.7294398,31.2930319 C61.7294398,30.7816407 62.1059693,30.4052 62.6172716,30.4052 Z M70.607758,64.1428092 C76.5128162,64.1428092 81.2617398,68.8917329 81.2617398,74.7967911 C81.2617398,80.7018493 76.5128162,85.450773 70.607758,85.450773 C64.7026998,85.450773 59.9537761,80.7018493 59.9537761,74.7967911 C59.9537761,68.8917329 64.7026998,64.1428092 70.607758,64.1428092 Z" id="Shape" fill="#F45352" fill-rule="nonzero"></path>
                <text id="%" stroke="#F45352" font-family="GothamRounded-Bold, Gotham Rounded" font-size="20" font-weight="bold" fill="#F45352">
                    <tspan x="62.9922155" y="82.9166483">%</tspan>
                </text>
            </g>
        </g>
    </g>
</svg>