<?xml version="1.0" encoding="utf-8"?>
<!-- Generator: Adobe Illustrator 21.0.0, SVG Export Plug-In . SVG Version: 6.00 Build 0)  -->
<svg version="1.1" id="Layer_1" xmlns="http://www.w3.org/2000/svg" xmlns:xlink="http://www.w3.org/1999/xlink" x="0px" y="0px"
	 viewBox="0 0 382 35" style="enable-background:new 0 0 382 35;" xml:space="preserve">
<style type="text/css">
	.st0{fill:#FEFEFE;}
	.st1{fill:#FFFFFF;}
</style>
<title>cr-landing-logo-bac-382x35px</title>
<desc>Created with Sketch.</desc>
<g id="Page-1">
	<path class="st0" d="M51.6,13.1L51.6,13.1c-0.1-0.1-0.3-0.2-0.9-0.7c-0.9-0.6-1.8-1.1-2.6-1.4l0,0c0,0-3.5-1.4-3.6-1.5
		c-0.4-0.2-0.5-0.5-0.5-0.5c-0.2-0.5-0.4-0.8-0.7-1.2c-0.1-0.1-0.5-0.4-0.8-0.7c-1.6-1.3-4.7-3.2-5.1-3.4c-0.2-0.1-0.7-0.7-0.8-1.1
		l0-0.1c0,0,0-0.1,0-0.1C36,1.4,34.7,1,33.6,1h0c-1,0.1-2,0-3.3-0.3C28.4,0.1,26,0,23.9,0.6C18.5,2.1,12.8,7,9.3,13.2
		C6,18.7,2.1,24.4,1.6,25.1c-0.6,0.9-1,1.7-1.2,2.2c-0.2,0.8,0.2,1.2,0.8,1.6c1.8,1.1,4.3,1.8,7.4,1.6c1.6-0.1,2.5-0.5,3.4-1.2
		c0,0.1-0.3,0.7-0.3,0.9c0,0.2,0,0.2,0,0.4c0.1,0.7,0.7,1,1.4,1.3c1.3,0.7,4.9,1.4,7.9,1c0.8-0.1,1.5-0.8,2.1-1.6
		c0,1.1,0.3,1.7,1.4,2.3c2.7,1.3,9.2,0.9,10.6-0.1c0.4-0.3,0.7-0.9,0.7-1.5c0.1,0.1,0.3,0.3,0.5,0.4l0.1,0c0,0,0,0,0,0
		c2.6,1.3,6.8,0.5,8.4-0.7c0.9-0.7,1-1.5,0.9-1.9c-0.1-0.4-0.4-0.9-0.8-1.2l-0.1,0c0,0-1-0.6-1-0.6c-0.5-0.3-1.6-1-1.8-1.7
		c0,0,0-0.1,0-0.1c0.1-0.2,0.7-0.4,2.1,0.3c0.3,0.2,0.4,0.3,0.6,0.4c-0.3-0.2,0.6,0.5,1.2,0.4c0.4-0.1,0.7-0.2,0.9-0.3
		c1.2-0.7,3-2.6,3-5.2l0-0.3v-0.1c1-1.1,1.4-2.4,1.5-3.5c0,0,0-0.3,0-0.3c0-0.4,0.1-1.2,0.5-2.1l0.1-0.1c0.2-0.4,0.3-0.7,0.3-1
		C52.2,14,52,13.5,51.6,13.1z M23.5,26.3c0,0.2-0.1,0.3-0.1,0.5c-0.8,4.3-2,4.9-2.6,4.9c-2.8,0.4-6.1-0.4-7.2-0.9
		c-0.1-0.1-1.1-0.5-0.4-1.4c1.2-2,1.3-2.6,1.6-3.2c0,0,0.8-2.4,3.8-9c3.1-6.8,7.8-8.9,9.8-9.1c0.5,0,2.5-0.2,3.1,0.5c0,0,0,0,0,0.1
		c0.1,0.2,1.1,1.9,1.2,2.1c0.4,0.7,0.6,1.4,0.7,2.2c0,0.4-0.2,0.5-0.5,0.5c-2-0.2-4,0.9-5.3,2.1c-1.3,1.2-2.2,2.9-2.9,5.3
		C24.3,22.4,23.9,24.1,23.5,26.3z M34.3,32.6c-0.9,0.7-6.9,1.2-9.3,0c-0.9-0.4-1-0.6-0.7-2.3c1.4-7.9,2-11.3,4.4-13.7
		c1.7-1.7,3.3-2,4.1-1.7c0,0,0.2,0.1,0.3,0.2c0.1,0.5-0.1,0.9-0.1,1.4c0,0.8,0.1,1.6,0.5,2.2c0.4,0.6,0.9,1.2,0.7,2
		c-0.6,1.9-1.4,3.7-1.4,5.7c0,0-0.1,1.7,1.1,4.1c0.1,0.3,0.7,1.2,0.7,1.4C34.7,32.1,34.6,32.4,34.3,32.6z M50.8,15.2
		c-0.6,1.3-0.6,2.6-0.6,2.8c-0.2,1.4-0.6,2.4-1.6,3.2c0.5,2.5-1.4,4.4-2.4,5c-0.1,0-0.3,0.2-0.5,0.2c-0.1,0-0.2-0.1-0.3-0.1
		c-0.3-0.3-0.8-0.5-0.8-0.5c-3-1.5-4.1,0-3.7,1.2c0.4,1.1,1.5,1.9,2.2,2.3v0c0.7,0.5,1,0.6,1.1,0.7c0.1,0.1,0.2,0.2,0.2,0.2
		c0.2,1.1-4.9,2.7-7.7,1.3c-1.7-1-2.4-3.6-2.5-4.3c-0.2-1.8,0.2-3.5,0.7-5.1c0.4-0.8,1,0.1,1.4,0.4c2,1.3,4.4,1.4,6.9,1.2
		c0,0,0.1,0,0.2,0c0.7,0.2,1.8,0.6,2.3,0.8c0.1,0,0.2,0,0.3,0c0.3-0.3,1.1-1,1.3-2.3c0.1-0.4,0-0.7-0.2-1.1c-0.2-0.4-1-0.6-1.5-0.6
		c-0.4,0-0.8,0.1-1,0.3c0,0-0.2,0.1-0.3-0.1c-0.2-0.2-0.1-0.4,0.2-0.6c0.4-0.4,1-0.5,1.4-0.5c0.6,0,1.2,0.1,1.8,0.2
		c0.3,0,0.6-0.2,0.7-0.3c0.8-1.2,0.6-2.9,0.8-3.6l0.3-0.9c0.1-0.2,0-0.3-0.1-0.3c-0.9-0.6-2.5-1.4-3.2-1.7c0,0-4.2-1.8-4.5-1.9
		c-0.3-0.1-0.4-0.4-0.4-0.4s-0.7-1.5-0.8-1.6c-0.1-0.2-0.2-0.2-0.2-0.3c-1.8-1.3-3-2-4.9-3c0,0-1.2-0.6-1.9-0.4
		c-0.4,0.1-0.9,0.4-1.2,0.8C32,6.5,31.6,7.2,31,7c-3.1-1-6.4,0.8-6.4,0.8c-2.4,1.3-5.3,4-7.4,8.7c-1,2.3-1.8,4.1-2.4,5.4
		c0,0-0.9,2.3-1.3,3.1c-1.2,2.8-1.8,4.3-4.9,4.2c-2.9,0-4.9-0.4-6.2-1.1C2.1,28,1.2,27.6,2,26.6c1-1.3,8.2-12.6,8.2-12.6
		c3.1-5.6,8.4-10.8,13.9-12.3c1.8-0.5,4-0.5,5.8,0.1c1.2,0.3,2.3,0.4,3.6,0.3c0.6,0,1.5,0.2,1.8,0.8c0.3,1.1,1,1.6,1.3,1.9
		c0,0,3.2,1.8,4.8,3.1c0.4,0.3,0.6,0.4,0.6,0.5c0.2,0.3,0.4,0.8,0.7,1.3c0.2,0.3,0.5,0.5,0.7,0.6c0.2,0.1,0.1,0.1,4.1,1.7
		c0.8,0.4,1.7,0.8,2.4,1.3c0,0,0.6,0.4,0.7,0.5C51.3,14.4,51,14.8,50.8,15.2z M37.4,11.4c0.4-0.1,1.3-0.3,2-0.4c0.1,0,0.2,0,0.3,0.1
		c0,0,0.8,0.3,0.9,0.4c0,0,0.1,0,0.1,0c0.3,0.3,0.2,0.8,0.2,1.1c0,0.3-0.2,0.6-0.3,0.7c-0.3,0.1-0.5-0.1-0.6-0.3
		c-0.3-0.4-0.7-0.8-1-0.9c-0.3-0.1-0.6-0.1-1.2-0.1c-0.5,0-0.5-0.1-0.6-0.2C37.2,11.9,36.9,11.5,37.4,11.4z"/>
	<polygon id="Fill-12" class="st1" points="144.7,34.4 145.9,34.4 145.9,1.3 144.7,1.3 	"/>
	<path id="Fill-14" class="st1" d="M130.5,27.6c-0.2,0.3-0.3,0.6-0.6,0.8c-0.8,0.5-3.3,0.8-6.2,0.8c-7.2,0-12.1-4.7-12.1-11.6
		c0-6.2,5.2-11.2,12-11.2c3.8,0,6.4,1.3,7.4,1.9c0.3,0.1,0.3,0.3,0.3,0.5v2c0,0.1-0.1,0.3-0.2,0.3l-0.9,0.6
		c-0.5,0.4-1.5-3.4-6.6-3.4c-4.8,0-7.3,3.8-7.3,8.9c0,6.3,3.7,9.8,8,9.8c2.2,0,4.5-0.5,6.3-2.2c0.5-0.4,1.2,0,0.9,0.4L130.5,27.6z"
		/>
	<path id="Fill-15" class="st1" d="M109.8,27.4c-1.6-0.4-1.8-0.5-2.4-2.1c-2.1-4.9-4.7-11.3-6.9-17.6c-0.1-0.5-0.4-0.9-0.8-0.9h-5.5
		c-0.3,0-0.6,0-0.8,0.4l-0.2,0.5c-0.4,0.8,1,0.6,1.8,1.3c0.3,0.4,1.1,0.9,0.6,2.4l-5.4,13.9c-0.7,1.6-0.9,1.8-2.2,2.1
		c-0.5,0.1-0.7,0.2-0.8,0.5L87,28.3c-0.3,0.7,0.4,0.6,1,0.6h4.9c0.5,0,0.5-0.4,0.6-0.5l0.2-0.3c0.4-0.8-2.1-0.4-1.5-2.1l1.4-3.6h7.9
		l2.4,6.1c0.1,0.3,0.4,0.5,0.7,0.5h4.4c0.4,0,0.6,0,0.8-0.3l0.3-0.7C110.3,27.7,110.1,27.5,109.8,27.4L109.8,27.4z M94.3,20.5
		l3.3-8.5l3.3,8.5H94.3z"/>
	<path id="Fill-16" class="st1" d="M177.9,27.6c-0.2,0.3-0.3,0.6-0.6,0.8c-0.8,0.5-3.2,0.9-6.2,0.9c-7.2,0-12.1-4.7-12.1-11.6
		c0-6.2,5.2-11.2,12-11.2c3.8,0,6.5,1.3,7.4,1.9c0.2,0.1,0.2,0.3,0.2,0.5v2c0,0.1-0.1,0.2-0.2,0.3l-0.9,0.6
		c-0.5,0.4-1.5-3.4-6.6-3.4c-4.8,0-7.3,3.8-7.3,8.9c0,6.3,3.7,9.8,8,9.8c2.2,0,4.5-0.5,6.3-2.2c0.5-0.4,1.2,0,0.9,0.4L177.9,27.6z"
		/>
	<path id="Fill-17" class="st1" d="M188.9,8.6h2.5c2,0,3.4,0.9,3.5,4.1c0.1,3.5-1.8,5.1-4,5.1h-2V8.6L188.9,8.6z M201.9,27.9
		c-1.3-0.7-3.8-4.3-6.7-9.2c3-1.4,4.3-3.9,4.3-6.4c0-3.8-2.9-5.4-5.9-5.4h-11c-0.2,0-0.4,0.1-0.5,0.4l-0.2,0.6
		c-0.2,0.3,0.1,0.4,0.6,0.6c1.4,0.2,2,0.7,2,2.1v15.1c0,1.2-0.8,1.7-1.6,1.9c-0.2,0.1-0.5,0.1-0.6,0.4l-0.2,0.5
		c-0.2,0.5,0.2,0.5,0.4,0.5h8c0.3,0,0.4-0.1,0.5-0.3l0.3-0.6c0.1-0.3,0.1-0.5-0.3-0.6c-1.5-0.4-2-0.6-2-1.9v-6.1h2.4l5,8.8
		c0.2,0.2,0.4,0.8,0.9,0.8h4.8V27.9z"/>
	<path id="Fill-18" class="st1" d="M209.6,16.1h7.3c0.4,0,0.6,0.2,0.4,0.5l-0.6,1c-0.2,0.3-0.5,0.4-1,0.4h-6.1v6.1
		c0,2.4,0.6,3,2.3,3h2.6c3.1,0,3.5-2.7,4-2.5l0.8,0.3c0.1,0,0.2,0.1,0.2,0.3v3.1c0,0.5-0.6,0.8-1.5,0.8h-9.8c-2.4,0-3.1,0-3.1-2.2
		V10.5c0-1.3-0.6-1.9-2-2.1c-0.5-0.1-0.8-0.2-0.6-0.6l0.2-0.6c0.1-0.3,0.4-0.4,0.5-0.4h13.8c0.6,0,1,0.4,0.9,0.8v2.5
		c0,0.1-0.1,0.2-0.2,0.3l-0.6,0.5c-0.5,0.4-1-2.2-3.1-2.2h-4.6V16.1z"/>
	<path id="Fill-19" class="st1" d="M228.5,8.7h3.6c5,0,7.6,2.5,7.6,8.7c0,5.6-2.3,10-7.2,10c-2.4,0-4-0.6-4-3V8.7L228.5,8.7z
		 M224,26.9c0,0.9,0.3,1.5,0.8,1.7c1.7,0.6,3.6,0.8,7.7,0.8c7,0,12-5.4,12-11.9c0-6.4-2.9-10.5-11.9-10.5h-10.4
		c-0.2,0-0.4,0.1-0.5,0.4l-0.3,0.6c-0.2,0.3,0.1,0.4,0.6,0.6c1.4,0.2,2,0.7,2,2.1V26.9z"/>
	<path id="Fill-20" class="st1" d="M259.2,8.5c3.5,0,6.8,2.8,6.8,9.3c0,4.1-1.9,9.4-6.6,9.4c-3.8,0-6.9-3.2-6.9-10.1
		C252.4,14,253.9,8.5,259.2,8.5 M259.8,6.5c-6.5,0-12.2,4.7-12.2,11.7c0,6.9,5.4,11.1,11,11.1c7.4,0,12-5.7,12-11.9
		C270.7,11.5,266.2,6.5,259.8,6.5"/>
	<path id="Fill-21" class="st1" d="M301.1,25.6c0,1.4,0.5,1.6,2,1.9c0.4,0.1,0.5,0.3,0.3,0.6l-0.3,0.6c-0.1,0.1-0.3,0.3-0.5,0.3h-8
		c-0.3,0-0.6-0.1-0.4-0.5l0.2-0.5c0.1-0.3,0.4-0.4,0.6-0.4c0.8-0.2,1.6-0.7,1.6-1.9l-1.1-12.6h-0.1l-7.5,15.3
		c-0.2,0.4-0.3,0.7-0.6,0.7h-0.9c-0.2,0-0.5-0.4-0.7-1l-7-15h-0.1l-1.5,12.6c0,1.4,0.5,1.6,2,1.9c0.4,0.1,0.5,0.3,0.3,0.6l-0.3,0.6
		c-0.1,0.1-0.3,0.3-0.5,0.3H273c-0.3,0-0.6-0.1-0.4-0.5l0.2-0.5c0.1-0.3,0.4-0.4,0.6-0.4c0.8-0.2,1.6-0.7,1.6-1.9l1.4-14.6
		c0.1-0.6-0.4-1.1-0.6-1.3c-0.7-0.8-1.4-1.1-1.9-1.2c-0.6-0.2-0.7-0.4-0.6-0.7l0.3-0.6c0.1-0.1,0.3-0.3,0.5-0.3h5
		c1.1,0,1.3,0.1,1.8,1.3l7.1,15l7.7-15.3c0.4-0.9,0.9-1,1.3-1h5c0.3,0,0.6,0.1,0.4,0.6L302.3,8c-0.1,0.3-0.5,0.4-0.8,0.5
		c-1,0.2-1.6,0.6-1.6,2L301.1,25.6z"/>
	<path id="Fill-22" class="st1" d="M339.1,25.6c0,1.4,0.5,1.6,2,1.9c0.4,0.1,0.5,0.3,0.3,0.6l-0.3,0.6c-0.1,0.1-0.3,0.3-0.5,0.3h-8
		c-0.2,0-0.6-0.1-0.4-0.5l0.2-0.5c0.1-0.3,0.4-0.4,0.6-0.4c0.8-0.2,1.6-0.7,1.6-1.9V9.1h-7.3c-0.4,0-0.9-0.1-0.4-0.7l0.7-1.1
		c0.3-0.3,0.6-0.4,1.1-0.4h17.8c0.4,0,0.9,0.1,0.4,0.7l-0.7,1.1c-0.3,0.3-0.6,0.4-1.1,0.4h-6V25.6z"/>
	<path id="Fill-23" class="st1" d="M351.9,10.2c0-1.4-0.5-1.6-2-1.9c-0.4-0.1-0.5-0.3-0.3-0.6l0.2-0.6c0.1-0.2,0.3-0.3,0.5-0.3h8
		c0.3,0,0.6,0.1,0.4,0.5l-0.2,0.5c-0.1,0.4-0.4,0.4-0.6,0.4c-0.8,0.2-1.6,0.7-1.6,1.9v15.3c0,1.4,0.5,1.6,2,1.9
		c0.4,0.1,0.5,0.3,0.4,0.6l-0.3,0.6c-0.1,0.1-0.3,0.2-0.5,0.2h-8c-0.3,0-0.6-0.1-0.4-0.5l0.2-0.5c0.1-0.3,0.4-0.4,0.6-0.4
		c0.8-0.2,1.6-0.7,1.6-1.9V10.2z"/>
	<path id="Fill-24" class="st1" d="M380.3,27.6c-0.2,0.3-0.3,0.6-0.6,0.8c-0.8,0.5-3.3,0.9-6.2,0.9c-7.2,0-12.1-4.7-12.1-11.6
		c0-6.2,5.2-11.2,12-11.2c3.8,0,6.5,1.3,7.4,1.9c0.3,0.1,0.3,0.3,0.3,0.5v2c0,0.1-0.1,0.2-0.2,0.3l-0.9,0.6
		c-0.5,0.4-1.5-3.4-6.6-3.4c-4.8,0-7.3,3.8-7.3,8.9c0,6.3,3.7,9.8,8,9.8c2.2,0,4.5-0.5,6.3-2.2c0.5-0.4,1.2,0,0.9,0.4L380.3,27.6z"
		/>
	<path id="Fill-25" class="st1" d="M328.6,27.4c-1.6-0.4-1.8-0.5-2.4-2c-2.1-4.9-4.7-11.3-6.9-17.6c-0.1-0.5-0.3-0.9-0.8-0.9H313
		c-0.3,0-0.6,0-0.7,0.4l-0.2,0.5c-0.4,0.8,1,0.6,1.8,1.3c0.4,0.4,1.1,0.9,0.6,2.4L309,25.3c-0.7,1.6-0.9,1.8-2.2,2.1
		c-0.5,0.1-0.7,0.2-0.8,0.5l-0.2,0.4c-0.3,0.7,0.4,0.6,1,0.6h4.9c0.4,0,0.5-0.4,0.6-0.5l0.2-0.3c0.4-0.8-2.1-0.4-1.5-2.1l1.4-3.6
		l7.9,0l2.4,6.1c0.1,0.3,0.4,0.5,0.7,0.5h4.4c0.3,0,0.6,0,0.8-0.3l0.3-0.7C329.1,27.7,328.9,27.5,328.6,27.4L328.6,27.4z
		 M313.1,20.5l3.3-8.5l3.3,8.5H313.1z"/>
	<path id="Fill-26" class="st1" d="M73.7,18h1.9c3.2,0,5.1,1.9,5.1,4.8c0.1,3-1.4,4.9-4,4.9c-2,0-3-0.7-3-2.8V18L73.7,18z M67.4,6.9
		c-0.2,0-0.4,0.1-0.5,0.4l-0.3,0.6c-0.2,0.3,0.1,0.4,0.6,0.6c1.4,0.2,2,0.8,2,2.1v16.4c0,0.9,0.3,1.5,0.9,1.7
		c1.7,0.6,3.8,0.7,6.8,0.7c4.4,0,8.9-1.9,8.9-6.7c0-2.1-1.5-5.4-6.1-5.9v-0.1c2.7-0.9,4.6-2.8,4.5-5.1c-0.1-3.6-3.1-4.8-6.4-4.8
		H67.4L67.4,6.9z M73.7,8.6h1.8c2.6,0,4.1,0.7,4.1,3.7c0,2.1-1.4,4-4,4h-2V8.6z"/>
</g>
</svg>
