<?xml version="1.0" encoding="UTF-8"?>
<svg width="22px" height="23px" viewBox="0 0 22 23" version="1.1" xmlns="http://www.w3.org/2000/svg" xmlns:xlink="http://www.w3.org/1999/xlink">
    <!-- Generator: Sketch 42 (36781) - http://www.bohemiancoding.com/sketch -->
    <title>cr-landing-iconos-ahorros-blanco</title>
    <desc>Created with Sketch.</desc>
    <defs></defs>
    <g id="Page-1" stroke="none" stroke-width="1" fill="none" fill-rule="evenodd">
        <g id="iPhone-7---2" transform="translate(-26.000000, -148.000000)" stroke="#FFFFFF" fill="#FFFFFF" fill-rule="nonzero">
            <g id="cr-landing-iconos-ahorros-blanco" transform="translate(26.925000, 148.750000)">
                <g id="ahorros-copy" transform="translate(0.045000, 0.046811)">
                    <path d="M12.1325058,10.81966 C11.7250709,10.81966 11.4081771,10.5254015 11.4081771,10.1858724 C11.4081771,9.84634335 11.7250709,9.55208481 12.1325058,9.55208481 C12.5399407,9.55208481 12.8568345,9.84634335 12.8568345,10.1858724 C12.8568345,10.3895899 13.0152814,10.5706721 13.2416342,10.5706721 C13.4453516,10.5706721 13.6264338,10.4122252 13.6264338,10.1858724 C13.6264338,9.52944954 13.1510931,8.98620301 12.5173055,8.82775611 L12.5173055,8.17133322 C12.5173055,7.96761577 12.3588585,7.78653359 12.1325058,7.78653359 C11.9287884,7.78653359 11.7477062,7.9449805 11.7477062,8.17133322 L11.7477062,8.82775611 C11.1139186,8.98620301 10.6385779,9.52944954 10.6385779,10.1858724 C10.6385779,10.9554717 11.2950008,11.5892593 12.1325058,11.5892593 C12.5399407,11.5892593 12.8568345,11.8835178 12.8568345,12.2230469 C12.8568345,12.562576 12.5399407,12.8568345 12.1325058,12.8568345 C11.7250709,12.8568345 11.4081771,12.562576 11.4081771,12.2230469 C11.4081771,12.0193295 11.2270949,11.8382473 11.0233775,11.8382473 C10.81966,11.8382473 10.6385779,11.9966942 10.6385779,12.2230469 C10.6385779,12.8794698 11.1139186,13.4227163 11.7477062,13.5811632 L11.7477062,14.2375861 C11.7477062,14.4413036 11.9061531,14.6223858 12.1325058,14.6223858 C12.3362233,14.6223858 12.5173055,14.4639389 12.5173055,14.2375861 L12.5173055,13.5811632 C13.1510931,13.4227163 13.6264338,12.8794698 13.6264338,12.2230469 C13.6264338,11.4534477 12.9473756,10.81966 12.1325058,10.81966 Z" id="Shape" stroke-width="0.5"></path>
                    <path d="M12.1325058,15.5504319 C9.73316699,15.5504319 7.78653359,13.6037985 7.78653359,11.2044597 C7.78653359,8.80512083 9.73316699,6.85848744 12.1325058,6.85848744 C14.5318447,6.85848744 16.4784781,8.80512083 16.4784781,11.2044597 C16.4784781,13.6037985 14.5318447,15.5504319 12.1325058,15.5504319 Z M12.1325058,7.60545141 C10.1632372,7.60545141 8.53349757,9.21255573 8.53349757,11.2044597 C8.53349757,13.1963636 10.1406019,14.8034679 12.1325058,14.8034679 C14.1017745,14.8034679 15.7315141,13.1963636 15.7315141,11.2044597 C15.7315141,9.21255573 14.1244098,7.60545141 12.1325058,7.60545141 Z" id="Shape" stroke-width="0.3"></path>
                    <path d="M18.5156526,18.1761235 C18.2892998,17.5649711 17.4517948,16.5011133 15.9125963,16.8406424 L15.889961,16.8406424 L12.6757524,17.7686886 C12.4493996,17.0217246 11.7477062,16.4784781 10.9328364,16.4784781 L9.28046155,16.4784781 C8.94093247,16.4784781 8.60140339,16.387937 8.30714485,16.2294901 C7.67335723,15.8673257 6.405782,15.2561734 4.93448931,15.391985 L4.91185404,15.391985 C4.86658349,15.391985 3.96117261,15.5504319 3.23684391,15.7315141 L3.23684391,15.4825261 C3.23684391,15.2788086 3.078397,15.0977265 2.85204428,15.0977265 L0.407434897,15.0977265 C0.203717449,15.0977265 0.0226352721,15.2561734 0.0226352721,15.4825261 L0.0226352721,20.4849212 C0.0226352721,20.6886387 0.181082177,20.8697208 0.407434897,20.8697208 L2.80677374,20.8697208 C3.01049119,20.8697208 3.19157336,20.7112739 3.19157336,20.4849212 L3.19157336,20.2585685 L4.32333697,20.4849212 L9.32573209,21.4129674 C9.73316699,21.5035085 10.1406019,21.548779 10.5480368,21.548779 C11.2044597,21.548779 11.8835178,21.4356026 12.5173055,21.1866147 L12.5399407,21.1866147 L18.3345704,18.6514642 C18.4930173,18.5835584 18.5835584,18.3572056 18.5156526,18.1761235 Z M2.42197411,20.1227569 L0.792234522,20.1227569 L0.792234522,15.8673257 L2.44460938,15.8673257 L2.44460938,20.1227569 L2.42197411,20.1227569 Z M12.2230469,20.5075565 C11.3402713,20.8244503 10.3895899,20.8923561 9.46154372,20.6886387 L4.4591486,19.7605925 L3.19157336,19.5116045 L3.19157336,16.5011133 L3.21420863,16.5011133 C3.87063152,16.3426664 4.84394822,16.1615843 4.97975985,16.138949 C6.22469982,16.0257726 7.33382815,16.5463839 7.89970995,16.8632777 C8.30714485,17.0896304 8.78248556,17.225442 9.25782628,17.225442 L10.9102011,17.225442 C11.4987182,17.225442 11.9966942,17.7007828 11.9966942,18.2892998 L11.9966942,18.4024762 C11.9966942,18.4251115 11.9740589,18.4477467 11.9514237,18.4477467 L7.46963978,18.4477467 C7.26592233,18.4477467 7.08484016,18.6061936 7.08484016,18.8325464 C7.08484016,19.0588991 7.24328706,19.2399813 7.46963978,19.2399813 L11.9287884,19.2399813 C12.3362233,19.2399813 12.6757524,18.9457227 12.7210229,18.5609231 L16.0710432,17.5876064 C16.9085482,17.4065242 17.3838889,17.8139591 17.6328769,18.1308529 L12.2230469,20.5075565 Z" id="Shape" stroke-width="0.3"></path>
                    <path d="M2.30879775,3.55373771 C2.53515047,4.16489006 3.37265554,5.22874785 4.91185404,4.88921877 L4.93448931,4.88921877 L8.14869794,3.96117261 C8.37505067,4.70813659 9.0767441,5.25138312 9.89161389,5.25138312 L11.5439888,5.25138312 C11.8835178,5.25138312 12.2230469,5.34192421 12.5173055,5.50037111 C13.1510931,5.86253547 14.4186683,6.47368781 15.889961,6.33787618 L15.9125963,6.33787618 C15.9578668,6.33787618 16.8632777,6.17942927 17.5876064,5.9983471 L17.5876064,6.24733509 C17.5876064,6.45105254 17.7460533,6.63213472 17.972406,6.63213472 L20.3717449,6.63213472 C20.5754623,6.63213472 20.7565445,6.47368781 20.7565445,6.24733509 L20.7565445,1.22230469 C20.7565445,1.01858724 20.5980976,0.837505067 20.3717449,0.837505067 L18.0176766,0.837505067 C17.8139591,0.837505067 17.6328769,0.995951971 17.6328769,1.22230469 L17.6328769,1.44865741 L16.5011133,1.22230469 L11.5213535,0.294258537 C11.1139186,0.203717449 10.7064837,0.158446904 10.2990488,0.158446904 C9.6426259,0.158446904 8.96356774,0.271623265 8.32978012,0.520611258 L8.30714485,0.520611258 L2.5125152,3.078397 C2.33143302,3.14630282 2.24089193,3.37265554 2.30879775,3.55373771 Z M18.4024762,1.60710432 L20.0548511,1.60710432 L20.0548511,5.86253547 L18.4024762,5.86253547 L18.4024762,1.60710432 Z M8.60140339,1.22230469 C9.484179,0.905410883 10.4348604,0.837505067 11.3629066,1.04122252 L16.3653017,1.96926867 L17.6328769,2.21825666 L17.6328769,5.20611258 L17.6102417,5.20611258 C16.9538188,5.36455948 15.9805021,5.54564166 15.8446904,5.56827693 C14.5997505,5.68145329 13.4906222,5.16084203 12.9247404,4.84394822 C12.5173055,4.6175955 12.0419647,4.48178387 11.566624,4.48178387 L9.91424917,4.48178387 C9.32573209,4.48178387 8.82775611,4.00644316 8.82775611,3.41792608 L8.82775611,3.30474972 C8.82775611,3.28211445 8.85039138,3.25947918 8.87302665,3.25947918 L13.3548105,3.25947918 C13.558528,3.25947918 13.7396101,3.10103227 13.7396101,2.87467955 C13.7396101,2.64832683 13.5811632,2.48987993 13.3548105,2.48987993 L8.89566192,2.48987993 C8.48822703,2.48987993 8.14869794,2.78413846 8.1034274,3.16893809 L4.75340713,4.14225479 C3.91590207,4.32333697 3.44056135,3.91590207 3.19157336,3.59900826 L8.60140339,1.22230469 Z" id="Shape" stroke-width="0.3"></path>
                </g>
            </g>
        </g>
    </g>
</svg>