<?xml version="1.0" encoding="UTF-8"?>
<svg width="102px" height="95px" viewBox="0 0 102 95" version="1.1" xmlns="http://www.w3.org/2000/svg" xmlns:xlink="http://www.w3.org/1999/xlink">
    <!-- Generator: Sketch 42 (36781) - http://www.bohemiancoding.com/sketch -->
    <title>cr-landing-iconos-tarjetas-credito</title>
    <desc>Created with Sketch.</desc>
    <defs></defs>
    <g id="Page-1" stroke="none" stroke-width="1" fill="none" fill-rule="evenodd">
        <g id="Desktop-HD-1" transform="translate(-522.000000, -479.000000)">
            <g id="cr-landing-iconos-tarjetas-credito" transform="translate(521.166667, 479.000000)">
                <circle id="Oval-Copy" fill="#EDEDED" style="mix-blend-mode: multiply;" cx="55.186849" cy="47.3535156" r="47.3535156"></circle>
                <g id="Group-7" transform="translate(0.000000, 6.000000)" fill-rule="nonzero" fill="#F45352">
                    <path d="M75,84.6666667 L5.5,84.6666667 C2.83333333,84.6666667 0.833333333,82.5 0.833333333,80 L0.833333333,36.1666667 C0.833333333,33.6666667 3,31.5 5.5,31.5 L15,31.6666667 C16,31.6666667 16.6666667,32.3333333 16.6666667,33.3333333 L16.6666667,50.6666667 C16.6666667,51.3333333 17.3333333,52 18,52 L78,51.8333333 C79,51.8333333 79.6666667,52.5 79.6666667,53.5 L79.6666667,80 C79.6666667,82.5 77.5,84.6666667 75,84.6666667 Z M4.16666667,36.1666667 L4.16666667,80 C4.16666667,80.6666667 4.83333333,81.3333333 5.5,81.3333333 L75,81.3333333 C75.6666667,81.3333333 76.3333333,80.6666667 76.3333333,80 L76.3333333,50.1666667 L20,51.6666667 C17.5,51.6666667 17,47.8333333 17,45.3333333 L17,34.6666667 L5.5,34.8333333 C4.83333333,34.8333333 4.16666667,35.5 4.16666667,36.1666667 Z" id="Combined-Shape"></path>
                    <path d="M66.8333333,76.1666667 L57.6666667,76.1666667 C56.1666667,76.1666667 55,75 55,73.5 L55,64.3333333 C55,62.8333333 56.1666667,61.6666667 57.6666667,61.6666667 L66.8333333,61.6666667 C68.3333333,61.6666667 69.5,62.8333333 69.5,64.3333333 L69.5,73.5 C69.3333333,75 68.1666667,76.1666667 66.8333333,76.1666667 Z M58.3333333,72.8333333 L66,72.8333333 L66,65.1666667 L58.3333333,65.1666667 L58.3333333,72.8333333 Z" id="Shape"></path>
                    <path d="M28.8333333,70.1666667 L10.8333333,70.1666667 C9.83333333,70.1666667 9.16666667,69.5 9.16666667,68.5 C9.16666667,67.5 9.83333333,66.8333333 10.8333333,66.8333333 L28.8333333,66.8333333 C29.8333333,66.8333333 30.5,67.5 30.5,68.5 C30.5,69.5 29.6666667,70.1666667 28.8333333,70.1666667 Z" id="Shape"></path>
                    <path d="M39.3333333,77.3333333 L10.8333333,77.3333333 C9.83333333,77.3333333 9.16666667,76.6666667 9.16666667,75.6666667 C9.16666667,74.6666667 9.83333333,74 10.8333333,74 L39.3333333,74 C40.3333333,74 41,74.6666667 41,75.6666667 C41,76.6666667 40.1666667,77.3333333 39.3333333,77.3333333 Z" id="Shape"></path>
                    <path d="M89.1666667,53.5 L19.6666667,53.5 C17.1666667,53.5 15,51.3333333 15,48.8333333 L15,5 C15,2.5 17.1666667,0.333333333 19.6666667,0.333333333 L89.1666667,0.333333333 C91.8333333,0.333333333 93.8333333,2.5 93.8333333,5 L93.8333333,48.8333333 C93.8333333,51.3333333 91.6666667,53.5 89.1666667,53.5 Z M19.6666667,3.66666667 C19,3.66666667 18.3333333,4.33333333 18.3333333,5 L18.3333333,48.8333333 C18.3333333,49.5 19,50.1666667 19.6666667,50.1666667 L89.1666667,50.1666667 C89.8333333,50.1666667 90.5,49.5 90.5,48.8333333 L90.5,5 C90.5,4.33333333 89.8333333,3.66666667 89.1666667,3.66666667 L19.6666667,3.66666667 Z" id="Shape"></path>
                    <path d="M72.5,44.3333333 C68.5,44.3333333 65.3333333,41.1666667 65.3333333,37.1666667 C65.3333333,33.1666667 68.5,30 72.5,30 C74.1666667,30 75.8333333,30.6666667 77.1666667,31.6666667 C78.8333333,33 79.6666667,35 79.6666667,37.1666667 C79.6666667,39.3333333 78.6666667,41.3333333 77.1666667,42.6666667 C75.8333333,43.8333333 74.1666667,44.3333333 72.5,44.3333333 Z M72.5,33.3333333 C70.3333333,33.3333333 68.6666667,35 68.6666667,37.1666667 C68.6666667,39.3333333 70.3333333,41 72.5,41 C73.5,41 74.3333333,40.6666667 75,40 C75.8333333,39.3333333 76.3333333,38.1666667 76.3333333,37 C76.3333333,35.8333333 75.8333333,34.8333333 75,34 C74.3333333,33.6666667 73.3333333,33.3333333 72.5,33.3333333 Z" id="Shape"></path>
                    <path d="M79.6666667,44.3333333 C78,44.3333333 76.3333333,43.6666667 75,42.6666667 C74.6666667,42.3333333 74.3333333,41.8333333 74.3333333,41.3333333 C74.3333333,40.8333333 74.5,40.3333333 75,40 C75.8333333,39.3333333 76.3333333,38.1666667 76.3333333,37 C76.3333333,35.8333333 75.8333333,34.8333333 75,34 C74.6666667,33.6666667 74.3333333,33.1666667 74.3333333,32.6666667 C74.3333333,32.1666667 74.5,31.6666667 75,31.3333333 C76.3333333,30.1666667 78,29.6666667 79.6666667,29.6666667 C83.6666667,29.6666667 86.8333333,32.8333333 86.8333333,36.8333333 C86.8333333,41.1666667 83.6666667,44.3333333 79.6666667,44.3333333 Z M78.6666667,40.8333333 C79,41 79.3333333,41 79.6666667,41 C81.8333333,41 83.5,39.3333333 83.5,37.1666667 C83.5,35 81.8333333,33.3333333 79.6666667,33.3333333 C79.3333333,33.3333333 79,33.3333333 78.6666667,33.5 C79.3333333,34.6666667 79.6666667,35.8333333 79.6666667,37.1666667 C79.6666667,38.5 79.3333333,39.8333333 78.6666667,40.8333333 Z" id="Shape"></path>
                    <path d="M33.6666667,27 L26.6666667,27 C25.6666667,27 25,26.3333333 25,25.3333333 C25,24.3333333 25.6666667,23.6666667 26.6666667,23.6666667 L33.6666667,23.6666667 C34.6666667,23.6666667 35.3333333,24.3333333 35.3333333,25.3333333 C35.3333333,26.3333333 34.6666667,27 33.6666667,27 Z" id="Shape"></path>
                    <path d="M50.3333333,26.6666667 L43.3333333,26.6666667 C42.3333333,26.6666667 41.6666667,26 41.6666667,25 C41.6666667,24 42.3333333,23.3333333 43.3333333,23.3333333 L50.3333333,23.3333333 C51.3333333,23.3333333 52,24 52,25 C52,26 51.3333333,26.6666667 50.3333333,26.6666667 Z" id="Shape"></path>
                    <path d="M67,26.6666667 L60,26.6666667 C59,26.6666667 58.3333333,26 58.3333333,25 C58.3333333,24 59,23.3333333 60,23.3333333 L67,23.3333333 C68,23.3333333 68.6666667,24 68.6666667,25 C68.6666667,26 68,26.6666667 67,26.6666667 Z" id="Shape-Copy"></path>
                    <path d="M83.6666667,27 L76.6666667,27 C75.6666667,27 75,26.3333333 75,25.3333333 C75,24.3333333 75.6666667,23.6666667 76.6666667,23.6666667 L83.6666667,23.6666667 C84.6666667,23.6666667 85.3333333,24.3333333 85.3333333,25.3333333 C85.3333333,26.3333333 84.5,27 83.6666667,27 Z" id="Shape"></path>
                    <path d="M48,37 L25,37 C24,37 23.3333333,36.3333333 23.3333333,35.3333333 C23.3333333,34.3333333 24,33.6666667 25,33.6666667 L48,33.6666667 C49,33.6666667 49.6666667,34.3333333 49.6666667,35.3333333 C49.6666667,36.3333333 49,37 48,37 Z" id="Shape"></path>
                    <path d="M57.3333333,43.6666667 L25,43.6666667 C24,43.6666667 23.3333333,43 23.3333333,42 C23.3333333,41 24,40.3333333 25,40.3333333 L57.3333333,40.3333333 C58.3333333,40.3333333 59,41 59,42 C59,43 58.3333333,43.6666667 57.3333333,43.6666667 Z" id="Shape"></path>
                </g>
            </g>
        </g>
    </g>
</svg>