<?xml version="1.0" encoding="UTF-8"?>
<svg width="113px" height="95px" viewBox="0 0 113 95" version="1.1" xmlns="http://www.w3.org/2000/svg" xmlns:xlink="http://www.w3.org/1999/xlink">
    <!-- Generator: Sketch 42 (36781) - http://www.bohemiancoding.com/sketch -->
    <title>cr-landing-iconos-prestamos</title>
    <desc>Created with Sketch.</desc>
    <defs></defs>
    <g id="Page-1" stroke="none" stroke-width="1" fill="none" fill-rule="evenodd">
        <g id="Desktop-HD-1" transform="translate(-1209.000000, -485.000000)">
            <g id="cr-landing-iconos-prestamos" transform="translate(1208.583333, 484.657012)">
                <circle id="Oval-Copy-2" fill="#EDEDED" style="mix-blend-mode: multiply;" cx="58.4166667" cy="47.6965034" r="47.3535156"></circle>
                <path d="M72.7078601,58.7569912 L72.7078601,56.3556307 C76.4433098,56.0888129 79.5117149,53.4206345 79.5117149,50.0854116 L79.5117149,49.8185937 C79.5117149,48.3510957 78.8446704,46.3499619 75.3760385,44.615646 L75.1092207,44.482237 L74.7089939,44.482237 L74.7089939,44.482237 L71.1069531,43.6817835 L66.7044588,42.88133 C65.6371875,42.2142854 65.3703697,41.8140587 65.3703697,41.8140587 L65.3703697,41.8140587 L65.3703697,41.5472409 C65.3703697,40.6133784 66.5710499,39.679516 68.1719569,39.679516 L72.1742245,39.679516 C73.7751315,39.679516 74.9758117,40.6133784 74.9758117,41.5472409 L79.5117149,41.5472409 C79.5117149,38.2120179 76.5767187,35.5438396 72.7078601,35.2770217 L72.7078601,33.142479 L68.1719569,33.142479 L68.1719569,35.2770217 L68.038548,35.2770217 C64.0362805,35.2770217 60.7010575,38.078609 60.7010575,41.6806498 L60.7010575,41.9474676 C60.7010575,43.9486014 62.0351467,45.8163262 64.836734,47.1504154 L65.1035518,47.2838243 L66.7044588,47.5506421 L73.5083136,48.8847313 C74.575585,49.418367 74.9758117,49.9520027 74.9758117,49.9520027 L74.9758117,50.2188205 C74.9758117,51.1526829 73.7751315,52.0865454 72.1742245,52.0865454 L68.1719569,52.0865454 C66.5710499,52.0865454 65.3703697,51.1526829 65.3703697,50.2188205 L60.8344665,50.2188205 C60.8344665,53.6874524 64.1696894,56.6224486 68.1719569,56.6224486 L68.3053659,56.6224486 L68.3053659,58.8904002 L72.7078601,58.8904002 L72.7078601,58.7569912 Z" id="Shape" fill="#F45352" fill-rule="nonzero"></path>
                <path d="M92.318971,45.9497351 C92.318971,33.6761147 82.3133022,23.8038548 70.1730907,23.8038548 C58.0328792,23.8038548 48.0272104,33.6761147 48.0272104,45.9497351 C48.0272104,58.2233556 58.0328792,68.0956155 70.1730907,68.0956155 C82.3133022,68.0956155 92.318971,58.2233556 92.318971,45.9497351 Z M52.5631136,45.9497351 C52.5631136,36.2108841 60.4342397,28.339758 70.1730907,28.339758 C79.9119417,28.339758 87.7830678,36.2108841 87.7830678,45.9497351 C87.7830678,55.6885861 79.9119417,63.5597123 70.1730907,63.5597123 C60.4342397,63.5597123 52.5631136,55.6885861 52.5631136,45.9497351 Z" id="Shape" fill="#F45352" fill-rule="nonzero"></path>
                <path d="M110.462584,17.6670446 L29.8835976,17.6670446 C28.6829173,17.6670446 27.615646,18.7343159 27.615646,19.9349962 L27.615646,30.8745274 L17.3431593,30.8745274 C16.142479,30.8745274 15.0752077,31.9417988 15.0752077,33.142479 C15.0752077,34.3431593 16.142479,35.4104306 17.3431593,35.4104306 L27.615646,35.4104306 L27.615646,50.0854116 L16.4092969,50.0854116 C15.2086166,50.0854116 14.1413453,51.1526829 14.1413453,52.3533632 C14.1413453,53.5540434 15.2086166,54.6213148 16.4092969,54.6213148 L39.4890396,54.6213148 C40.6897199,54.6213148 41.7569912,53.5540434 41.7569912,52.3533632 C41.7569912,51.1526829 40.6897199,50.0854116 39.4890396,50.0854116 L32.1515492,50.0854116 L32.1515492,34.6099771 C38.5551772,33.6761147 43.4913072,28.6065758 44.5585785,22.2029478 L95.7876029,22.2029478 C96.7214653,28.6065758 101.791004,33.5427058 108.194632,34.6099771 L108.194632,57.2894931 C101.791004,58.2233556 96.8548742,63.2928944 95.7876029,69.6965225 L44.5585785,69.6965225 C43.4913072,62.6258498 37.354497,57.1560842 29.8835976,57.1560842 C28.6829173,57.1560842 27.615646,58.2233556 27.615646,59.4240358 L27.615646,71.9644741 C27.615646,73.1651543 28.6829173,74.2324257 29.8835976,74.2324257 L110.329175,74.2324257 C111.529855,74.2324257 112.597127,73.1651543 112.597127,71.9644741 L112.597127,19.9349962 C112.730535,18.7343159 111.663264,17.6670446 110.462584,17.6670446 Z M32.1515492,29.940665 L32.1515492,22.2029478 L40.0226753,22.2029478 C39.0888129,26.0718064 36.0204078,29.1402115 32.1515492,29.940665 Z M100.323506,22.2029478 L108.061223,22.2029478 L108.061223,29.940665 C104.325774,29.1402115 101.257369,26.0718064 100.323506,22.2029478 Z M32.1515492,61.8253963 C36.0204078,62.7592588 39.0888129,65.694255 39.8892664,69.5631136 L32.1515492,69.5631136 L32.1515492,61.8253963 L32.1515492,61.8253963 Z M100.323506,69.5631136 C101.257369,65.694255 104.192365,62.6258498 108.061223,61.8253963 L108.061223,69.5631136 L100.323506,69.5631136 Z" id="Shape" fill="#F45352" fill-rule="nonzero"></path>
                <path d="M24.280423,43.2815568 C24.280423,42.0808765 23.2131517,41.0136052 22.0124714,41.0136052 L2.80158727,41.0136052 C1.60090701,41.0136052 0.533635671,42.0808765 0.533635671,43.2815568 C0.533635671,44.482237 1.60090701,45.5495084 2.80158727,45.5495084 L22.0124714,45.5495084 C23.2131517,45.5495084 24.280423,44.482237 24.280423,43.2815568 Z" id="Shape" fill="#F45352" fill-rule="nonzero"></path>
                <path d="M8.80498857,35.2770217 L10.4058956,35.2770217 C11.6065758,35.2770217 12.6738472,34.2097504 12.6738472,33.0090701 C12.6738472,31.8083899 11.6065758,30.7411185 10.4058956,30.7411185 L8.80498857,30.7411185 C7.60430831,30.7411185 6.53703697,31.8083899 6.53703697,33.0090701 C6.53703697,34.2097504 7.60430831,35.2770217 8.80498857,35.2770217 Z" id="Shape" fill="#F45352" fill-rule="nonzero"></path>
            </g>
        </g>
    </g>
</svg>