<?xml version="1.0" encoding="UTF-8"?>
<svg width="39px" height="48px" viewBox="0 0 39 48" version="1.1" xmlns="http://www.w3.org/2000/svg" xmlns:xlink="http://www.w3.org/1999/xlink">
    <!-- Generator: Sketch 42 (36781) - http://www.bohemiancoding.com/sketch -->
    <title>cr-landing-iconos-prestamo-casa-blanco</title>
    <desc>Created with Sketch.</desc>
    <defs></defs>
    <g id="Page-1" stroke="none" stroke-width="1" fill="none" fill-rule="evenodd">
        <g id="cr-landing-iconos-prestamo-casa-blanco" transform="translate(-0.203125, 0.531579)" fill-rule="nonzero" fill="#FFFFFF">
            <g id="Casa" transform="translate(0.125932, 0.242105)">
                <path d="M37.5936211,22.7293263 C37.0072421,22.1424632 36.2257263,21.8117474 35.3933684,21.7981895 C35.0897684,21.7923789 34.7924632,21.8320842 34.5096842,21.9100421 L32.5738105,23.1181474 C32.5738105,23.1743158 32.5810737,23.2290316 32.5902737,23.2827789 L28.4614105,27.4106737 C27.9026316,26.1236421 26.6204421,25.2205895 25.1295579,25.2205895 L10.6904,25.2205895 C9.72101053,25.2205895 8.80875789,25.5982737 8.12263158,26.2844 L0.505515789,33.9010316 C0.127347368,34.2792 0.127347368,34.8922105 0.505515789,35.2703789 C0.694357895,35.4597053 0.942273684,35.5541263 1.19018947,35.5541263 C1.43810526,35.5541263 1.68553684,35.4597053 1.87486316,35.2703789 L9.49197895,27.6537474 C9.81252632,27.3336842 10.2381474,27.1574316 10.6904,27.1574316 L25.1290737,27.1574316 C26.0636,27.1574316 26.8238105,27.9176421 26.8238105,28.8521684 C26.8238105,29.7866947 26.0636,30.5469053 25.1290737,30.5469053 L16.7009053,30.5469053 C16.1663368,30.5469053 15.7324842,30.9807579 15.7324842,31.5153263 C15.7324842,32.0498947 16.1663368,32.4837474 16.7009053,32.4837474 L25.1290737,32.4837474 C26.7071158,32.4837474 28.0493474,31.4702947 28.5490526,30.0617263 L34.5852211,24.0260421 C34.7750316,23.8357474 35.0665263,23.7393895 35.3614105,23.7345474 C35.6887368,23.7403579 35.9952421,23.8691579 36.2242737,24.0986737 C36.4533053,24.3277053 36.5787158,24.6317895 36.5787158,24.9552421 C36.5787158,25.2782105 36.4528211,25.5822947 36.2242737,25.8108421 L24.6530947,37.3820211 C24.4240632,37.6110526 24.1199789,37.7369474 23.7965263,37.7369474 L9.17724211,37.7369474 C8.92061053,37.7369474 8.67414737,37.8391158 8.49256842,38.0206947 L0.996505263,45.5162737 C0.618336842,45.8944421 0.618336842,46.5074526 0.996505263,46.8856211 C1.18583158,47.0749474 1.43326316,47.1693684 1.68117895,47.1693684 C1.92909474,47.1693684 2.17701053,47.0749474 2.36585263,46.8856211 L9.57865263,39.6733053 L23.7970105,39.6733053 C24.6371158,39.6733053 25.4278316,39.3459789 26.0224421,38.7513684 L37.5936211,27.1801895 C38.1882316,26.5855789 38.5155579,25.7958316 38.5155579,24.9547579 C38.5155579,24.1136842 38.1882316,23.3239368 37.5936211,22.7293263 Z" id="Shape"></path>
                <path d="M19.7100502,0.00165334507 C19.5051245,0.0111781545 19.3077659,0.0816471607 19.1434384,0.20396816 L4.77501734,11.1076719 C4.4773285,11.3263915 4.32083116,11.6877364 4.36538249,12.0534992 C4.40993383,12.4192619 4.64864097,12.7328526 4.99020308,12.8743289 C5.3317652,13.0158052 5.72333662,12.9632782 6.01514892,12.7368385 L7.78981997,11.3845237 L7.78981997,26.2386904 C7.78458547,26.6073404 7.97904725,26.9502402 8.29874211,27.1360867 C8.61843697,27.3219332 9.01383456,27.3219332 9.33352942,27.1360867 C9.65322427,26.9502402 9.84768606,26.6073404 9.84245155,26.2386904 L9.84245155,9.82989409 L19.7635042,2.30165335 L33.5118594,12.7368385 C33.8036717,12.9632782 34.1952432,13.0158052 34.5368053,12.8743289 C34.8783674,12.7328526 35.1170745,12.4192619 35.1616259,12.0534992 C35.2061772,11.6877364 35.0496799,11.3263915 34.751991,11.1076719 L20.38357,0.20396816 C20.1899999,0.0596140364 19.9514748,-0.0120351671 19.7100502,0.00165334507 Z M30.7001818,12.5877645 C30.426108,12.5905762 30.1645476,12.7024511 29.9737734,12.8984648 C29.7829993,13.0944784 29.6788601,13.3583468 29.6845568,13.631283 L29.6845568,25.2164682 L24.2108726,25.2164682 L24.2108726,16.0164682 C24.2108159,15.4519338 23.7513519,14.9943024 23.1845568,14.9942459 L16.3424516,14.9942459 C16.3068398,14.9923962 16.2711554,14.9923962 16.2355437,14.9942459 C15.7108639,15.0490198 15.3133144,15.491026 15.3161358,16.0164682 L15.3161358,25.2164682 L12.2371884,25.2164682 C11.8670621,25.2112545 11.5227891,25.4049407 11.3361984,25.7233604 C11.1496076,26.0417801 11.1496076,26.4356006 11.3361984,26.7540204 C11.5227891,27.0724401 11.8670621,27.2661262 12.2371884,27.2609126 L30.7108726,27.2609126 C31.2776677,27.2608562 31.7371317,26.8032247 31.7371884,26.2386904 L31.7371884,13.631283 C31.7429629,13.3546534 31.6359141,13.0875059 31.4404916,12.8908563 C31.2450691,12.6942066 30.9779638,12.5848504 30.7001818,12.5877645 Z M17.3687673,17.0386904 L22.158241,17.0386904 L22.158241,25.2164682 L17.3687673,25.2164682 L17.3687673,17.0386904 Z" id="Shape"></path>
            </g>
        </g>
    </g>
</svg>