<svg xmlns="http://www.w3.org/2000/svg" viewBox="0 0 100 85"><title>1cr-landing-alternativo-iconos-salas1</title><g id="textos"><path d="M20.12,69.81H8.92v-27A5.65,5.65,0,0,1,14.52,37h0a5.6,5.6,0,0,1,5.6,5.6Z" fill="#979797"/><path d="M91.08,69.71H79.88v-27a5.6,5.6,0,0,1,5.6-5.6h0a5.6,5.6,0,0,1,5.6,5.6Z" fill="#979797"/><rect x="25.23" y="53.39" width="48.84" height="9.08" fill="#979797"/><path d="M81.6,21V31.8a9.52,9.52,0,0,0-7.34,9.27v7h-49v-7a9.47,9.47,0,0,0-8.69-9.46V21a5.69,5.69,0,0,1,5.8-5.8H75.81A5.81,5.81,0,0,1,81.6,21Z" fill="#b0b0b0"/></g></svg>