<?xml version="1.0" encoding="UTF-8"?>
<svg width="43px" height="36px" viewBox="0 0 43 36" version="1.1" xmlns="http://www.w3.org/2000/svg" xmlns:xlink="http://www.w3.org/1999/xlink">
    <!-- Generator: Sketch 42 (36781) - http://www.bohemiancoding.com/sketch -->
    <title>cr-landing-iconos-pymes-blanco</title>
    <desc>Created with Sketch.</desc>
    <defs></defs>
    <g id="Page-1" stroke="none" stroke-width="1" fill="none" fill-rule="evenodd">
        <g id="cr-landing-iconos-pymes-blanco" transform="translate(0.923125, 0.534453)" stroke-width="0.5" stroke="#FFFFFF" fill="#FFFFFF" fill-rule="nonzero">
            <g id="Group-5">
                <path d="M4.944,16.3184123 C6.920064,16.3184123 8.5487232,14.8831385 8.8626624,13.0017231 C8.9056896,13.0033108 8.9503104,13.0033108 8.9933376,13.0017231 C9.3072768,14.8831385 10.935936,16.3184123 12.912,16.3184123 C14.888064,16.3184123 16.5167232,14.8831385 16.8306624,13.0017231 C16.8736896,13.0033108 16.9183104,13.0033108 16.9613376,13.0017231 C17.2752768,14.8831385 18.903936,16.3184123 20.88,16.3184123 C22.856064,16.3184123 24.4847232,14.8831385 24.7986624,13.0017231 C24.8416896,13.0033108 24.8863104,13.0033108 24.9293376,13.0017231 C25.2432768,14.8831385 26.871936,16.3184123 28.848,16.3184123 C30.824064,16.3184123 32.4527232,14.8831385 32.7666624,13.0017231 C32.8096896,13.0033108 32.8543104,13.0033108 32.8973376,13.0017231 C33.2112768,14.8831385 34.839936,16.3184123 36.816,16.3184123 C39.0167616,16.3184123 40.8,14.5417846 40.8,12.3491815 L40.8,8.37995077 L34.4256,0.441489231 L7.3344,0.441489231 L0.96,8.37995077 L0.96,12.3491815 C0.96,14.5417846 2.7432384,16.3184123 4.944,16.3184123 Z M8.0977344,2.03076923 L33.660672,2.03076923 L37.4837184,6.79384615 L4.2730944,6.79384615 L8.0977344,2.03076923 Z M2.5536,8.93723077 L2.9982144,8.38153846 L38.760192,8.38153846 L39.2064,8.93723077 L39.2064,12.3491815 C39.2064,13.6637908 38.1355008,14.73072 36.816,14.73072 C35.4964992,14.73072 34.4256,13.6637908 34.4256,12.3491815 C34.4256,11.4711877 33.7132608,10.7614892 32.832,10.7614892 C31.9507392,10.7614892 31.2384,11.4711877 31.2384,12.3491815 C31.2384,13.6637908 30.1675008,14.73072 28.848,14.73072 C27.5284992,14.73072 26.4576,13.6637908 26.4576,12.3491815 C26.4576,11.4711877 25.7452608,10.7614892 24.864,10.7614892 C23.9827392,10.7614892 23.2704,11.4711877 23.2704,12.3491815 C23.2704,13.6637908 22.1995008,14.73072 20.88,14.73072 C19.5604992,14.73072 18.4896,13.6637908 18.4896,12.3491815 C18.4896,11.4711877 17.7772608,10.7614892 16.896,10.7614892 C16.0147392,10.7614892 15.3024,11.4711877 15.3024,12.3491815 C15.3024,13.6637908 14.2315008,14.73072 12.912,14.73072 C11.5924992,14.73072 10.5216,13.6637908 10.5216,12.3491815 C10.5216,11.4711877 9.8092608,10.7614892 8.928,10.7614892 C8.0467392,10.7614892 7.3344,11.4711877 7.3344,12.3491815 C7.3344,13.6637908 6.2635008,14.73072 4.944,14.73072 C3.6244992,14.73072 2.5536,13.6637908 2.5536,12.3491815 L2.5536,8.93723077 Z" id="Shape"></path>
                <path d="M40.8,32.9723077 L39.2064,32.9723077 L39.2064,15.5061046 L37.6128,15.5061046 L37.6128,32.9723077 L34.4256,32.9723077 L34.4256,18.6830769 L23.2704,18.6830769 L23.2704,32.9723077 L4.1472,32.9723077 L4.1472,15.5061046 L2.5536,15.5061046 L2.5536,32.9723077 L0.96,32.9723077 C0.96,32.9723077 0,32.9723077 0,33.6 C1.41553436e-16,34.56 0.96,34.56 0.96,34.56 L40.8,34.56 C40.8,34.56 41.76,34.56 41.76,33.6 C41.76,32.9723077 40.8,32.9723077 40.8,32.9723077 Z M32.832,32.9723077 L24.864,32.9723077 L24.864,20.2691815 L32.832,20.2691815 L32.832,32.9723077 Z" id="Shape"></path>
                <path d="M7.3344,28.2092308 L20.0832,28.2092308 L20.0832,18.6830769 L7.3344,18.6830769 L7.3344,28.2092308 Z M8.928,20.2707692 L18.4896,20.2707692 L18.4896,26.6215385 L8.928,26.6215385 L8.928,20.2707692 Z" id="Shape"></path>
            </g>
        </g>
    </g>
</svg>