<?xml version="1.0" encoding="UTF-8"?>
<svg width="41px" height="37px" viewBox="0 0 41 37" version="1.1" xmlns="http://www.w3.org/2000/svg" xmlns:xlink="http://www.w3.org/1999/xlink">
    <!-- Generator: Sketch 42 (36781) - http://www.bohemiancoding.com/sketch -->
    <title>cr-landing-iconos-tarjetas-blanco</title>
    <desc>Created with Sketch.</desc>
    <defs></defs>
    <g id="Page-1" stroke="none" stroke-width="1" fill="none" fill-rule="evenodd">
        <g id="cr-landing-iconos-tarjetas-blanco" transform="translate(0.796875, 0.600472)" stroke="#FFFFFF" stroke-width="0.5" fill="#FFFFFF" fill-rule="nonzero">
            <path d="M31.9309863,36.0465356 L2.34160566,36.0465356 C1.2062817,36.0465356 0.354788737,35.1240849 0.354788737,34.0597187 L0.354788737,15.3978312 C0.354788737,14.333465 1.27723945,13.4110142 2.34160566,13.4110142 L6.38619726,13.481972 C6.81194374,13.481972 7.09577473,13.765803 7.09577473,14.1915495 L7.09577473,21.5711552 C7.09577473,21.8549862 7.37960572,22.1388172 7.66343671,22.1388172 L33.2082258,22.0678594 C33.6339722,22.0678594 33.9178032,22.3516904 33.9178032,22.7774369 L33.9178032,34.0597187 C33.9178032,35.1240849 32.9953525,36.0465356 31.9309863,36.0465356 Z M1.77394368,15.3978312 L1.77394368,34.0597187 C1.77394368,34.3435497 2.05777467,34.6273807 2.34160566,34.6273807 L31.9309863,34.6273807 C32.2148173,34.6273807 32.4986483,34.3435497 32.4986483,34.0597187 L32.4986483,21.3582819 L8.51492968,21.9969017 C7.45056347,21.9969017 7.23769023,20.3648735 7.23769023,19.3005073 L7.23769023,14.7592114 L2.34160566,14.8301692 C2.05777467,14.8301692 1.77394368,15.1140002 1.77394368,15.3978312 Z" id="Combined-Shape"></path>
            <path d="M28.4540567,32.4276905 L24.5513806,32.4276905 C23.9127609,32.4276905 23.4160566,31.9309863 23.4160566,31.2923666 L23.4160566,27.3896905 C23.4160566,26.7510707 23.9127609,26.2543665 24.5513806,26.2543665 L28.4540567,26.2543665 C29.0926764,26.2543665 29.5893806,26.7510707 29.5893806,27.3896905 L29.5893806,31.2923666 C29.5184229,31.9309863 29.0217187,32.4276905 28.4540567,32.4276905 Z M24.8352116,31.0085356 L28.0992679,31.0085356 L28.0992679,27.7444792 L24.8352116,27.7444792 L24.8352116,31.0085356 Z" id="Shape"></path>
            <path d="M12.2756903,29.8732116 L4.61225358,29.8732116 C4.18650709,29.8732116 3.9026761,29.5893806 3.9026761,29.1636342 C3.9026761,28.7378877 4.18650709,28.4540567 4.61225358,28.4540567 L12.2756903,28.4540567 C12.7014368,28.4540567 12.9852678,28.7378877 12.9852678,29.1636342 C12.9852678,29.5893806 12.630479,29.8732116 12.2756903,29.8732116 Z" id="Shape"></path>
            <path d="M16.7460284,32.9243948 L4.61225358,32.9243948 C4.18650709,32.9243948 3.9026761,32.6405638 3.9026761,32.2148173 C3.9026761,31.7890708 4.18650709,31.5052398 4.61225358,31.5052398 L16.7460284,31.5052398 C17.1717749,31.5052398 17.4556058,31.7890708 17.4556058,32.2148173 C17.4556058,32.6405638 17.1008171,32.9243948 16.7460284,32.9243948 Z" id="Shape"></path>
            <path d="M37.9623948,22.7774369 L8.37301419,22.7774369 C7.30864798,22.7774369 6.38619726,21.8549862 6.38619726,20.79062 L6.38619726,2.12873242 C6.38619726,1.06436621 7.30864798,0.141915495 8.37301419,0.141915495 L37.9623948,0.141915495 C39.0977188,0.141915495 39.9492118,1.06436621 39.9492118,2.12873242 L39.9492118,20.79062 C39.9492118,21.8549862 39.026761,22.7774369 37.9623948,22.7774369 Z M8.37301419,1.56107044 C8.0891832,1.56107044 7.80535221,1.84490143 7.80535221,2.12873242 L7.80535221,20.79062 C7.80535221,21.074451 8.0891832,21.3582819 8.37301419,21.3582819 L37.9623948,21.3582819 C38.2462258,21.3582819 38.5300568,21.074451 38.5300568,20.79062 L38.5300568,2.12873242 C38.5300568,1.84490143 38.2462258,1.56107044 37.9623948,1.56107044 L8.37301419,1.56107044 Z" id="Shape"></path>
            <path d="M30.8666201,18.8747608 C29.1636342,18.8747608 27.815437,17.5265636 27.815437,15.8235777 C27.815437,14.1205917 29.1636342,12.7723945 30.8666201,12.7723945 C31.5761976,12.7723945 32.285775,13.0562255 32.853437,13.481972 C33.5630145,14.049634 33.9178032,14.9011269 33.9178032,15.8235777 C33.9178032,16.7460284 33.4920567,17.5975213 32.853437,18.1651833 C32.285775,18.6618876 31.5761976,18.8747608 30.8666201,18.8747608 Z M30.8666201,14.1915495 C29.9441694,14.1915495 29.2345919,14.9011269 29.2345919,15.8235777 C29.2345919,16.7460284 29.9441694,17.4556058 30.8666201,17.4556058 C31.2923666,17.4556058 31.6471553,17.3136904 31.9309863,17.0298594 C32.285775,16.7460284 32.4986483,16.2493241 32.4986483,15.7526199 C32.4986483,15.2559157 32.285775,14.8301692 31.9309863,14.4753805 C31.6471553,14.333465 31.2214088,14.1915495 30.8666201,14.1915495 Z" id="Shape"></path>
            <path d="M33.9178032,18.8747608 C33.2082258,18.8747608 32.4986483,18.5909298 31.9309863,18.1651833 C31.7890708,18.0232678 31.6471553,17.8103946 31.6471553,17.5975213 C31.6471553,17.3846481 31.7181131,17.1717749 31.9309863,17.0298594 C32.285775,16.7460284 32.4986483,16.2493241 32.4986483,15.7526199 C32.4986483,15.2559157 32.285775,14.8301692 31.9309863,14.4753805 C31.7890708,14.333465 31.6471553,14.1205917 31.6471553,13.9077185 C31.6471553,13.6948452 31.7181131,13.481972 31.9309863,13.3400565 C32.4986483,12.8433523 33.2082258,12.630479 33.9178032,12.630479 C35.6207892,12.630479 36.9689864,13.9786762 36.9689864,15.6816622 C36.9689864,17.5265636 35.6207892,18.8747608 33.9178032,18.8747608 Z M33.4920567,17.3846481 C33.6339722,17.4556058 33.7758877,17.4556058 33.9178032,17.4556058 C34.8402539,17.4556058 35.5498314,16.7460284 35.5498314,15.8235777 C35.5498314,14.9011269 34.8402539,14.1915495 33.9178032,14.1915495 C33.7758877,14.1915495 33.6339722,14.1915495 33.4920567,14.2625072 C33.7758877,14.7592114 33.9178032,15.2559157 33.9178032,15.8235777 C33.9178032,16.3912396 33.7758877,16.9589016 33.4920567,17.3846481 Z" id="Shape"></path>
            <path d="M14.333465,11.4951551 L11.3532396,11.4951551 C10.9274931,11.4951551 10.6436621,11.2113241 10.6436621,10.7855776 C10.6436621,10.3598311 10.9274931,10.0760001 11.3532396,10.0760001 L14.333465,10.0760001 C14.7592114,10.0760001 15.0430424,10.3598311 15.0430424,10.7855776 C15.0430424,11.2113241 14.7592114,11.4951551 14.333465,11.4951551 Z" id="Shape"></path>
            <path d="M21.4292397,11.3532396 L18.4490143,11.3532396 C18.0232678,11.3532396 17.7394368,11.0694086 17.7394368,10.6436621 C17.7394368,10.2179156 18.0232678,9.93408463 18.4490143,9.93408463 L21.4292397,9.93408463 C21.8549862,9.93408463 22.1388172,10.2179156 22.1388172,10.6436621 C22.1388172,11.0694086 21.8549862,11.3532396 21.4292397,11.3532396 Z" id="Shape"></path>
            <path d="M28.5250144,11.3532396 L25.544789,11.3532396 C25.1190426,11.3532396 24.8352116,11.0694086 24.8352116,10.6436621 C24.8352116,10.2179156 25.1190426,9.93408463 25.544789,9.93408463 L28.5250144,9.93408463 C28.9507609,9.93408463 29.2345919,10.2179156 29.2345919,10.6436621 C29.2345919,11.0694086 28.9507609,11.3532396 28.5250144,11.3532396 Z" id="Shape-Copy"></path>
            <path d="M35.6207892,11.4951551 L32.6405638,11.4951551 C32.2148173,11.4951551 31.9309863,11.2113241 31.9309863,10.7855776 C31.9309863,10.3598311 32.2148173,10.0760001 32.6405638,10.0760001 L35.6207892,10.0760001 C36.0465356,10.0760001 36.3303666,10.3598311 36.3303666,10.7855776 C36.3303666,11.2113241 35.9755779,11.4951551 35.6207892,11.4951551 Z" id="Shape"></path>
            <path d="M20.4358312,15.7526199 L10.6436621,15.7526199 C10.2179156,15.7526199 9.93408463,15.4687889 9.93408463,15.0430424 C9.93408463,14.617296 10.2179156,14.333465 10.6436621,14.333465 L20.4358312,14.333465 C20.8615777,14.333465 21.1454087,14.617296 21.1454087,15.0430424 C21.1454087,15.4687889 20.8615777,15.7526199 20.4358312,15.7526199 Z" id="Shape"></path>
            <path d="M24.4094651,18.5909298 L10.6436621,18.5909298 C10.2179156,18.5909298 9.93408463,18.3070988 9.93408463,17.8813523 C9.93408463,17.4556058 10.2179156,17.1717749 10.6436621,17.1717749 L24.4094651,17.1717749 C24.8352116,17.1717749 25.1190426,17.4556058 25.1190426,17.8813523 C25.1190426,18.3070988 24.8352116,18.5909298 24.4094651,18.5909298 Z" id="Shape"></path>
        </g>
    </g>
</svg>