<svg xmlns="http://www.w3.org/2000/svg" viewBox="0 0 100 85"><title>1cr-landing-alternativo-iconos-acumulacion1</title><g id="Layer_3" data-name="Layer 3"><path d="M34.39,8.21a22,22,0,1,0,22,22A22,22,0,0,0,34.39,8.21Zm1.49,33v1.91a1.74,1.74,0,0,1-1.73,1.73h0a1.74,1.74,0,0,1-1.74-1.73V41.42a16.26,16.26,0,0,1-4.31-.75,1.94,1.94,0,0,1-1.32-2.48l.08-.17a2,2,0,0,1,2.65-1.4,11.7,11.7,0,0,0,3.89.66c2.07,0,3.48-.83,3.48-2.24s-1.16-2.23-3.81-3.14c-3.81-1.33-6.46-3.07-6.46-6.54,0-3.15,2.24-5.64,6-6.38V17.32a1.74,1.74,0,0,1,3.48,0v1.41a15.25,15.25,0,0,1,3.23.5,2.1,2.1,0,0,1,1.49,2.56,2,2,0,0,1-2.56,1.5,10.88,10.88,0,0,0-3.15-.5c-2.32,0-3.06,1-3.06,2s1.24,1.9,4.3,3.06c4.31,1.49,6,3.48,6,6.71S40,40.51,35.88,41.17Z" fill="#7f7f7f"/><path d="M66.91,11.25a8,8,0,1,0,8,8A8.05,8.05,0,0,0,66.91,11.25Zm.52,12.05V24a.66.66,0,0,1-.67.67h0a.66.66,0,0,1-.67-.67v-.59a4.75,4.75,0,0,1-1.56-.3.79.79,0,0,1-.52-.89v-.08a.72.72,0,0,1,1-.52,4.36,4.36,0,0,0,1.42.23c.74,0,1.26-.3,1.26-.82s-.44-.82-1.41-1.12c-1.42-.45-2.38-1.12-2.38-2.38a2.4,2.4,0,0,1,2.23-2.31V14.6a.67.67,0,0,1,1.34,0v.52a5.37,5.37,0,0,1,1.19.15.74.74,0,1,1-.45,1.41A4.81,4.81,0,0,0,67,16.53c-.82,0-1.11.37-1.11.75s.44.74,1.56,1.11c1.56.52,2.16,1.27,2.16,2.46C69.81,22,69,23,67.43,23.3Z" fill="#b0b0b0"/><path d="M48.45,55.94A10.43,10.43,0,1,0,58.87,66.36,10.45,10.45,0,0,0,48.45,55.94Zm.74,15.64v.89a.83.83,0,0,1-.81.82h0a.83.83,0,0,1-.82-.82v-.82a6.22,6.22,0,0,1-2.09-.37,1,1,0,0,1-.67-1.19V70a1,1,0,0,1,1.27-.67,4.75,4.75,0,0,0,1.86.3c1,0,1.64-.37,1.64-1s-.52-1-1.79-1.49c-1.86-.6-3.05-1.49-3.05-3.13,0-1.49,1-2.68,2.9-3v-.67a.82.82,0,1,1,1.64,0v.67a5.2,5.2,0,0,1,1.56.22,1.08,1.08,0,0,1,.75,1.2.91.91,0,0,1-1.19.67,4.2,4.2,0,0,0-1.49-.23c-1.12,0-1.49.45-1.49,1s.59.89,2,1.49c2,.74,2.83,1.64,2.83,3.2S51.13,71.2,49.19,71.58Z" fill="#b0b0b0"/><path d="M73.94,33a13.7,13.7,0,1,0,13.69,13.7A13.71,13.71,0,0,0,73.94,33Zm.89,20.62v1.19a1.14,1.14,0,0,1-1.12,1.11h0a1.14,1.14,0,0,1-1.11-1.11v-1a14,14,0,0,1-2.68-.45,1.23,1.23,0,0,1-.82-1.56V51.7a1.29,1.29,0,0,1,1.64-.89,8.53,8.53,0,0,0,2.45.45c1.27,0,2.16-.53,2.16-1.42s-.74-1.41-2.38-1.93c-2.38-.82-4-1.94-4-4.1s1.41-3.5,3.8-4v-1a1.12,1.12,0,1,1,2.23,0v.89a7.11,7.11,0,0,1,2,.3,1.35,1.35,0,0,1,1,1.57,1.29,1.29,0,0,1-1.64.89,7.11,7.11,0,0,0-2-.3c-1.49,0-1.94.6-1.94,1.27s.82,1.19,2.68,1.93c2.68,1,3.72,2.16,3.72,4.17S77.44,53.19,74.83,53.64Z" fill="#b0b0b0"/><path d="M23.58,55.48A5.44,5.44,0,1,0,29,60.92,5.46,5.46,0,0,0,23.58,55.48Zm.41,8.1v.47a.4.4,0,0,1-.41.41h0a.39.39,0,0,1-.41-.41v-.41a2.75,2.75,0,0,1-1.09-.2.49.49,0,0,1-.34-.61v-.07a.51.51,0,0,1,.68-.34,3.89,3.89,0,0,0,.95.13c.48,0,.82-.2.82-.54s-.27-.54-1-.75c-.95-.34-1.57-.75-1.57-1.63a1.67,1.67,0,0,1,1.5-1.57v-.4a.39.39,0,0,1,.41-.41.39.39,0,0,1,.41.41V58a2.44,2.44,0,0,1,.81.13.44.44,0,0,1,.34.61.45.45,0,0,1-.61.35,2.48,2.48,0,0,0-.82-.14c-.54,0-.74.27-.74.48s.34.47,1.08.74c1,.34,1.5.89,1.5,1.64A1.67,1.67,0,0,1,24,63.58Z" fill="#b0b0b0"/></g></svg>