<?xml version="1.0" encoding="UTF-8"?>
<svg width="100px" height="96px" viewBox="0 0 100 96" version="1.1" xmlns="http://www.w3.org/2000/svg" xmlns:xlink="http://www.w3.org/1999/xlink">
    <!-- Generator: Sketch 42 (36781) - http://www.bohemiancoding.com/sketch -->
    <title>cr-landing-iconos-ahorros</title>
    <desc>Created with Sketch.</desc>
    <defs></defs>
    <g id="Page-1" stroke="none" stroke-width="1" fill="none" fill-rule="evenodd">
        <g id="Desktop-HD-1" transform="translate(-154.000000, -479.000000)">
            <g id="cr-landing-iconos-ahorros" transform="translate(154.500000, 478.500000)">
                <circle id="Oval" fill="#EDEDED" style="mix-blend-mode: multiply;" cx="51.7792969" cy="47.8535156" r="47.3535156"></circle>
                <path d="M53.6,48.8 C51.8,48.8 50.4,47.5 50.4,46 C50.4,44.5 51.8,43.2 53.6,43.2 C55.4,43.2 56.8,44.5 56.8,46 C56.8,46.9 57.5,47.7 58.5,47.7 C59.4,47.7 60.2,47 60.2,46 C60.2,43.1 58.1,40.7 55.3,40 L55.3,37.1 C55.3,36.2 54.6,35.4 53.6,35.4 C52.7,35.4 51.9,36.1 51.9,37.1 L51.9,40 C49.1,40.7 47,43.1 47,46 C47,49.4 49.9,52.2 53.6,52.2 C55.4,52.2 56.8,53.5 56.8,55 C56.8,56.5 55.4,57.8 53.6,57.8 C51.8,57.8 50.4,56.5 50.4,55 C50.4,54.1 49.6,53.3 48.7,53.3 C47.8,53.3 47,54 47,55 C47,57.9 49.1,60.3 51.9,61 L51.9,63.9 C51.9,64.8 52.6,65.6 53.6,65.6 C54.5,65.6 55.3,64.9 55.3,63.9 L55.3,61 C58.1,60.3 60.2,57.9 60.2,55 C60.2,51.6 57.2,48.8 53.6,48.8 Z" id="Shape" fill="#F45352" fill-rule="nonzero"></path>
                <path d="M53.6,69.7 C43,69.7 34.4,61.1 34.4,50.5 C34.4,39.9 43,31.3 53.6,31.3 C64.2,31.3 72.8,39.9 72.8,50.5 C72.8,61.1 64.2,69.7 53.6,69.7 Z M53.6,34.6 C44.9,34.6 37.7,41.7 37.7,50.5 C37.7,59.3 44.8,66.4 53.6,66.4 C62.3,66.4 69.5,59.3 69.5,50.5 C69.5,41.7 62.4,34.6 53.6,34.6 Z" id="Shape" fill="#F45352" fill-rule="nonzero"></path>
                <path d="M81.8,81.3 C80.8,78.6 77.1,73.9 70.3,75.4 L70.2,75.4 L56,79.5 C55,76.2 51.9,73.8 48.3,73.8 L41,73.8 C39.5,73.8 38,73.4 36.7,72.7 C33.9,71.1 28.3,68.4 21.8,69 L21.7,69 C21.5,69 17.5,69.7 14.3,70.5 L14.3,69.4 C14.3,68.5 13.6,67.7 12.6,67.7 L1.8,67.7 C0.9,67.7 0.1,68.4 0.1,69.4 L0.1,91.5 C0.1,92.4 0.8,93.2 1.8,93.2 L12.4,93.2 C13.3,93.2 14.1,92.5 14.1,91.5 L14.1,90.5 L19.1,91.5 L41.2,95.6 C43,96 44.8,96.2 46.6,96.2 C49.5,96.2 52.5,95.7 55.3,94.6 L55.4,94.6 L81,83.4 C81.7,83.1 82.1,82.1 81.8,81.3 Z M10.7,89.9 L3.5,89.9 L3.5,71.1 L10.8,71.1 L10.8,89.9 L10.7,89.9 Z M54,91.6 C50.1,93 45.9,93.3 41.8,92.4 L19.7,88.3 L14.1,87.2 L14.1,73.9 L14.2,73.9 C17.1,73.2 21.4,72.4 22,72.3 C27.5,71.8 32.4,74.1 34.9,75.5 C36.7,76.5 38.8,77.1 40.9,77.1 L48.2,77.1 C50.8,77.1 53,79.2 53,81.8 L53,82.3 C53,82.4 52.9,82.5 52.8,82.5 L33,82.5 C32.1,82.5 31.3,83.2 31.3,84.2 C31.3,85.2 32,86 33,86 L52.7,86 C54.5,86 56,84.7 56.2,83 L71,78.7 C74.7,77.9 76.8,79.7 77.9,81.1 L54,91.6 Z" id="Shape" fill="#F45352" fill-rule="nonzero"></path>
                <path d="M10.2,16.7 C11.2,19.4 14.9,24.1 21.7,22.6 L21.8,22.6 L36,18.5 C37,21.8 40.1,24.2 43.7,24.2 L51,24.2 C52.5,24.2 54,24.6 55.3,25.3 C58.1,26.9 63.7,29.6 70.2,29 L70.3,29 C70.5,29 74.5,28.3 77.7,27.5 L77.7,28.6 C77.7,29.5 78.4,30.3 79.4,30.3 L90,30.3 C90.9,30.3 91.7,29.6 91.7,28.6 L91.7,6.4 C91.7,5.5 91,4.7 90,4.7 L79.6,4.7 C78.7,4.7 77.9,5.4 77.9,6.4 L77.9,7.4 L72.9,6.4 L50.9,2.3 C49.1,1.9 47.3,1.7 45.5,1.7 C42.6,1.7 39.6,2.2 36.8,3.3 L36.7,3.3 L11.1,14.6 C10.3,14.9 9.9,15.9 10.2,16.7 Z M81.3,8.1 L88.6,8.1 L88.6,26.9 L81.3,26.9 L81.3,8.1 Z M38,6.4 C41.9,5 46.1,4.7 50.2,5.6 L72.3,9.7 L77.9,10.8 L77.9,24 L77.8,24 C74.9,24.7 70.6,25.5 70,25.6 C64.5,26.1 59.6,23.8 57.1,22.4 C55.3,21.4 53.2,20.8 51.1,20.8 L43.8,20.8 C41.2,20.8 39,18.7 39,16.1 L39,15.6 C39,15.5 39.1,15.4 39.2,15.4 L59,15.4 C59.9,15.4 60.7,14.7 60.7,13.7 C60.7,12.7 60,12 59,12 L39.3,12 C37.5,12 36,13.3 35.8,15 L21,19.3 C17.3,20.1 15.2,18.3 14.1,16.9 L38,6.4 Z" id="Shape" fill="#F45352" fill-rule="nonzero"></path>
            </g>
        </g>
    </g>
</svg>