<svg xmlns="http://www.w3.org/2000/svg" viewBox="0 0 100 85"><title>1cr-landing-alternativo-iconos-devolucion1</title><g id="img"><path d="M84.13,31A34.08,34.08,0,0,0,24.77,20.34l-.85-5.81a2.88,2.88,0,0,0-5.73.61L20,28.08a2.88,2.88,0,0,0,1.21,2.05,2.91,2.91,0,0,0,1.66.52,2.72,2.72,0,0,0,.69-.09L37.2,27.89a2.88,2.88,0,1,0-1.38-5.59l-6.14,1.1A28.33,28.33,0,1,1,68.51,64v5.61A6.61,6.61,0,0,1,68.36,71,34,34,0,0,0,84.13,31Z" fill="#253d85"/><path d="M49.49,58.37l-.55,4.37a.81.81,0,0,0,0,.38.85.85,0,0,0,.13.31.76.76,0,0,0,.21.19.65.65,0,0,0,.27.05h.07l.07,0,.07,0,.08-.06,2.72-2.25,2.49,1.64.06,0h.16a.41.41,0,0,0,.21-.1.91.91,0,0,0,.18-.21,1,1,0,0,0,.1-.3,1,1,0,0,0,0-.35l-.44-3.88,1.84-2.74A.88.88,0,0,0,57.3,55a1.34,1.34,0,0,0,0-.4.81.81,0,0,0-.14-.33.47.47,0,0,0-.25-.19l-2.62-.67L53,49.68a1,1,0,0,0-.09-.21.61.61,0,0,0-.12-.16.71.71,0,0,0-.14-.1l-.15-.05h-.15l-.27.2a1.14,1.14,0,0,0-.1.19l-1.35,3.7-3.26.48a.57.57,0,0,0-.35.2.91.91,0,0,0-.19.38,1,1,0,0,0,0,.49.93.93,0,0,0,.2.48Z" fill="#253d85"/><path d="M62.72,41l-19.2-5.78a4.74,4.74,0,0,0-2.74,0L32.4,37.77V48.89L28,49.72V39.1L21.55,41a2.41,2.41,0,0,0-1.7,2.32V69.65A2.4,2.4,0,0,0,21.55,72l19.23,5.79a4.91,4.91,0,0,0,2.74,0L62.74,72a2.42,2.42,0,0,0,1.71-2.32V43.36A2.43,2.43,0,0,0,62.72,41ZM59.6,67.85l-15,4.52V40.63l15,4.53Z" fill="#253d85"/></g></svg>