<?xml version="1.0" encoding="UTF-8"?>
<svg width="35px" height="45px" viewBox="0 0 35 45" version="1.1" xmlns="http://www.w3.org/2000/svg" xmlns:xlink="http://www.w3.org/1999/xlink">
    <!-- Generator: Sketch 42 (36781) - http://www.bohemiancoding.com/sketch -->
    <title>cr-landing-iconos-promociones-blanco</title>
    <desc>Created with Sketch.</desc>
    <defs></defs>
    <g id="Page-1" stroke="none" stroke-width="1" fill="none" fill-rule="evenodd">
        <g id="cr-landing-iconos-promociones-blanco" transform="translate(-0.253125, 0.490000)" fill="#FFFFFF">
            <text id="%" stroke="#FFFFFF" stroke-width="0.54" font-family="GothamRounded-Bold, Gotham Rounded" font-size="10.8" font-weight="bold">
                <tspan x="23.2157964" y="41.3549901">%</tspan>
            </text>
            <path d="M15.8218889,0.17364925 C11.8130938,0.17364925 8.48496837,3.07036038 7.80643225,6.88565782 L4.31558899,6.88565782 C2.73855463,6.88565782 1.48863481,8.19353584 1.43901389,9.7322686 L0.480155519,39.456878 C0.428166218,41.0699654 1.77970585,42.3634174 3.35673062,42.3634174 L22.2792247,42.3634174 C23.631215,43.5529291 25.3929734,44.2811341 27.3281893,44.2811341 C31.5533508,44.2811341 34.9990562,40.8354286 34.9990562,36.6102672 C34.9990562,33.6583258 33.3185611,31.0900716 30.8639795,29.8083657 L30.2047644,9.7322686 C30.1551914,8.19349269 28.9052237,6.88565782 27.3281893,6.88565782 L23.8373695,6.88565782 C23.1587375,3.07036038 19.830684,0.17364925 15.8218889,0.17364925 Z M15.8218889,2.09136598 C18.7927198,2.09136598 21.2462945,4.12462515 21.8896405,6.88565782 L9.75413728,6.88565782 C10.3974833,4.12462515 12.851058,2.09136598 15.8218889,2.09136598 Z M4.31558899,8.80337455 L7.67159279,8.80337455 L7.67159279,10.9308416 C6.82864122,11.3055634 6.23330524,12.1459069 6.23330524,13.1182372 C6.23330524,14.4307705 7.31802336,15.5153831 8.63045116,15.5153831 C9.94288855,15.5153831 11.0275971,14.4307705 11.0275971,13.1182372 C11.0275971,12.1459069 10.4322419,11.3055634 9.58930953,10.9308416 L9.58930953,8.80337455 L22.0544683,8.80337455 L22.0544683,10.9308416 C21.2115359,11.3055634 20.6161807,12.1459069 20.6161807,13.1182372 C20.6161807,14.4307705 21.7008893,15.5153831 23.0133267,15.5153831 C24.3257641,15.5153831 25.4104726,14.4307705 25.4104726,13.1182372 C25.4104726,12.1459069 24.8151174,11.3055634 23.972185,10.9308416 L23.972185,8.80337455 L27.3281893,8.80337455 C27.8754577,8.80337455 28.2682061,9.2072457 28.2870477,9.79219724 L28.9162985,29.104228 C28.4033093,28.9954455 27.8727729,28.9394003 27.3281893,28.9394003 C23.1030279,28.9394003 19.6573224,32.3851057 19.6573224,36.6102672 C19.6573224,38.0048787 20.0361673,39.3168367 20.6910676,40.4457007 L3.35673062,40.4457007 C2.80948138,40.4457007 2.38141345,40.0274946 2.39787225,39.5168066 L3.35673062,9.79219724 C3.37562013,9.20719775 3.76834934,8.80337455 4.31558899,8.80337455 L4.31558899,8.80337455 Z M8.63045116,12.638808 C8.90656401,12.638808 9.10988034,12.842086 9.10988034,13.1182372 C9.10988034,13.3943884 8.90656401,13.5976664 8.63045116,13.5976664 C8.3543383,13.5976664 8.15102197,13.3943884 8.15102197,13.1182372 C8.15102197,12.842086 8.3543383,12.638808 8.63045116,12.638808 Z M23.0133267,12.638808 C23.2894299,12.638808 23.4927558,12.842086 23.4927558,13.1182372 C23.4927558,13.3943884 23.2894299,13.5976664 23.0133267,13.5976664 C22.7372234,13.5976664 22.5338975,13.3943884 22.5338975,13.1182372 C22.5338975,12.842086 22.7372234,12.638808 23.0133267,12.638808 Z M27.3281893,30.857117 C30.5169208,30.857117 33.0813395,33.4215358 33.0813395,36.6102672 C33.0813395,39.7989986 30.5169208,42.3634174 27.3281893,42.3634174 C24.1394579,42.3634174 21.5750391,39.7989986 21.5750391,36.6102672 C21.5750391,33.4215358 24.1394579,30.857117 27.3281893,30.857117 Z" id="Shape" fill-rule="nonzero"></path>
        </g>
    </g>
</svg>