<?xml version="1.0" encoding="UTF-8"?>
<svg width="22px" height="20px" viewBox="0 0 22 20" version="1.1" xmlns="http://www.w3.org/2000/svg" xmlns:xlink="http://www.w3.org/1999/xlink">
    <!-- Generator: Sketch 42 (36781) - http://www.bohemiancoding.com/sketch -->
    <title>cr-landing-iconos-tarjetas-blanco</title>
    <desc>Created with Sketch.</desc>
    <defs></defs>
    <g id="Page-1" stroke="none" stroke-width="1" fill="none" fill-rule="evenodd">
        <g id="iPhone-7---2" transform="translate(-26.000000, -186.000000)" stroke="#FFFFFF" stroke-width="0.3" fill="#FFFFFF" fill-rule="nonzero">
            <g id="cr-landing-iconos-tarjetas-blanco" transform="translate(26.475000, 186.300000)">
                <g id="tarjetas-credito-copy" transform="translate(0.376933, 0.358540)">
                    <path d="M16.3633328,18.4723846 L1.19997774,18.4723846 C0.61817035,18.4723846 0.181814809,17.9996661 0.181814809,17.4542217 L0.181814809,7.89076271 C0.181814809,7.34531828 0.654533312,6.87259978 1.19997774,6.87259978 L3.27266656,6.90896274 C3.49084433,6.90896274 3.63629618,7.05441459 3.63629618,7.27259236 L3.63629618,11.0543404 C3.63629618,11.1997922 3.78174803,11.3452441 3.92719987,11.3452441 L17.0178661,11.3088811 C17.2360439,11.3088811 17.3814957,11.454333 17.3814957,11.6725107 L17.3814957,17.4542217 C17.3814957,17.9996661 16.9087772,18.4723846 16.3633328,18.4723846 Z M0.909074045,7.89076271 L0.909074045,17.4542217 C0.909074045,17.5996735 1.05452589,17.7451254 1.19997774,17.7451254 L16.3633328,17.7451254 C16.5087847,17.7451254 16.6542365,17.5996735 16.6542365,17.4542217 L16.6542365,10.9452515 L4.36355541,11.2725182 C3.81811099,11.2725182 3.7090221,10.43617 3.7090221,9.89072561 L3.7090221,7.56349605 L1.19997774,7.59985901 C1.05452589,7.59985901 0.909074045,7.74531086 0.909074045,7.89076271 Z" id="Combined-Shape"></path>
                    <path d="M14.5815477,16.6178735 L12.5815848,16.6178735 C12.2543181,16.6178735 11.9997774,16.3633328 11.9997774,16.0360661 L11.9997774,14.0361033 C11.9997774,13.7088366 12.2543181,13.4542959 12.5815848,13.4542959 L14.5815477,13.4542959 C14.9088143,13.4542959 15.1633551,13.7088366 15.1633551,14.0361033 L15.1633551,16.0360661 C15.1269921,16.3633328 14.8724514,16.6178735 14.5815477,16.6178735 Z M12.7270366,15.8906143 L14.3997329,15.8906143 L14.3997329,14.2179181 L12.7270366,14.2179181 L12.7270366,15.8906143 Z" id="Shape"></path>
                    <path d="M6.29079239,15.3088069 L2.36359252,15.3088069 C2.14541475,15.3088069 1.9999629,15.1633551 1.9999629,14.9451773 C1.9999629,14.7269995 2.14541475,14.5815477 2.36359252,14.5815477 L6.29079239,14.5815477 C6.50897016,14.5815477 6.65442201,14.7269995 6.65442201,14.9451773 C6.65442201,15.1633551 6.4726072,15.3088069 6.29079239,15.3088069 Z" id="Shape"></path>
                    <path d="M8.58165898,16.8724143 L2.36359252,16.8724143 C2.14541475,16.8724143 1.9999629,16.7269624 1.9999629,16.5087847 C1.9999629,16.2906069 2.14541475,16.145155 2.36359252,16.145155 L8.58165898,16.145155 C8.79983675,16.145155 8.9452886,16.2906069 8.9452886,16.5087847 C8.9452886,16.7269624 8.76347379,16.8724143 8.58165898,16.8724143 Z" id="Shape"></path>
                    <path d="M19.4541846,11.6725107 L4.29082949,11.6725107 C3.74538506,11.6725107 3.27266656,11.1997922 3.27266656,10.6543478 L3.27266656,1.09088885 C3.27266656,0.545444427 3.74538506,0.0727259236 4.29082949,0.0727259236 L19.4541846,0.0727259236 C20.0359919,0.0727259236 20.4723475,0.545444427 20.4723475,1.09088885 L20.4723475,10.6543478 C20.4723475,11.1997922 19.999629,11.6725107 19.4541846,11.6725107 Z M4.29082949,0.799985159 C4.14537764,0.799985159 3.9999258,0.945437006 3.9999258,1.09088885 L3.9999258,10.6543478 C3.9999258,10.7997997 4.14537764,10.9452515 4.29082949,10.9452515 L19.4541846,10.9452515 C19.5996364,10.9452515 19.7450883,10.7997997 19.7450883,10.6543478 L19.7450883,1.09088885 C19.7450883,0.945437006 19.5996364,0.799985159 19.4541846,0.799985159 L4.29082949,0.799985159 Z" id="Shape"></path>
                    <path d="M15.8178884,9.67254784 C14.9451773,9.67254784 14.254281,8.98165156 14.254281,8.10894048 C14.254281,7.2362294 14.9451773,6.54533312 15.8178884,6.54533312 C16.181518,6.54533312 16.5451476,6.69078497 16.8360513,6.90896274 C17.1996809,7.19986643 17.3814957,7.63622198 17.3814957,8.10894048 C17.3814957,8.58165898 17.163318,9.01801452 16.8360513,9.30891822 C16.5451476,9.56345895 16.181518,9.67254784 15.8178884,9.67254784 Z M15.8178884,7.27259236 C15.3451699,7.27259236 14.9815403,7.63622198 14.9815403,8.10894048 C14.9815403,8.58165898 15.3451699,8.9452886 15.8178884,8.9452886 C16.0360661,8.9452886 16.217881,8.87256268 16.3633328,8.72711083 C16.5451476,8.58165898 16.6542365,8.32711825 16.6542365,8.07257752 C16.6542365,7.81803678 16.5451476,7.59985901 16.3633328,7.4180442 C16.217881,7.34531828 15.9997032,7.27259236 15.8178884,7.27259236 Z" id="Shape"></path>
                    <path d="M17.3814957,9.67254784 C17.0178661,9.67254784 16.6542365,9.52709599 16.3633328,9.30891822 C16.2906069,9.23619229 16.217881,9.12710341 16.217881,9.01801452 C16.217881,8.90892564 16.2542439,8.79983675 16.3633328,8.72711083 C16.5451476,8.58165898 16.6542365,8.32711825 16.6542365,8.07257752 C16.6542365,7.81803678 16.5451476,7.59985901 16.3633328,7.4180442 C16.2906069,7.34531828 16.217881,7.2362294 16.217881,7.12714051 C16.217881,7.01805163 16.2542439,6.90896274 16.3633328,6.83623682 C16.6542365,6.58169608 17.0178661,6.4726072 17.3814957,6.4726072 C18.2542068,6.4726072 18.9451031,7.16350347 18.9451031,8.03621456 C18.9451031,8.98165156 18.2542068,9.67254784 17.3814957,9.67254784 Z M17.163318,8.90892564 C17.2360439,8.9452886 17.3087698,8.9452886 17.3814957,8.9452886 C17.8542142,8.9452886 18.2178439,8.58165898 18.2178439,8.10894048 C18.2178439,7.63622198 17.8542142,7.27259236 17.3814957,7.27259236 C17.3087698,7.27259236 17.2360439,7.27259236 17.163318,7.30895532 C17.3087698,7.56349605 17.3814957,7.81803678 17.3814957,8.10894048 C17.3814957,8.39984417 17.3087698,8.69074787 17.163318,8.90892564 Z" id="Shape"></path>
                    <path d="M7.34531828,5.89079981 L5.81807389,5.89079981 C5.59989612,5.89079981 5.45444427,5.74534796 5.45444427,5.52717019 C5.45444427,5.30899242 5.59989612,5.16354057 5.81807389,5.16354057 L7.34531828,5.16354057 C7.56349605,5.16354057 7.7089479,5.30899242 7.7089479,5.52717019 C7.7089479,5.74534796 7.56349605,5.89079981 7.34531828,5.89079981 Z" id="Shape"></path>
                    <path d="M10.9816145,5.81807389 L9.45437006,5.81807389 C9.23619229,5.81807389 9.09074045,5.67262204 9.09074045,5.45444427 C9.09074045,5.2362665 9.23619229,5.09081465 9.45437006,5.09081465 L10.9816145,5.09081465 C11.1997922,5.09081465 11.3452441,5.2362665 11.3452441,5.45444427 C11.3452441,5.67262204 11.1997922,5.81807389 10.9816145,5.81807389 Z" id="Shape"></path>
                    <path d="M14.6179106,5.81807389 L13.0906662,5.81807389 C12.8724885,5.81807389 12.7270366,5.67262204 12.7270366,5.45444427 C12.7270366,5.2362665 12.8724885,5.09081465 13.0906662,5.09081465 L14.6179106,5.09081465 C14.8360884,5.09081465 14.9815403,5.2362665 14.9815403,5.45444427 C14.9815403,5.67262204 14.8360884,5.81807389 14.6179106,5.81807389 Z" id="Shape-Copy"></path>
                    <path d="M18.2542068,5.89079981 L16.7269624,5.89079981 C16.5087847,5.89079981 16.3633328,5.74534796 16.3633328,5.52717019 C16.3633328,5.30899242 16.5087847,5.16354057 16.7269624,5.16354057 L18.2542068,5.16354057 C18.4723846,5.16354057 18.6178364,5.30899242 18.6178364,5.52717019 C18.6178364,5.74534796 18.4360216,5.89079981 18.2542068,5.89079981 Z" id="Shape"></path>
                    <path d="M10.472533,8.07257752 L5.45444427,8.07257752 C5.2362665,8.07257752 5.09081465,7.92712567 5.09081465,7.7089479 C5.09081465,7.49077013 5.2362665,7.34531828 5.45444427,7.34531828 L10.472533,7.34531828 C10.6907108,7.34531828 10.8361626,7.49077013 10.8361626,7.7089479 C10.8361626,7.92712567 10.6907108,8.07257752 10.472533,8.07257752 Z" id="Shape"></path>
                    <path d="M12.5088589,9.52709599 L5.45444427,9.52709599 C5.2362665,9.52709599 5.09081465,9.38164414 5.09081465,9.16346637 C5.09081465,8.9452886 5.2362665,8.79983675 5.45444427,8.79983675 L12.5088589,8.79983675 C12.7270366,8.79983675 12.8724885,8.9452886 12.8724885,9.16346637 C12.8724885,9.38164414 12.7270366,9.52709599 12.5088589,9.52709599 Z" id="Shape"></path>
                </g>
            </g>
        </g>
    </g>
</svg>