<?xml version="1.0" encoding="UTF-8"?>
<svg width="19px" height="18px" viewBox="0 0 19 18" version="1.1" xmlns="http://www.w3.org/2000/svg" xmlns:xlink="http://www.w3.org/1999/xlink">
    <!-- Generator: Sketch 42 (36781) - http://www.bohemiancoding.com/sketch -->
    <title>cr-landing-iconos-telefono-blanco</title>
    <desc>Created with Sketch.</desc>
    <defs></defs>
    <g id="Page-1" stroke="none" stroke-width="1" fill="none" fill-rule="evenodd">
        <g id="iPhone-7---2" transform="translate(-30.000000, -598.000000)" fill-rule="nonzero" fill="#FFFFFF">
            <path d="M33.5857264,598.20228 C33.4652965,598.178194 33.3207806,598.178194 33.2244367,598.226366 C31.9237938,598.732172 31.1048705,600.586792 30.9121827,601.863349 C30.3100332,606.006137 33.5857264,609.594948 36.5964739,611.955374 C39.2700176,614.050854 44.4003312,617.49515 47.4351646,614.171284 C47.8205403,613.761823 48.2781739,613.159673 48.2540879,612.557524 C48.18183,611.545913 47.2424768,610.823333 46.5198974,610.269356 C45.9659199,609.859894 44.8097929,608.727853 44.0872135,608.751939 C43.436892,608.776025 43.0274304,609.450432 42.6179687,609.859894 L41.8953893,610.582473 C41.7749594,610.702903 40.2334568,609.691292 40.0648549,609.570862 C39.4386194,609.161401 38.83647,608.703767 38.3065784,608.197961 C37.7766869,607.692156 37.2949673,607.138178 36.8855056,606.560115 C36.7650757,606.391513 35.7775506,604.922268 35.8738945,604.801838 C35.8738945,604.801838 36.7169038,603.886571 36.9577636,603.525281 C37.4635691,602.75453 37.8489448,602.152381 37.2708813,601.237113 C37.0541075,600.89991 36.7891617,600.634964 36.5001299,600.345932 C35.9943244,599.864213 35.4885188,599.358407 34.9104553,598.948945 C34.5973376,598.708086 34.067446,598.274538 33.5857264,598.20228 Z" id="cr-landing-iconos-telefono-blanco"></path>
        </g>
    </g>
</svg>