<?xml version="1.0" encoding="UTF-8"?>
<svg width="58px" height="59px" viewBox="0 0 58 59" version="1.1" xmlns="http://www.w3.org/2000/svg" xmlns:xlink="http://www.w3.org/1999/xlink">
    <!-- Generator: Sketch 42 (36781) - http://www.bohemiancoding.com/sketch -->
    <title>cr-landing-icono-telefono</title>
    <desc>Created with Sketch.</desc>
    <defs></defs>
    <g id="Page-1" stroke="none" stroke-width="1" fill="none" fill-rule="evenodd">
        <g id="Desktop-HD-1" transform="translate(-1191.000000, -1343.000000)" fill-rule="nonzero" fill="#99877D">
            <g id="Footer" transform="translate(0.000000, 1206.000000)">
                <g id="iconos-y-texto" transform="translate(198.000000, 135.000000)">
                    <path d="M1002.19497,2.38072386 C1001.79459,2.30064695 1001.31412,2.30064695 1000.99382,2.46080078 C996.669664,4.14241597 993.947049,10.3083384 993.306433,14.5524148 C991.30451,28.325644 1002.19497,40.2571043 1012.20459,48.1046418 C1021.09312,55.0713334 1038.14951,66.5223321 1048.2392,55.4717179 C1049.52043,54.1104104 1051.04189,52.1084875 1050.96181,50.1065647 C1050.72158,46.7433343 1047.59858,44.3410269 1045.19627,42.4992578 C1043.3545,41.1379503 1039.51081,37.3743353 1037.10851,37.4544123 C1034.94643,37.5344892 1033.58512,39.7766428 1032.22381,41.1379503 L1029.82151,43.5402577 C1029.42112,43.9406423 1024.2962,40.5774119 1023.73566,40.1770273 C1021.65366,38.8157198 1019.65174,37.2942584 1017.89005,35.6126432 C1016.12835,33.931028 1014.52682,32.089259 1013.16551,30.1674131 C1012.76512,29.6068747 1009.48197,24.7221829 1009.80228,24.3217983 C1009.80228,24.3217983 1012.60497,21.2788756 1013.40574,20.0777219 C1015.08735,17.5152606 1016.36858,15.5133378 1014.44674,12.470415 C1013.72605,11.3493382 1012.8452,10.4684922 1011.88428,9.50756922 C1010.20266,7.90603094 1008.52105,6.22441574 1006.5992,4.8631082 C1005.5582,4.06233906 1003.79651,2.6209546 1002.19497,2.38072386 Z" id="cr-landing-icono-telefono"></path>
                </g>
            </g>
        </g>
    </g>
</svg>