<?xml version="1.0" encoding="UTF-8"?>
<svg width="121px" height="95px" viewBox="0 0 121 95" version="1.1" xmlns="http://www.w3.org/2000/svg" xmlns:xlink="http://www.w3.org/1999/xlink">
    <!-- Generator: Sketch 42 (36781) - http://www.bohemiancoding.com/sketch -->
    <title>cr-landing-iconos-seguros</title>
    <desc>Created with Sketch.</desc>
    <defs></defs>
    <g id="Page-1" stroke="none" stroke-width="1" fill="none" fill-rule="evenodd">
        <g id="Desktop-HD-1" transform="translate(-863.000000, -499.000000)">
            <g id="cr-landing-iconos-seguros" transform="translate(863.646484, 499.000000)">
                <circle id="Oval-Copy-3" fill="#EDEDED" style="mix-blend-mode: multiply;" cx="55.3333333" cy="47.3535156" r="47.3535156"></circle>
                <g id="Group-6" transform="translate(0.000000, 10.721714)">
                    <g id="Group" transform="translate(0.719219, 3.465949)" stroke="#F45352" fill-rule="nonzero" fill="#F45352">
                        <path d="M31.2113898,62.4227796 C30.8407546,62.4227796 30.488326,62.2654222 30.2412358,61.9897216 C27.9146868,59.387472 25.6310534,56.8749551 23.426749,54.4508705 C10.3387729,40.0572179 0,28.6884691 0,19.5682409 C0,8.77820339 7.91078684,0 17.6357357,0 C22.9247658,0 27.8756725,2.61265342 31.2113898,7.07848312 C34.5445062,2.61265342 39.4941124,0 44.7857434,0 C54.5106923,0 62.4227796,8.77820339 62.4227796,19.5682409 C62.4227796,28.6845677 52.0840068,40.0559174 38.9947302,54.4508705 C36.7891253,56.8762556 34.5054919,59.3887724 32.1802434,61.9897216 C31.9344537,62.2654222 31.5820251,62.4227796 31.2113898,62.4227796 Z M17.6357357,2.60094915 C9.3452103,2.60094915 2.60094915,10.2126268 2.60094915,19.5682409 C2.60094915,27.6819018 12.6406129,38.722931 25.3514514,52.7017322 C27.2527452,54.7928953 29.2151613,56.9516831 31.2113898,59.1754946 C33.2063178,56.9529836 35.1674335,54.7967967 37.0700278,52.7030327 C49.7808663,38.72033 59.8218305,27.6793009 59.8218305,19.5682409 C59.8218305,10.2126268 53.0762689,2.60094915 44.7857434,2.60094915 C39.7906206,2.60094915 35.1336211,5.39696949 32.327197,10.0799784 C31.8590262,10.8641646 30.5676549,10.8654651 30.0968831,10.0799784 C27.2865575,5.39696949 22.6295581,2.60094915 17.6357357,2.60094915 Z" id="Shape"></path>
                        <path d="M34.1816737,51.8720294 C33.5067274,51.8538228 32.9748333,51.3726472 32.891603,50.739316 L29.5064676,24.627087 L26.06021,42.1626862 C25.9444678,42.7518012 25.4398837,43.1848592 24.8403649,43.2121692 C24.2369447,43.2394792 23.7011491,42.8519377 23.5346884,42.274527 L21.5046476,35.2597672 L1.30047458,35.2597672 C0.58261261,35.2597672 0,34.678455 0,33.9592926 C0,33.2401302 0.58261261,32.658818 1.30047458,32.658818 L22.4826045,32.658818 C23.0613157,32.658818 23.5711017,33.0411575 23.7310601,33.5977607 L24.5425562,36.3989829 L28.4946984,16.291045 C28.6182435,15.6655167 29.1787481,15.2077497 29.8133796,15.241562 C30.4506122,15.2623696 30.9786049,15.7422447 31.0605348,16.3742754 L34.4105573,42.2225081 L37.6006214,25.0640465 C37.7124622,24.4619268 38.2300511,24.0184649 38.8425746,24.0015588 C39.4407929,23.9560422 39.9960956,24.3956026 40.1417487,24.9912199 L42.2004,33.3623748 L47.1721143,33.3623748 C47.8912767,33.3623748 48.4725889,33.9436869 48.4725889,34.6628493 C48.4725889,35.3820118 47.8912767,35.9633239 47.1721143,35.9633239 L41.1808279,35.9633239 C40.5826096,35.9633239 40.0611193,35.5549749 39.9180671,34.9723623 L39.0558525,31.4675833 L35.4600403,50.8082412 C35.3455985,51.4259666 34.807202,51.8720294 34.1816737,51.8720294 Z" id="Shape"></path>
                    </g>
                    <g id="Group-3" transform="translate(49.975429, 0.438381)">
                        <polygon id="Path-4" fill="#EDEDED" points="19.0603662 28.4499613 6.53628988 22.353541 7.67484227 18.2892608 21.337471 19.3053309"></polygon>
                        <path d="M56.8893127,12.1928406 C56.8893127,11.5831985 57.2957408,11.1767705 57.9053828,11.1767705 L58.9214528,11.1767705 C61.766449,11.1767705 64.0018031,13.4121246 64.0018031,16.2571208 L64.0018031,17.2731908 C64.0018031,17.8828328 63.5953751,18.2892608 62.985733,18.2892608 C62.376091,18.2892608 61.969663,17.8828328 61.969663,17.2731908 L61.969663,16.2571208 C61.969663,14.5298017 60.6487719,13.2089106 58.9214528,13.2089106 L57.9053828,13.2089106 C57.2957408,13.2089106 56.8893127,12.8024826 56.8893127,12.1928406 Z M63.188947,58.6272417 C64.4082311,61.3706308 64.5098381,64.6210389 63.3921611,67.3654441 L62.985733,68.3815142 C62.7266352,69.1577917 61.6475688,69.1669363 61.258414,68.5847282 L41.140227,43.08137 L26.4072113,55.3758176 L26.4072113,62.6915219 C26.4072113,63.809199 26.0007833,64.825269 25.3911413,65.739732 L23.1557872,68.6863352 C22.7198931,69.3427164 21.6540357,69.1588078 21.4284681,68.4841372 L18.786686,61.3716469 L12.6902657,64.013429 C11.4699656,64.5336569 10.9029985,63.3194532 11.2677676,62.590931 L13.9095498,56.4945107 L6.79705943,53.8527286 C6.14982281,53.6373217 5.85109822,52.6212517 6.59384542,52.1254095 L9.54044856,49.8900554 C10.4549116,49.2804134 11.4709816,48.8739853 12.5886587,48.8739853 L19.904363,48.8739853 L32.1988106,34.1409697 L6.49223842,14.0217666 C5.82468039,13.576728 6.0756497,12.5007098 6.69545243,12.2944476 L7.71152247,11.8880196 C10.5565186,10.7703425 13.7063357,10.8719495 16.4497249,12.0912336 L23.6638222,15.4442647 L27.1184604,11.9896266 C27.5248884,11.5831985 28.1345304,11.5831985 28.5409584,11.9896266 L30.5730985,14.0217666 C30.9835908,14.4342911 30.985623,15.0307242 30.5730985,15.4442647 L28.4393514,17.6796188 L31.2843476,19.0005099 L34.7389857,15.5458717 C35.1454137,15.1394437 35.7550558,15.1394437 36.1614838,15.5458717 L38.1936239,17.5780118 C38.6000519,17.9844398 38.6000519,18.5940819 38.1936239,19.0005099 L35.9582698,21.235864 L40.733799,23.4712181 L48.8623594,13.7169456 C52.9266396,8.83980941 58.9214528,6.09642028 65.2210871,6.09642028 C67.2532272,6.09642028 68.9805463,7.72213236 68.9805463,9.85587946 C68.9805463,16.1555137 66.2371572,22.150327 61.360021,26.2146072 L51.6047324,34.3431676 L53.8400865,39.1186968 L56.0754406,36.8833427 C56.4808526,36.4769147 57.0915107,36.4769147 57.4969226,36.8833427 L59.5290627,38.9154828 C59.9375229,39.323943 59.9456515,39.9213921 59.5290627,40.3379809 L56.0764567,43.792619 L57.3973478,46.6386312 L59.6327019,44.4032771 C60.0381138,43.9968491 60.6487719,43.9968491 61.0541839,44.4032771 L63.086324,46.4354172 C63.492752,46.8408292 63.492752,47.4514873 63.086324,47.8568992 L59.6327019,51.3115374 L63.188947,58.6272417 Z M58.4134178,48.6697553 L58.8198458,49.4826113 L61.0541839,47.2472572 L60.4445418,46.6376152 L58.4134178,48.6697553 Z M54.8571727,41.0492299 L55.2636007,41.8620859 L57.4989548,39.6267318 L56.8893127,39.0170898 L54.8571727,41.0492299 Z M33.3164877,19.9149729 L34.1293437,20.3214009 L36.1614838,18.2892608 L35.5518418,17.6796188 L33.3164877,19.9149729 Z M25.6959623,16.3587278 L26.5088183,16.7651558 L28.5409584,14.7330157 L27.9313164,14.1233737 L25.6959623,16.3587278 Z M33.4180947,32.4126345 L39.5145149,25.0969302 L15.6368688,13.9201596 C13.6047287,13.0056966 11.2677676,12.9040896 9.13402054,13.5137316 L33.4180947,32.4126345 Z M9.23562754,52.5308214 L14.9256198,54.6645685 L18.177044,50.8035024 L12.5886587,50.8035024 C11.9790167,50.8035024 11.2677676,51.0067164 10.7597326,51.4131444 L9.23562754,52.5308214 Z M14.1127638,61.0658098 L18.786686,59.0336697 L60.1407369,24.5888951 C64.5098381,20.931043 67.0500132,15.5458717 67.0500132,9.75427245 C67.0500132,8.83980941 66.3387642,8.02695337 65.3226941,8.02695337 C59.6327019,8.02695337 54.1459236,10.5671285 50.4880715,14.9362297 L16.1449039,56.3918876 L14.1127638,61.0658098 Z M20.5140051,60.2529538 L22.6477522,65.9439621 L23.7654292,64.4198571 C24.1718572,63.911822 24.3750712,63.200573 24.3750712,62.5899149 L24.3750712,57.0015296 L20.5140051,60.2529538 Z M61.258414,59.4400978 L50.0816434,35.5624516 L42.7659391,41.6588719 L61.664842,66.0445531 C62.376091,63.910806 62.274484,61.5738449 61.258414,59.4400978 Z M26.1023903,50.4986813 C26.5088183,50.0922533 26.5088183,49.4826113 26.1023903,49.0761833 C25.6959623,48.6707713 25.0863203,48.6707713 24.6798923,49.0761833 L17.5674019,56.1886736 C17.1609739,56.5951016 17.1609739,57.2047436 17.5674019,57.6111717 C17.9463961,57.9901658 18.5672149,58.0348729 18.9899,57.6111717 L26.1023903,50.4986813 Z" id="Shape" stroke="#F45352" stroke-width="1.5" fill="#F45352" fill-rule="nonzero" transform="translate(37.538483, 37.595586) rotate(-12.000000) translate(-37.538483, -37.595586) "></path>
                    </g>
                </g>
            </g>
        </g>
    </g>
</svg>