<?xml version="1.0" encoding="UTF-8"?>
<svg width="41px" height="70px" viewBox="0 0 41 70" version="1.1" xmlns="http://www.w3.org/2000/svg" xmlns:xlink="http://www.w3.org/1999/xlink">
    <!-- Generator: Sketch 42 (36781) - http://www.bohemiancoding.com/sketch -->
    <title>cr-landing-icono-suc-mov</title>
    <desc>Created with Sketch.</desc>
    <defs></defs>
    <g id="Page-1" stroke="none" stroke-width="1" fill="none" fill-rule="evenodd">
        <g id="Desktop-HD-1" transform="translate(-917.000000, -1341.000000)" fill="#99877D">
            <g id="Footer" transform="translate(0.000000, 1206.000000)">
                <g id="iconos-y-texto" transform="translate(198.000000, 135.000000)">
                    <path d="M727.873394,0.650390184 L751.312831,0.650390184 C755.627641,0.650390184 759.125977,4.14872615 759.125977,8.46353584 L758.800429,61.5364642 C758.800429,65.8512738 755.302093,69.3496098 750.987283,69.3496098 L727.547846,69.3496098 C723.233036,69.3496098 719.734701,65.8512738 719.734701,61.5364642 L720.060248,8.46353584 C720.060248,4.14872615 723.558584,0.650390184 727.873394,0.650390184 Z M723.641273,55.6766049 L754.893856,55.6766049 L754.893856,11.3980435 L723.641273,11.3980435 L723.641273,55.6766049 Z M732.919384,4.69582947 C732.11463,4.69582947 731.454419,5.35408699 731.454419,6.16079428 C731.454419,6.96554828 732.11463,7.62575909 732.919384,7.62575909 L745.615746,7.62575909 C746.4205,7.62575909 747.08071,6.96554828 747.08071,6.16079428 C747.08071,5.35408699 746.4205,4.69582947 745.615746,4.69582947 L732.919384,4.69582947 Z M739.267565,65.443037 C740.884886,65.443037 742.197494,64.1304285 742.197494,62.5131074 C742.197494,60.8957862 740.884886,59.5831777 739.267565,59.5831777 C737.650244,59.5831777 736.337635,60.8957862 736.337635,62.5131074 C736.337635,64.1304285 737.650244,65.443037 739.267565,65.443037 Z" id="cr-landing-icono-suc-mov"></path>
                </g>
            </g>
        </g>
    </g>
</svg>