<?xml version="1.0" encoding="UTF-8"?>
<svg width="95px" height="96px" viewBox="0 0 95 96" version="1.1" xmlns="http://www.w3.org/2000/svg" xmlns:xlink="http://www.w3.org/1999/xlink">
    <!-- Generator: Sketch 42 (36781) - http://www.bohemiancoding.com/sketch -->
    <title>cr-landing-iconos-prestamo-carro</title>
    <desc>Created with Sketch.</desc>
    <defs></defs>
    <g id="Page-1" stroke="none" stroke-width="1" fill="none" fill-rule="evenodd">
        <g id="Desktop-HD-1" transform="translate(-150.000000, -718.000000)">
            <g id="cr-landing-iconos-prestamo-carro" transform="translate(149.500000, 718.000000)">
                <circle id="Oval-Copy-6" fill="#EDEDED" style="mix-blend-mode: multiply;" cx="47.8535156" cy="47.9160156" r="47.3535156"></circle>
                <path d="M91.639,44.941 C90.428,43.729 88.814,43.046 87.095,43.018 C86.468,43.006 85.854,43.088 85.27,43.249 L81.272,45.744 C81.272,45.86 81.287,45.973 81.306,46.084 L72.779,54.609 C71.625,51.951 68.977,50.086 65.898,50.086 L36.078,50.086 C34.076,50.086 32.192,50.866 30.775,52.283 L15.044,68.013 C14.263,68.794 14.263,70.06 15.044,70.841 C15.434,71.232 15.946,71.427 16.458,71.427 C16.97,71.427 17.481,71.232 17.872,70.841 L33.603,55.111 C34.265,54.45 35.144,54.086 36.078,54.086 L65.897,54.086 C67.827,54.086 69.397,55.656 69.397,57.586 C69.397,59.516 67.827,61.086 65.897,61.086 L48.491,61.086 C47.387,61.086 46.491,61.982 46.491,63.086 C46.491,64.19 47.387,65.086 48.491,65.086 L65.897,65.086 C69.156,65.086 71.928,62.993 72.96,60.084 L85.426,47.619 C85.818,47.226 86.42,47.027 87.029,47.017 C87.705,47.029 88.338,47.295 88.811,47.769 C89.284,48.242 89.543,48.87 89.543,49.538 C89.543,50.205 89.283,50.833 88.811,51.305 L64.914,75.202 C64.441,75.675 63.813,75.935 63.145,75.935 L32.953,75.935 C32.423,75.935 31.914,76.146 31.539,76.521 L16.058,92.001 C15.277,92.782 15.277,94.048 16.058,94.829 C16.449,95.22 16.96,95.415 17.472,95.415 C17.984,95.415 18.496,95.22 18.886,94.829 L33.782,79.934 L63.146,79.934 C64.881,79.934 66.514,79.258 67.742,78.03 L91.639,54.133 C92.867,52.905 93.543,51.274 93.543,49.537 C93.543,47.8 92.867,46.169 91.639,44.941 Z" id="Shape" fill="#F45352" fill-rule="nonzero"></path>
                <path d="M85.9833466,26.8167511 L83.0602087,18.2909323 C83.0602087,18.209734 83.0602087,18.209734 82.9790104,18.1285358 C81.7610363,15.2865962 79.000295,13.4190358 75.9147606,13.4190358 L51.2304852,13.4190358 C44.8970198,13.4190358 39.9439251,15.6925875 34.6660373,20.8892771 L28.4137701,26.2483632 L22.161503,26.2483632 C16.5588221,26.2483632 12.0117188,30.7954665 12.0117188,36.3981475 L12.0117188,41.1076474 C12.0117188,44.0307852 14.3664687,46.3855352 17.2896066,46.3855352 L21.1871237,46.3855352 C22.3238996,50.0394575 25.7342271,52.7190006 29.7129425,52.7190006 C33.7728562,52.7190006 37.1831838,50.0394575 38.2387613,46.3855352 L59.5127092,46.3855352 C60.649485,50.0394575 64.0598125,52.7190006 68.038528,52.7190006 C72.0984417,52.7190006 75.5087692,50.0394575 76.5643468,46.3855352 L83.4662001,46.3855352 C86.389338,46.3855352 88.7440879,44.0307852 88.7440879,41.1076474 L88.7440879,31.6074493 C88.9064845,29.4962941 87.7697086,27.7099321 85.9833466,26.8167511 Z M79.2438898,19.671303 L81.5174415,26.3295615 L69.4188986,26.3295615 L68.2009245,17.5601478 L75.9147606,17.5601478 C77.3763295,17.5601478 78.6755019,18.3721306 79.2438898,19.671303 Z M54.5596145,17.5601478 L64.0598125,17.5601478 L65.2777867,26.3295615 L52.1236662,26.3295615 L54.5596145,17.5601478 Z M37.4267786,23.9748115 L37.5079769,23.8936132 C41.7302871,19.671303 45.546606,17.7225444 50.3373042,17.5601478 L47.8201577,26.3295615 L34.6660373,26.3295615 L37.4267786,23.9748115 Z M29.7941408,48.7402851 C27.1145978,48.7402851 24.9222444,46.5479317 24.9222444,43.8683887 C24.9222444,41.1888456 27.1145978,38.9964922 29.7941408,38.9964922 C32.4736839,38.9964922 34.6660373,41.1888456 34.6660373,43.8683887 C34.6660373,46.5479317 32.4736839,48.7402851 29.7941408,48.7402851 Z M68.2009245,48.7402851 C65.5213815,48.7402851 63.3290281,46.5479317 63.3290281,43.8683887 C63.3290281,41.1888456 65.5213815,38.9964922 68.2009245,38.9964922 C70.8804676,38.9964922 73.072821,41.1888456 73.072821,43.8683887 C73.072821,46.5479317 70.8804676,48.7402851 68.2009245,48.7402851 Z M84.8465708,41.1888456 C84.8465708,41.8384318 84.2781828,42.4068198 83.6285966,42.4068198 L76.9703381,42.4068198 C76.2395537,38.1845095 72.5856313,34.9365785 68.1197263,34.9365785 C63.6538212,34.9365785 59.9998988,38.1845095 59.2691144,42.4068198 L38.5635544,42.4068198 C37.83277,38.1845095 34.1788476,34.9365785 29.7129425,34.9365785 C25.2470375,34.9365785 21.5931151,38.1845095 20.8623306,42.4068198 L17.3708049,42.4068198 C16.7212187,42.4068198 16.1528307,41.8384318 16.1528307,41.1888456 L16.1528307,36.4793457 C16.1528307,33.1502165 18.9135721,30.3894752 22.2427013,30.3894752 L83.7097949,30.3894752 C84.3593811,30.3894752 84.927769,30.9578631 84.927769,31.6074493 L84.927769,41.1888456 L84.8465708,41.1888456 Z" id="Shape" fill="#F45352" fill-rule="nonzero" transform="translate(50.385597, 33.069018) scale(-1, 1) translate(-50.385597, -33.069018) "></path>
            </g>
        </g>
    </g>
</svg>