<?xml version="1.0" encoding="UTF-8"?>
<svg width="40px" height="41px" viewBox="0 0 40 41" version="1.1" xmlns="http://www.w3.org/2000/svg" xmlns:xlink="http://www.w3.org/1999/xlink">
    <!-- Generator: Sketch 42 (36781) - http://www.bohemiancoding.com/sketch -->
    <title>cr-landing-iconos-ahorros-blanco</title>
    <desc>Created with Sketch.</desc>
    <defs></defs>
    <g id="Page-1" stroke="none" stroke-width="1" fill="none" fill-rule="evenodd">
        <g id="cr-landing-iconos-ahorros-blanco" transform="translate(0.796875, 0.871094)" stroke="#FFFFFF" stroke-width="0.5" fill="#FFFFFF" fill-rule="nonzero">
            <path d="M22.2819207,19.8708174 C21.5336473,19.8708174 20.9516568,19.3303976 20.9516568,18.7068364 C20.9516568,18.0832752 21.5336473,17.5428555 22.2819207,17.5428555 C23.0301942,17.5428555 23.6121846,18.0832752 23.6121846,18.7068364 C23.6121846,19.0809731 23.9031799,19.4135391 24.3188873,19.4135391 C24.6930241,19.4135391 25.0255901,19.1225439 25.0255901,18.7068364 C25.0255901,17.5012847 24.1526044,16.5035868 22.9886234,16.2125916 L22.9886234,15.0070399 C22.9886234,14.6329032 22.6976282,14.3003372 22.2819207,14.3003372 C21.907784,14.3003372 21.575218,14.5913324 21.575218,15.0070399 L21.575218,16.2125916 C20.4112371,16.5035868 19.5382514,17.5012847 19.5382514,18.7068364 C19.5382514,20.1202418 20.7438031,21.2842228 22.2819207,21.2842228 C23.0301942,21.2842228 23.6121846,21.8246425 23.6121846,22.4482037 C23.6121846,23.0717649 23.0301942,23.6121846 22.2819207,23.6121846 C21.5336473,23.6121846 20.9516568,23.0717649 20.9516568,22.4482037 C20.9516568,22.074067 20.6190908,21.741501 20.2449541,21.741501 C19.8708174,21.741501 19.5382514,22.0324962 19.5382514,22.4482037 C19.5382514,23.6537554 20.4112371,24.6514533 21.575218,24.9424486 L21.575218,26.1480002 C21.575218,26.522137 21.8662132,26.8547029 22.2819207,26.8547029 C22.6560574,26.8547029 22.9886234,26.5637077 22.9886234,26.1480002 L22.9886234,24.9424486 C24.1526044,24.6514533 25.0255901,23.6537554 25.0255901,22.4482037 C25.0255901,21.0347983 23.7784676,19.8708174 22.2819207,19.8708174 Z" id="Shape"></path>
            <path d="M22.2819207,28.5591036 C17.8754215,28.5591036 14.3003372,24.9840193 14.3003372,20.5775201 C14.3003372,16.1710208 17.8754215,12.5959365 22.2819207,12.5959365 C26.68842,12.5959365 30.2635043,16.1710208 30.2635043,20.5775201 C30.2635043,24.9840193 26.68842,28.5591036 22.2819207,28.5591036 Z M22.2819207,13.9677712 C18.6652657,13.9677712 15.6721718,16.9192943 15.6721718,20.5775201 C15.6721718,24.2357459 18.6236949,27.1872689 22.2819207,27.1872689 C25.8985758,27.1872689 28.8916696,24.2357459 28.8916696,20.5775201 C28.8916696,16.9192943 25.9401465,13.9677712 22.2819207,13.9677712 Z" id="Shape"></path>
            <path d="M34.0048715,33.3813103 C33.5891641,32.2589001 32.0510464,30.305075 29.2242356,30.9286362 L29.1826648,30.9286362 L23.2796187,32.6330369 C22.8639112,31.2612022 21.575218,30.2635043 20.0786711,30.2635043 L17.0440065,30.2635043 C16.4204453,30.2635043 15.7968841,30.0972213 15.2564644,29.806226 C14.0924834,29.1410941 11.7645216,28.0186839 9.06242298,28.2681084 L9.02085223,28.2681084 C8.93771073,28.2681084 7.27488083,28.5591036 5.94461691,28.8916696 L5.94461691,28.4343914 C5.94461691,28.0602546 5.65362167,27.7276886 5.2379142,27.7276886 L0.748273457,27.7276886 C0.374136728,27.7276886 0.0415707476,28.0186839 0.0415707476,28.4343914 L0.0415707476,37.6215266 C0.0415707476,37.9956633 0.332565981,38.3282293 0.748273457,38.3282293 L5.1547727,38.3282293 C5.52890943,38.3282293 5.86147541,38.0372341 5.86147541,37.6215266 L5.86147541,37.2058191 L7.94001279,37.6215266 L17.127148,39.3259272 C17.8754215,39.4922102 18.6236949,39.5753517 19.3719684,39.5753517 C20.5775201,39.5753517 21.8246425,39.367498 22.9886234,38.9102198 L23.0301942,38.9102198 L33.6723056,34.254296 C33.9633008,34.1295838 34.1295838,33.7138763 34.0048715,33.3813103 Z M4.44806999,36.9563946 L1.45497617,36.9563946 L1.45497617,29.1410941 L4.48964074,29.1410941 L4.48964074,36.9563946 L4.44806999,36.9563946 Z M22.4482037,37.6630973 C20.8269445,38.2450878 19.0809731,38.3698 17.3765725,37.9956633 L8.18943728,36.2912627 L5.86147541,35.8339844 L5.86147541,30.305075 L5.90304616,30.305075 C7.10859784,30.0140798 8.89613999,29.6815138 9.14556447,29.639943 C11.4319556,29.4320893 13.4689222,30.3882165 14.5081909,30.970207 C15.2564644,31.3859144 16.1294501,31.6353389 17.0024358,31.6353389 L20.0371003,31.6353389 C21.1179398,31.6353389 22.0324962,32.5083246 22.0324962,33.5891641 L22.0324962,33.7970178 C22.0324962,33.8385885 21.9909255,33.8801593 21.9493547,33.8801593 L13.7183467,33.8801593 C13.34421,33.8801593 13.011644,34.1711545 13.011644,34.586862 C13.011644,35.0025695 13.3026392,35.3351355 13.7183467,35.3351355 L21.907784,35.3351355 C22.6560574,35.3351355 23.2796187,34.7947157 23.3627602,34.088013 L29.5152308,32.3004709 C31.0533485,31.9679049 31.9263342,32.7161784 32.3836124,33.2981688 L22.4482037,37.6630973 Z" id="Shape"></path>
            <path d="M4.24021626,6.52660737 C4.65592373,7.64901756 6.19404139,9.6028427 9.02085223,8.97928148 L9.06242298,8.97928148 L14.9654691,7.27488083 C15.3811766,8.6467155 16.6698698,9.64441344 18.1664167,9.64441344 L21.2010813,9.64441344 C21.8246425,9.64441344 22.4482037,9.81069643 22.9886234,10.1016917 C24.1526044,10.7668236 26.4805662,11.8892338 29.1826648,11.6398093 L29.2242356,11.6398093 C29.3073771,11.6398093 30.970207,11.3488141 32.3004709,11.0162481 L32.3004709,11.4735263 C32.3004709,11.8476631 32.5914661,12.180229 33.0071736,12.180229 L37.4136728,12.180229 C37.7878096,12.180229 38.1203755,11.8892338 38.1203755,11.4735263 L38.1203755,2.24482037 C38.1203755,1.87068364 37.8293803,1.53811766 37.4136728,1.53811766 L33.0903151,1.53811766 C32.7161784,1.53811766 32.3836124,1.82911289 32.3836124,2.24482037 L32.3836124,2.66052785 L30.305075,2.24482037 L21.1595105,0.540419719 C20.4112371,0.374136728 19.6629636,0.290995233 18.9146902,0.290995233 C17.7091385,0.290995233 16.462016,0.498848971 15.2980351,0.956127195 L15.2564644,0.956127195 L4.61435298,5.65362167 C4.281787,5.77833392 4.11550401,6.19404139 4.24021626,6.52660737 Z M33.7970178,2.95152308 L36.8316824,2.95152308 L36.8316824,10.7668236 L33.7970178,10.7668236 L33.7970178,2.95152308 Z M15.7968841,2.24482037 C17.4181432,1.6628299 19.1641146,1.53811766 20.8685153,1.91225439 L30.0556505,3.61665504 L32.3836124,4.07393326 L32.3836124,9.56127195 L32.3420416,9.56127195 C31.13649,9.85226718 29.3489478,10.1848332 29.0995233,10.2264039 C26.8131322,10.4342576 24.7761656,9.47813045 23.7368969,8.89613999 C22.9886234,8.48043251 22.1156377,8.23100802 21.242652,8.23100802 L18.2079874,8.23100802 C17.127148,8.23100802 16.2125916,7.35802233 16.2125916,6.27718289 L16.2125916,6.06932915 C16.2125916,6.0277584 16.2541623,5.98618765 16.2957331,5.98618765 L24.5267411,5.98618765 C24.9008778,5.98618765 25.2334438,5.69519242 25.2334438,5.27948495 C25.2334438,4.86377747 24.9424486,4.57278224 24.5267411,4.57278224 L16.3373038,4.57278224 C15.5890303,4.57278224 14.9654691,5.11320195 14.8823276,5.81990466 L8.729857,7.60744681 C7.19173933,7.94001279 6.31875364,7.19173933 5.86147541,6.60974887 L15.7968841,2.24482037 Z" id="Shape"></path>
        </g>
    </g>
</svg>