<?xml version="1.0" encoding="UTF-8"?>
<svg width="27px" height="14px" viewBox="0 0 27 14" version="1.1" xmlns="http://www.w3.org/2000/svg" xmlns:xlink="http://www.w3.org/1999/xlink">
    <!-- Generator: Sketch 42 (36781) - http://www.bohemiancoding.com/sketch -->
    <title>cr-landing-iconos-prestamos-pers-blanco</title>
    <desc>Created with Sketch.</desc>
    <defs></defs>
    <g id="Page-1" stroke="none" stroke-width="1" fill="none" fill-rule="evenodd">
        <g id="iPhone-7---2" transform="translate(-21.000000, -217.000000)" fill-rule="nonzero" fill="#FFFFFF">
            <g id="cr-landing-iconos-prestamos-pers-blanco" transform="translate(21.475000, 217.000000)">
                <g id="Group" transform="translate(0.272250, 0.202500)">
                    <path d="M16.5991494,9.53308949 L16.5991494,8.9848607 C17.4519498,8.92394639 18.1524643,8.31480329 18.1524643,7.55337442 L18.1524643,7.49246011 C18.1524643,7.1574314 18.0001786,6.70057408 17.2082925,6.30463107 L17.1473782,6.27417391 L17.0560067,6.27417391 L17.0560067,6.27417391 L16.2336636,6.09143098 L15.2285775,5.90868805 C14.9849202,5.75640228 14.9240059,5.66503081 14.9240059,5.66503081 L14.9240059,5.66503081 L14.9240059,5.6041165 C14.9240059,5.39091642 15.1981203,5.17771633 15.5636062,5.17771633 L16.4773208,5.17771633 C16.8428067,5.17771633 17.1169211,5.39091642 17.1169211,5.6041165 L18.1524643,5.6041165 C18.1524643,4.84268763 17.4824069,4.23354453 16.5991494,4.17263022 L16.5991494,3.68531574 L15.5636062,3.68531574 L15.5636062,4.17263022 L15.533149,4.17263022 C14.6194344,4.17263022 13.8580055,4.81223048 13.8580055,5.63457366 L13.8580055,5.69548797 C13.8580055,6.15234529 14.162577,6.57874546 14.8021773,6.88331701 L14.8630916,6.91377416 L15.2285775,6.97468847 L16.7818924,7.27926002 C17.0255496,7.40108864 17.1169211,7.52291726 17.1169211,7.52291726 L17.1169211,7.58383157 C17.1169211,7.79703166 16.8428067,8.01023174 16.4773208,8.01023174 L15.5636062,8.01023174 C15.1981203,8.01023174 14.9240059,7.79703166 14.9240059,7.58383157 L13.8884626,7.58383157 C13.8884626,8.3757176 14.6498915,9.04577501 15.5636062,9.04577501 L15.5940633,9.04577501 L15.5940633,9.56354664 L16.5991494,9.56354664 L16.5991494,9.53308949 Z" id="Shape"></path>
                    <path d="M21.0763512,6.60920262 C21.0763512,3.80714436 18.7920646,1.5533149 16.0204635,1.5533149 C13.2488624,1.5533149 10.9645758,3.80714436 10.9645758,6.60920262 C10.9645758,9.41126087 13.2488624,11.6650903 16.0204635,11.6650903 C18.7920646,11.6650903 21.0763512,9.41126087 21.0763512,6.60920262 Z M12.000119,6.60920262 C12.000119,4.38583031 13.7970912,2.58885817 16.0204635,2.58885817 C18.2438358,2.58885817 20.0408079,4.38583031 20.0408079,6.60920262 C20.0408079,8.83257492 18.2438358,10.6295471 16.0204635,10.6295471 C13.7970912,10.6295471 12.000119,8.83257492 12.000119,6.60920262 Z" id="Shape"></path>
                    <path d="M25.2185243,0.152285775 L6.8224027,0.152285775 C6.54828831,0.152285775 6.30463107,0.395943014 6.30463107,0.670057408 L6.30463107,3.16754411 L3.95943014,3.16754411 C3.68531574,3.16754411 3.4416585,3.41120135 3.4416585,3.68531574 C3.4416585,3.95943014 3.68531574,4.20308738 3.95943014,4.20308738 L6.30463107,4.20308738 L6.30463107,7.55337442 L3.74623005,7.55337442 C3.47211566,7.55337442 3.22845842,7.79703166 3.22845842,8.07114605 C3.22845842,8.34526045 3.47211566,8.58891768 3.74623005,8.58891768 L9.01531785,8.58891768 C9.28943225,8.58891768 9.53308949,8.34526045 9.53308949,8.07114605 C9.53308949,7.79703166 9.28943225,7.55337442 9.01531785,7.55337442 L7.34017433,7.55337442 L7.34017433,4.02034445 C8.80211777,3.80714436 9.9290325,2.64977248 10.1726897,1.18782904 L21.8682372,1.18782904 C22.0814373,2.64977248 23.2388092,3.77668721 24.7007526,4.02034445 L24.7007526,9.19806078 C23.2388092,9.41126087 22.1118945,10.5686328 21.8682372,12.0305762 L10.1726897,12.0305762 C9.9290325,10.416347 8.52800337,9.16760363 6.8224027,9.16760363 C6.54828831,9.16760363 6.30463107,9.41126087 6.30463107,9.68537526 L6.30463107,12.5483478 C6.30463107,12.8224622 6.54828831,13.0661195 6.8224027,13.0661195 L25.1880671,13.0661195 C25.4621815,13.0661195 25.7058387,12.8224622 25.7058387,12.5483478 L25.7058387,0.670057408 C25.7362959,0.395943014 25.4926387,0.152285775 25.2185243,0.152285775 Z M7.34017433,2.95434403 L7.34017433,1.18782904 L9.13714647,1.18782904 C8.92394639,2.07108653 8.22343183,2.7716011 7.34017433,2.95434403 Z M22.9037805,1.18782904 L24.6702955,1.18782904 L24.6702955,2.95434403 C23.8174951,2.7716011 23.1169806,2.07108653 22.9037805,1.18782904 Z M7.34017433,10.233604 C8.22343183,10.4468041 8.92394639,11.1168615 9.10668932,12.000119 L7.34017433,12.000119 L7.34017433,10.233604 L7.34017433,10.233604 Z M22.9037805,12.000119 C23.1169806,11.1168615 23.787038,10.416347 24.6702955,10.233604 L24.6702955,12.000119 L22.9037805,12.000119 Z" id="Shape"></path>
                    <path d="M5.54320219,6.00005952 C5.54320219,5.72594512 5.29954495,5.48228788 5.02543056,5.48228788 L0.639600253,5.48228788 C0.365485859,5.48228788 0.12182862,5.72594512 0.12182862,6.00005952 C0.12182862,6.27417391 0.365485859,6.51783115 0.639600253,6.51783115 L5.02543056,6.51783115 C5.29954495,6.51783115 5.54320219,6.27417391 5.54320219,6.00005952 Z" id="Shape"></path>
                    <path d="M2.01017222,4.17263022 L2.37565808,4.17263022 C2.64977248,4.17263022 2.89342972,3.92897298 2.89342972,3.65485859 C2.89342972,3.38074419 2.64977248,3.13708696 2.37565808,3.13708696 L2.01017222,3.13708696 C1.73605783,3.13708696 1.49240059,3.38074419 1.49240059,3.65485859 C1.49240059,3.92897298 1.73605783,4.17263022 2.01017222,4.17263022 Z" id="Shape"></path>
                </g>
            </g>
        </g>
    </g>
</svg>