<?xml version="1.0" encoding="UTF-8"?>
<svg width="58px" height="35px" viewBox="0 0 58 35" version="1.1" xmlns="http://www.w3.org/2000/svg" xmlns:xlink="http://www.w3.org/1999/xlink">
    <!-- Generator: Sketch 42 (36781) - http://www.bohemiancoding.com/sketch -->
    <title>cr-landing-iconos-seguros-blanco</title>
    <desc>Created with Sketch.</desc>
    <defs></defs>
    <g id="Page-1" stroke="none" stroke-width="1" fill="none" fill-rule="evenodd">
        <g id="cr-landing-iconos-seguros-blanco" transform="translate(0.796875, 0.352961)" stroke="#FFFFFF" fill="#FFFFFF" fill-rule="nonzero">
            <g id="Group" transform="translate(0.337158, 1.624780)">
                <path d="M14.6313894,29.2627789 C14.4576417,29.2627789 14.2924289,29.1890123 14.1765971,29.0597684 C13.0859489,27.8398763 12.0154189,26.6620494 10.9820771,25.5256782 C4.84664776,18.7781691 0,13.4486855 0,9.17327154 C0,4.11507828 3.70844758,-3.55271368e-15 8.26734468,-3.55271368e-15 C10.7467556,-3.55271368e-15 13.0676597,1.22476923 14.6313894,3.3182772 C16.1938999,1.22476923 18.5141944,-3.55271368e-15 20.9948246,-3.55271368e-15 C25.5537217,-3.55271368e-15 29.2627789,4.11507828 29.2627789,9.17327154 C29.2627789,13.4468565 24.4161311,18.7775594 18.2800922,25.5256782 C17.2461407,26.6626591 16.1756107,27.8404859 15.0855722,29.0597684 C14.97035,29.1890123 14.8051372,29.2627789 14.6313894,29.2627789 Z M8.26734468,1.21928245 C4.38088186,1.21928245 1.21928245,4.78751256 1.21928245,9.17327154 C1.21928245,12.9768232 5.92571273,18.1526772 11.8843461,24.7057107 C12.7756416,25.6860138 13.6955902,26.6980183 14.6313894,27.7405048 C15.5665791,26.6986279 16.4859181,25.6878427 17.3778232,24.7063204 C23.3364565,18.1514579 28.0434964,12.9756039 28.0434964,9.17327154 C28.0434964,4.78751256 24.8812874,1.21928245 20.9948246,1.21928245 C18.6531926,1.21928245 16.4700674,2.53001109 15.1544616,4.72532915 C14.9349908,5.09294281 14.329617,5.09355245 14.1089269,4.72532915 C12.7914922,2.53001109 10.608367,1.21928245 8.26734468,1.21928245 Z" id="Shape" stroke-width="0.7"></path>
                <path d="M16.02381,24.3167596 C15.7074062,24.3082246 15.458063,24.0826574 15.4190459,23.7857621 L13.8321498,11.5447759 L12.2166005,19.7651782 C12.1623425,20.0413457 11.9258017,20.2443562 11.6447571,20.2571587 C11.3618835,20.2699612 11.1107114,20.0882881 11.0326773,19.8176074 L10.0810273,16.5292026 L0.609641227,16.5292026 C0.27311927,16.5292026 0,16.256693 0,15.9195614 C0,15.5824298 0.27311927,15.3099201 0.609641227,15.3099201 L10.5394775,15.3099201 C10.8107679,15.3099201 11.0497472,15.4891547 11.1247331,15.7500811 L11.5051492,17.0632483 L13.3578489,7.63697565 C13.4157648,7.34373822 13.6785202,7.12914451 13.9760251,7.14499518 C14.2747493,7.15474944 14.5222637,7.37970705 14.5606711,7.67599269 L16.1311069,19.7932217 L17.6265568,11.7496154 C17.6789859,11.4673515 17.9216232,11.2594638 18.2087642,11.2515385 C18.4891991,11.230201 18.7495159,11.4362598 18.8177958,11.7154755 L19.7828578,15.639736 L22.1135162,15.639736 C22.4506478,15.639736 22.7231575,15.9122457 22.7231575,16.2493773 C22.7231575,16.5865089 22.4506478,16.8590185 22.1135162,16.8590185 L19.3048991,16.8590185 C19.0244641,16.8590185 18.779998,16.6675911 18.7129375,16.3944719 L18.3087453,14.7514888 L16.6230873,23.8180731 C16.5694389,24.1076527 16.3170474,24.3167596 16.02381,24.3167596 Z" id="Shape"></path>
            </g>
            <g id="Group-3" transform="translate(23.427664, 0.205506)">
                <path d="M26.6687801,5.71580439 C26.6687801,5.43001417 26.8593069,5.23948735 27.1450971,5.23948735 L27.6214141,5.23948735 C28.9551018,5.23948735 30.0029993,6.28738482 30.0029993,7.62107251 L30.0029993,8.09738955 C30.0029993,8.38317977 29.8124725,8.57370658 29.5266823,8.57370658 C29.240892,8.57370658 29.0503652,8.38317977 29.0503652,8.09738955 L29.0503652,7.62107251 C29.0503652,6.81133356 28.4311531,6.19212142 27.6214141,6.19212142 L27.1450971,6.19212142 C26.8593069,6.19212142 26.6687801,6.0015946 26.6687801,5.71580439 Z M29.6219457,27.4834928 C30.1935261,28.7695487 30.2411578,30.2932869 29.7172091,31.5798192 L29.5266823,32.0561363 C29.4052214,32.4200425 28.8993727,32.4243293 28.7169433,32.1513997 L19.2858661,20.1958422 L12.3792691,25.9592783 L12.3792691,29.3887609 C12.3792691,29.9127096 12.1887423,30.3890267 11.9029521,30.817712 L10.8550546,32.1990314 C10.6507146,32.5067322 10.151058,32.4205188 10.0453156,32.1042443 L8.80689135,28.7700251 L5.94898916,30.0084493 C5.37693241,30.2523237 5.1111475,29.6831248 5.28214532,29.3416055 L6.5205696,26.4837033 L3.18635037,25.245279 C2.88293643,25.1442998 2.74289922,24.6679828 3.09108697,24.4355401 L4.47240636,23.3876426 C4.90109169,23.1018524 5.37740872,22.9113256 5.90135746,22.9113256 L9.33084009,22.9113256 L15.0942762,16.0047286 L3.04345526,6.57317504 C2.73051497,6.36454818 2.84816528,5.86012845 3.13871867,5.76343609 L3.6150357,5.57290928 C4.94872339,5.04896054 6.42530619,5.09659224 7.71136218,5.66817268 L11.0932131,7.24001889 L12.712691,5.62054098 C12.9032178,5.43001417 13.189008,5.43001417 13.3795349,5.62054098 L14.3321689,6.57317504 C14.524601,6.76655976 14.5255536,7.04615786 14.3321689,7.24001889 L13.3319032,8.28791636 L14.6655908,8.9071285 L16.2850688,7.28765059 C16.4755956,7.09712378 16.7613858,7.09712378 16.9519126,7.28765059 L17.9045467,8.24028466 C18.0950735,8.43081147 18.0950735,8.71660169 17.9045467,8.9071285 L16.8566492,9.95502597 L19.0953392,11.0029234 L22.9058755,6.43027993 C24.8111436,4.14395818 27.6214141,2.85790219 30.5745797,2.85790219 C31.5272138,2.85790219 32.3369527,3.62000944 32.3369527,4.62027521 C32.3369527,7.57344081 31.0508968,10.3837113 28.764575,12.2889794 L24.1914552,16.0995157 L25.2393526,18.3382057 L26.2872501,17.2903083 C26.4773006,17.0997815 26.7635671,17.0997815 26.9536176,17.2903083 L27.9062517,18.2429423 C28.0977312,18.4344218 28.1015417,18.7144962 27.9062517,18.9097862 L26.2877264,20.5292641 L26.9069386,21.8634281 L27.954836,20.8155306 C28.1448865,20.6250038 28.4311531,20.6250038 28.6212036,20.8155306 L29.5738376,21.7681647 C29.7643645,21.9582152 29.7643645,22.2444817 29.5738376,22.4345322 L27.954836,24.0540101 L29.6219457,27.4834928 Z M27.3832556,22.8155858 L27.5737824,23.1966395 L28.6212036,22.148742 L28.3354134,21.8629518 L27.3832556,22.8155858 Z M25.716146,19.2432081 L25.9066728,19.6242617 L26.9545703,18.5763643 L26.6687801,18.290574 L25.716146,19.2432081 Z M15.6182249,9.33581383 L15.9992785,9.52634064 L16.9519126,8.57370658 L16.6661224,8.28791636 L15.6182249,9.33581383 Z M12.0458472,7.66870422 L12.4269008,7.85923103 L13.3795349,6.90659697 L13.0937446,6.62080675 L12.0458472,7.66870422 Z M15.6658566,15.1945133 L18.5237588,11.7650307 L7.33030855,6.52554334 C6.37767449,6.09685801 5.28214532,6.04922631 4.28187955,6.33501653 L15.6658566,15.1945133 Z M4.32951125,24.6255906 L6.99688663,25.6258563 L8.52110113,23.8158516 L5.90135746,23.8158516 C5.61556724,23.8158516 5.28214532,23.911115 5.0439868,24.1016418 L4.32951125,24.6255906 Z M6.61583301,28.6266536 L8.80689135,27.6740196 L28.1929946,11.5268722 C30.2411578,9.81213086 31.4319504,7.28765059 31.4319504,4.57264351 C31.4319504,4.14395818 31.0985285,3.76290455 30.6222114,3.76290455 C27.954836,3.76290455 25.3827241,4.95369713 23.6679828,7.00186037 L7.56846707,26.4355953 L6.61583301,28.6266536 Z M9.61663031,28.2456 L10.6168961,30.9134517 L11.1408448,30.1989762 C11.3313716,29.9608176 11.426635,29.6273957 11.426635,29.3411292 L11.426635,26.7213855 L9.61663031,28.2456 Z M28.7169433,27.8645464 L23.4774559,16.6710961 L20.0479733,19.5289983 L28.9074701,30.9606071 C29.240892,29.9603413 29.1932603,28.8648121 28.7169433,27.8645464 Z M12.236374,23.6729565 C12.4269008,23.4824297 12.4269008,23.1966395 12.236374,23.0061127 C12.0458472,22.8160622 11.760057,22.8160622 11.5695301,23.0061127 L8.23531092,26.3403319 C8.0447841,26.5308587 8.0447841,26.8166489 8.23531092,27.0071757 C8.41297717,27.184842 8.70400687,27.2057999 8.90215476,27.0071757 L12.236374,23.6729565 Z" id="Shape" transform="translate(17.597427, 17.624196) rotate(-12.000000) translate(-17.597427, -17.624196) "></path>
            </g>
        </g>
    </g>
</svg>