<?xml version="1.0" encoding="UTF-8"?>
<svg width="18px" height="23px" viewBox="0 0 18 23" version="1.1" xmlns="http://www.w3.org/2000/svg" xmlns:xlink="http://www.w3.org/1999/xlink">
    <!-- Generator: Sketch 42 (36781) - http://www.bohemiancoding.com/sketch -->
    <title>cr-landing-iconos-promociones-blanco</title>
    <desc>Created with Sketch.</desc>
    <defs></defs>
    <g id="Page-1" stroke="none" stroke-width="1" fill="none" fill-rule="evenodd">
        <g id="iPhone-7---2" transform="translate(-27.000000, -322.000000)">
            <g id="cr-landing-iconos-promociones-blanco" transform="translate(26.925000, 322.653320)">
                <path d="M7.95364636,0.0872932894 C5.93842944,0.0872932894 4.26538438,1.54346682 3.92428501,3.4614127 L2.16944189,3.4614127 C1.37666844,3.4614127 0.748335099,4.11888156 0.723390716,4.89240084 L0.241373657,19.8349297 C0.215238692,20.645827 0.894656197,21.2960439 1.68742483,21.2960439 L11.199742,21.2960439 C11.8793861,21.8940101 12.7650201,22.260078 13.7378511,22.260078 C15.8618351,22.260078 17.5939875,20.5279256 17.5939875,18.4039415 C17.5939875,16.9200038 16.7492044,15.6289452 15.515289,14.984633 L15.1839022,4.89240084 C15.158982,4.11885987 14.5306245,3.4614127 13.7378511,3.4614127 L11.9830198,3.4614127 C11.6418722,1.54346682 9.96886328,0.0872932894 7.95364636,0.0872932894 Z M7.95364636,1.05132741 C9.44707981,1.05132741 10.6804892,2.07344458 11.0038985,3.4614127 L4.90339421,3.4614127 C5.22680355,2.07344458 6.4602129,1.05132741 7.95364636,1.05132741 Z M2.16944189,4.42544682 L3.85650136,4.42544682 L3.85650136,5.49492217 C3.43275052,5.68329443 3.13347577,6.10573418 3.13347577,6.59452358 C3.13347577,7.25433263 3.67876239,7.79956623 4.33851842,7.79956623 C4.99827927,7.79956623 5.54356106,7.25433263 5.54356106,6.59452358 C5.54356106,6.10573418 5.24427667,5.68329443 4.82053548,5.49492217 L4.82053548,4.42544682 L11.0867572,4.42544682 L11.0867572,5.49492217 C10.663016,5.68329443 10.3637317,6.10573418 10.3637317,6.59452358 C10.3637317,7.25433263 10.9090134,7.79956623 11.5687743,7.79956623 C12.2285351,7.79956623 12.7738169,7.25433263 12.7738169,6.59452358 C12.7738169,6.10573418 12.4745326,5.68329443 12.0507914,5.49492217 L12.0507914,4.42544682 L13.7378511,4.42544682 C14.0129623,4.42544682 14.2103965,4.6284724 14.2198681,4.92252691 L14.5361918,14.6306638 C14.2783127,14.575979 14.0116127,14.5478051 13.7378511,14.5478051 C11.613867,14.5478051 9.88171459,16.2799575 9.88171459,18.4039415 C9.88171459,19.1050112 10.0721595,19.7645311 10.4013772,20.3320098 L1.68742483,20.3320098 C1.41232324,20.3320098 1.19713395,20.121778 1.20540777,19.8650557 L1.68742483,4.92252691 C1.69692057,4.6284483 1.89434512,4.42544682 2.16944189,4.42544682 L2.16944189,4.42544682 Z M4.33851842,6.35351505 C4.47732005,6.35351505 4.57952695,6.45570267 4.57952695,6.59452358 C4.57952695,6.7333445 4.47732005,6.83553211 4.33851842,6.83553211 C4.19971678,6.83553211 4.09750989,6.7333445 4.09750989,6.59452358 C4.09750989,6.45570267 4.19971678,6.35351505 4.33851842,6.35351505 Z M11.5687743,6.35351505 C11.7075711,6.35351505 11.8097828,6.45570267 11.8097828,6.59452358 C11.8097828,6.7333445 11.7075711,6.83553211 11.5687743,6.83553211 C11.4299775,6.83553211 11.3277658,6.7333445 11.3277658,6.59452358 C11.3277658,6.45570267 11.4299775,6.35351505 11.5687743,6.35351505 Z" id="Shape" fill="#FFFFFF" fill-rule="nonzero"></path>
                <text id="%" font-family="GothamRounded-Bold, Gotham Rounded" font-size="6.2208" font-weight="bold" fill="#887A72">
                    <tspan x="11.4429169" y="20.6665572">%</tspan>
                </text>
            </g>
        </g>
    </g>
</svg>