<?xml version="1.0" encoding="UTF-8"?>
<svg width="22px" height="23px" viewBox="0 0 22 23" version="1.1" xmlns="http://www.w3.org/2000/svg" xmlns:xlink="http://www.w3.org/1999/xlink">
    <!-- Generator: Sketch 42 (36781) - http://www.bohemiancoding.com/sketch -->
    <title>cr-landing-iconos-prestamo-carro-blanco</title>
    <desc>Created with Sketch.</desc>
    <defs></defs>
    <g id="Page-1" stroke="none" stroke-width="1" fill="none" fill-rule="evenodd">
        <g id="iPhone-7---2" transform="translate(-27.000000, -253.000000)" fill-rule="nonzero" fill="#FFFFFF">
            <g id="cr-landing-iconos-prestamo-carro-blanco" transform="translate(26.925000, 253.276154)">
                <g id="noun_145706_cc" transform="translate(0.423000, 0.220500)">
                    <path d="M20.827243,8.0318974 C20.5023832,7.70676933 20.0694156,7.52354947 19.608281,7.51603826 C19.4400835,7.51281917 19.2753734,7.53481628 19.1187111,7.57800574 L18.0462176,8.24730817 C18.0462176,8.27842603 18.0502415,8.30873913 18.0553384,8.33851571 L15.7679068,10.6254108 C15.4583377,9.91238238 14.7479918,9.41208217 13.922027,9.41208217 L5.92258879,9.41208217 C5.3855373,9.41208217 4.8801402,9.62132301 4.50001934,10.0014439 L0.280060816,14.2211341 C0.070551719,14.4306432 0.070551719,14.7702572 0.280060816,14.9797663 C0.384681236,15.084655 0.522029069,15.1369652 0.659376902,15.1369652 C0.796724735,15.1369652 0.933804311,15.084655 1.03869299,14.9797663 L5.25865151,10.760076 C5.43623796,10.5827578 5.6720363,10.4851121 5.92258879,10.4851121 L13.9217588,10.4851121 C14.4394957,10.4851121 14.86066,10.9062764 14.86066,11.4240133 C14.86066,11.9417503 14.4394957,12.3629145 13.9217588,12.3629145 L9.25246897,12.3629145 C8.9563127,12.3629145 8.71595399,12.6032732 8.71595399,12.8994295 C8.71595399,13.1955858 8.9563127,13.4359445 9.25246897,13.4359445 L13.9217588,13.4359445 C14.7960099,13.4359445 15.5396197,12.8744816 15.8164614,12.0941205 L19.1605592,8.75029095 C19.2657162,8.64486576 19.4272072,8.59148252 19.590576,8.58879995 C19.771918,8.59201904 19.941725,8.66337553 20.0686108,8.79052958 C20.1954966,8.91741537 20.2649753,9.08588107 20.2649753,9.26507707 C20.2649753,9.44400481 20.1952284,9.61247051 20.0686108,9.73908805 L13.6580617,16.1496372 C13.5311759,16.276523 13.3627102,16.3462699 13.1835142,16.3462699 L5.08428414,16.3462699 C4.94210767,16.3462699 4.80556461,16.4028723 4.70496806,16.5034688 L0.552073907,20.6560947 C0.34256481,20.8656038 0.34256481,21.2052178 0.552073907,21.4147269 C0.656962585,21.5196156 0.79404216,21.5719258 0.931389993,21.5719258 C1.06873783,21.5719258 1.20608566,21.5196156 1.31070608,21.4147269 L5.3066696,17.4190316 L13.1837824,17.4190316 C13.6492092,17.4190316 14.0872736,17.2376896 14.4166938,16.9082694 L20.827243,10.4977202 C21.1566632,10.1683 21.3380053,9.73077207 21.3380053,9.26480881 C21.3380053,8.79884556 21.1566632,8.3613176 20.827243,8.0318974 Z" id="Shape"></path>
                    <path d="M19.3584751,3.62155342 L18.6252882,1.48309153 C18.6252882,1.46272523 18.6252882,1.46272523 18.6049219,1.44235892 C18.2994273,0.729538293 17.606973,0.261113308 16.8330535,0.261113308 L10.6416971,0.261113308 C9.05312545,0.261113308 7.81078093,0.831369812 6.48697119,2.13481325 L4.9187658,3.47898929 L3.35056042,3.47898929 C1.94528547,3.47898929 0.80477246,4.6195023 0.80477246,6.02477725 L0.80477246,7.20602286 C0.80477246,7.9392098 1.39539527,8.5298326 2.1285822,8.5298326 L3.10616478,8.5298326 C3.39129303,9.44631627 4.24667778,10.1184043 5.24462666,10.1184043 C6.26294185,10.1184043 7.1183266,9.44631627 7.38308855,8.5298326 L12.7190601,8.5298326 C13.0041884,9.44631627 13.8595731,10.1184043 14.857522,10.1184043 C15.8758372,10.1184043 16.7312219,9.44631627 16.9959839,8.5298326 L18.7271197,8.5298326 C19.4603066,8.5298326 20.0509294,7.9392098 20.0509294,7.20602286 L20.0509294,4.82316533 C20.091662,4.29364144 19.8065338,3.84558276 19.3584751,3.62155342 Z M17.6680719,1.82931869 L18.2383284,3.49935559 L15.2037492,3.49935559 L14.8982546,1.2997948 L16.8330535,1.2997948 C17.1996469,1.2997948 17.5255078,1.50345783 17.6680719,1.82931869 Z M11.4767156,1.2997948 L13.8595731,1.2997948 L14.1650677,3.49935559 L10.8657265,3.49935559 L11.4767156,1.2997948 Z M7.17942551,2.90873279 L7.19979182,2.88836648 C8.25883961,1.82931869 9.21605588,1.3405274 10.4176678,1.2997948 L9.78631238,3.49935559 L6.48697119,3.49935559 L7.17942551,2.90873279 Z M5.26499297,9.12045541 C4.59290494,9.12045541 4.04301475,8.57056521 4.04301475,7.89847719 C4.04301475,7.22638917 4.59290494,6.67649897 5.26499297,6.67649897 C5.93708099,6.67649897 6.48697119,7.22638917 6.48697119,7.89847719 C6.48697119,8.57056521 5.93708099,9.12045541 5.26499297,9.12045541 Z M14.8982546,9.12045541 C14.2261666,9.12045541 13.6762764,8.57056521 13.6762764,7.89847719 C13.6762764,7.22638917 14.2261666,6.67649897 14.8982546,6.67649897 C15.5703426,6.67649897 16.1202328,7.22638917 16.1202328,7.89847719 C16.1202328,8.57056521 15.5703426,9.12045541 14.8982546,9.12045541 Z M19.0733469,7.22638917 C19.0733469,7.3893196 18.9307827,7.53188372 18.7678523,7.53188372 L17.0978154,7.53188372 C16.9145187,6.47283593 15.998035,5.65818378 14.8778883,5.65818378 C13.7577416,5.65818378 12.8412579,6.47283593 12.6579612,7.53188372 L7.46455376,7.53188372 C7.28125703,6.47283593 6.36477337,5.65818378 5.24462666,5.65818378 C4.12447996,5.65818378 3.20799629,6.47283593 3.02469956,7.53188372 L2.1489485,7.53188372 C1.98601807,7.53188372 1.84345395,7.3893196 1.84345395,7.22638917 L1.84345395,6.04514355 C1.84345395,5.2101251 2.53590827,4.51767078 3.37092672,4.51767078 L18.7882186,4.51767078 C18.951149,4.51767078 19.0937132,4.6602349 19.0937132,4.82316533 L19.0937132,7.22638917 L19.0733469,7.22638917 Z" id="Shape" transform="translate(10.429781, 5.189759) scale(-1, 1) translate(-10.429781, -5.189759) "></path>
                </g>
            </g>
        </g>
    </g>
</svg>