<svg id="Layer_1" data-name="Layer 1" xmlns="http://www.w3.org/2000/svg" viewBox="0 0 1000 93.26"><defs><style>.cls-1{fill:#fff;}.cls-2{fill:#c3302a;}.cls-3{fill:#93867d;}</style></defs><title>Artboard 1</title><path class="cls-1" d="M67.51,3.43C53.61,7.36,38.7,19.84,29.72,36,21.22,50,11.21,64.89,9.89,66.77a16.92,16.92,0,0,0-3,5.79c-.42,2,.58,3.17,2.08,4.1,4.66,3,11.16,4.54,19.2,4.2,4.09-.22,6.47-1.22,8.71-3.11a15,15,0,0,0-.8,2.34,2.73,2.73,0,0,0,0,1c.25,1.77,1.91,2.64,3.55,3.49,3.41,1.69,12.54,3.51,20.24,2.57,2.14-.28,4-2.07,5.43-4.19,0,2.72.76,4.52,3.52,5.9,7,3.44,23.78,2.28,27.38-.37a4.94,4.94,0,0,0,1.93-3.78c.37.21.76.69,1.18.94l.16.12s.1.06.1.06c6.81,3.46,17.58,1.25,21.78-1.81,2.42-1.8,2.53-3.77,2.32-4.82a5,5,0,0,0-2.15-3l-.17-.08c.06,0-2.55-1.64-2.55-1.64-1.23-.84-4.1-2.62-4.54-4.41a.73.73,0,0,1,.08-.36c.31-.44,1.86-1,5.3.81a14.09,14.09,0,0,1,1.48,1.14c-.66-.57,1.48,1.36,3.16,1.07a7.24,7.24,0,0,0,2.27-.86c3.15-1.82,7.81-6.82,7.81-13.33l0-.7v-.25a15.82,15.82,0,0,0,3.87-9s.09-.9.09-.9a17.33,17.33,0,0,1,1.33-5.5l.13-.35a5.58,5.58,0,0,0,.7-2.67,4.51,4.51,0,0,0-1.64-3.4l0,.08a15,15,0,0,0-2.38-1.81h0a36.61,36.61,0,0,0-6.73-3.67l-.13,0-9.24-3.85a2.3,2.3,0,0,1-1.28-1.18,7.94,7.94,0,0,0-1.8-3.06c-.33-.36-1.31-1.16-2-1.79-4-3.28-12.24-8.14-13.24-8.75A7.17,7.17,0,0,1,100,9l0-.23a1.76,1.76,0,0,1-.07-.24c-1.17-3.15-4.62-4.14-7.42-4.13h-.1a26.66,26.66,0,0,1-8.49-.79,28.42,28.42,0,0,0-16.31-.15Z"/><path class="cls-2" d="M94.74,84c-.19-.43-1.54-2.81-1.92-3.5C89.67,74.4,90,70,90,70c.2-5.14,2.07-9.87,3.72-14.73.47-2-.78-3.66-1.74-5.26a9.24,9.24,0,0,1-1.37-5.77c0-1.21.61-2.33.37-3.51a1,1,0,0,0-.66-.62c-2.18-.77-6.18.19-10.67,4.48C73.59,50.78,71.9,59.46,68.39,80c-.77,4.58-.36,4.93,1.86,6,6.38,3.13,21.63,1.79,24.07,0a1.5,1.5,0,0,0,.41-2Z"/><path class="cls-2" d="M136.61,38a16.84,16.84,0,0,0-1.86-1.36,35.12,35.12,0,0,0-6.3-3.45c-10.38-4.2-10.11-4.1-10.65-4.38a4,4,0,0,1-1.86-1.65,25.34,25.34,0,0,0-1.71-3.41c-.13-.16-.68-.58-1.59-1.31-4-3.35-12.35-8.08-12.35-8.08a8.4,8.4,0,0,1-3.45-4.85c-.68-1.71-3-2.21-4.55-2.15a32.69,32.69,0,0,1-9.36-.89A26,26,0,0,0,68,6.31c-14.18,4-27.91,17.36-35.94,31.83,0,0-18.55,29.19-21.11,32.44-2,2.5.24,3.47,1.26,4.07,3.37,1.92,8.31,3,15.9,2.94,8.06.21,9.45-3.76,12.66-11,.89-2.07,3.31-8,3.31-8,1.48-3.53,3.44-8.16,6.06-14C55.6,32.33,63.07,25.53,69.33,22c0,0,8.53-4.88,16.5-2.17,1.52.49,2.39-1.22,3-2a5.74,5.74,0,0,1,3-2.06c1.93-.43,5,1.07,5,1.07a92.7,92.7,0,0,1,12.51,7.85,2.28,2.28,0,0,1,.55.69c.31.48,2.11,4.26,2.11,4.26a2.44,2.44,0,0,0,1.06,1l11.57,4.83a51,51,0,0,1,8.31,4.36.66.66,0,0,1,.24.84l-.82,2.2c-.71,1.86-.12,6.1-2.19,9.23a2,2,0,0,1-1.79.83,34.6,34.6,0,0,0-4.52-.4,5.14,5.14,0,0,0-3.67,1.25c-.6.58-.84,1-.45,1.6a.79.79,0,0,0,.89.22,5.24,5.24,0,0,1,2.68-.65c1.44,0,3.39.57,4,1.64a4.55,4.55,0,0,1,.4,2.78,9.08,9.08,0,0,1-3.24,5.82.75.75,0,0,1-.75.07,36.11,36.11,0,0,0-5.8-2.1,3.54,3.54,0,0,0-.48,0c-6.34.51-12.66.26-17.77-3.19-1.05-.7-2.69-3.18-3.64-1.08-1.44,4.19-2.44,8.45-1.83,13.12.23,1.84,2,8.42,6.44,11,7.09,3.65,20.3-.49,19.77-3.44a.8.8,0,0,0-.44-.57c-.34-.19-1.18-.66-2.94-1.83h0c-1.64-1.14-4.53-3.15-5.63-6s1.79-6.83,9.56-3.06A10.38,10.38,0,0,1,123,69.5a1,1,0,0,0,.72.31,3.28,3.28,0,0,0,1.25-.4c2.4-1.39,7.36-6.37,6.08-12.82,2.58-2.24,3.55-4.72,4.1-8.36a23,23,0,0,1,1.65-7.17c.4-.92,1.22-1.95-.21-3Z"/><path class="cls-2" d="M103.18,33a14.19,14.19,0,0,1,3.09.21,6.63,6.63,0,0,1,2.6,2.26c.27.37.76,1.06,1.46.69a3.07,3.07,0,0,0,.78-1.76c.05-.74.35-2.12-.47-2.8a.68.68,0,0,0-.18-.1c-.32-.11-2.32-1-2.32-1a1.54,1.54,0,0,0-.73-.24,27.55,27.55,0,0,0-5.26.93c-1.23.33-.48,1.25-.48,1.25.34.4.35.65,1.52.55Z"/><path class="cls-2" d="M89.91,29.6c-.34-.6-2.83-4.88-3.14-5.38a.48.48,0,0,0-.08-.13c-1.56-2-6.48-1.45-7.88-1.36-5,.31-17.35,5.7-25.22,23.39C46,63.2,43.89,69.47,43.89,69.47a63.54,63.54,0,0,1-4.23,8.39c-1.6,2.28.84,3.43,1.14,3.58,2.73,1.36,11.25,3.21,18.54,2.3h0C61,83.52,64.06,82,66.14,71c.07-.43.16-.84.22-1.26,1-5.63,2-10.12,3.09-13.87,1.83-6.24,4.27-10.61,7.55-13.73s8.39-6,13.61-5.47a1.11,1.11,0,0,0,1.21-1.32,17.39,17.39,0,0,0-1.91-5.73Z"/><rect class="cls-2" x="378.91" y="5.13" width="3.08" height="85.64"/><path class="cls-3" d="M342.18,73.24a5.14,5.14,0,0,1-1.64,2.12c-1.95,1.22-8.38,2.19-15.88,2.19-18.58,0-31.27-12.21-31.27-30,0-15.95,13.34-29,31-29a37.3,37.3,0,0,1,19.11,5c.68.32.68.83.68,1.39v5.21a1.44,1.44,0,0,1-.5.89l-2.2,1.54c-1.21.91-3.92-8.72-17-8.72-12.3,0-18.73,9.79-18.73,23.06,0,16.31,9.52,25.33,20.61,25.33,5.55,0,11.64-1.38,16.14-5.61,1.22-1.14,3-.08,2.28,1.15Z"/><path class="cls-3" d="M249,54.67l8.56-22.07,8.39,22.07Zm39.77,17.92c-4.09-1.07-4.58-1.31-6.11-5.3-5.29-12.54-12.14-29.08-17.75-45.36-.25-1.24-.92-2.37-2-2.37H248.75c-.89,0-1.63.07-2,1l-.42,1.31c-1.14,2,2.7,1.47,4.57,3.26.89.9,2.93,2.3,1.46,6.18l-14,36c-1.72,4.08-2.28,4.57-5.7,5.36-1.24.34-1.87.58-2.13,1.24l-.4,1.12c-.72,1.88,1,1.56,2.53,1.56h12.62c1.16,0,1.38-1,1.63-1.4l.49-.88c1.06-2-5.36-1.14-3.84-5.46l3.68-9.3h20.45l6.1,15.85a1.93,1.93,0,0,0,1.76,1.19H287c.92,0,1.57-.09,2-.81l.8-1.81c.27-.66-.24-1.12-1.05-1.37h0"/><path class="cls-3" d="M464.52,73.24a5.26,5.26,0,0,1-1.62,2.12c-2,1.23-8.37,2.2-15.89,2.2-18.58,0-31.3-12.22-31.3-30,0-15.95,13.37-29,31-29a37.39,37.39,0,0,1,19.16,5c.63.31.63.81.63,1.39v5.21A1.37,1.37,0,0,1,466,31l-2.2,1.54c-1.22.91-3.9-8.72-17-8.72-12.3,0-18.73,9.79-18.73,23.06,0,16.31,9.52,25.33,20.59,25.33,5.55,0,11.67-1.37,16.17-5.61,1.2-1.14,3-.08,2.28,1.15Z"/><path class="cls-3" d="M526.32,73.9c-3.26-1.87-9.85-11-17.19-23.72,7.73-3.51,11.16-10.12,11.16-16.62-.07-9.71-7.58-14-15.16-14H476.79a1.52,1.52,0,0,0-1.41,1l-.63,1.55c-.41.9.32,1.16,1.54,1.48,3.5.55,5.13,1.93,5.13,5.39V67.85c0,3.1-2.11,4.39-4.14,4.8-.58.19-1.22.27-1.55,1.15l-.5,1.38c-.4,1.23.42,1.4,1.07,1.4H497a1.44,1.44,0,0,0,1.37-.65L499,74.3c.34-.65.16-1.31-.89-1.46-4-.92-5.22-1.49-5.22-5V52H499l12.8,22.66c.39.64,1,2,2.25,2h12.25Zm-33.41-50h6.53c5.06,0,8.79,2.36,9,10.5.16,9-4.72,13.13-10.42,13.13h-5.07V23.94"/><path class="cls-3" d="M546.08,43.33h18.82c1.06,0,1.56.48,1.06,1.23l-1.46,2.51c-.55.89-1.32,1.13-2.61,1.13H546.08V64c0,6.14,1.47,7.68,5.94,7.68h6.7c8,0,9.11-6.86,10.26-6.54l2,.67a.7.7,0,0,1,.51.72v8c0,1.3-1.54,2-3.77,2H542.58c-6.19,0-8,.08-8-5.63v-42c0-3.46-1.62-4.84-5.13-5.39-1.24-.33-2-.58-1.54-1.48l.64-1.55a1.5,1.5,0,0,1,1.37-1h35.53c1.56,0,2.53.92,2.37,2v6.51a1.17,1.17,0,0,1-.39.74L566,30.06c-1.23,1-2.45-5.64-7.91-5.64h-12Z"/><path class="cls-3" d="M583.4,71.28c0,2.43.81,3.82,2.19,4.32,4.32,1.46,9.38,2,19.74,2,17.93,0,30.87-13.84,30.87-30.8,0-16.46-7.41-27.22-30.62-27.22H578.77a1.49,1.49,0,0,0-1.39,1l-.67,1.55c-.4.9.32,1.16,1.56,1.48,3.5.55,5.13,1.93,5.13,5.39Zm11.48-46.86h9.3c12.78,0,19.72,6.35,19.72,22.49,0,14.51-6,25.73-18.66,25.73-6.2,0-10.35-1.46-10.35-7.64V24.42"/><path class="cls-3" d="M675.66,18.58c-16.86,0-31.37,12-31.37,30.29,0,17.94,14,28.69,28.43,28.69,19.17,0,31-14.66,31-30.64,0-15.3-11.64-28.34-28-28.34Zm-1.73,5.28c9,0,17.44,7.18,17.44,24.12,0,10.58-4.87,24.27-17.08,24.27-9.86,0-17.69-8.15-17.69-26.21,0-8.15,3.82-22.17,17.33-22.17h0"/><path class="cls-3" d="M781.94,67.85c0,3.5,1.21,4.07,5.22,5,1,.15,1.21.8.9,1.46l-.65,1.63a1.51,1.51,0,0,1-1.4.65H765.32c-.66,0-1.48-.17-1.07-1.4l.49-1.38c.32-.88,1-1,1.54-1.15,2-.41,4.16-1.7,4.16-4.8l-2.91-32.68h-.17L748.07,74.78c-.5,1-.9,1.8-1.57,1.8h-2.34c-.5,0-1.16-1.16-1.8-2.62l-18-38.79h-.17l-3.8,32.68c0,3.5,1.23,4.07,5.22,5,1.07.15,1.22.8.9,1.46l-.66,1.63a1.45,1.45,0,0,1-1.37.65H709.6c-.66,0-1.45-.17-1-1.4l.47-1.38c.33-.88,1-1,1.55-1.15,2-.41,4.16-1.7,4.16-4.8l3.66-37.74c.14-1.63-1.08-2.72-1.66-3.37a10.15,10.15,0,0,0-4.86-3.2c-1.65-.42-1.81-1-1.48-1.71l.65-1.65a1.62,1.62,0,0,1,1.39-.65h12.93c2.71,0,3.28.32,4.67,3.34l18.33,38.71L768.2,22.15c1-2.21,2.27-2.62,3.41-2.62h13c.8,0,1.56.17,1.13,1.48l-.48,1.55c-.34.9-1.16,1.06-2,1.29-2.46.57-4.14,1.55-4.14,5.08Z"/><path class="cls-3" d="M879.88,67.85c0,3.5,1.23,4.07,5.22,5,1,.15,1.21.8.89,1.46l-.65,1.63a1.47,1.47,0,0,1-1.37.65H863.24c-.64,0-1.46-.17-1.05-1.4l.5-1.38c.33-.88,1-1,1.55-1.15,2-.41,4.16-1.7,4.16-4.8V25.25h-18.9c-1.15,0-2.2-.32-1.15-1.71l1.81-2.94A3.16,3.16,0,0,1,853,19.53h46c1.13,0,2.2.32,1.13,1.72l-1.8,2.94a3.17,3.17,0,0,1-2.85,1.05H879.88Z"/><path class="cls-3" d="M913.06,28.25c0-3.5-1.21-4.05-5.23-5-1-.18-1.2-.83-.88-1.47l.64-1.65a1.46,1.46,0,0,1,1.4-.65h20.7c.65,0,1.46.17,1.06,1.39l-.49,1.38c-.32.91-1,1-1.56,1.16-2,.4-4.17,1.7-4.17,4.79v39.6c0,3.5,1.24,4.07,5.21,5,1.08.15,1.24.8.92,1.46L930,75.93a1.46,1.46,0,0,1-1.35.65h-20.7c-.67,0-1.48-.17-1.09-1.4l.5-1.38c.32-.88,1-1,1.55-1.15,2.05-.41,4.16-1.7,4.16-4.8Z"/><path class="cls-3" d="M986.24,73.24a5.11,5.11,0,0,1-1.62,2.12c-1.95,1.23-8.39,2.2-15.88,2.2-18.59,0-31.28-12.22-31.28-30,0-15.95,13.36-29,31-29a37.29,37.29,0,0,1,19.15,5c.67.31.67.81.67,1.39v5.21a1.51,1.51,0,0,1-.49.89l-2.2,1.54c-1.24.91-3.93-8.72-17-8.72-12.3,0-18.76,9.79-18.76,23.06,0,16.31,9.54,25.33,20.62,25.33,5.55,0,11.66-1.37,16.12-5.61,1.25-1.14,3-.08,2.3,1.15Z"/><path class="cls-3" d="M813.07,54.67l8.55-22.07L830,54.67Zm39.76,17.92c-4.06-1.06-4.54-1.31-6.09-5.3C841.43,54.75,834.59,38.22,829,21.91c-.25-1.22-.9-2.38-2-2.38H812.81c-.86,0-1.6.1-1.92,1l-.39,1.31c-1.16,2,2.67,1.47,4.55,3.26.92.9,2.92,2.3,1.47,6.18l-14,36c-1.7,4.07-2.27,4.56-5.69,5.39-1.2.31-1.86.55-2.11,1.21L794.26,75c-.7,1.87,1,1.55,2.53,1.55H809.4c1.15,0,1.4-1,1.63-1.4l.49-.88c1-2-5.38-1.15-3.82-5.47l3.65-9.28,20.47,0,6.09,15.85a1.88,1.88,0,0,0,1.75,1.19H851.1c.9,0,1.58-.07,2-.81l.85-1.81c.21-.64-.25-1.12-1.09-1.37h0"/><path class="cls-3" d="M195.7,24h4.75C207.21,24,211,25.77,211,33.5c0,5.37-3.59,10.42-10.25,10.42H195.7Zm-16.13-4.38a1.48,1.48,0,0,0-1.38,1l-.66,1.58c-.4.88.33,1.13,1.55,1.46,3.53.56,5.12,2,5.12,5.38V71.33c0,2.45.82,3.84,2.23,4.34,4.32,1.46,9.68,1.94,17.43,1.94,11.27,0,22.84-4.88,22.84-17.26,0-5.4-3.92-13.88-15.72-15.2V45c7.07-2.45,11.81-7.17,11.56-13.13-.39-9.38-8-12.3-16.54-12.3H179.57M195.7,48.34h4.91c8.15,0,13,4.82,13.19,12.31.17,7.67-3.66,12.58-10.34,12.58-5.06,0-7.76-1.81-7.76-7.29V48.34"/></svg>