<?xml version="1.0" encoding="utf-8"?>
<!-- Generator: Adobe Illustrator 21.0.0, SVG Export Plug-In . SVG Version: 6.00 Build 0)  -->
<svg version="1.1" id="Layer_1" xmlns="http://www.w3.org/2000/svg" xmlns:xlink="http://www.w3.org/1999/xlink" x="0px" y="0px"
	 viewBox="0 0 300 99" style="enable-background:new 0 0 300 99;" xml:space="preserve">
<style type="text/css">
	.st0{fill:#E4002B;}
</style>
<g>
	<g>
		<path class="st0" d="M175,36.5v-0.2c5.5-2.3,9.1-7,9.1-14.7c0-10.8-7.5-17.6-22.3-17.6h-27.8v68.5h28.1c17.2,0,24.4-7.7,24.4-20
			C186.6,44,182.6,38.6,175,36.5z M148.8,17h12.5c5.7,0,8.2,2,8.2,7.4c0,5.4-2.4,7.6-7.8,7.6h-12.8V17z M162.4,60h-13.6V43.3H162
			c6.6,0,9.2,2.4,9.2,8.1C171.2,57.9,168.5,60,162.4,60z"/>
		<path class="st0" d="M228.7,4.1h-18.3l-23.7,68.5h16.2l3.9-13.4h24.8l3.9,13.4h17.1L228.7,4.1z M210.5,46.3l6.8-23.4l1.9-7.2h0.3
			l1.8,7.2l6.6,23.4H210.5z"/>
		<path class="st0" d="M283.5,59.9c-12.5,0-16.9-4.8-16.9-21.9c0-16.2,4.3-21.2,16.6-21.2c5.1,0,11.2,0.9,14.7,2.3V5.8
			C294,4.3,287.8,3,282.3,3c-21.9,0-31.9,12.1-31.9,34.9c0,24.4,10.2,35.9,30.8,35.9c6,0,12.6-1.5,17-3.7V56.8
			C294.5,58.4,288.5,59.9,283.5,59.9z"/>
	</g>
	<g>
		<path class="st0" d="M289.8,87.8c0-4.4,1.1-5.7,4.5-5.7c1.4,0,3,0.2,4,0.6v-3.6c-1.1-0.4-2.7-0.8-4.2-0.8c-5.9,0-8.6,3.3-8.6,9.4
			c0,6.6,2.7,9.7,8.3,9.7c1.6,0,3.4-0.4,4.6-1v-3.6c-1,0.4-2.7,0.8-4,0.8C291,93.7,289.8,92.4,289.8,87.8z"/>
		<path class="st0" d="M137.8,87.8c0-4.4,1.1-5.7,4.5-5.7c1.4,0,3,0.2,4,0.6v-3.6c-1.1-0.4-2.7-0.8-4.2-0.8c-5.9,0-8.6,3.3-8.6,9.4
			c0,6.6,2.7,9.7,8.3,9.7c1.6,0,3.4-0.4,4.6-1v-3.6c-1,0.4-2.7,0.8-4,0.8C139,93.7,137.8,92.4,137.8,87.8z"/>
		<path class="st0" d="M160.8,89.4c2-0.6,3.1-2.4,3.1-5c0-3.9-2.3-5.7-6.9-5.7h-6.8v18.5h4.2v-6.9h2.6l3.2,6.9h4.8L160.8,89.4z
			 M157,87.2h-2.6v-5h2.6c1.8,0,2.5,0.6,2.5,2.5C159.5,86.6,158.8,87.2,157,87.2z"/>
		<polygon class="st0" points="172.2,89.3 179,89.3 179,86 172.2,86 172.2,82.4 180.2,82.4 180.2,78.7 168,78.7 168,97.1 
			180.5,97.1 180.6,93.5 172.2,93.5 		"/>
		<path class="st0" d="M191,78.7h-6.9v18.5h7c5.5,0,8.2-2.6,8.2-9.3C199.3,81.5,196.9,78.7,191,78.7z M191,93.5h-2.7v-11h2.7
			c2.9,0,4,1,4,5.4C195,92.5,193.8,93.5,191,93.5z"/>
		<path class="st0" d="M210.1,78.4c-5.8,0-8.1,3-8.1,9.5c0,6.6,2.5,9.6,8.1,9.6c5.8,0,8.1-2.9,8.1-9.6
			C218.2,81.4,215.9,78.4,210.1,78.4z M210.1,93.8c-2.8,0-3.8-1.2-3.8-5.9c0-4.7,1-5.8,3.8-5.8c2.8,0,3.8,1.1,3.8,5.8
			C213.9,92.6,212.9,93.8,210.1,93.8z"/>
		<polygon class="st0" points="231.6,89.5 230.9,91.3 230.8,91.3 230.1,89.5 225.9,78.7 221.3,78.7 221.3,97.1 225,97.1 225,87.8 
			224.9,85.8 225,85.8 225.7,87.6 229.4,97.1 232.2,97.1 236,87.6 236.7,85.7 236.7,85.8 236.7,87.7 236.7,97.1 240.5,97.1 
			240.5,78.7 235.9,78.7 		"/>
		<path class="st0" d="M254.4,78.7h-4.9l-6.4,18.5h4.4l1-3.6h6.7l1,3.6h4.6L254.4,78.7z M249.5,90.1l1.8-6.3l0.5-1.9h0.1l0.5,1.9
			l1.8,6.3H249.5z"/>
		<polygon class="st0" points="260.4,78.7 260.3,82.4 265.2,82.4 265.2,97.1 269.4,97.1 269.4,82.4 274.4,82.4 274.3,78.7 		"/>
		<polygon class="st0" points="277.6,97.1 281.8,97.1 281.8,91.6 281.8,78.7 277.6,78.7 		"/>
	</g>
	<g>
		<polygon class="st0" points="70.3,18.9 107.1,48.4 97.3,72.6 70.3,72.6 		"/>
		<polygon class="st0" points="65.4,1.5 1.6,18.7 1.6,47.5 65.4,20 		"/>
		<polygon class="st0" points="65.4,25.4 1.6,52.8 1.6,84.7 65.4,45.7 		"/>
		<polygon class="st0" points="48.1,97.2 89.9,97.2 89.9,77.5 68.5,77.5 		"/>
		<polygon class="st0" points="65.4,51.5 1.6,90.4 1.6,97.2 41,97.2 65.4,73.7 		"/>
	</g>
</g>
</svg>
