<svg id="Layer_2" data-name="Layer 2" xmlns="http://www.w3.org/2000/svg" viewBox="0 0 195.66 23.13"><defs><style>.cls-1{fill:#fff;fill-rule:evenodd;}</style></defs><title>logo-blanco</title><path class="cls-1" d="M34.5,8.78a3.63,3.63,0,0,0-.61-.49,10.89,10.89,0,0,0-1.77-1l-2.45-1a.61.61,0,0,1-.3-.3,1.93,1.93,0,0,0-.49-.8c-.13-.12-.37-.3-.55-.48A22.2,22.2,0,0,0,26,3.17c-.55-.37-1-.68-1.1-.74a1.48,1.48,0,0,1-.55-.73h0V1.57a2,2,0,0,0-2-1A5.72,5.72,0,0,1,20.17.29a2.58,2.58,0,0,0-.61-.12,7.39,7.39,0,0,0-3.67.12c-.18.06-.37.06-.55.12A18.48,18.48,0,0,0,6,8.78C3.8,12.44,1.17,16.36.8,16.84A4.59,4.59,0,0,0,0,18.38a1,1,0,0,0,.55,1,8.35,8.35,0,0,0,5.07,1.1,3.64,3.64,0,0,0,2.25-.79c0,.05-.19.42-.25.6v.25c.06.49.55.67,1,.91a11.37,11.37,0,0,0,5.26.68,2.26,2.26,0,0,0,1.39-1.1c0,.18.06.3.06.49a1.58,1.58,0,0,0,.85,1,7.83,7.83,0,0,0,3.37.55,9.18,9.18,0,0,0,3.84-.61,1.38,1.38,0,0,0,.49-1c.13.06.19.18.31.24l0,.07a3.66,3.66,0,0,0,1.78.42,6,6,0,0,0,3.91-.91,1.13,1.13,0,0,0,.61-1.23,1.46,1.46,0,0,0-.55-.79h-.06l-.66-.43c-.32-.25-1-.73-1.17-1.16v-.12c.12-.12.49-.24,1.41.24.18.13.3.18.36.31-.19-.18.43.31.86.24a4.22,4.22,0,0,0,.61-.19,4.43,4.43,0,0,0,2-3.48v-.3a3.76,3.76,0,0,0,1-2.33l.07-.24a4.35,4.35,0,0,1,.31-1.41l.06-.12a1.58,1.58,0,0,0,.18-.67,1.16,1.16,0,0,0-.43-.91ZM15.58,17.58c0,.12-.06.24-.06.38-.06.29-.11.54-.18.79-.55,2.13-1.22,2.5-1.59,2.5a11.18,11.18,0,0,1-4.82-.55.61.61,0,0,1-.31-1c.73-1.35.85-1.71,1.1-2.2,0,0,.55-1.6,2.5-6.12a11.88,11.88,0,0,1,3.12-4.33A6.86,6.86,0,0,1,18.82,5.3h.74a1.84,1.84,0,0,1,1.33.37v.06c.12.12.73,1.22.86,1.4a6.08,6.08,0,0,1,.49,1.47.35.35,0,0,1-.31.37,4.39,4.39,0,0,0-2.37.55,6.36,6.36,0,0,0-1.23.86A7.84,7.84,0,0,0,16.38,14,25.71,25.71,0,0,0,15.58,17.58Zm7.32,4.28a7.9,7.9,0,0,1-3.35.49,6.92,6.92,0,0,1-2.93-.49c-.61-.3-.73-.37-.49-1.59C17,15,17.47,12.63,19.07,11a2.17,2.17,0,0,1,.49-.43,2.6,2.6,0,0,1,2.25-.74L22,10a4.32,4.32,0,0,1-.06.91,2.24,2.24,0,0,0,.37,1.52,1.88,1.88,0,0,1,.42,1.41,13.79,13.79,0,0,0-1,3.85,6.23,6.23,0,0,0,.73,2.74c.12.19.43.8.5.92A.37.37,0,0,1,22.91,21.85ZM34,10.13A6.41,6.41,0,0,0,33.53,12a3,3,0,0,1-1,2.19,3.5,3.5,0,0,1-1.59,3.37.54.54,0,0,1-.36.11l-.18-.11a1.76,1.76,0,0,0-.56-.31c-2-1-2.74,0-2.44.79a3.23,3.23,0,0,0,1.47,1.53c.43.3.67.43.73.49a.16.16,0,0,1,.11.18c.12.55-1.89,1.34-3.66,1.22a3.33,3.33,0,0,1-1.52-.37,4.3,4.3,0,0,1-1.65-2.87,7.21,7.21,0,0,1,.49-3.42c.24-.55.67.13.9.3a4.79,4.79,0,0,0,1.78.67,7.5,7.5,0,0,0,2.87.13H29a9.93,9.93,0,0,1,1.53.55c.12.05.18.05.18,0a2.4,2.4,0,0,0,.86-1.53,1.41,1.41,0,0,0-.07-.74,1.46,1.46,0,0,0-1-.43,1.31,1.31,0,0,0-.73.18.23.23,0,0,1-.25-.06c-.06-.13,0-.24.11-.43a1.58,1.58,0,0,1,1-.31,7.24,7.24,0,0,1,1.16.11.62.62,0,0,0,.49-.23c.55-.79.37-1.9.55-2.38L33,10A.28.28,0,0,0,33,9.82a9.34,9.34,0,0,0-2.19-1.16S28,7.5,27.79,7.37a.67.67,0,0,1-.3-.24s-.5-1-.55-1.1a1.07,1.07,0,0,0-.13-.18A5.78,5.78,0,0,0,26,5.3a26.23,26.23,0,0,0-2.5-1.53,2.52,2.52,0,0,0-1.29-.24,1.32,1.32,0,0,0-.79.49c-.18.25-.36.67-.79.55a3.39,3.39,0,0,0-1.1-.18,6.15,6.15,0,0,0-3.17.73,7.77,7.77,0,0,0-1,.67,12.47,12.47,0,0,0-4,5.25c-.73,1.53-1.22,2.75-1.59,3.66l-.92,2.07c-.79,1.9-1.16,2.94-3.3,2.87a8.73,8.73,0,0,1-4.15-.74c-.25-.17-.85-.42-.31-1.1C1.77,17,6.6,9.33,6.6,9.33c2-3.54,5.24-6.84,8.73-8.07A3.24,3.24,0,0,1,16,1,7,7,0,0,1,19.55,1c.11.05.24.05.37.12a8,8,0,0,0,2.44.24,1.22,1.22,0,0,1,1.17.55,2.53,2.53,0,0,0,.91,1.29L26,4.08a12.28,12.28,0,0,1,1.65,1.16,3.08,3.08,0,0,1,.43.38c.12.18.25.55.43.91A1.77,1.77,0,0,0,29,7c.13.05.06,0,2.81,1.11A10.38,10.38,0,0,1,33.47,9l.5.37C34.32,9.58,34.09,9.88,34,10.13ZM24.92,7.57A8.76,8.76,0,0,1,26,7.32h.32a.45.45,0,0,1,.17.06l.62.25a.68.68,0,0,1,.12.73c0,.19-.06.43-.18.48s-.31-.05-.37-.18a3,3,0,0,0-.68-.6c-.18,0-.42-.07-.79-.07s-.37,0-.42-.12S24.61,7.62,24.92,7.57Z" transform="translate(0)"/><path class="cls-1" d="M58.51,16.84a6,6,0,0,1-4.21,1.47c-2.87,0-5.37-2.38-5.37-6.66,0-3.48,1.65-6,4.88-6,3.42,0,4.16,2.5,4.46,2.32l.55-.43c.13-.07.19-.13.19-.24V5.92c0-.19,0-.31-.19-.38a9.67,9.67,0,0,0-5-1.28c-4.64,0-8.12,3.35-8.12,7.57,0,4.64,3.36,7.82,8.17,7.82A11,11,0,0,0,58,19.1c.25-.12.3-.35.44-.55l.67-1.46C59.3,16.78,58.81,16.55,58.51,16.84Z" transform="translate(0)"/><path class="cls-1" d="M70.11,12.51A4.7,4.7,0,0,0,73,8.18c0-2.57-2-3.67-4-3.67H61.68a.36.36,0,0,0-.35.25l-.19.43c-.12.18.07.25.43.36.93.12,1.35.49,1.35,1.41V17.15a1.17,1.17,0,0,1-1.1,1.23c-.18.06-.3.06-.43.3l-.12.37c-.12.3.12.37.31.37h5.38a.38.38,0,0,0,.37-.18l.19-.43c.06-.13.06-.31-.25-.37-1-.25-1.34-.37-1.34-1.29V13h1.59l.43.72,2.93,5.19c.12.18.24.5.6.5h3.19v-.67C73.78,18.25,72.07,15.87,70.11,12.51Zm-2.19-.79a3.42,3.42,0,0,1-.74.12H65.91V5.67h2c1.16.06,2,.8,2,2.75S69.08,11.47,67.92,11.72Z" transform="translate(0)"/><path class="cls-1" d="M86.3,16.6l-.49-.18c-.31-.07-.61,1.71-2.68,1.71H81.35c-1.16,0-1.53-.37-1.53-2V12h4.09a.74.74,0,0,0,.73-.3L85,11c.13-.19,0-.3-.29-.3H79.82V5.79h3.1c1.42,0,1.78,1.71,2.08,1.47L85.38,7l.12-.25V5c.06-.25-.25-.49-.61-.49H75.61a.34.34,0,0,0-.37.25l-.18.43c-.13.18.06.25.37.36.91.12,1.34.49,1.34,1.41V18c0,1.46.49,1.46,2.14,1.46h6.52c.62,0,1-.18,1-.55V16.78A.19.19,0,0,0,86.3,16.6Z" transform="translate(0)"/><path class="cls-1" d="M96.37,4.5h-8a.39.39,0,0,0-.36.25l-.18.43c-.12.18.05.25.43.36.91.12,1.34.49,1.34,1.41V18.07c0,.61.18,1,.55,1.1a16.69,16.69,0,0,0,5.13.48,6.53,6.53,0,0,0,1.1-.06,7.9,7.9,0,0,0,7-8C103.39,7.57,101.62,4.81,96.37,4.5Zm0,13.74a3.25,3.25,0,0,1-1.1.13c-1.59,0-2.69-.37-2.69-2V5.79H95a10.13,10.13,0,0,1,1.35.06c2.44.49,3.78,2.21,3.78,5.8C100.15,15,98.93,17.7,96.37,18.25Z" transform="translate(0)"/><path class="cls-1" d="M113.72,4.26h-.43a7.88,7.88,0,0,0-7.81,7.88,7.33,7.33,0,0,0,7.44,7.51h.37a7.81,7.81,0,0,0,7.76-8A7.25,7.25,0,0,0,113.72,4.26Zm-.37,14h-.06c-2.56-.07-4.58-2.19-4.58-6.91,0-2.13,1-5.8,4.52-5.8h.06c2.31,0,4.52,1.89,4.52,6.35C117.8,14.71,116.52,18.31,113.34,18.31Z" transform="translate(0)"/><path class="cls-1" d="M142.84,18.44c-1-.25-1.35-.37-1.35-1.29L140.76,7c0-.92.44-1.16,1.09-1.34.19-.07.43-.07.5-.32l.12-.43c.13-.3-.06-.37-.31-.37H138.8c-.29,0-.6.13-.9.68L132.71,15.5,127.94,5.36c-.37-.8-.55-.86-1.22-.86H123.3a.43.43,0,0,0-.36.18l-.13.43c-.13.18-.06.31.37.42a2.6,2.6,0,0,1,1.28.86,1.07,1.07,0,0,1,.43.86l-1,9.89a1.17,1.17,0,0,1-1,1.23c-.19.06-.37.06-.42.3l-.13.37c-.12.3.13.37.25.37h3.9a.41.41,0,0,0,.37-.18l.17-.43c.06-.13,0-.31-.24-.37-1-.25-1.4-.37-1.4-1.29l1-8.55,4.76,10.15c.12.35.31.67.42.67h.62c.19,0,.31-.18.43-.5L137.71,8.6l.8,8.55a1.17,1.17,0,0,1-1.11,1.23c-.12.06-.3.06-.37.3l-.18.37c-.05.3.12.37.3.37h5.44a.43.43,0,0,0,.36-.18l.13-.43C143.21,18.68,143.15,18.5,142.84,18.44Z" transform="translate(0)"/><path class="cls-1" d="M172.15,4.5h-12a1.12,1.12,0,0,0-.79.25l-.43.79c-.31.38,0,.42.3.42h4.95V17.15a1.17,1.17,0,0,1-1.1,1.23c-.18.06-.3.06-.42.3l-.12.37c-.12.3.12.37.31.37h5.37a.37.37,0,0,0,.37-.18l.19-.43c.05-.13.05-.31-.24-.37-1-.25-1.36-.37-1.36-1.29V6h4.1c.31,0,.56,0,.73-.23l.43-.8C172.7,4.57,172.39,4.5,172.15,4.5Z" transform="translate(0)"/><path class="cls-1" d="M179.91,5.54a.89.89,0,0,0,.42-.31l.12-.37c.06-.3-.12-.37-.3-.37h-5.36c-.26,0-.31.06-.37.18l-.18.43c-.12.12-.07.31.24.36,1,.25,1.34.38,1.34,1.29V17.15a1.16,1.16,0,0,1-1.1,1.23c-.12.06-.3.06-.36.3l-.19.37c-.05.3.12.37.31.37h5.44a.39.39,0,0,0,.37-.18l.12-.43c.12-.13.05-.31-.18-.37-1.11-.25-1.41-.37-1.41-1.29V6.76A1.17,1.17,0,0,1,179.91,5.54Z" transform="translate(0)"/><path class="cls-1" d="M195,16.84a6.09,6.09,0,0,1-4.21,1.47c-2.93,0-5.43-2.38-5.43-6.66,0-3.48,1.71-6,4.94-6,3.41,0,4.09,2.5,4.45,2.32l.55-.43a.32.32,0,0,0,.13-.24V5.92c0-.19,0-.31-.18-.38a9.7,9.7,0,0,0-5-1.28,7.73,7.73,0,0,0-8.06,7.57c0,4.64,3.29,7.82,8.18,7.82a11.24,11.24,0,0,0,4.15-.55,1.69,1.69,0,0,0,.42-.55l.61-1.46C195.84,16.78,195.35,16.55,195,16.84Z" transform="translate(0)"/><path class="cls-1" d="M160.06,18.38c-1-.3-1.22-.3-1.58-1.41-1.41-3.24-3.19-7.57-4.65-11.85-.05-.31-.24-.62-.56-.62h-3.65c-.25,0-.43,0-.54.25l-.13.37c-.24.49.74.36,1.22.84a1.16,1.16,0,0,1,.37,1.61L146.87,17c-.43,1.11-.61,1.23-1.46,1.41-.3.12-.49.18-.56.37l-.12.3c-.19.49.25.37.67.37h3.3c.31,0,.37-.24.44-.37l.11-.24c.3-.49-1.41-.25-1-1.41l.91-2.44h5.38l1.59,4.15a.48.48,0,0,0,.49.31h3c.19,0,.37,0,.49-.18l.24-.49C160.42,18.55,160.24,18.44,160.06,18.38Zm-8.17-4.7h-2.2L151.89,8V7.94l2.19,5.74Z" transform="translate(0)"/></svg>