<?xml version="1.0" encoding="utf-8"?>
<!-- Generator: Adobe Illustrator 21.0.0, SVG Export Plug-In . SVG Version: 6.00 Build 0)  -->
<svg version="1.1" id="Layer_1" xmlns="http://www.w3.org/2000/svg" xmlns:xlink="http://www.w3.org/1999/xlink" x="0px" y="0px"
	 viewBox="0 0 269 91" style="enable-background:new 0 0 269 91;" xml:space="preserve">
<style type="text/css">
	.st0{fill:#FCFCFC;}
	.st1{fill:#FFFFFF;}
	.st2{fill:#FCFAFA;}
	.st3{fill:#FFFDFD;}
</style>
<g>
	<path id="cr-icono-cashback_4_" class="st0" d="M144.2,17.7l0.2,0c0.6,0.1,1.2-0.3,1.4-0.9c0.2-0.6-0.1-1.2-0.8-1.1l-0.3-0.1
		c2.5-1.4,4.5-3.3,4.7-5.1c0.1-0.6,0-2-2-2.5c-0.9-0.2-1.8-0.2-2.5,0.2c-0.4-1.3-1.3-2.3-2.4-2.6c-1.1-0.3-2.3,0-3.4,0.8
		c-0.4-0.7-1.1-1.2-2-1.5c-2-0.7-2.9,0.4-3.2,0.9c-0.9,1.5-0.2,4.3,1.2,6.9l-0.3-0.1c-0.5-0.4-1.1-0.1-1.3,0.5
		c-0.2,0.6,0.1,1.2,0.7,1.5l0.2,0c-4.2,1.6-9,5.2-10.3,9.6c-2.4,7.8,5.6,12.1,8.8,13.1c3.3,1,12.3,1.8,14.6-6
		C148.8,27.1,146.8,21.4,144.2,17.7z M135.4,6.5c0.1-0.1,0.3-0.5,1.2-0.1c0.7,0.2,1.1,0.6,1.3,1.2c-0.2,0.3-0.4,0.6-0.6,1
		c-0.2,0.4-0.1,0.9,0.3,1.1c0.1,0,0.1,0.1,0.2,0.1c0.4,0.1,0.8,0,0.9-0.4c0.2-0.4,0.4-0.7,0.7-1c0.1,0,0.1-0.1,0.1-0.2
		c0.8-0.9,1.8-1.4,2.6-1.1c1,0.3,1.7,1.8,1.6,3.7c0,0.5,0.3,0.8,0.8,0.9c0.5,0,0.8-0.3,0.9-0.8c0-0.3,0-0.7,0-1
		c0.5-0.4,1.1-0.5,1.8-0.3c0.9,0.2,0.8,0.6,0.8,0.7c-0.1,1.3-2.9,3.7-5.7,4.1l-4.1-1.2C135.8,10.9,134.8,7.6,135.4,6.5z M133.3,35.9
		c-2.8-0.9-9.7-4.5-7.8-11c1.4-4.6,7.3-8.2,11.5-9.4l4.5,1.4c2.8,3.3,5.7,9.6,4.4,14.2C143.9,37.6,136.1,36.8,133.3,35.9z
		 M138.4,26.1c-0.4-0.3-0.8-0.6-1.4-1c-0.3-0.2-0.9-0.6-1-0.6c-1-0.6-1.4-1.3-0.7-2c0,0,0.1-0.1,0.1-0.1c0.4-0.3,1.1-0.3,1.7-0.1
		c0,0,0.1,0,0.1,0c1,0.4,1.4,1,1.2,1.8l2,0.6c0.2-0.9,0.1-1.7-0.4-2.4c-0.3-0.4-0.9-0.8-1.5-1.1L139,20l-2-0.6l-0.5,1.6
		c-0.2,0-0.5-0.1-0.7-0.1c-0.2,0-0.5,0-0.7,0.1c-0.2,0-0.4,0.1-0.6,0.2c-1.3,0.5-1.8,1.8-1.7,3c0.1,0.4,0.2,0.7,0.4,1
		c0.2,0.3,0.5,0.6,0.8,0.8c0.1,0.1,0.2,0.1,0.2,0.2c0.1,0.1,0.2,0.1,0.2,0.2c0.9,0.9,3.9,1.6,2.6,3.3c-0.1,0.1-0.1,0.1-0.2,0.2
		c-0.1,0.1-0.2,0.1-0.3,0.1c-0.4,0.2-0.9,0.1-1.5,0c-1.4-0.4-1.9-1.2-1.6-2.3l-2-0.6c-0.2,1-0.1,1.9,0.4,2.7
		c0.4,0.5,0.9,0.9,1.6,1.3l-0.4,1.5l2,0.6l0.5-1.6c0,0,0,0,0,0c0.9,0.1,2,0.1,2.9-0.6c0.1-0.1,0.2-0.2,0.3-0.3
		c0.8-0.9,1.1-2.3,0.5-3.5C139,26.7,138.7,26.4,138.4,26.1L138.4,26.1z"/>
	<path id="cr-icono-otras_4_" class="st1" d="M66.3,35.2c-0.2,0.2-0.1,0.5,0.1,0.7s0.5,0.1,0.7-0.1c0.2-0.2,0.1-0.5-0.1-0.7
		S66.5,35,66.3,35.2z M65,32.4c-0.4-0.3-1.1-0.2-1.4,0.2s-0.2,1.1,0.2,1.4s1.1,0.2,1.4-0.2S65.4,32.7,65,32.4z M74.9,17.6
		c-0.3,0.4-0.2,1.1,0.2,1.4c0.4,0.3,1.1,0.2,1.4-0.2c0.3-0.4,0.2-1.1-0.2-1.4C75.9,17,75.3,17.1,74.9,17.6z M68.2,32.7
		c-0.2,0.2-0.1,0.5,0.1,0.7c0.2,0.2,0.5,0.1,0.7-0.1c0.2-0.2,0.1-0.5-0.1-0.7C68.6,32.4,68.3,32.5,68.2,32.7z M64.2,2.3L51.7,18.9
		c-1.2,1.6-0.9,3.8,0.7,5l0.9,0.7l-0.7,0.9c-1.2,1.6-0.9,3.8,0.7,5l10.8,8.2c1.6,1.2,4,0.9,5.2-0.7l12.2-16.1c1.2-1.6,0.9-4-0.7-5.2
		l-9.1-6.9l2.5-3.3l5.1,3.8c0.9,1.1,1.1,2.6,0.3,3.7c-0.2,0.3-0.2,0.7,0.1,0.9c0.3,0.2,0.7,0.2,0.9-0.1c1.3-1.7,0.9-4-0.7-5.3
		L69.5,1.5C67.8,0.3,65.5,0.7,64.2,2.3z M80.4,20.7L68,37.2c-0.8,1.1-2.4,1.3-3.5,0.5L54.3,30c-1.1-0.8-1.3-2.4-0.5-3.5l1-1.4
		c0,0,0.1,0,0.1-0.1c0,0,0-0.1,0.1-0.1L66.3,10c0.8-1.1,2.4-1.3,3.5-0.5l10.2,7.7C81,18.1,81.3,19.6,80.4,20.7z M70.5,3.6l-3.2,4.3
		c-0.9,0.1-1.8,0.6-2.4,1.4L54.2,23.4l-0.9-0.7c-1.1-0.8-1.3-2.4-0.5-3.5L65.2,2.7c0.8-1.1,2.4-1.3,3.5-0.5L70.5,3.6z M67.2,33.9
		c-0.2,0.2-0.1,0.5,0.1,0.7c0.2,0.2,0.5,0.1,0.7-0.1c0.2-0.2,0.1-0.5-0.1-0.7C67.7,33.7,67.4,33.7,67.2,33.9z M70.2,23.8
		c-0.3,0.4-0.2,1.1,0.2,1.4c0.4,0.3,1.1,0.2,1.4-0.2c0.3-0.4,0.2-1.1-0.2-1.4C71.2,23.3,70.6,23.4,70.2,23.8z M71.9,27.7
		c-0.2,0.2-0.1,0.5,0.1,0.7c0.2,0.2,0.5,0.1,0.7-0.1c0.2-0.2,0.1-0.5-0.1-0.7C72.4,27.4,72.1,27.5,71.9,27.7z M73,20.1
		c-0.3,0.4-0.2,1.1,0.2,1.4c0.4,0.3,1.1,0.2,1.4-0.2c0.3-0.4,0.2-1.1-0.2-1.4C74,19.6,73.4,19.6,73,20.1z M66.9,29.9
		c-0.4-0.3-1.1-0.2-1.4,0.2c-0.3,0.4-0.2,1.1,0.2,1.4c0.4,0.3,1.1,0.2,1.4-0.2C67.4,30.8,67.3,30.2,66.9,29.9z M69.1,31.4
		c-0.2,0.2-0.1,0.5,0.1,0.7c0.2,0.2,0.5,0.1,0.7-0.1c0.2-0.2,0.1-0.5-0.1-0.7C69.6,31.2,69.3,31.2,69.1,31.4z M69.7,26.1
		c-0.4-0.3-1.1-0.2-1.4,0.2c-0.3,0.4-0.2,1.1,0.2,1.4c0.4,0.3,1.1,0.2,1.4-0.2C70.2,27.1,70.2,26.5,69.7,26.1z M70.1,30.2
		c-0.2,0.2-0.1,0.5,0.1,0.7c0.2,0.2,0.5,0.1,0.7-0.1c0.2-0.2,0.1-0.5-0.1-0.7C70.5,29.9,70.2,30,70.1,30.2z M71,28.9
		c-0.2,0.2-0.1,0.5,0.1,0.7c0.2,0.2,0.5,0.1,0.7-0.1c0.2-0.2,0.1-0.5-0.1-0.7C71.5,28.7,71.2,28.7,71,28.9L71,28.9z"/>
	<path id="cr-icono-supermercado_3_" class="st2" d="M208.2,18.7l-3-2.1l1.6-3.1l2.7,2.7L208.2,18.7z M194.5,25.9l3.5,1.2l-1.5,2.8
		l-3.8-1.1L194.5,25.9z M201.4,20.5l-2.8-1.4l2.2-3.7l2.3,1.7L201.4,20.5z M202.8,21.3l1.7-3.3l3,2.1L206,23L202.8,21.3z
		 M198.7,25.8l-3.4-1.2l2.3-3.7l2.9,1.5L198.7,25.8z M200.1,26.4l1.7-3.3l3.2,1.7l-1.5,2.8L200.1,26.4z M201.6,31.4l-3.6-1l1.4-2.8
		l3.5,1.2L201.6,31.4z M205.7,12.3l-1.7,3.3l-2.2-1.6l2.2-3.6L205.7,12.3z M217.7,22.5c-0.3,0.3-0.8,0.5-1.3,0.4
		c-0.9-0.2-1.4-1.1-1.1-1.9l0.1-0.3c0.4-0.6,1.2-0.8,1.9-0.5C218.2,20.6,218.4,21.8,217.7,22.5z M211.7,33.6c-0.4,0.7-1.2,1-1.9,0.6
		c-0.7-0.4-1-1.2-0.6-1.9c0.4-0.7,1.2-1,1.9-0.6C211.8,32,212,32.9,211.7,33.6z M211,15.6l-6.8-6.9c-0.2-0.2-0.4-0.3-0.7-0.2
		c-0.3,0-0.5,0.2-0.6,0.4L191,28.2l-3.5-1c-0.4-0.1-0.8,0.1-1,0.4l-2.7,5.1c-0.2,0.4-0.1,0.9,0.3,1.1c0.4,0.2,0.9,0,1.1-0.3l2.3-4.4
		l14.3,4c0,0,0.3,0.1,0.3,0.1c2,0.6,3.6,0.6,5,0c0.2,0.9,0.7,1.8,1.6,2.3c1.5,0.8,3.4,0.2,4.2-1.3c0.8-1.5,0.2-3.4-1.3-4.2
		c-0.5-0.2-0.9-0.3-1.4-0.4l3.5-6.8c0.3,0.4,0.6,0.7,1,0.9c1.4,0.7,3.1,0.2,3.9-1.2c0.7-1.4,0.2-3.2-1.2-3.9s-3.1-0.2-3.9,1.2
		c0,0.1-0.1,0.2-0.1,0.3l-5.1,9.9c-0.7,1.4-1.9,2.7-5.1,1.9l8-15.3C211.3,16.2,211.2,15.9,211,15.6L211,15.6z"/>
	<path class="st1" d="M11.6,8c0,0,0.5-1.9-0.4-2.4c-0.9-0.5-2.2,0.9-2.2,0.9S11.3,5.2,11.6,8z"/>
	<path class="st1" d="M14.4,24c-0.8-0.8-2.1-0.6-2.7,0.2l-0.3-0.6l1.2-2.1c0.4-0.7,0.4-1.7-0.3-2.3c-0.8-0.8-2-0.7-2.7,0l-1-2.4
		l4.6-7.8c1.1-1.9,0.8-4.6-0.7-5.4l-0.1-0.1c-1.3-0.8-3.8,0-5,2.1l-4.4,7.9l-2.6,0.4c0.2-0.7,0-1.5-0.6-2v3.3l2.1-0.3l-1.4,2.4
		l-0.7,0v0.3l0.6,0l-0.6,1v2.7L8.5,6.2c0.9-1.5,2.6-2,3.2-1.6l0.1,0.1c0.6,0.4,1,2.2,0.2,3.6L0.6,27.3c-0.1,0.2-0.3,0.5-0.6,0.8v1.9
		c0.2-0.2,0.3-0.3,0.5-0.5l1.3,3l-1.8-1V33L1.6,34c0.3,0.2,0.7,0.2,1,0.1c0.7-0.2,1-1,0.7-1.6l-1.7-4C1.8,28.2,1.9,28.1,2,28
		l2.3-3.9L12.4,35l0.1,0c0.3,0.1,0.6,0.2,0.9,0.2c0.6-0.1,1-0.7,0.9-1.3l0-3.2l0-0.1c0-0.1-0.1-0.3-0.2-0.4l-0.7-1.7l1.3-2.2
		C15.1,25.5,15,24.6,14.4,24z M10.4,20.1c0.2-0.3,0.5-0.4,0.7-0.2c0.3,0.2,0.3,0.5,0.2,0.7l-0.7,1.3l-0.5-1.3L10.4,20.1z M4.8,22.9
		l1.3-2.1l5.2,9.7l-0.4,0.6L4.8,22.9z M11.1,31.4l0.5-0.9l-5.4-10l1.4-2.3l5,12.7l0,0l0,2.7L11.1,31.4z M13.4,25.6l-0.8,1.4
		l-0.5-1.3l0.4-0.6c0.2-0.3,0.5-0.4,0.7-0.2C13.4,25,13.5,25.3,13.4,25.6z"/>
	<path class="st3" d="M269,31.7l-1.2-0.7c0.4-0.4,0.8-0.8,1.2-1.1v-1.9c-0.6,0.8-1.7,1.9-2.6,2.7l2.1-3.7c0.2-0.3,0.1-0.7-0.2-0.9
		c-0.3-0.2-0.7-0.1-0.9,0.2l-2.5,4.3c0.2-1.5,1.1-4,1.6-4.9l2.5-4.5v-2.7l-0.8,1.4l-10-1.2l0.3-0.6l10.5-0.3v-0.3l-10.7,0.3
		l-0.5,0.9l-2.8-0.3l2.3-1.3l0,0l11.6-1.7V12c-0.2-0.3-0.5-0.5-0.9-0.6c-0.8-0.2-1.7,0.2-2.1,0.9l-1.2,2.1l-0.7,0.1
		c0.4-1-0.1-2.1-1.2-2.4c-0.8-0.3-1.7,0.2-2.2,0.9l-1.3,2.2l-1.8,0.3c-0.1,0-0.3,0-0.4,0.1l-2.9,1.6c-0.4,0.2-0.7,0.5-0.7,1
		c0,0.5,0.2,0.9,0.6,1.1l0.1,0.1l13.5,1.6l-2.2,3.9c0,0-0.1,0.2-0.2,0.5L261,26c-0.3,0-0.7,0.2-0.9,0.5c-0.4,0.6-0.2,1.4,0.4,1.7
		l3.3,1.9c-0.2,1.1-0.1,2.1,0.5,2.4l0.2,0.1c0.6,0.3,1.5,0,2.4-0.7l2,1.2V31.7z M266.9,13c0.2-0.3,0.5-0.4,0.7-0.2
		c0.3,0.2,0.3,0.5,0.2,0.7l-0.3,0.5l-1.4,0.2L266.9,13z M261.6,13.7c0.2-0.3,0.5-0.4,0.7-0.2c0.3,0.2,0.3,0.5,0.2,0.7l-0.4,0.6
		l-1.4,0.2L261.6,13.7z M263.9,28.8l-2.6-1.5l3.2-0.4C264.3,27.5,264.1,28.1,263.9,28.8z"/>
	<path id="cr-icono-cashback_3_" class="st1" d="M243.9,69.4l0.2,0c0.6,0.1,1.2-0.3,1.4-0.9c0.2-0.6-0.1-1.2-0.8-1.1l-0.3-0.1
		c2.5-1.4,4.5-3.3,4.7-5.1c0.1-0.6,0-2-2-2.5c-0.9-0.2-1.8-0.2-2.5,0.2c-0.4-1.3-1.3-2.3-2.4-2.6c-1.1-0.3-2.3,0-3.4,0.8
		c-0.4-0.7-1.1-1.2-2-1.5c-2-0.7-2.9,0.4-3.2,0.9c-0.9,1.5-0.2,4.3,1.2,6.9l-0.3-0.1c-0.5-0.4-1.1-0.1-1.3,0.5
		c-0.2,0.6,0.1,1.2,0.7,1.5l0.2,0c-4.2,1.6-9,5.2-10.3,9.6c-2.4,7.8,5.6,12.1,8.8,13.1c3.3,1,12.3,1.8,14.6-6
		C248.5,78.7,246.5,73.1,243.9,69.4z M235.1,58.2c0.1-0.1,0.3-0.5,1.2-0.1c0.7,0.2,1.1,0.6,1.3,1.2c-0.2,0.3-0.4,0.6-0.6,1
		c-0.2,0.4-0.1,0.9,0.3,1.1c0.1,0,0.1,0.1,0.2,0.1c0.4,0.1,0.8,0,0.9-0.4c0.2-0.4,0.4-0.7,0.7-1c0.1,0,0.1-0.1,0.1-0.2
		c0.8-0.9,1.8-1.4,2.6-1.1c1,0.3,1.7,1.8,1.6,3.7c0,0.5,0.3,0.8,0.8,0.9c0.5,0,0.8-0.3,0.9-0.8c0-0.3,0-0.7,0-1
		c0.5-0.4,1.1-0.5,1.8-0.3c0.9,0.2,0.8,0.6,0.8,0.7c-0.1,1.3-2.9,3.7-5.7,4.1l-4.1-1.2C235.5,62.6,234.5,59.3,235.1,58.2z M233,87.6
		c-2.8-0.9-9.7-4.5-7.8-11c1.4-4.6,7.3-8.2,11.5-9.4l4.5,1.4c2.8,3.3,5.7,9.6,4.4,14.2C243.6,89.3,235.8,88.5,233,87.6z M238.1,77.8
		c-0.4-0.3-0.8-0.6-1.4-1c-0.3-0.2-0.9-0.6-1-0.6c-1-0.6-1.4-1.3-0.7-2c0,0,0.1-0.1,0.1-0.1c0.4-0.3,1.1-0.3,1.7-0.1
		c0,0,0.1,0,0.1,0c1,0.4,1.4,1,1.2,1.8l2,0.6c0.2-0.9,0.1-1.7-0.4-2.4c-0.3-0.4-0.9-0.8-1.5-1.1l0.4-1.3l-2-0.6l-0.5,1.6
		c-0.2,0-0.5-0.1-0.7-0.1c-0.2,0-0.5,0-0.7,0.1c-0.2,0-0.4,0.1-0.6,0.2c-1.3,0.5-1.8,1.8-1.7,3c0.1,0.4,0.2,0.7,0.4,1
		c0.2,0.3,0.5,0.6,0.8,0.8c0.1,0.1,0.2,0.1,0.2,0.2c0.1,0.1,0.2,0.1,0.2,0.2c0.9,0.9,3.9,1.6,2.6,3.3c-0.1,0.1-0.1,0.1-0.2,0.2
		c-0.1,0.1-0.2,0.1-0.3,0.1c-0.4,0.2-0.9,0.1-1.5,0c-1.4-0.4-1.9-1.2-1.6-2.3l-2-0.6c-0.2,1-0.1,1.9,0.4,2.7
		c0.4,0.5,0.9,0.9,1.6,1.3l-0.4,1.5l2,0.6l0.5-1.6c0,0,0,0,0,0c0.9,0.1,2,0.1,2.9-0.6c0.1-0.1,0.2-0.2,0.3-0.3
		c0.8-0.9,1.1-2.3,0.5-3.5C238.7,78.4,238.4,78.1,238.1,77.8L238.1,77.8z"/>
	<path id="cr-icono-otras_3_" class="st1" d="M166,86.9c-0.2,0.2-0.1,0.5,0.1,0.7s0.5,0.1,0.7-0.1c0.2-0.2,0.1-0.5-0.1-0.7
		S166.2,86.6,166,86.9z M164.7,84c-0.4-0.3-1.1-0.2-1.4,0.2c-0.3,0.4-0.2,1.1,0.2,1.4s1.1,0.2,1.4-0.2C165.2,85,165.2,84.4,164.7,84
		z M174.6,69.2c-0.3,0.4-0.2,1.1,0.2,1.4c0.4,0.3,1.1,0.2,1.4-0.2c0.3-0.4,0.2-1.1-0.2-1.4C175.6,68.7,175,68.8,174.6,69.2z
		 M167.9,84.4c-0.2,0.2-0.1,0.5,0.1,0.7s0.5,0.1,0.7-0.1c0.2-0.2,0.1-0.5-0.1-0.7C168.3,84.1,168,84.1,167.9,84.4z M163.9,54
		l-12.5,16.6c-1.2,1.6-0.9,3.8,0.7,5l0.9,0.7l-0.7,0.9c-1.2,1.6-0.9,3.8,0.7,5l10.8,8.2c1.6,1.2,4,0.9,5.2-0.7l12.2-16.1
		c1.2-1.6,0.9-4-0.7-5.2l-9.1-6.9l2.5-3.3l5.1,3.8c0.9,1.1,1.1,2.6,0.3,3.7c-0.2,0.3-0.2,0.7,0.1,0.9c0.3,0.2,0.7,0.2,0.9-0.1
		c1.3-1.7,0.9-4-0.7-5.3l-10.4-7.8C167.5,52,165.2,52.3,163.9,54z M180.1,72.4l-12.4,16.5c-0.8,1.1-2.4,1.3-3.5,0.5L154,81.6
		c-1.1-0.8-1.3-2.4-0.5-3.5l1-1.4c0,0,0.1,0,0.1-0.1s0-0.1,0.1-0.1L166,61.7c0.8-1.1,2.4-1.3,3.5-0.5l10.2,7.7
		C180.7,69.7,181,71.3,180.1,72.4z M170.2,55.2l-3.2,4.3c-0.9,0.1-1.8,0.6-2.4,1.4L153.9,75l-0.9-0.7c-1.1-0.8-1.3-2.4-0.5-3.5
		l12.4-16.5c0.8-1.1,2.4-1.3,3.5-0.5L170.2,55.2z M166.9,85.6c-0.2,0.2-0.1,0.5,0.1,0.7c0.2,0.2,0.5,0.1,0.7-0.1
		c0.2-0.2,0.1-0.5-0.1-0.7S167.1,85.4,166.9,85.6z M169.9,75.5c-0.3,0.4-0.2,1.1,0.2,1.4c0.4,0.3,1.1,0.2,1.4-0.2
		c0.3-0.4,0.2-1.1-0.2-1.4C170.9,75,170.3,75,169.9,75.5z M171.6,79.4c-0.2,0.2-0.1,0.5,0.1,0.7s0.5,0.1,0.7-0.1
		c0.2-0.2,0.1-0.5-0.1-0.7C172.1,79.1,171.8,79.2,171.6,79.4z M172.7,71.8c-0.3,0.4-0.2,1.1,0.2,1.4s1.1,0.2,1.4-0.2
		c0.3-0.4,0.2-1.1-0.2-1.4C173.7,71.2,173.1,71.3,172.7,71.8z M166.6,81.5c-0.4-0.3-1.1-0.2-1.4,0.2c-0.3,0.4-0.2,1.1,0.2,1.4
		c0.4,0.3,1.1,0.2,1.4-0.2C167.1,82.5,167,81.9,166.6,81.5z M168.8,83.1c-0.2,0.2-0.1,0.5,0.1,0.7s0.5,0.1,0.7-0.1
		c0.2-0.2,0.1-0.5-0.1-0.7S169,82.9,168.8,83.1z M169.4,77.8c-0.4-0.3-1.1-0.2-1.4,0.2c-0.3,0.4-0.2,1.1,0.2,1.4
		c0.4,0.3,1.1,0.2,1.4-0.2C169.9,78.7,169.9,78.1,169.4,77.8z M169.8,81.9c-0.2,0.2-0.1,0.5,0.1,0.7c0.2,0.2,0.5,0.1,0.7-0.1
		c0.2-0.2,0.1-0.5-0.1-0.7S169.9,81.7,169.8,81.9z M170.7,80.6c-0.2,0.2-0.1,0.5,0.1,0.7c0.2,0.2,0.5,0.1,0.7-0.1
		c0.2-0.2,0.1-0.5-0.1-0.7S170.9,80.4,170.7,80.6L170.7,80.6z"/>
	<path id="cr-icono-viajes_1_" class="st1" d="M110.8,57.3c-0.9-0.5-2.2,0.9-2.2,0.9s2.4-1.3,2.6,1.5
		C111.3,59.7,111.7,57.8,110.8,57.3z M114,85.6l0-3.2l0-0.1c0-0.1-0.1-0.3-0.2-0.4l-0.7-1.7l1.3-2.2c0.4-0.8,0.4-1.7-0.3-2.3
		c-0.8-0.8-2.1-0.6-2.7,0.2l-0.3-0.6l1.2-2.1c0.4-0.7,0.4-1.7-0.3-2.3c-0.8-0.8-2-0.7-2.7,0l-1-2.4l4.6-7.8c1.1-1.9,0.8-4.6-0.7-5.4
		l-0.1-0.1c-1.3-0.8-3.8,0-5,2.1l-4.4,7.9l-2.6,0.4c0.3-1-0.2-2-1.3-2.4c-0.8-0.2-1.7,0.2-2.1,0.9l-1.2,2.1l-0.7,0.1
		c0.4-1-0.1-2.1-1.2-2.4c-0.8-0.3-1.7,0.2-2.2,0.9L90.2,67l-1.8,0.3c-0.1,0-0.3,0-0.4,0.1l-2.9,1.6c-0.4,0.2-0.7,0.5-0.7,1
		c0,0.5,0.2,0.9,0.6,1.1l0.1,0.1l13.5,1.6l-2.2,3.9c0,0-0.1,0.2-0.2,0.5l-4.3,0.5c-0.3,0-0.7,0.2-0.9,0.5c-0.4,0.6-0.2,1.4,0.4,1.7
		l3.3,1.9c-0.2,1.1-0.1,2.1,0.5,2.4l0.2,0.1c0.6,0.3,1.5,0,2.4-0.7l3.5,2c0.3,0.2,0.7,0.2,1,0.1c0.7-0.2,1-1,0.7-1.6l-1.7-4
		c0.2-0.2,0.3-0.4,0.3-0.5l2.3-3.9l8.1,10.9l0.1,0c0.3,0.1,0.6,0.2,0.9,0.2C113.7,86.8,114,86.2,114,85.6z M97.8,64.7
		c0.2-0.3,0.5-0.4,0.7-0.2c0.3,0.2,0.3,0.5,0.2,0.7l-0.3,0.5l-1.4,0.2L97.8,64.7z M92.5,65.4c0.2-0.3,0.5-0.4,0.7-0.2
		c0.3,0.2,0.3,0.5,0.2,0.7l-0.4,0.6l-1.4,0.2L92.5,65.4z M88.7,70.2l-2.8-0.3l2.3-1.3l0,0l13.5-2l-1.4,2.4l-11.2,0.3L88.7,70.2z
		 M89.1,70.3l0.3-0.6l10.8-0.3l-1.2,2.1L89.1,70.3z M92.2,78.9l3.2-0.4c-0.2,0.6-0.4,1.2-0.6,1.9L92.2,78.9z M100.3,79
		c-0.4,0.7-1.9,2.3-3.1,3.3l2.1-3.7c0.2-0.3,0.1-0.7-0.2-0.9c-0.3-0.2-0.7-0.1-0.9,0.2l-2.5,4.3c0.2-1.5,1.1-4,1.6-4.9l10.8-19.4
		c0.9-1.5,2.6-2,3.2-1.6l0.1,0.1c0.6,0.4,1,2.2,0.2,3.6L100.3,79z M101.5,84.3l-2.7-1.6c0.5-0.5,1-1,1.4-1.5L101.5,84.3z
		 M112.1,76.7c0.2-0.3,0.5-0.4,0.7-0.2c0.3,0.2,0.3,0.5,0.2,0.7l-0.8,1.4l-0.5-1.3L112.1,76.7z M110.1,71.8c0.2-0.3,0.5-0.4,0.7-0.2
		c0.3,0.2,0.3,0.5,0.2,0.7l-0.7,1.3l-0.5-1.3L110.1,71.8z M110.6,82.8l-6.1-8.2l1.3-2.1l5.2,9.7L110.6,82.8z M110.8,83.1l0.5-0.9
		l-5.4-10l1.4-2.3l5,12.7l0,0l0,2.7L110.8,83.1L110.8,83.1z"/>
	<path id="cr-icono-supermercado_2_" class="st1" d="M40.2,70.4l-3-2.1l1.6-3.1l2.7,2.7L40.2,70.4z M26.4,77.6l3.5,1.2l-1.5,2.8
		l-3.8-1.1L26.4,77.6z M33.3,72.2l-2.8-1.4l2.2-3.7l2.3,1.7L33.3,72.2z M34.7,72.9l1.7-3.3l3,2.1L38,74.6L34.7,72.9z M30.6,77.5
		l-3.4-1.2l2.3-3.7l2.9,1.5L30.6,77.5z M32.1,78.1l1.7-3.3l3.2,1.7l-1.5,2.8L32.1,78.1z M33.5,83.1l-3.6-1l1.4-2.8l3.5,1.2
		L33.5,83.1z M37.6,64l-1.7,3.3l-2.2-1.6l2.2-3.6L37.6,64z M49.6,74.2c-0.3,0.3-0.8,0.5-1.3,0.4c-0.9-0.2-1.4-1.1-1.1-1.9l0.1-0.3
		c0.4-0.6,1.2-0.8,1.9-0.5C50.1,72.3,50.3,73.5,49.6,74.2z M43.6,85.3c-0.4,0.7-1.2,1-1.9,0.6c-0.7-0.4-1-1.2-0.6-1.9
		c0.4-0.7,1.2-1,1.9-0.6C43.7,83.7,44,84.6,43.6,85.3z M42.9,67.3l-6.8-6.9c-0.2-0.2-0.4-0.3-0.7-0.2c-0.3,0-0.5,0.2-0.6,0.4
		L22.9,79.9l-3.5-1c-0.4-0.1-0.8,0.1-1,0.4l-2.7,5.1c-0.2,0.4-0.1,0.9,0.3,1.1c0.4,0.2,0.9,0,1.1-0.3l2.3-4.4l14.3,4
		c0,0,0.3,0.1,0.3,0.1c2,0.6,3.6,0.6,5,0c0.2,0.9,0.7,1.8,1.6,2.3c1.5,0.8,3.4,0.2,4.2-1.3c0.8-1.5,0.2-3.4-1.3-4.2
		c-0.5-0.2-0.9-0.3-1.4-0.4l3.5-6.8c0.3,0.4,0.6,0.7,1,0.9c1.4,0.7,3.1,0.2,3.9-1.2c0.7-1.4,0.2-3.2-1.2-3.9
		c-1.4-0.7-3.1-0.2-3.9,1.2c0,0.1-0.1,0.2-0.1,0.3l-5.1,9.9c-0.7,1.4-1.9,2.7-5.1,1.9l8-15.3C43.2,67.9,43.2,67.5,42.9,67.3
		L42.9,67.3z"/>
</g>
</svg>
