<?xml version="1.0" encoding="utf-8"?>
<!-- Generator: Adobe Illustrator 19.1.0, SVG Export Plug-In . SVG Version: 6.00 Build 0)  -->
<svg version="1.1" id="Layer_1" xmlns="http://www.w3.org/2000/svg" xmlns:xlink="http://www.w3.org/1999/xlink" x="0px" y="0px"
	 width="40px" height="40px" viewBox="-379 621 40 40" style="enable-background:new -379 621 40 40;" xml:space="preserve">
<g>
	<rect x="-368.2" y="648" width="4.3" height="3.6"/>
	<rect x="-368.2" y="640.9" width="4.3" height="3.6"/>
	<rect x="-368.2" y="633.7" width="4.3" height="3.6"/>
	<rect x="-362.3" y="640.9" width="4.3" height="3.6"/>
	<rect x="-362.3" y="648" width="4.3" height="3.6"/>
	<rect x="-362.3" y="633.7" width="4.3" height="3.6"/>
	<polygon points="-351.4,658.5 -351.4,654.2 -351.4,654.2 -351.4,645.5 -355.7,645.5 -355.7,654.2 -370.4,654.2 -370.4,630.9 
		-356.2,630.9 -356.2,626.6 -374.7,626.6 -374.7,658.5 -355.7,658.5 -355.7,658.5 	"/>
	<path d="M-347.4,631.9c-1.8-0.8-2.5-1.3-2.5-2c0-0.6,0.6-1.2,1.9-1.2c0.8,0,1.2,0.2,1.3,0.4v0.3c0,0.9,0.7,1.5,1.5,1.5h0.3
		c0.9,0,1.5-0.7,1.5-1.5v-0.6c0-1.9-1.6-2.9-3.2-3.3V625c0-0.9-0.7-1.5-1.5-1.5h-0.3c-0.9,0-1.5,0.7-1.5,1.5v0.6
		c-2.1,0.6-3.5,2.3-3.5,4.3c0,3.1,2.6,4.3,4.4,5.1c1.8,0.8,2.6,1.3,2.6,2.2c0,0.9-0.7,1.5-1.8,1.5c-1.4,0-2.2-1-2.5-1.4
		c-0.2-0.4-0.6-0.6-1-0.7c-0.4-0.1-0.9,0-1.2,0.3l-0.3,0.2c-0.6,0.5-0.8,1.4-0.3,2.1c0.4,0.7,1.6,2.1,3.6,2.6v0.5
		c0,0.9,0.7,1.5,1.5,1.5h0.3c0.9,0,1.5-0.7,1.5-1.5V642c2.4-0.7,3.6-2.8,3.6-4.8C-342.8,634-345.5,632.8-347.4,631.9"/>
</g>
</svg>
