<?xml version="1.0" encoding="utf-8"?>
<!-- Generator: Adobe Illustrator 19.1.0, SVG Export Plug-In . SVG Version: 6.00 Build 0)  -->
<svg version="1.1" id="Layer_1" xmlns="http://www.w3.org/2000/svg" xmlns:xlink="http://www.w3.org/1999/xlink" x="0px" y="0px"
	 width="40px" height="40px" viewBox="0 0 40 40" enable-background="new 0 0 40 40" xml:space="preserve">
<g>
	<g>
		<path d="M27.4,37.5H10.8c-5.1,0-9.2-4-9.2-9V12.4c0-5,4.1-9,9.2-9H25c1,0,1.7,0.8,1.7,1.7S26,6.9,25,6.9H10.8
			c-3.1,0-5.7,2.5-5.7,5.5v16.1c0,3,2.5,5.5,5.7,5.5h16.6c3.1,0,5.7-2.5,5.7-5.5v-9.8c0-1,0.8-1.7,1.7-1.7s1.7,0.8,1.7,1.7v9.8
			C36.6,33.5,32.5,37.5,27.4,37.5z"/>
	</g>
	<g>
		<path d="M18.4,24.4c-0.4,0-0.9-0.2-1.2-0.5l-8.2-8c-0.7-0.7-0.7-1.8,0-2.5c0.7-0.7,1.8-0.7,2.5,0l7,6.8L35.5,3.4
			c0.7-0.7,1.8-0.7,2.5,0c0.7,0.7,0.7,1.8,0,2.5L19.6,23.9C19.2,24.2,18.8,24.4,18.4,24.4z"/>
	</g>
</g>
</svg>
